<?xml version="1.0" encoding="utf-8" standalone="no"?>
<!DOCTYPE svg PUBLIC "-//W3C//DTD SVG 1.1//EN"
  "http://www.w3.org/Graphics/SVG/1.1/DTD/svg11.dtd">
<svg xmlns:xlink="http://www.w3.org/1999/xlink" width="449.863304pt" height="346.83703pt" viewBox="0 0 449.863304 346.83703" xmlns="http://www.w3.org/2000/svg" version="1.1">
 <metadata>
  <rdf:RDF xmlns:dc="http://purl.org/dc/elements/1.1/" xmlns:cc="http://creativecommons.org/ns#" xmlns:rdf="http://www.w3.org/1999/02/22-rdf-syntax-ns#">
   <cc:Work>
    <dc:type rdf:resource="http://purl.org/dc/dcmitype/StillImage"/>
    <dc:date>2026-05-15T15:10:49.633713</dc:date>
    <dc:format>image/svg+xml</dc:format>
    <dc:creator>
     <cc:Agent>
      <dc:title>Matplotlib v3.10.9, https://matplotlib.org/</dc:title>
     </cc:Agent>
    </dc:creator>
   </cc:Work>
  </rdf:RDF>
 </metadata>
 <defs>
  <style type="text/css">*{stroke-linejoin: round; stroke-linecap: butt}</style>
 </defs>
 <g id="figure_1">
  <g id="patch_1">
   <path d="M 0 346.83703 
L 449.863304 346.83703 
L 449.863304 0 
L 0 0 
z
" style="fill: #ffffff"/>
  </g>
  <g id="axes_1">
   <g id="patch_2">
    <path d="M 46.31125 303.877342 
L 437.574788 303.877342 
L 437.574788 22.318125 
L 46.31125 22.318125 
z
" style="fill: #ffffff"/>
   </g>
   <g id="line2d_1">
    <path d="M 46.31125 303.877342 
L 437.574788 22.318125 
" clip-path="url(#p8a28408481)" style="fill: none; stroke: #b2b2b2; stroke-linecap: round"/>
   </g>
   <g id="matplotlib.axis_1">
    <g id="xtick_1">
     <g id="line2d_2">
      <defs>
       <path id="m4bbca2089d" d="M 0 0 
L 0 6 
" style="stroke: #262626; stroke-width: 1.25"/>
      </defs>
      <g>
       <use xlink:href="#m4bbca2089d" x="96.951832" y="303.877342" style="fill: #262626; stroke: #262626; stroke-width: 1.25"/>
      </g>
     </g>
     <g id="text_1">
      <!-- 5 -->
      <g style="fill: #262626" transform="translate(93.452457 321.735623) scale(0.11 -0.11)">
       <defs>
        <path id="DejaVuSans-35" d="M 691 4666 
L 3169 4666 
L 3169 4134 
L 1269 4134 
L 1269 2991 
Q 1406 3038 1543 3061 
Q 1681 3084 1819 3084 
Q 2600 3084 3056 2656 
Q 3513 2228 3513 1497 
Q 3513 744 3044 326 
Q 2575 -91 1722 -91 
Q 1428 -91 1123 -41 
Q 819 9 494 109 
L 494 744 
Q 775 591 1075 516 
Q 1375 441 1709 441 
Q 2250 441 2565 725 
Q 2881 1009 2881 1497 
Q 2881 1984 2565 2268 
Q 2250 2553 1709 2553 
Q 1456 2553 1204 2497 
Q 953 2441 691 2322 
L 691 4666 
z
" transform="scale(0.015625)"/>
       </defs>
       <use xlink:href="#DejaVuSans-35"/>
      </g>
     </g>
    </g>
    <g id="xtick_2">
     <g id="line2d_3">
      <g>
       <use xlink:href="#m4bbca2089d" x="181.630012" y="303.877342" style="fill: #262626; stroke: #262626; stroke-width: 1.25"/>
      </g>
     </g>
     <g id="text_2">
      <!-- 10 -->
      <g style="fill: #262626" transform="translate(174.631262 321.735623) scale(0.11 -0.11)">
       <defs>
        <path id="DejaVuSans-31" d="M 794 531 
L 1825 531 
L 1825 4091 
L 703 3866 
L 703 4441 
L 1819 4666 
L 2450 4666 
L 2450 531 
L 3481 531 
L 3481 0 
L 794 0 
L 794 531 
z
" transform="scale(0.015625)"/>
        <path id="DejaVuSans-30" d="M 2034 4250 
Q 1547 4250 1301 3770 
Q 1056 3291 1056 2328 
Q 1056 1369 1301 889 
Q 1547 409 2034 409 
Q 2525 409 2770 889 
Q 3016 1369 3016 2328 
Q 3016 3291 2770 3770 
Q 2525 4250 2034 4250 
z
M 2034 4750 
Q 2819 4750 3233 4129 
Q 3647 3509 3647 2328 
Q 3647 1150 3233 529 
Q 2819 -91 2034 -91 
Q 1250 -91 836 529 
Q 422 1150 422 2328 
Q 422 3509 836 4129 
Q 1250 4750 2034 4750 
z
" transform="scale(0.015625)"/>
       </defs>
       <use xlink:href="#DejaVuSans-31"/>
       <use xlink:href="#DejaVuSans-30" transform="translate(63.623047 0)"/>
      </g>
     </g>
    </g>
    <g id="xtick_3">
     <g id="line2d_4">
      <g>
       <use xlink:href="#m4bbca2089d" x="266.308193" y="303.877342" style="fill: #262626; stroke: #262626; stroke-width: 1.25"/>
      </g>
     </g>
     <g id="text_3">
      <!-- 15 -->
      <g style="fill: #262626" transform="translate(259.309443 321.735623) scale(0.11 -0.11)">
       <use xlink:href="#DejaVuSans-31"/>
       <use xlink:href="#DejaVuSans-35" transform="translate(63.623047 0)"/>
      </g>
     </g>
    </g>
    <g id="xtick_4">
     <g id="line2d_5">
      <g>
       <use xlink:href="#m4bbca2089d" x="350.986373" y="303.877342" style="fill: #262626; stroke: #262626; stroke-width: 1.25"/>
      </g>
     </g>
     <g id="text_4">
      <!-- 20 -->
      <g style="fill: #262626" transform="translate(343.987623 321.735623) scale(0.11 -0.11)">
       <defs>
        <path id="DejaVuSans-32" d="M 1228 531 
L 3431 531 
L 3431 0 
L 469 0 
L 469 531 
Q 828 903 1448 1529 
Q 2069 2156 2228 2338 
Q 2531 2678 2651 2914 
Q 2772 3150 2772 3378 
Q 2772 3750 2511 3984 
Q 2250 4219 1831 4219 
Q 1534 4219 1204 4116 
Q 875 4013 500 3803 
L 500 4441 
Q 881 4594 1212 4672 
Q 1544 4750 1819 4750 
Q 2544 4750 2975 4387 
Q 3406 4025 3406 3419 
Q 3406 3131 3298 2873 
Q 3191 2616 2906 2266 
Q 2828 2175 2409 1742 
Q 1991 1309 1228 531 
z
" transform="scale(0.015625)"/>
       </defs>
       <use xlink:href="#DejaVuSans-32"/>
       <use xlink:href="#DejaVuSans-30" transform="translate(63.623047 0)"/>
      </g>
     </g>
    </g>
    <g id="xtick_5">
     <g id="line2d_6">
      <g>
       <use xlink:href="#m4bbca2089d" x="435.664554" y="303.877342" style="fill: #262626; stroke: #262626; stroke-width: 1.25"/>
      </g>
     </g>
     <g id="text_5">
      <!-- 25 -->
      <g style="fill: #262626" transform="translate(428.665804 321.735623) scale(0.11 -0.11)">
       <use xlink:href="#DejaVuSans-32"/>
       <use xlink:href="#DejaVuSans-35" transform="translate(63.623047 0)"/>
      </g>
     </g>
    </g>
    <g id="text_6">
     <!-- Model quantiles -->
     <g style="fill: #262626" transform="translate(194.425832 337.141405) scale(0.12 -0.12)">
      <defs>
       <path id="DejaVuSans-4d" d="M 628 4666 
L 1569 4666 
L 2759 1491 
L 3956 4666 
L 4897 4666 
L 4897 0 
L 4281 0 
L 4281 4097 
L 3078 897 
L 2444 897 
L 1241 4097 
L 1241 0 
L 628 0 
L 628 4666 
z
" transform="scale(0.015625)"/>
       <path id="DejaVuSans-6f" d="M 1959 3097 
Q 1497 3097 1228 2736 
Q 959 2375 959 1747 
Q 959 1119 1226 758 
Q 1494 397 1959 397 
Q 2419 397 2687 759 
Q 2956 1122 2956 1747 
Q 2956 2369 2687 2733 
Q 2419 3097 1959 3097 
z
M 1959 3584 
Q 2709 3584 3137 3096 
Q 3566 2609 3566 1747 
Q 3566 888 3137 398 
Q 2709 -91 1959 -91 
Q 1206 -91 779 398 
Q 353 888 353 1747 
Q 353 2609 779 3096 
Q 1206 3584 1959 3584 
z
" transform="scale(0.015625)"/>
       <path id="DejaVuSans-64" d="M 2906 2969 
L 2906 4863 
L 3481 4863 
L 3481 0 
L 2906 0 
L 2906 525 
Q 2725 213 2448 61 
Q 2172 -91 1784 -91 
Q 1150 -91 751 415 
Q 353 922 353 1747 
Q 353 2572 751 3078 
Q 1150 3584 1784 3584 
Q 2172 3584 2448 3432 
Q 2725 3281 2906 2969 
z
M 947 1747 
Q 947 1113 1208 752 
Q 1469 391 1925 391 
Q 2381 391 2643 752 
Q 2906 1113 2906 1747 
Q 2906 2381 2643 2742 
Q 2381 3103 1925 3103 
Q 1469 3103 1208 2742 
Q 947 2381 947 1747 
z
" transform="scale(0.015625)"/>
       <path id="DejaVuSans-65" d="M 3597 1894 
L 3597 1613 
L 953 1613 
Q 991 1019 1311 708 
Q 1631 397 2203 397 
Q 2534 397 2845 478 
Q 3156 559 3463 722 
L 3463 178 
Q 3153 47 2828 -22 
Q 2503 -91 2169 -91 
Q 1331 -91 842 396 
Q 353 884 353 1716 
Q 353 2575 817 3079 
Q 1281 3584 2069 3584 
Q 2775 3584 3186 3129 
Q 3597 2675 3597 1894 
z
M 3022 2063 
Q 3016 2534 2758 2815 
Q 2500 3097 2075 3097 
Q 1594 3097 1305 2825 
Q 1016 2553 972 2059 
L 3022 2063 
z
" transform="scale(0.015625)"/>
       <path id="DejaVuSans-6c" d="M 603 4863 
L 1178 4863 
L 1178 0 
L 603 0 
L 603 4863 
z
" transform="scale(0.015625)"/>
       <path id="DejaVuSans-20" transform="scale(0.015625)"/>
       <path id="DejaVuSans-71" d="M 947 1747 
Q 947 1113 1208 752 
Q 1469 391 1925 391 
Q 2381 391 2643 752 
Q 2906 1113 2906 1747 
Q 2906 2381 2643 2742 
Q 2381 3103 1925 3103 
Q 1469 3103 1208 2742 
Q 947 2381 947 1747 
z
M 2906 525 
Q 2725 213 2448 61 
Q 2172 -91 1784 -91 
Q 1150 -91 751 415 
Q 353 922 353 1747 
Q 353 2572 751 3078 
Q 1150 3584 1784 3584 
Q 2172 3584 2448 3432 
Q 2725 3281 2906 2969 
L 2906 3500 
L 3481 3500 
L 3481 -1331 
L 2906 -1331 
L 2906 525 
z
" transform="scale(0.015625)"/>
       <path id="DejaVuSans-75" d="M 544 1381 
L 544 3500 
L 1119 3500 
L 1119 1403 
Q 1119 906 1312 657 
Q 1506 409 1894 409 
Q 2359 409 2629 706 
Q 2900 1003 2900 1516 
L 2900 3500 
L 3475 3500 
L 3475 0 
L 2900 0 
L 2900 538 
Q 2691 219 2414 64 
Q 2138 -91 1772 -91 
Q 1169 -91 856 284 
Q 544 659 544 1381 
z
M 1991 3584 
L 1991 3584 
z
" transform="scale(0.015625)"/>
       <path id="DejaVuSans-61" d="M 2194 1759 
Q 1497 1759 1228 1600 
Q 959 1441 959 1056 
Q 959 750 1161 570 
Q 1363 391 1709 391 
Q 2188 391 2477 730 
Q 2766 1069 2766 1631 
L 2766 1759 
L 2194 1759 
z
M 3341 1997 
L 3341 0 
L 2766 0 
L 2766 531 
Q 2569 213 2275 61 
Q 1981 -91 1556 -91 
Q 1019 -91 701 211 
Q 384 513 384 1019 
Q 384 1609 779 1909 
Q 1175 2209 1959 2209 
L 2766 2209 
L 2766 2266 
Q 2766 2663 2505 2880 
Q 2244 3097 1772 3097 
Q 1472 3097 1187 3025 
Q 903 2953 641 2809 
L 641 3341 
Q 956 3463 1253 3523 
Q 1550 3584 1831 3584 
Q 2591 3584 2966 3190 
Q 3341 2797 3341 1997 
z
" transform="scale(0.015625)"/>
       <path id="DejaVuSans-6e" d="M 3513 2113 
L 3513 0 
L 2938 0 
L 2938 2094 
Q 2938 2591 2744 2837 
Q 2550 3084 2163 3084 
Q 1697 3084 1428 2787 
Q 1159 2491 1159 1978 
L 1159 0 
L 581 0 
L 581 3500 
L 1159 3500 
L 1159 2956 
Q 1366 3272 1645 3428 
Q 1925 3584 2291 3584 
Q 2894 3584 3203 3211 
Q 3513 2838 3513 2113 
z
" transform="scale(0.015625)"/>
       <path id="DejaVuSans-74" d="M 1172 4494 
L 1172 3500 
L 2356 3500 
L 2356 3053 
L 1172 3053 
L 1172 1153 
Q 1172 725 1289 603 
Q 1406 481 1766 481 
L 2356 481 
L 2356 0 
L 1766 0 
Q 1100 0 847 248 
Q 594 497 594 1153 
L 594 3053 
L 172 3053 
L 172 3500 
L 594 3500 
L 594 4494 
L 1172 4494 
z
" transform="scale(0.015625)"/>
       <path id="DejaVuSans-69" d="M 603 3500 
L 1178 3500 
L 1178 0 
L 603 0 
L 603 3500 
z
M 603 4863 
L 1178 4863 
L 1178 4134 
L 603 4134 
L 603 4863 
z
" transform="scale(0.015625)"/>
       <path id="DejaVuSans-73" d="M 2834 3397 
L 2834 2853 
Q 2591 2978 2328 3040 
Q 2066 3103 1784 3103 
Q 1356 3103 1142 2972 
Q 928 2841 928 2578 
Q 928 2378 1081 2264 
Q 1234 2150 1697 2047 
L 1894 2003 
Q 2506 1872 2764 1633 
Q 3022 1394 3022 966 
Q 3022 478 2636 193 
Q 2250 -91 1575 -91 
Q 1294 -91 989 -36 
Q 684 19 347 128 
L 347 722 
Q 666 556 975 473 
Q 1284 391 1588 391 
Q 1994 391 2212 530 
Q 2431 669 2431 922 
Q 2431 1156 2273 1281 
Q 2116 1406 1581 1522 
L 1381 1569 
Q 847 1681 609 1914 
Q 372 2147 372 2553 
Q 372 3047 722 3315 
Q 1072 3584 1716 3584 
Q 2034 3584 2315 3537 
Q 2597 3491 2834 3397 
z
" transform="scale(0.015625)"/>
      </defs>
      <use xlink:href="#DejaVuSans-4d"/>
      <use xlink:href="#DejaVuSans-6f" transform="translate(86.279297 0)"/>
      <use xlink:href="#DejaVuSans-64" transform="translate(147.460938 0)"/>
      <use xlink:href="#DejaVuSans-65" transform="translate(210.9375 0)"/>
      <use xlink:href="#DejaVuSans-6c" transform="translate(272.460938 0)"/>
      <use xlink:href="#DejaVuSans-20" transform="translate(300.244141 0)"/>
      <use xlink:href="#DejaVuSans-71" transform="translate(332.03125 0)"/>
      <use xlink:href="#DejaVuSans-75" transform="translate(395.507812 0)"/>
      <use xlink:href="#DejaVuSans-61" transform="translate(458.886719 0)"/>
      <use xlink:href="#DejaVuSans-6e" transform="translate(520.166016 0)"/>
      <use xlink:href="#DejaVuSans-74" transform="translate(583.544922 0)"/>
      <use xlink:href="#DejaVuSans-69" transform="translate(622.753906 0)"/>
      <use xlink:href="#DejaVuSans-6c" transform="translate(650.537109 0)"/>
      <use xlink:href="#DejaVuSans-65" transform="translate(678.320312 0)"/>
      <use xlink:href="#DejaVuSans-73" transform="translate(739.84375 0)"/>
     </g>
    </g>
   </g>
   <g id="matplotlib.axis_2">
    <g id="ytick_1">
     <g id="line2d_7">
      <defs>
       <path id="me89b8012dc" d="M 0 0 
L -6 0 
" style="stroke: #262626; stroke-width: 1.25"/>
      </defs>
      <g>
       <use xlink:href="#me89b8012dc" x="46.31125" y="267.435606" style="fill: #262626; stroke: #262626; stroke-width: 1.25"/>
      </g>
     </g>
     <g id="text_7">
      <!-- 5 -->
      <g style="fill: #262626" transform="translate(29.8125 271.614747) scale(0.11 -0.11)">
       <use xlink:href="#DejaVuSans-35"/>
      </g>
     </g>
    </g>
    <g id="ytick_2">
     <g id="line2d_8">
      <g>
       <use xlink:href="#me89b8012dc" x="46.31125" y="206.499894" style="fill: #262626; stroke: #262626; stroke-width: 1.25"/>
      </g>
     </g>
     <g id="text_8">
      <!-- 10 -->
      <g style="fill: #262626" transform="translate(22.81375 210.679035) scale(0.11 -0.11)">
       <use xlink:href="#DejaVuSans-31"/>
       <use xlink:href="#DejaVuSans-30" transform="translate(63.623047 0)"/>
      </g>
     </g>
    </g>
    <g id="ytick_3">
     <g id="line2d_9">
      <g>
       <use xlink:href="#me89b8012dc" x="46.31125" y="145.564183" style="fill: #262626; stroke: #262626; stroke-width: 1.25"/>
      </g>
     </g>
     <g id="text_9">
      <!-- 15 -->
      <g style="fill: #262626" transform="translate(22.81375 149.743323) scale(0.11 -0.11)">
       <use xlink:href="#DejaVuSans-31"/>
       <use xlink:href="#DejaVuSans-35" transform="translate(63.623047 0)"/>
      </g>
     </g>
    </g>
    <g id="ytick_4">
     <g id="line2d_10">
      <g>
       <use xlink:href="#me89b8012dc" x="46.31125" y="84.628471" style="fill: #262626; stroke: #262626; stroke-width: 1.25"/>
      </g>
     </g>
     <g id="text_10">
      <!-- 20 -->
      <g style="fill: #262626" transform="translate(22.81375 88.807611) scale(0.11 -0.11)">
       <use xlink:href="#DejaVuSans-32"/>
       <use xlink:href="#DejaVuSans-30" transform="translate(63.623047 0)"/>
      </g>
     </g>
    </g>
    <g id="ytick_5">
     <g id="line2d_11">
      <g>
       <use xlink:href="#me89b8012dc" x="46.31125" y="23.692759" style="fill: #262626; stroke: #262626; stroke-width: 1.25"/>
      </g>
     </g>
     <g id="text_11">
      <!-- 25 -->
      <g style="fill: #262626" transform="translate(22.81375 27.8719) scale(0.11 -0.11)">
       <use xlink:href="#DejaVuSans-32"/>
       <use xlink:href="#DejaVuSans-35" transform="translate(63.623047 0)"/>
      </g>
     </g>
    </g>
    <g id="text_12">
     <!-- Sample quantiles -->
     <g style="fill: #262626" transform="translate(16.318125 215.097109) rotate(-90) scale(0.12 -0.12)">
      <defs>
       <path id="DejaVuSans-53" d="M 3425 4513 
L 3425 3897 
Q 3066 4069 2747 4153 
Q 2428 4238 2131 4238 
Q 1616 4238 1336 4038 
Q 1056 3838 1056 3469 
Q 1056 3159 1242 3001 
Q 1428 2844 1947 2747 
L 2328 2669 
Q 3034 2534 3370 2195 
Q 3706 1856 3706 1288 
Q 3706 609 3251 259 
Q 2797 -91 1919 -91 
Q 1588 -91 1214 -16 
Q 841 59 441 206 
L 441 856 
Q 825 641 1194 531 
Q 1563 422 1919 422 
Q 2459 422 2753 634 
Q 3047 847 3047 1241 
Q 3047 1584 2836 1778 
Q 2625 1972 2144 2069 
L 1759 2144 
Q 1053 2284 737 2584 
Q 422 2884 422 3419 
Q 422 4038 858 4394 
Q 1294 4750 2059 4750 
Q 2388 4750 2728 4690 
Q 3069 4631 3425 4513 
z
" transform="scale(0.015625)"/>
       <path id="DejaVuSans-6d" d="M 3328 2828 
Q 3544 3216 3844 3400 
Q 4144 3584 4550 3584 
Q 5097 3584 5394 3201 
Q 5691 2819 5691 2113 
L 5691 0 
L 5113 0 
L 5113 2094 
Q 5113 2597 4934 2840 
Q 4756 3084 4391 3084 
Q 3944 3084 3684 2787 
Q 3425 2491 3425 1978 
L 3425 0 
L 2847 0 
L 2847 2094 
Q 2847 2600 2669 2842 
Q 2491 3084 2119 3084 
Q 1678 3084 1418 2786 
Q 1159 2488 1159 1978 
L 1159 0 
L 581 0 
L 581 3500 
L 1159 3500 
L 1159 2956 
Q 1356 3278 1631 3431 
Q 1906 3584 2284 3584 
Q 2666 3584 2933 3390 
Q 3200 3197 3328 2828 
z
" transform="scale(0.015625)"/>
       <path id="DejaVuSans-70" d="M 1159 525 
L 1159 -1331 
L 581 -1331 
L 581 3500 
L 1159 3500 
L 1159 2969 
Q 1341 3281 1617 3432 
Q 1894 3584 2278 3584 
Q 2916 3584 3314 3078 
Q 3713 2572 3713 1747 
Q 3713 922 3314 415 
Q 2916 -91 2278 -91 
Q 1894 -91 1617 61 
Q 1341 213 1159 525 
z
M 3116 1747 
Q 3116 2381 2855 2742 
Q 2594 3103 2138 3103 
Q 1681 3103 1420 2742 
Q 1159 2381 1159 1747 
Q 1159 1113 1420 752 
Q 1681 391 2138 391 
Q 2594 391 2855 752 
Q 3116 1113 3116 1747 
z
" transform="scale(0.015625)"/>
      </defs>
      <use xlink:href="#DejaVuSans-53"/>
      <use xlink:href="#DejaVuSans-61" transform="translate(63.476562 0)"/>
      <use xlink:href="#DejaVuSans-6d" transform="translate(124.755859 0)"/>
      <use xlink:href="#DejaVuSans-70" transform="translate(222.167969 0)"/>
      <use xlink:href="#DejaVuSans-6c" transform="translate(285.644531 0)"/>
      <use xlink:href="#DejaVuSans-65" transform="translate(313.427734 0)"/>
      <use xlink:href="#DejaVuSans-20" transform="translate(374.951172 0)"/>
      <use xlink:href="#DejaVuSans-71" transform="translate(406.738281 0)"/>
      <use xlink:href="#DejaVuSans-75" transform="translate(470.214844 0)"/>
      <use xlink:href="#DejaVuSans-61" transform="translate(533.59375 0)"/>
      <use xlink:href="#DejaVuSans-6e" transform="translate(594.873047 0)"/>
      <use xlink:href="#DejaVuSans-74" transform="translate(658.251953 0)"/>
      <use xlink:href="#DejaVuSans-69" transform="translate(697.460938 0)"/>
      <use xlink:href="#DejaVuSans-6c" transform="translate(725.244141 0)"/>
      <use xlink:href="#DejaVuSans-65" transform="translate(753.027344 0)"/>
      <use xlink:href="#DejaVuSans-73" transform="translate(814.550781 0)"/>
     </g>
    </g>
   </g>
   <g id="patch_3">
    <path d="M 46.31125 303.877342 
L 46.31125 22.318125 
" style="fill: none; stroke: #262626; stroke-width: 1.25; stroke-linejoin: miter; stroke-linecap: square"/>
   </g>
   <g id="patch_4">
    <path d="M 437.574788 303.877342 
L 437.574788 22.318125 
" style="fill: none; stroke: #262626; stroke-width: 1.25; stroke-linejoin: miter; stroke-linecap: square"/>
   </g>
   <g id="patch_5">
    <path d="M 46.31125 303.877342 
L 437.574788 303.877342 
" style="fill: none; stroke: #262626; stroke-width: 1.25; stroke-linejoin: miter; stroke-linecap: square"/>
   </g>
   <g id="patch_6">
    <path d="M 46.31125 22.318125 
L 437.574788 22.318125 
" style="fill: none; stroke: #262626; stroke-width: 1.25; stroke-linejoin: miter; stroke-linecap: square"/>
   </g>
   <g id="text_13">
    <!-- Dirichlet process concentration -->
    <g style="fill: #262626" transform="translate(148.287707 16.318125) scale(0.12 -0.12)">
     <defs>
      <path id="DejaVuSans-44" d="M 1259 4147 
L 1259 519 
L 2022 519 
Q 2988 519 3436 956 
Q 3884 1394 3884 2338 
Q 3884 3275 3436 3711 
Q 2988 4147 2022 4147 
L 1259 4147 
z
M 628 4666 
L 1925 4666 
Q 3281 4666 3915 4102 
Q 4550 3538 4550 2338 
Q 4550 1131 3912 565 
Q 3275 0 1925 0 
L 628 0 
L 628 4666 
z
" transform="scale(0.015625)"/>
      <path id="DejaVuSans-72" d="M 2631 2963 
Q 2534 3019 2420 3045 
Q 2306 3072 2169 3072 
Q 1681 3072 1420 2755 
Q 1159 2438 1159 1844 
L 1159 0 
L 581 0 
L 581 3500 
L 1159 3500 
L 1159 2956 
Q 1341 3275 1631 3429 
Q 1922 3584 2338 3584 
Q 2397 3584 2469 3576 
Q 2541 3569 2628 3553 
L 2631 2963 
z
" transform="scale(0.015625)"/>
      <path id="DejaVuSans-63" d="M 3122 3366 
L 3122 2828 
Q 2878 2963 2633 3030 
Q 2388 3097 2138 3097 
Q 1578 3097 1268 2742 
Q 959 2388 959 1747 
Q 959 1106 1268 751 
Q 1578 397 2138 397 
Q 2388 397 2633 464 
Q 2878 531 3122 666 
L 3122 134 
Q 2881 22 2623 -34 
Q 2366 -91 2075 -91 
Q 1284 -91 818 406 
Q 353 903 353 1747 
Q 353 2603 823 3093 
Q 1294 3584 2113 3584 
Q 2378 3584 2631 3529 
Q 2884 3475 3122 3366 
z
" transform="scale(0.015625)"/>
      <path id="DejaVuSans-68" d="M 3513 2113 
L 3513 0 
L 2938 0 
L 2938 2094 
Q 2938 2591 2744 2837 
Q 2550 3084 2163 3084 
Q 1697 3084 1428 2787 
Q 1159 2491 1159 1978 
L 1159 0 
L 581 0 
L 581 4863 
L 1159 4863 
L 1159 2956 
Q 1366 3272 1645 3428 
Q 1925 3584 2291 3584 
Q 2894 3584 3203 3211 
Q 3513 2838 3513 2113 
z
" transform="scale(0.015625)"/>
     </defs>
     <use xlink:href="#DejaVuSans-44"/>
     <use xlink:href="#DejaVuSans-69" transform="translate(77.001953 0)"/>
     <use xlink:href="#DejaVuSans-72" transform="translate(104.785156 0)"/>
     <use xlink:href="#DejaVuSans-69" transform="translate(145.898438 0)"/>
     <use xlink:href="#DejaVuSans-63" transform="translate(173.681641 0)"/>
     <use xlink:href="#DejaVuSans-68" transform="translate(228.662109 0)"/>
     <use xlink:href="#DejaVuSans-6c" transform="translate(292.041016 0)"/>
     <use xlink:href="#DejaVuSans-65" transform="translate(319.824219 0)"/>
     <use xlink:href="#DejaVuSans-74" transform="translate(381.347656 0)"/>
     <use xlink:href="#DejaVuSans-20" transform="translate(420.556641 0)"/>
     <use xlink:href="#DejaVuSans-70" transform="translate(452.34375 0)"/>
     <use xlink:href="#DejaVuSans-72" transform="translate(515.820312 0)"/>
     <use xlink:href="#DejaVuSans-6f" transform="translate(554.683594 0)"/>
     <use xlink:href="#DejaVuSans-63" transform="translate(615.865234 0)"/>
     <use xlink:href="#DejaVuSans-65" transform="translate(670.845703 0)"/>
     <use xlink:href="#DejaVuSans-73" transform="translate(732.369141 0)"/>
     <use xlink:href="#DejaVuSans-73" transform="translate(784.46875 0)"/>
     <use xlink:href="#DejaVuSans-20" transform="translate(836.568359 0)"/>
     <use xlink:href="#DejaVuSans-63" transform="translate(868.355469 0)"/>
     <use xlink:href="#DejaVuSans-6f" transform="translate(923.335938 0)"/>
     <use xlink:href="#DejaVuSans-6e" transform="translate(984.517578 0)"/>
     <use xlink:href="#DejaVuSans-63" transform="translate(1047.896484 0)"/>
     <use xlink:href="#DejaVuSans-65" transform="translate(1102.876953 0)"/>
     <use xlink:href="#DejaVuSans-6e" transform="translate(1164.400391 0)"/>
     <use xlink:href="#DejaVuSans-74" transform="translate(1227.779297 0)"/>
     <use xlink:href="#DejaVuSans-72" transform="translate(1266.988281 0)"/>
     <use xlink:href="#DejaVuSans-61" transform="translate(1308.101562 0)"/>
     <use xlink:href="#DejaVuSans-74" transform="translate(1369.380859 0)"/>
     <use xlink:href="#DejaVuSans-69" transform="translate(1408.589844 0)"/>
     <use xlink:href="#DejaVuSans-6f" transform="translate(1436.373047 0)"/>
     <use xlink:href="#DejaVuSans-6e" transform="translate(1497.554688 0)"/>
    </g>
   </g>
   <g id="line2d_12">
    <defs>
     <path id="me54a992db6" d="M 0 3 
C 0.795609 3 1.55874 2.683901 2.12132 2.12132 
C 2.683901 1.55874 3 0.795609 3 0 
C 3 -0.795609 2.683901 -1.55874 2.12132 -2.12132 
C 1.55874 -2.683901 0.795609 -3 0 -3 
C -0.795609 -3 -1.55874 -2.683901 -2.12132 -2.12132 
C -2.683901 -1.55874 -3 -0.795609 -3 0 
C -3 0.795609 -2.683901 1.55874 -2.12132 2.12132 
C -1.55874 2.683901 -0.795609 3 0 3 
z
" style="stroke: #595959"/>
    </defs>
    <g clip-path="url(#p8a28408481)">
     <use xlink:href="#me54a992db6" x="47.129252" y="303.877342" style="fill-opacity: 0; stroke: #595959"/>
     <use xlink:href="#me54a992db6" x="55.300263" y="297.339958" style="fill-opacity: 0; stroke: #595959"/>
     <use xlink:href="#me54a992db6" x="61.176883" y="293.297366" style="fill-opacity: 0; stroke: #595959"/>
     <use xlink:href="#me54a992db6" x="65.973365" y="289.633512" style="fill-opacity: 0; stroke: #595959"/>
     <use xlink:href="#me54a992db6" x="70.122329" y="286.870486" style="fill-opacity: 0; stroke: #595959"/>
     <use xlink:href="#me54a992db6" x="73.833839" y="284.300246" style="fill-opacity: 0; stroke: #595959"/>
     <use xlink:href="#me54a992db6" x="77.227662" y="280.837584" style="fill-opacity: 0; stroke: #595959"/>
     <use xlink:href="#me54a992db6" x="80.379317" y="278.455098" style="fill-opacity: 0; stroke: #595959"/>
     <use xlink:href="#me54a992db6" x="83.339856" y="276.498855" style="fill-opacity: 0; stroke: #595959"/>
     <use xlink:href="#me54a992db6" x="86.145607" y="274.423802" style="fill-opacity: 0; stroke: #595959"/>
     <use xlink:href="#me54a992db6" x="88.823466" y="272.848359" style="fill-opacity: 0; stroke: #595959"/>
     <use xlink:href="#me54a992db6" x="91.393977" y="270.995991" style="fill-opacity: 0; stroke: #595959"/>
     <use xlink:href="#me54a992db6" x="93.873246" y="269.451321" style="fill-opacity: 0; stroke: #595959"/>
     <use xlink:href="#me54a992db6" x="96.274171" y="267.365015" style="fill-opacity: 0; stroke: #595959"/>
     <use xlink:href="#me54a992db6" x="98.607271" y="265.487879" style="fill-opacity: 0; stroke: #595959"/>
     <use xlink:href="#me54a992db6" x="100.881265" y="263.988378" style="fill-opacity: 0; stroke: #595959"/>
     <use xlink:href="#me54a992db6" x="103.103476" y="262.334976" style="fill-opacity: 0; stroke: #595959"/>
     <use xlink:href="#me54a992db6" x="105.280133" y="260.593098" style="fill-opacity: 0; stroke: #595959"/>
     <use xlink:href="#me54a992db6" x="107.416595" y="258.921308" style="fill-opacity: 0; stroke: #595959"/>
     <use xlink:href="#me54a992db6" x="109.517515" y="257.567853" style="fill-opacity: 0; stroke: #595959"/>
     <use xlink:href="#me54a992db6" x="111.586973" y="256.264394" style="fill-opacity: 0; stroke: #595959"/>
     <use xlink:href="#me54a992db6" x="113.628575" y="254.595654" style="fill-opacity: 0; stroke: #595959"/>
     <use xlink:href="#me54a992db6" x="115.645536" y="253.446463" style="fill-opacity: 0; stroke: #595959"/>
     <use xlink:href="#me54a992db6" x="117.640742" y="252.015395" style="fill-opacity: 0; stroke: #595959"/>
     <use xlink:href="#me54a992db6" x="119.616803" y="250.554539" style="fill-opacity: 0; stroke: #595959"/>
     <use xlink:href="#me54a992db6" x="121.576092" y="248.628112" style="fill-opacity: 0; stroke: #595959"/>
     <use xlink:href="#me54a992db6" x="123.520788" y="247.388348" style="fill-opacity: 0; stroke: #595959"/>
     <use xlink:href="#me54a992db6" x="125.452895" y="245.912192" style="fill-opacity: 0; stroke: #595959"/>
     <use xlink:href="#me54a992db6" x="127.374274" y="244.898537" style="fill-opacity: 0; stroke: #595959"/>
     <use xlink:href="#me54a992db6" x="129.286663" y="243.636098" style="fill-opacity: 0; stroke: #595959"/>
     <use xlink:href="#me54a992db6" x="131.191688" y="242.372999" style="fill-opacity: 0; stroke: #595959"/>
     <use xlink:href="#me54a992db6" x="133.090889" y="241.073467" style="fill-opacity: 0; stroke: #595959"/>
     <use xlink:href="#me54a992db6" x="134.985724" y="239.655095" style="fill-opacity: 0; stroke: #595959"/>
     <use xlink:href="#me54a992db6" x="136.877584" y="238.267231" style="fill-opacity: 0; stroke: #595959"/>
     <use xlink:href="#me54a992db6" x="138.767804" y="236.887245" style="fill-opacity: 0; stroke: #595959"/>
     <use xlink:href="#me54a992db6" x="140.657672" y="235.63656" style="fill-opacity: 0; stroke: #595959"/>
     <use xlink:href="#me54a992db6" x="142.548436" y="234.420703" style="fill-opacity: 0; stroke: #595959"/>
     <use xlink:href="#me54a992db6" x="144.441312" y="233.108104" style="fill-opacity: 0; stroke: #595959"/>
     <use xlink:href="#me54a992db6" x="146.337488" y="231.749156" style="fill-opacity: 0; stroke: #595959"/>
     <use xlink:href="#me54a992db6" x="148.238136" y="230.278259" style="fill-opacity: 0; stroke: #595959"/>
     <use xlink:href="#me54a992db6" x="150.144414" y="228.999074" style="fill-opacity: 0; stroke: #595959"/>
     <use xlink:href="#me54a992db6" x="152.057471" y="227.689033" style="fill-opacity: 0; stroke: #595959"/>
     <use xlink:href="#me54a992db6" x="153.978454" y="226.397155" style="fill-opacity: 0; stroke: #595959"/>
     <use xlink:href="#me54a992db6" x="155.908513" y="224.98431" style="fill-opacity: 0; stroke: #595959"/>
     <use xlink:href="#me54a992db6" x="157.848803" y="223.403879" style="fill-opacity: 0; stroke: #595959"/>
     <use xlink:href="#me54a992db6" x="159.800495" y="221.989601" style="fill-opacity: 0; stroke: #595959"/>
     <use xlink:href="#me54a992db6" x="161.764774" y="220.681812" style="fill-opacity: 0; stroke: #595959"/>
     <use xlink:href="#me54a992db6" x="163.742849" y="219.163472" style="fill-opacity: 0; stroke: #595959"/>
     <use xlink:href="#me54a992db6" x="165.735955" y="217.772407" style="fill-opacity: 0; stroke: #595959"/>
     <use xlink:href="#me54a992db6" x="167.745363" y="216.381088" style="fill-opacity: 0; stroke: #595959"/>
     <use xlink:href="#me54a992db6" x="169.772377" y="215.061064" style="fill-opacity: 0; stroke: #595959"/>
     <use xlink:href="#me54a992db6" x="171.818349" y="213.619999" style="fill-opacity: 0; stroke: #595959"/>
     <use xlink:href="#me54a992db6" x="173.884679" y="212.50508" style="fill-opacity: 0; stroke: #595959"/>
     <use xlink:href="#me54a992db6" x="175.972824" y="211.031648" style="fill-opacity: 0; stroke: #595959"/>
     <use xlink:href="#me54a992db6" x="178.084305" y="209.499437" style="fill-opacity: 0; stroke: #595959"/>
     <use xlink:href="#me54a992db6" x="180.220714" y="207.966641" style="fill-opacity: 0; stroke: #595959"/>
     <use xlink:href="#me54a992db6" x="182.383725" y="206.279652" style="fill-opacity: 0; stroke: #595959"/>
     <use xlink:href="#me54a992db6" x="184.575096" y="204.663354" style="fill-opacity: 0; stroke: #595959"/>
     <use xlink:href="#me54a992db6" x="186.79669" y="202.954071" style="fill-opacity: 0; stroke: #595959"/>
     <use xlink:href="#me54a992db6" x="189.050477" y="201.582673" style="fill-opacity: 0; stroke: #595959"/>
     <use xlink:href="#me54a992db6" x="191.33855" y="199.550689" style="fill-opacity: 0; stroke: #595959"/>
     <use xlink:href="#me54a992db6" x="193.663141" y="198.04512" style="fill-opacity: 0; stroke: #595959"/>
     <use xlink:href="#me54a992db6" x="196.026632" y="196.147977" style="fill-opacity: 0; stroke: #595959"/>
     <use xlink:href="#me54a992db6" x="198.431579" y="194.626262" style="fill-opacity: 0; stroke: #595959"/>
     <use xlink:href="#me54a992db6" x="200.880726" y="192.962753" style="fill-opacity: 0; stroke: #595959"/>
     <use xlink:href="#me54a992db6" x="203.377032" y="191.392011" style="fill-opacity: 0; stroke: #595959"/>
     <use xlink:href="#me54a992db6" x="205.923696" y="189.498587" style="fill-opacity: 0; stroke: #595959"/>
     <use xlink:href="#me54a992db6" x="208.524188" y="187.484254" style="fill-opacity: 0; stroke: #595959"/>
     <use xlink:href="#me54a992db6" x="211.182282" y="185.913008" style="fill-opacity: 0; stroke: #595959"/>
     <use xlink:href="#me54a992db6" x="213.902099" y="183.858216" style="fill-opacity: 0; stroke: #595959"/>
     <use xlink:href="#me54a992db6" x="216.688153" y="181.941929" style="fill-opacity: 0; stroke: #595959"/>
     <use xlink:href="#me54a992db6" x="219.545405" y="180.102119" style="fill-opacity: 0; stroke: #595959"/>
     <use xlink:href="#me54a992db6" x="222.479332" y="177.931741" style="fill-opacity: 0; stroke: #595959"/>
     <use xlink:href="#me54a992db6" x="225.496001" y="175.483327" style="fill-opacity: 0; stroke: #595959"/>
     <use xlink:href="#me54a992db6" x="228.602163" y="172.959778" style="fill-opacity: 0; stroke: #595959"/>
     <use xlink:href="#me54a992db6" x="231.805362" y="170.833273" style="fill-opacity: 0; stroke: #595959"/>
     <use xlink:href="#me54a992db6" x="235.114073" y="168.799915" style="fill-opacity: 0; stroke: #595959"/>
     <use xlink:href="#me54a992db6" x="238.537863" y="166.074832" style="fill-opacity: 0; stroke: #595959"/>
     <use xlink:href="#me54a992db6" x="242.087593" y="162.876896" style="fill-opacity: 0; stroke: #595959"/>
     <use xlink:href="#me54a992db6" x="245.77567" y="160.039675" style="fill-opacity: 0; stroke: #595959"/>
     <use xlink:href="#me54a992db6" x="249.616357" y="157.285565" style="fill-opacity: 0; stroke: #595959"/>
     <use xlink:href="#me54a992db6" x="253.626177" y="154.293688" style="fill-opacity: 0; stroke: #595959"/>
     <use xlink:href="#me54a992db6" x="257.824416" y="151.356973" style="fill-opacity: 0; stroke: #595959"/>
     <use xlink:href="#me54a992db6" x="262.233793" y="147.874513" style="fill-opacity: 0; stroke: #595959"/>
     <use xlink:href="#me54a992db6" x="266.881332" y="144.867332" style="fill-opacity: 0; stroke: #595959"/>
     <use xlink:href="#me54a992db6" x="271.799542" y="141.364212" style="fill-opacity: 0; stroke: #595959"/>
     <use xlink:href="#me54a992db6" x="277.02802" y="137.646571" style="fill-opacity: 0; stroke: #595959"/>
     <use xlink:href="#me54a992db6" x="282.615702" y="133.462006" style="fill-opacity: 0; stroke: #595959"/>
     <use xlink:href="#me54a992db6" x="288.624077" y="129.691764" style="fill-opacity: 0; stroke: #595959"/>
     <use xlink:href="#me54a992db6" x="295.131929" y="124.440618" style="fill-opacity: 0; stroke: #595959"/>
     <use xlink:href="#me54a992db6" x="302.242555" y="119.244187" style="fill-opacity: 0; stroke: #595959"/>
     <use xlink:href="#me54a992db6" x="310.095217" y="113.705849" style="fill-opacity: 0; stroke: #595959"/>
     <use xlink:href="#me54a992db6" x="318.884206" y="108.136047" style="fill-opacity: 0; stroke: #595959"/>
     <use xlink:href="#me54a992db6" x="328.892546" y="100.810269" style="fill-opacity: 0; stroke: #595959"/>
     <use xlink:href="#me54a992db6" x="340.556415" y="92.939358" style="fill-opacity: 0; stroke: #595959"/>
     <use xlink:href="#me54a992db6" x="354.601615" y="81.276741" style="fill-opacity: 0; stroke: #595959"/>
     <use xlink:href="#me54a992db6" x="372.378055" y="69.431773" style="fill-opacity: 0; stroke: #595959"/>
     <use xlink:href="#me54a992db6" x="396.886832" y="50.950577" style="fill-opacity: 0; stroke: #595959"/>
     <use xlink:href="#me54a992db6" x="437.574788" y="24.061679" style="fill-opacity: 0; stroke: #595959"/>
    </g>
   </g>
  </g>
 </g>
 <defs>
  <clipPath id="p8a28408481">
   <rect x="46.31125" y="22.318125" width="391.263538" height="281.559217"/>
  </clipPath>
 </defs>
</svg>
