<?xml version="1.0" encoding="utf-8" standalone="no"?>
<!DOCTYPE svg PUBLIC "-//W3C//DTD SVG 1.1//EN"
  "http://www.w3.org/Graphics/SVG/1.1/DTD/svg11.dtd">
<svg xmlns:xlink="http://www.w3.org/1999/xlink" width="450.037187pt" height="334.739687pt" viewBox="0 0 450.037187 334.739687" xmlns="http://www.w3.org/2000/svg" version="1.1">
 <metadata>
  <rdf:RDF xmlns:dc="http://purl.org/dc/elements/1.1/" xmlns:cc="http://creativecommons.org/ns#" xmlns:rdf="http://www.w3.org/1999/02/22-rdf-syntax-ns#">
   <cc:Work>
    <dc:type rdf:resource="http://purl.org/dc/dcmitype/StillImage"/>
    <dc:date>2026-05-15T15:10:49.491059</dc:date>
    <dc:format>image/svg+xml</dc:format>
    <dc:creator>
     <cc:Agent>
      <dc:title>Matplotlib v3.10.9, https://matplotlib.org/</dc:title>
     </cc:Agent>
    </dc:creator>
   </cc:Work>
  </rdf:RDF>
 </metadata>
 <defs>
  <style type="text/css">*{stroke-linejoin: round; stroke-linecap: butt}</style>
 </defs>
 <g id="figure_1">
  <g id="patch_1">
   <path d="M 0 334.739687 
L 450.037187 334.739687 
L 450.037187 0 
L 0 0 
z
" style="fill: #ffffff"/>
  </g>
  <g id="axes_1">
   <g id="patch_2">
    <path d="M 49.807188 291.78 
L 442.837188 291.78 
L 442.837188 7.2 
L 49.807188 7.2 
z
" style="fill: #ffffff"/>
   </g>
   <g id="matplotlib.axis_1">
    <g id="xtick_1">
     <g id="line2d_1">
      <defs>
       <path id="me45d3bcef7" d="M 0 0 
L 0 6 
" style="stroke: #262626; stroke-width: 1.25"/>
      </defs>
      <g>
       <use xlink:href="#me45d3bcef7" x="61.270398" y="291.78" style="fill: #262626; stroke: #262626; stroke-width: 1.25"/>
      </g>
     </g>
     <g id="text_1">
      <!-- 0 -->
      <g style="fill: #262626" transform="translate(57.771023 309.638281) scale(0.11 -0.11)">
       <defs>
        <path id="DejaVuSans-30" d="M 2034 4250 
Q 1547 4250 1301 3770 
Q 1056 3291 1056 2328 
Q 1056 1369 1301 889 
Q 1547 409 2034 409 
Q 2525 409 2770 889 
Q 3016 1369 3016 2328 
Q 3016 3291 2770 3770 
Q 2525 4250 2034 4250 
z
M 2034 4750 
Q 2819 4750 3233 4129 
Q 3647 3509 3647 2328 
Q 3647 1150 3233 529 
Q 2819 -91 2034 -91 
Q 1250 -91 836 529 
Q 422 1150 422 2328 
Q 422 3509 836 4129 
Q 1250 4750 2034 4750 
z
" transform="scale(0.015625)"/>
       </defs>
       <use xlink:href="#DejaVuSans-30"/>
      </g>
     </g>
    </g>
    <g id="xtick_2">
     <g id="line2d_2">
      <g>
       <use xlink:href="#me45d3bcef7" x="105.503939" y="291.78" style="fill: #262626; stroke: #262626; stroke-width: 1.25"/>
      </g>
     </g>
     <g id="text_2">
      <!-- 5 -->
      <g style="fill: #262626" transform="translate(102.004564 309.638281) scale(0.11 -0.11)">
       <defs>
        <path id="DejaVuSans-35" d="M 691 4666 
L 3169 4666 
L 3169 4134 
L 1269 4134 
L 1269 2991 
Q 1406 3038 1543 3061 
Q 1681 3084 1819 3084 
Q 2600 3084 3056 2656 
Q 3513 2228 3513 1497 
Q 3513 744 3044 326 
Q 2575 -91 1722 -91 
Q 1428 -91 1123 -41 
Q 819 9 494 109 
L 494 744 
Q 775 591 1075 516 
Q 1375 441 1709 441 
Q 2250 441 2565 725 
Q 2881 1009 2881 1497 
Q 2881 1984 2565 2268 
Q 2250 2553 1709 2553 
Q 1456 2553 1204 2497 
Q 953 2441 691 2322 
L 691 4666 
z
" transform="scale(0.015625)"/>
       </defs>
       <use xlink:href="#DejaVuSans-35"/>
      </g>
     </g>
    </g>
    <g id="xtick_3">
     <g id="line2d_3">
      <g>
       <use xlink:href="#me45d3bcef7" x="149.737479" y="291.78" style="fill: #262626; stroke: #262626; stroke-width: 1.25"/>
      </g>
     </g>
     <g id="text_3">
      <!-- 10 -->
      <g style="fill: #262626" transform="translate(142.738729 309.638281) scale(0.11 -0.11)">
       <defs>
        <path id="DejaVuSans-31" d="M 794 531 
L 1825 531 
L 1825 4091 
L 703 3866 
L 703 4441 
L 1819 4666 
L 2450 4666 
L 2450 531 
L 3481 531 
L 3481 0 
L 794 0 
L 794 531 
z
" transform="scale(0.015625)"/>
       </defs>
       <use xlink:href="#DejaVuSans-31"/>
       <use xlink:href="#DejaVuSans-30" transform="translate(63.623047 0)"/>
      </g>
     </g>
    </g>
    <g id="xtick_4">
     <g id="line2d_4">
      <g>
       <use xlink:href="#me45d3bcef7" x="193.971019" y="291.78" style="fill: #262626; stroke: #262626; stroke-width: 1.25"/>
      </g>
     </g>
     <g id="text_4">
      <!-- 15 -->
      <g style="fill: #262626" transform="translate(186.972269 309.638281) scale(0.11 -0.11)">
       <use xlink:href="#DejaVuSans-31"/>
       <use xlink:href="#DejaVuSans-35" transform="translate(63.623047 0)"/>
      </g>
     </g>
    </g>
    <g id="xtick_5">
     <g id="line2d_5">
      <g>
       <use xlink:href="#me45d3bcef7" x="238.20456" y="291.78" style="fill: #262626; stroke: #262626; stroke-width: 1.25"/>
      </g>
     </g>
     <g id="text_5">
      <!-- 20 -->
      <g style="fill: #262626" transform="translate(231.20581 309.638281) scale(0.11 -0.11)">
       <defs>
        <path id="DejaVuSans-32" d="M 1228 531 
L 3431 531 
L 3431 0 
L 469 0 
L 469 531 
Q 828 903 1448 1529 
Q 2069 2156 2228 2338 
Q 2531 2678 2651 2914 
Q 2772 3150 2772 3378 
Q 2772 3750 2511 3984 
Q 2250 4219 1831 4219 
Q 1534 4219 1204 4116 
Q 875 4013 500 3803 
L 500 4441 
Q 881 4594 1212 4672 
Q 1544 4750 1819 4750 
Q 2544 4750 2975 4387 
Q 3406 4025 3406 3419 
Q 3406 3131 3298 2873 
Q 3191 2616 2906 2266 
Q 2828 2175 2409 1742 
Q 1991 1309 1228 531 
z
" transform="scale(0.015625)"/>
       </defs>
       <use xlink:href="#DejaVuSans-32"/>
       <use xlink:href="#DejaVuSans-30" transform="translate(63.623047 0)"/>
      </g>
     </g>
    </g>
    <g id="xtick_6">
     <g id="line2d_6">
      <g>
       <use xlink:href="#me45d3bcef7" x="282.4381" y="291.78" style="fill: #262626; stroke: #262626; stroke-width: 1.25"/>
      </g>
     </g>
     <g id="text_6">
      <!-- 25 -->
      <g style="fill: #262626" transform="translate(275.43935 309.638281) scale(0.11 -0.11)">
       <use xlink:href="#DejaVuSans-32"/>
       <use xlink:href="#DejaVuSans-35" transform="translate(63.623047 0)"/>
      </g>
     </g>
    </g>
    <g id="xtick_7">
     <g id="line2d_7">
      <g>
       <use xlink:href="#me45d3bcef7" x="326.67164" y="291.78" style="fill: #262626; stroke: #262626; stroke-width: 1.25"/>
      </g>
     </g>
     <g id="text_7">
      <!-- 30 -->
      <g style="fill: #262626" transform="translate(319.67289 309.638281) scale(0.11 -0.11)">
       <defs>
        <path id="DejaVuSans-33" d="M 2597 2516 
Q 3050 2419 3304 2112 
Q 3559 1806 3559 1356 
Q 3559 666 3084 287 
Q 2609 -91 1734 -91 
Q 1441 -91 1130 -33 
Q 819 25 488 141 
L 488 750 
Q 750 597 1062 519 
Q 1375 441 1716 441 
Q 2309 441 2620 675 
Q 2931 909 2931 1356 
Q 2931 1769 2642 2001 
Q 2353 2234 1838 2234 
L 1294 2234 
L 1294 2753 
L 1863 2753 
Q 2328 2753 2575 2939 
Q 2822 3125 2822 3475 
Q 2822 3834 2567 4026 
Q 2313 4219 1838 4219 
Q 1578 4219 1281 4162 
Q 984 4106 628 3988 
L 628 4550 
Q 988 4650 1302 4700 
Q 1616 4750 1894 4750 
Q 2613 4750 3031 4423 
Q 3450 4097 3450 3541 
Q 3450 3153 3228 2886 
Q 3006 2619 2597 2516 
z
" transform="scale(0.015625)"/>
       </defs>
       <use xlink:href="#DejaVuSans-33"/>
       <use xlink:href="#DejaVuSans-30" transform="translate(63.623047 0)"/>
      </g>
     </g>
    </g>
    <g id="xtick_8">
     <g id="line2d_8">
      <g>
       <use xlink:href="#me45d3bcef7" x="370.905181" y="291.78" style="fill: #262626; stroke: #262626; stroke-width: 1.25"/>
      </g>
     </g>
     <g id="text_8">
      <!-- 35 -->
      <g style="fill: #262626" transform="translate(363.906431 309.638281) scale(0.11 -0.11)">
       <use xlink:href="#DejaVuSans-33"/>
       <use xlink:href="#DejaVuSans-35" transform="translate(63.623047 0)"/>
      </g>
     </g>
    </g>
    <g id="xtick_9">
     <g id="line2d_9">
      <g>
       <use xlink:href="#me45d3bcef7" x="415.138721" y="291.78" style="fill: #262626; stroke: #262626; stroke-width: 1.25"/>
      </g>
     </g>
     <g id="text_9">
      <!-- 40 -->
      <g style="fill: #262626" transform="translate(408.139971 309.638281) scale(0.11 -0.11)">
       <defs>
        <path id="DejaVuSans-34" d="M 2419 4116 
L 825 1625 
L 2419 1625 
L 2419 4116 
z
M 2253 4666 
L 3047 4666 
L 3047 1625 
L 3713 1625 
L 3713 1100 
L 3047 1100 
L 3047 0 
L 2419 0 
L 2419 1100 
L 313 1100 
L 313 1709 
L 2253 4666 
z
" transform="scale(0.015625)"/>
       </defs>
       <use xlink:href="#DejaVuSans-34"/>
       <use xlink:href="#DejaVuSans-30" transform="translate(63.623047 0)"/>
      </g>
     </g>
    </g>
    <g id="text_10">
     <!-- Dirichlet process concentration -->
     <g style="fill: #262626" transform="translate(152.666875 325.044062) scale(0.12 -0.12)">
      <defs>
       <path id="DejaVuSans-44" d="M 1259 4147 
L 1259 519 
L 2022 519 
Q 2988 519 3436 956 
Q 3884 1394 3884 2338 
Q 3884 3275 3436 3711 
Q 2988 4147 2022 4147 
L 1259 4147 
z
M 628 4666 
L 1925 4666 
Q 3281 4666 3915 4102 
Q 4550 3538 4550 2338 
Q 4550 1131 3912 565 
Q 3275 0 1925 0 
L 628 0 
L 628 4666 
z
" transform="scale(0.015625)"/>
       <path id="DejaVuSans-69" d="M 603 3500 
L 1178 3500 
L 1178 0 
L 603 0 
L 603 3500 
z
M 603 4863 
L 1178 4863 
L 1178 4134 
L 603 4134 
L 603 4863 
z
" transform="scale(0.015625)"/>
       <path id="DejaVuSans-72" d="M 2631 2963 
Q 2534 3019 2420 3045 
Q 2306 3072 2169 3072 
Q 1681 3072 1420 2755 
Q 1159 2438 1159 1844 
L 1159 0 
L 581 0 
L 581 3500 
L 1159 3500 
L 1159 2956 
Q 1341 3275 1631 3429 
Q 1922 3584 2338 3584 
Q 2397 3584 2469 3576 
Q 2541 3569 2628 3553 
L 2631 2963 
z
" transform="scale(0.015625)"/>
       <path id="DejaVuSans-63" d="M 3122 3366 
L 3122 2828 
Q 2878 2963 2633 3030 
Q 2388 3097 2138 3097 
Q 1578 3097 1268 2742 
Q 959 2388 959 1747 
Q 959 1106 1268 751 
Q 1578 397 2138 397 
Q 2388 397 2633 464 
Q 2878 531 3122 666 
L 3122 134 
Q 2881 22 2623 -34 
Q 2366 -91 2075 -91 
Q 1284 -91 818 406 
Q 353 903 353 1747 
Q 353 2603 823 3093 
Q 1294 3584 2113 3584 
Q 2378 3584 2631 3529 
Q 2884 3475 3122 3366 
z
" transform="scale(0.015625)"/>
       <path id="DejaVuSans-68" d="M 3513 2113 
L 3513 0 
L 2938 0 
L 2938 2094 
Q 2938 2591 2744 2837 
Q 2550 3084 2163 3084 
Q 1697 3084 1428 2787 
Q 1159 2491 1159 1978 
L 1159 0 
L 581 0 
L 581 4863 
L 1159 4863 
L 1159 2956 
Q 1366 3272 1645 3428 
Q 1925 3584 2291 3584 
Q 2894 3584 3203 3211 
Q 3513 2838 3513 2113 
z
" transform="scale(0.015625)"/>
       <path id="DejaVuSans-6c" d="M 603 4863 
L 1178 4863 
L 1178 0 
L 603 0 
L 603 4863 
z
" transform="scale(0.015625)"/>
       <path id="DejaVuSans-65" d="M 3597 1894 
L 3597 1613 
L 953 1613 
Q 991 1019 1311 708 
Q 1631 397 2203 397 
Q 2534 397 2845 478 
Q 3156 559 3463 722 
L 3463 178 
Q 3153 47 2828 -22 
Q 2503 -91 2169 -91 
Q 1331 -91 842 396 
Q 353 884 353 1716 
Q 353 2575 817 3079 
Q 1281 3584 2069 3584 
Q 2775 3584 3186 3129 
Q 3597 2675 3597 1894 
z
M 3022 2063 
Q 3016 2534 2758 2815 
Q 2500 3097 2075 3097 
Q 1594 3097 1305 2825 
Q 1016 2553 972 2059 
L 3022 2063 
z
" transform="scale(0.015625)"/>
       <path id="DejaVuSans-74" d="M 1172 4494 
L 1172 3500 
L 2356 3500 
L 2356 3053 
L 1172 3053 
L 1172 1153 
Q 1172 725 1289 603 
Q 1406 481 1766 481 
L 2356 481 
L 2356 0 
L 1766 0 
Q 1100 0 847 248 
Q 594 497 594 1153 
L 594 3053 
L 172 3053 
L 172 3500 
L 594 3500 
L 594 4494 
L 1172 4494 
z
" transform="scale(0.015625)"/>
       <path id="DejaVuSans-20" transform="scale(0.015625)"/>
       <path id="DejaVuSans-70" d="M 1159 525 
L 1159 -1331 
L 581 -1331 
L 581 3500 
L 1159 3500 
L 1159 2969 
Q 1341 3281 1617 3432 
Q 1894 3584 2278 3584 
Q 2916 3584 3314 3078 
Q 3713 2572 3713 1747 
Q 3713 922 3314 415 
Q 2916 -91 2278 -91 
Q 1894 -91 1617 61 
Q 1341 213 1159 525 
z
M 3116 1747 
Q 3116 2381 2855 2742 
Q 2594 3103 2138 3103 
Q 1681 3103 1420 2742 
Q 1159 2381 1159 1747 
Q 1159 1113 1420 752 
Q 1681 391 2138 391 
Q 2594 391 2855 752 
Q 3116 1113 3116 1747 
z
" transform="scale(0.015625)"/>
       <path id="DejaVuSans-6f" d="M 1959 3097 
Q 1497 3097 1228 2736 
Q 959 2375 959 1747 
Q 959 1119 1226 758 
Q 1494 397 1959 397 
Q 2419 397 2687 759 
Q 2956 1122 2956 1747 
Q 2956 2369 2687 2733 
Q 2419 3097 1959 3097 
z
M 1959 3584 
Q 2709 3584 3137 3096 
Q 3566 2609 3566 1747 
Q 3566 888 3137 398 
Q 2709 -91 1959 -91 
Q 1206 -91 779 398 
Q 353 888 353 1747 
Q 353 2609 779 3096 
Q 1206 3584 1959 3584 
z
" transform="scale(0.015625)"/>
       <path id="DejaVuSans-73" d="M 2834 3397 
L 2834 2853 
Q 2591 2978 2328 3040 
Q 2066 3103 1784 3103 
Q 1356 3103 1142 2972 
Q 928 2841 928 2578 
Q 928 2378 1081 2264 
Q 1234 2150 1697 2047 
L 1894 2003 
Q 2506 1872 2764 1633 
Q 3022 1394 3022 966 
Q 3022 478 2636 193 
Q 2250 -91 1575 -91 
Q 1294 -91 989 -36 
Q 684 19 347 128 
L 347 722 
Q 666 556 975 473 
Q 1284 391 1588 391 
Q 1994 391 2212 530 
Q 2431 669 2431 922 
Q 2431 1156 2273 1281 
Q 2116 1406 1581 1522 
L 1381 1569 
Q 847 1681 609 1914 
Q 372 2147 372 2553 
Q 372 3047 722 3315 
Q 1072 3584 1716 3584 
Q 2034 3584 2315 3537 
Q 2597 3491 2834 3397 
z
" transform="scale(0.015625)"/>
       <path id="DejaVuSans-6e" d="M 3513 2113 
L 3513 0 
L 2938 0 
L 2938 2094 
Q 2938 2591 2744 2837 
Q 2550 3084 2163 3084 
Q 1697 3084 1428 2787 
Q 1159 2491 1159 1978 
L 1159 0 
L 581 0 
L 581 3500 
L 1159 3500 
L 1159 2956 
Q 1366 3272 1645 3428 
Q 1925 3584 2291 3584 
Q 2894 3584 3203 3211 
Q 3513 2838 3513 2113 
z
" transform="scale(0.015625)"/>
       <path id="DejaVuSans-61" d="M 2194 1759 
Q 1497 1759 1228 1600 
Q 959 1441 959 1056 
Q 959 750 1161 570 
Q 1363 391 1709 391 
Q 2188 391 2477 730 
Q 2766 1069 2766 1631 
L 2766 1759 
L 2194 1759 
z
M 3341 1997 
L 3341 0 
L 2766 0 
L 2766 531 
Q 2569 213 2275 61 
Q 1981 -91 1556 -91 
Q 1019 -91 701 211 
Q 384 513 384 1019 
Q 384 1609 779 1909 
Q 1175 2209 1959 2209 
L 2766 2209 
L 2766 2266 
Q 2766 2663 2505 2880 
Q 2244 3097 1772 3097 
Q 1472 3097 1187 3025 
Q 903 2953 641 2809 
L 641 3341 
Q 956 3463 1253 3523 
Q 1550 3584 1831 3584 
Q 2591 3584 2966 3190 
Q 3341 2797 3341 1997 
z
" transform="scale(0.015625)"/>
      </defs>
      <use xlink:href="#DejaVuSans-44"/>
      <use xlink:href="#DejaVuSans-69" transform="translate(77.001953 0)"/>
      <use xlink:href="#DejaVuSans-72" transform="translate(104.785156 0)"/>
      <use xlink:href="#DejaVuSans-69" transform="translate(145.898438 0)"/>
      <use xlink:href="#DejaVuSans-63" transform="translate(173.681641 0)"/>
      <use xlink:href="#DejaVuSans-68" transform="translate(228.662109 0)"/>
      <use xlink:href="#DejaVuSans-6c" transform="translate(292.041016 0)"/>
      <use xlink:href="#DejaVuSans-65" transform="translate(319.824219 0)"/>
      <use xlink:href="#DejaVuSans-74" transform="translate(381.347656 0)"/>
      <use xlink:href="#DejaVuSans-20" transform="translate(420.556641 0)"/>
      <use xlink:href="#DejaVuSans-70" transform="translate(452.34375 0)"/>
      <use xlink:href="#DejaVuSans-72" transform="translate(515.820312 0)"/>
      <use xlink:href="#DejaVuSans-6f" transform="translate(554.683594 0)"/>
      <use xlink:href="#DejaVuSans-63" transform="translate(615.865234 0)"/>
      <use xlink:href="#DejaVuSans-65" transform="translate(670.845703 0)"/>
      <use xlink:href="#DejaVuSans-73" transform="translate(732.369141 0)"/>
      <use xlink:href="#DejaVuSans-73" transform="translate(784.46875 0)"/>
      <use xlink:href="#DejaVuSans-20" transform="translate(836.568359 0)"/>
      <use xlink:href="#DejaVuSans-63" transform="translate(868.355469 0)"/>
      <use xlink:href="#DejaVuSans-6f" transform="translate(923.335938 0)"/>
      <use xlink:href="#DejaVuSans-6e" transform="translate(984.517578 0)"/>
      <use xlink:href="#DejaVuSans-63" transform="translate(1047.896484 0)"/>
      <use xlink:href="#DejaVuSans-65" transform="translate(1102.876953 0)"/>
      <use xlink:href="#DejaVuSans-6e" transform="translate(1164.400391 0)"/>
      <use xlink:href="#DejaVuSans-74" transform="translate(1227.779297 0)"/>
      <use xlink:href="#DejaVuSans-72" transform="translate(1266.988281 0)"/>
      <use xlink:href="#DejaVuSans-61" transform="translate(1308.101562 0)"/>
      <use xlink:href="#DejaVuSans-74" transform="translate(1369.380859 0)"/>
      <use xlink:href="#DejaVuSans-69" transform="translate(1408.589844 0)"/>
      <use xlink:href="#DejaVuSans-6f" transform="translate(1436.373047 0)"/>
      <use xlink:href="#DejaVuSans-6e" transform="translate(1497.554688 0)"/>
     </g>
    </g>
   </g>
   <g id="matplotlib.axis_2">
    <g id="ytick_1">
     <g id="line2d_10">
      <defs>
       <path id="mb9b98b05ec" d="M 0 0 
L -6 0 
" style="stroke: #262626; stroke-width: 1.25"/>
      </defs>
      <g>
       <use xlink:href="#mb9b98b05ec" x="49.807188" y="278.844545" style="fill: #262626; stroke: #262626; stroke-width: 1.25"/>
      </g>
     </g>
     <g id="text_11">
      <!-- 0.0 -->
      <g style="fill: #262626" transform="translate(22.81375 283.023686) scale(0.11 -0.11)">
       <defs>
        <path id="DejaVuSans-2e" d="M 684 794 
L 1344 794 
L 1344 0 
L 684 0 
L 684 794 
z
" transform="scale(0.015625)"/>
       </defs>
       <use xlink:href="#DejaVuSans-30"/>
       <use xlink:href="#DejaVuSans-2e" transform="translate(63.623047 0)"/>
       <use xlink:href="#DejaVuSans-30" transform="translate(95.410156 0)"/>
      </g>
     </g>
    </g>
    <g id="ytick_2">
     <g id="line2d_11">
      <g>
       <use xlink:href="#mb9b98b05ec" x="49.807188" y="227.097553" style="fill: #262626; stroke: #262626; stroke-width: 1.25"/>
      </g>
     </g>
     <g id="text_12">
      <!-- 0.2 -->
      <g style="fill: #262626" transform="translate(22.81375 231.276693) scale(0.11 -0.11)">
       <use xlink:href="#DejaVuSans-30"/>
       <use xlink:href="#DejaVuSans-2e" transform="translate(63.623047 0)"/>
       <use xlink:href="#DejaVuSans-32" transform="translate(95.410156 0)"/>
      </g>
     </g>
    </g>
    <g id="ytick_3">
     <g id="line2d_12">
      <g>
       <use xlink:href="#mb9b98b05ec" x="49.807188" y="175.35056" style="fill: #262626; stroke: #262626; stroke-width: 1.25"/>
      </g>
     </g>
     <g id="text_13">
      <!-- 0.4 -->
      <g style="fill: #262626" transform="translate(22.81375 179.5297) scale(0.11 -0.11)">
       <use xlink:href="#DejaVuSans-30"/>
       <use xlink:href="#DejaVuSans-2e" transform="translate(63.623047 0)"/>
       <use xlink:href="#DejaVuSans-34" transform="translate(95.410156 0)"/>
      </g>
     </g>
    </g>
    <g id="ytick_4">
     <g id="line2d_13">
      <g>
       <use xlink:href="#mb9b98b05ec" x="49.807188" y="123.603567" style="fill: #262626; stroke: #262626; stroke-width: 1.25"/>
      </g>
     </g>
     <g id="text_14">
      <!-- 0.6 -->
      <g style="fill: #262626" transform="translate(22.81375 127.782707) scale(0.11 -0.11)">
       <defs>
        <path id="DejaVuSans-36" d="M 2113 2584 
Q 1688 2584 1439 2293 
Q 1191 2003 1191 1497 
Q 1191 994 1439 701 
Q 1688 409 2113 409 
Q 2538 409 2786 701 
Q 3034 994 3034 1497 
Q 3034 2003 2786 2293 
Q 2538 2584 2113 2584 
z
M 3366 4563 
L 3366 3988 
Q 3128 4100 2886 4159 
Q 2644 4219 2406 4219 
Q 1781 4219 1451 3797 
Q 1122 3375 1075 2522 
Q 1259 2794 1537 2939 
Q 1816 3084 2150 3084 
Q 2853 3084 3261 2657 
Q 3669 2231 3669 1497 
Q 3669 778 3244 343 
Q 2819 -91 2113 -91 
Q 1303 -91 875 529 
Q 447 1150 447 2328 
Q 447 3434 972 4092 
Q 1497 4750 2381 4750 
Q 2619 4750 2861 4703 
Q 3103 4656 3366 4563 
z
" transform="scale(0.015625)"/>
       </defs>
       <use xlink:href="#DejaVuSans-30"/>
       <use xlink:href="#DejaVuSans-2e" transform="translate(63.623047 0)"/>
       <use xlink:href="#DejaVuSans-36" transform="translate(95.410156 0)"/>
      </g>
     </g>
    </g>
    <g id="ytick_5">
     <g id="line2d_14">
      <g>
       <use xlink:href="#mb9b98b05ec" x="49.807188" y="71.856574" style="fill: #262626; stroke: #262626; stroke-width: 1.25"/>
      </g>
     </g>
     <g id="text_15">
      <!-- 0.8 -->
      <g style="fill: #262626" transform="translate(22.81375 76.035715) scale(0.11 -0.11)">
       <defs>
        <path id="DejaVuSans-38" d="M 2034 2216 
Q 1584 2216 1326 1975 
Q 1069 1734 1069 1313 
Q 1069 891 1326 650 
Q 1584 409 2034 409 
Q 2484 409 2743 651 
Q 3003 894 3003 1313 
Q 3003 1734 2745 1975 
Q 2488 2216 2034 2216 
z
M 1403 2484 
Q 997 2584 770 2862 
Q 544 3141 544 3541 
Q 544 4100 942 4425 
Q 1341 4750 2034 4750 
Q 2731 4750 3128 4425 
Q 3525 4100 3525 3541 
Q 3525 3141 3298 2862 
Q 3072 2584 2669 2484 
Q 3125 2378 3379 2068 
Q 3634 1759 3634 1313 
Q 3634 634 3220 271 
Q 2806 -91 2034 -91 
Q 1263 -91 848 271 
Q 434 634 434 1313 
Q 434 1759 690 2068 
Q 947 2378 1403 2484 
z
M 1172 3481 
Q 1172 3119 1398 2916 
Q 1625 2713 2034 2713 
Q 2441 2713 2670 2916 
Q 2900 3119 2900 3481 
Q 2900 3844 2670 4047 
Q 2441 4250 2034 4250 
Q 1625 4250 1398 4047 
Q 1172 3844 1172 3481 
z
" transform="scale(0.015625)"/>
       </defs>
       <use xlink:href="#DejaVuSans-30"/>
       <use xlink:href="#DejaVuSans-2e" transform="translate(63.623047 0)"/>
       <use xlink:href="#DejaVuSans-38" transform="translate(95.410156 0)"/>
      </g>
     </g>
    </g>
    <g id="ytick_6">
     <g id="line2d_15">
      <g>
       <use xlink:href="#mb9b98b05ec" x="49.807188" y="20.109581" style="fill: #262626; stroke: #262626; stroke-width: 1.25"/>
      </g>
     </g>
     <g id="text_16">
      <!-- 1.0 -->
      <g style="fill: #262626" transform="translate(22.81375 24.288722) scale(0.11 -0.11)">
       <use xlink:href="#DejaVuSans-31"/>
       <use xlink:href="#DejaVuSans-2e" transform="translate(63.623047 0)"/>
       <use xlink:href="#DejaVuSans-30" transform="translate(95.410156 0)"/>
      </g>
     </g>
    </g>
    <g id="text_17">
     <!-- Cumulative density -->
     <g style="fill: #262626" transform="translate(16.318125 207.64125) rotate(-90) scale(0.12 -0.12)">
      <defs>
       <path id="DejaVuSans-43" d="M 4122 4306 
L 4122 3641 
Q 3803 3938 3442 4084 
Q 3081 4231 2675 4231 
Q 1875 4231 1450 3742 
Q 1025 3253 1025 2328 
Q 1025 1406 1450 917 
Q 1875 428 2675 428 
Q 3081 428 3442 575 
Q 3803 722 4122 1019 
L 4122 359 
Q 3791 134 3420 21 
Q 3050 -91 2638 -91 
Q 1578 -91 968 557 
Q 359 1206 359 2328 
Q 359 3453 968 4101 
Q 1578 4750 2638 4750 
Q 3056 4750 3426 4639 
Q 3797 4528 4122 4306 
z
" transform="scale(0.015625)"/>
       <path id="DejaVuSans-75" d="M 544 1381 
L 544 3500 
L 1119 3500 
L 1119 1403 
Q 1119 906 1312 657 
Q 1506 409 1894 409 
Q 2359 409 2629 706 
Q 2900 1003 2900 1516 
L 2900 3500 
L 3475 3500 
L 3475 0 
L 2900 0 
L 2900 538 
Q 2691 219 2414 64 
Q 2138 -91 1772 -91 
Q 1169 -91 856 284 
Q 544 659 544 1381 
z
M 1991 3584 
L 1991 3584 
z
" transform="scale(0.015625)"/>
       <path id="DejaVuSans-6d" d="M 3328 2828 
Q 3544 3216 3844 3400 
Q 4144 3584 4550 3584 
Q 5097 3584 5394 3201 
Q 5691 2819 5691 2113 
L 5691 0 
L 5113 0 
L 5113 2094 
Q 5113 2597 4934 2840 
Q 4756 3084 4391 3084 
Q 3944 3084 3684 2787 
Q 3425 2491 3425 1978 
L 3425 0 
L 2847 0 
L 2847 2094 
Q 2847 2600 2669 2842 
Q 2491 3084 2119 3084 
Q 1678 3084 1418 2786 
Q 1159 2488 1159 1978 
L 1159 0 
L 581 0 
L 581 3500 
L 1159 3500 
L 1159 2956 
Q 1356 3278 1631 3431 
Q 1906 3584 2284 3584 
Q 2666 3584 2933 3390 
Q 3200 3197 3328 2828 
z
" transform="scale(0.015625)"/>
       <path id="DejaVuSans-76" d="M 191 3500 
L 800 3500 
L 1894 563 
L 2988 3500 
L 3597 3500 
L 2284 0 
L 1503 0 
L 191 3500 
z
" transform="scale(0.015625)"/>
       <path id="DejaVuSans-64" d="M 2906 2969 
L 2906 4863 
L 3481 4863 
L 3481 0 
L 2906 0 
L 2906 525 
Q 2725 213 2448 61 
Q 2172 -91 1784 -91 
Q 1150 -91 751 415 
Q 353 922 353 1747 
Q 353 2572 751 3078 
Q 1150 3584 1784 3584 
Q 2172 3584 2448 3432 
Q 2725 3281 2906 2969 
z
M 947 1747 
Q 947 1113 1208 752 
Q 1469 391 1925 391 
Q 2381 391 2643 752 
Q 2906 1113 2906 1747 
Q 2906 2381 2643 2742 
Q 2381 3103 1925 3103 
Q 1469 3103 1208 2742 
Q 947 2381 947 1747 
z
" transform="scale(0.015625)"/>
       <path id="DejaVuSans-79" d="M 2059 -325 
Q 1816 -950 1584 -1140 
Q 1353 -1331 966 -1331 
L 506 -1331 
L 506 -850 
L 844 -850 
Q 1081 -850 1212 -737 
Q 1344 -625 1503 -206 
L 1606 56 
L 191 3500 
L 800 3500 
L 1894 763 
L 2988 3500 
L 3597 3500 
L 2059 -325 
z
" transform="scale(0.015625)"/>
      </defs>
      <use xlink:href="#DejaVuSans-43"/>
      <use xlink:href="#DejaVuSans-75" transform="translate(69.824219 0)"/>
      <use xlink:href="#DejaVuSans-6d" transform="translate(133.203125 0)"/>
      <use xlink:href="#DejaVuSans-75" transform="translate(230.615234 0)"/>
      <use xlink:href="#DejaVuSans-6c" transform="translate(293.994141 0)"/>
      <use xlink:href="#DejaVuSans-61" transform="translate(321.777344 0)"/>
      <use xlink:href="#DejaVuSans-74" transform="translate(383.056641 0)"/>
      <use xlink:href="#DejaVuSans-69" transform="translate(422.265625 0)"/>
      <use xlink:href="#DejaVuSans-76" transform="translate(450.048828 0)"/>
      <use xlink:href="#DejaVuSans-65" transform="translate(509.228516 0)"/>
      <use xlink:href="#DejaVuSans-20" transform="translate(570.751953 0)"/>
      <use xlink:href="#DejaVuSans-64" transform="translate(602.539062 0)"/>
      <use xlink:href="#DejaVuSans-65" transform="translate(666.015625 0)"/>
      <use xlink:href="#DejaVuSans-6e" transform="translate(727.539062 0)"/>
      <use xlink:href="#DejaVuSans-73" transform="translate(790.917969 0)"/>
      <use xlink:href="#DejaVuSans-69" transform="translate(843.017578 0)"/>
      <use xlink:href="#DejaVuSans-74" transform="translate(870.800781 0)"/>
      <use xlink:href="#DejaVuSans-79" transform="translate(910.009766 0)"/>
     </g>
    </g>
   </g>
   <g id="FillBetweenPolyCollection_1"/>
   <g id="FillBetweenPolyCollection_2"/>
   <g id="line2d_16">
    <path d="M 67.672188 278.844545 
L 72.261366 278.58581 
L 72.358181 278.534063 
L 73.88934 278.145961 
L 74.723265 277.99072 
L 74.875868 277.938973 
L 75.531144 277.757859 
L 77.606577 276.95578 
L 77.623575 276.904033 
L 78.275824 276.671172 
L 78.846054 276.43831 
L 78.968619 276.36069 
L 79.24009 276.231322 
L 79.630652 276.050208 
L 79.823479 275.817346 
L 80.642329 275.480991 
L 81.002223 275.299876 
L 81.21803 275.196382 
L 81.657699 274.989394 
L 81.979912 274.80828 
L 82.724636 274.471925 
L 82.839703 274.342557 
L 83.216973 274.083822 
L 83.648337 273.747467 
L 83.932575 273.540479 
L 84.03268 273.385238 
L 84.532233 272.971262 
L 87.504865 270.409786 
L 87.759692 270.176924 
L 88.160899 269.711201 
L 88.408547 269.504213 
L 88.486298 269.426593 
L 88.682443 269.193731 
L 89.054581 268.805629 
L 89.280539 268.624514 
L 89.590723 268.288159 
L 89.758607 268.107044 
L 90.002977 267.770689 
L 90.310898 267.486081 
L 90.778406 266.787496 
L 91.70584 265.493821 
L 91.88025 265.312707 
L 92.123112 264.950478 
L 92.349163 264.665869 
L 92.544282 264.381261 
L 92.708168 264.22602 
L 92.892096 263.915538 
L 94.109885 262.59599 
L 94.342535 262.466622 
L 94.944065 261.793911 
L 95.102168 261.612797 
L 95.244241 261.431682 
L 96.729812 259.361803 
L 96.877718 259.180688 
L 97.10823 258.89608 
L 98.790426 255.765387 
L 98.905625 255.610146 
L 99.408231 254.704573 
L 99.585623 254.549332 
L 99.736945 254.187103 
L 99.937274 253.980115 
L 100.111219 253.669633 
L 100.896877 252.01373 
L 101.040262 251.780868 
L 101.113191 251.625627 
L 101.734294 249.969723 
L 101.868982 249.788609 
L 102.160452 249.090025 
L 102.243815 248.934784 
L 103.132638 247.27888 
L 103.344088 246.606169 
L 103.44645 246.450928 
L 103.582111 246.140446 
L 103.776722 245.881711 
L 103.952552 245.467735 
L 104.026286 245.260747 
L 104.110489 245.027886 
L 104.266168 244.898518 
L 104.736611 243.837705 
L 104.924561 243.65659 
L 105.002202 243.501349 
L 105.304533 242.906259 
L 105.46379 242.751018 
L 105.742576 242.285295 
L 105.809563 242.078307 
L 106.081116 241.50909 
L 106.541416 240.655265 
L 106.83956 240.111921 
L 106.935595 239.930807 
L 107.457728 238.688879 
L 107.608195 238.481891 
L 107.748135 238.042042 
L 107.935253 237.576319 
L 108.053652 237.21409 
L 108.179827 236.77424 
L 108.584118 235.946288 
L 108.736956 235.713427 
L 108.87649 235.299451 
L 108.933213 235.195957 
L 109.137796 235.040716 
L 109.216655 234.807855 
L 109.467681 234.161017 
L 109.675642 233.695294 
L 109.899017 233.255445 
L 110.187837 232.789722 
L 110.322685 232.634481 
L 110.462311 232.298125 
L 110.869041 231.573667 
L 110.980443 231.263186 
L 111.112385 230.771589 
L 111.306896 230.461107 
L 111.428366 230.254119 
L 113.175479 225.67451 
L 113.357159 225.260534 
L 113.511259 224.820685 
L 113.654953 224.380835 
L 113.820663 223.992733 
L 115.022179 221.250142 
L 115.172876 220.706799 
L 115.283384 220.26695 
L 115.48608 219.723606 
L 116.041492 218.429931 
L 116.14541 217.964208 
L 116.830823 216.463546 
L 116.950003 216.230684 
L 117.846852 214.005563 
L 117.954682 213.746828 
L 118.059253 213.591587 
L 119.10141 211.728696 
L 119.207101 211.444087 
L 120.702335 207.588936 
L 120.802351 207.278454 
L 120.919298 206.916225 
L 121.332439 205.700171 
L 121.798941 204.070141 
L 121.886845 203.707912 
L 121.983672 203.423303 
L 122.10128 203.268062 
L 122.208926 202.87996 
L 122.314829 202.569478 
L 122.51433 202.052008 
L 125.682481 193.41026 
L 125.772493 193.255019 
L 125.879727 193.022158 
L 126.078463 192.582308 
L 126.251207 191.883724 
L 126.377518 191.599115 
L 126.528986 191.34038 
L 126.731976 190.693543 
L 127.213282 189.373995 
L 127.372228 189.063513 
L 127.517552 188.649537 
L 127.940146 187.640471 
L 128.191215 186.709025 
L 128.326124 186.45029 
L 128.757457 185.234235 
L 128.89996 184.768512 
L 129.161241 184.044054 
L 129.59827 182.672759 
L 129.730017 182.517518 
L 130.027098 181.508452 
L 130.116354 181.27559 
L 130.299443 180.783994 
L 130.417188 180.551132 
L 130.875243 179.464446 
L 130.955848 179.283331 
L 131.211669 178.455379 
L 131.331082 178.067277 
L 131.438219 177.886162 
L 131.50203 177.679174 
L 131.60607 177.446313 
L 132.080374 176.333753 
L 132.205535 176.049144 
L 132.503883 175.298813 
L 132.622185 174.91071 
L 132.708662 174.729596 
L 132.931617 174.160379 
L 134.081615 170.874445 
L 134.186775 170.641583 
L 134.287824 170.279354 
L 134.416748 170.072366 
L 134.527111 169.736011 
L 135.041052 168.183601 
L 135.246855 167.743752 
L 135.449715 167.174535 
L 135.582475 166.967547 
L 135.708047 166.579444 
L 135.824879 166.165468 
L 135.976665 165.88086 
L 136.084136 165.570378 
L 136.208968 165.259896 
L 136.57245 164.354324 
L 137.009507 163.319384 
L 137.176372 163.112396 
L 137.346536 162.646673 
L 137.450784 162.465558 
L 137.602305 161.999836 
L 137.809178 161.637607 
L 139.541021 157.006251 
L 139.759417 156.644022 
L 139.859499 156.307666 
L 139.985771 156.074805 
L 140.466539 154.884624 
L 140.534251 154.70351 
L 140.636603 154.444775 
L 141.381666 152.426642 
L 141.558129 152.038539 
L 141.723768 151.702184 
L 142.981385 148.49387 
L 143.045385 148.261009 
L 143.150798 148.028147 
L 143.249857 147.795286 
L 143.476187 146.993208 
L 143.671851 146.449864 
L 143.999547 145.699533 
L 144.075979 145.518418 
L 144.237605 145.182063 
L 144.371063 144.975075 
L 144.571058 144.302364 
L 144.906547 143.293298 
L 145.176712 142.491219 
L 145.236781 142.335978 
L 145.37703 141.766761 
L 145.489209 141.482153 
L 145.695109 140.964683 
L 145.808852 140.783568 
L 145.901308 140.57658 
L 146.162623 140.007364 
L 146.269454 139.619261 
L 146.341158 139.438147 
L 146.539066 139.024171 
L 146.645136 138.739562 
L 146.78781 138.403207 
L 146.918295 138.247966 
L 147.427204 136.928417 
L 147.544441 136.592062 
L 147.829288 135.841731 
L 147.964712 135.660616 
L 150.544134 129.864953 
L 150.690095 129.606218 
L 150.820114 129.450977 
L 153.0415 124.302151 
L 153.126282 124.06929 
L 153.220857 123.888175 
L 153.364979 123.474199 
L 153.433173 123.241338 
L 153.538842 123.060223 
L 153.64572 122.879109 
L 153.894355 122.5945 
L 153.991429 122.413386 
L 154.105137 122.128778 
L 154.662884 121.197332 
L 154.780308 121.042091 
L 154.950957 120.628115 
L 155.154944 120.136518 
L 155.275334 119.826036 
L 155.713774 118.972211 
L 155.848055 118.635855 
L 156.142873 117.963145 
L 156.266787 117.78203 
L 156.514877 117.031699 
L 156.733911 116.617723 
L 156.882867 116.255494 
L 157.147842 115.996759 
L 157.352357 115.608656 
L 157.526972 115.142933 
L 157.621208 114.884199 
L 157.776424 114.59959 
L 157.842309 114.444349 
L 157.948948 114.185614 
L 158.235227 113.512903 
L 158.36579 113.254168 
L 158.500456 112.943686 
L 159.199364 111.365403 
L 159.348116 111.029048 
L 160.173638 109.34727 
L 160.319215 108.933294 
L 160.383126 108.726306 
L 160.906845 107.613746 
L 161.179171 107.018656 
L 161.359517 106.734047 
L 161.563389 106.397692 
L 162.005307 105.621487 
L 162.092298 105.492119 
L 162.179789 105.336878 
L 164.575288 100.627902 
L 164.709223 100.2398 
L 165.122548 99.437721 
L 165.246418 99.20486 
L 165.340605 99.049619 
L 165.795918 98.325161 
L 165.905548 98.014679 
L 166.323195 97.548956 
L 166.491531 97.160853 
L 166.590831 97.005612 
L 166.739382 96.61751 
L 166.9363 96.203534 
L 167.049685 95.944799 
L 167.22492 95.711938 
L 167.997347 94.237148 
L 169.07362 92.244889 
L 169.405504 91.986154 
L 169.639825 91.468684 
L 169.751216 91.261696 
L 169.974907 90.7701 
L 170.212578 90.433744 
L 175.076881 83.240912 
L 175.243325 82.956304 
L 175.443856 82.490581 
L 175.554524 82.387087 
L 175.651591 82.154226 
L 175.77268 81.947238 
L 175.887772 81.766123 
L 176.413012 80.938171 
L 176.544195 80.653563 
L 176.799538 80.161966 
L 176.888853 79.980852 
L 177.033018 79.74799 
L 177.140655 79.618623 
L 177.490323 79.204647 
L 177.617174 79.075279 
L 177.913544 78.55781 
L 178.199956 78.066213 
L 178.404544 77.910972 
L 178.845899 77.315882 
L 178.966462 77.108894 
L 179.825202 76.255068 
L 180.109651 76.073954 
L 180.398823 75.711725 
L 180.51533 75.504737 
L 180.707859 75.375369 
L 181.300705 74.625038 
L 181.459758 74.314556 
L 181.978599 73.512478 
L 182.387198 73.176122 
L 182.495278 72.995008 
L 182.82157 72.684526 
L 183.21137 72.34817 
L 183.334691 72.115309 
L 183.676815 71.675459 
L 183.767795 71.442598 
L 183.872011 71.261484 
L 184.328447 70.692267 
L 184.5334 70.278291 
L 184.960061 69.890188 
L 185.070057 69.760821 
L 185.356077 69.450339 
L 185.448591 69.295098 
L 185.647597 69.113983 
L 186.370817 68.286031 
L 186.635016 67.897929 
L 186.744745 67.768561 
L 187.972395 66.293772 
L 188.235794 66.138531 
L 190.175057 63.680549 
L 190.960815 62.904344 
L 191.129749 62.697356 
L 191.253852 62.490368 
L 191.59231 61.972898 
L 191.88976 61.817657 
L 192.313499 61.507175 
L 195.197636 58.143621 
L 195.789734 57.755518 
L 195.910646 57.600277 
L 196.123417 57.393289 
L 196.466737 57.082807 
L 196.958077 56.384223 
L 197.094491 56.203109 
L 197.506346 55.9185 
L 197.624816 55.763259 
L 197.762805 55.633892 
L 198.306463 55.142295 
L 199.086287 54.417837 
L 199.226627 54.28847 
L 199.387011 54.055608 
L 200.648937 52.891301 
L 201.024778 52.529072 
L 201.421828 52.296211 
L 201.763859 51.933982 
L 202.101636 51.70112 
L 202.379766 51.545879 
L 202.728453 51.18365 
L 202.997437 51.054283 
L 203.286421 50.769674 
L 203.479231 50.58856 
L 203.851725 50.329825 
L 205.105202 49.03615 
L 205.133547 48.95853 
L 205.267505 48.829162 
L 205.40807 48.699795 
L 205.837632 48.363439 
L 206.025605 48.234072 
L 206.104585 48.156451 
L 207.598728 47.250879 
L 207.884838 47.121511 
L 208.811173 46.319433 
L 209.226304 46.164192 
L 209.341445 45.957204 
L 209.67061 45.77609 
L 210.063343 45.620849 
L 210.412495 45.413861 
L 210.619034 45.25862 
L 210.813111 45.025758 
L 211.00688 44.870517 
L 211.076824 44.74115 
L 211.495743 44.560035 
L 211.594185 44.482415 
L 211.963371 44.146059 
L 212.212159 43.990818 
L 212.505646 43.809704 
L 212.779754 43.628589 
L 213.257486 43.18874 
L 213.753954 43.033499 
L 214.597164 42.257294 
L 214.78857 42.127927 
L 214.902372 41.998559 
L 215.195785 41.843318 
L 215.367716 41.63633 
L 215.950542 41.429342 
L 216.738489 40.937746 
L 217.453517 40.704884 
L 218.480214 39.876932 
L 218.595442 39.695818 
L 219.002594 39.411209 
L 219.132182 39.307715 
L 220.094434 38.97136 
L 220.253869 38.738498 
L 220.589711 38.583258 
L 221.550367 38.014041 
L 221.977712 37.8588 
L 222.687931 37.600065 
L 222.77595 37.522444 
L 223.099911 37.393077 
L 223.259147 37.186089 
L 223.696645 37.030848 
L 223.762889 36.979101 
L 224.558998 36.565125 
L 224.883885 36.435757 
L 225.031073 36.358137 
L 225.211596 36.228769 
L 225.33092 36.125275 
L 225.924327 35.944161 
L 226.247669 35.685426 
L 226.746624 35.530185 
L 228.585159 34.702233 
L 228.842383 34.572866 
L 228.856586 34.546992 
L 229.408406 34.417625 
L 229.712832 34.15889 
L 230.07114 34.029522 
L 230.253312 33.926028 
L 230.861118 33.667293 
L 231.26915 33.512052 
L 231.349002 33.434432 
L 232.786278 32.813468 
L 232.790735 32.761721 
L 233.583711 32.528859 
L 233.698415 32.451239 
L 233.972212 32.244251 
L 234.291714 32.140757 
L 235.899237 31.933769 
L 236.001348 31.882022 
L 236.890157 31.597413 
L 237.492151 31.390425 
L 238.022475 31.235185 
L 238.373575 31.105817 
L 239.371557 30.847082 
L 242.32546 30.096751 
L 244.064556 29.50166 
L 244.620782 29.346419 
L 245.420946 29.113558 
L 246.022063 28.958317 
L 247.223223 28.647835 
L 248.072989 28.440847 
L 248.887522 28.000997 
L 250.116207 27.716389 
L 250.26767 27.612895 
L 254.396513 26.914311 
L 254.611165 26.83669 
L 255.766406 26.681449 
L 256.177713 26.577955 
L 259.203225 26.112232 
L 259.492812 26.008738 
L 260.930271 25.672383 
L 261.03282 25.594762 
L 261.887958 25.413648 
L 263.882089 25.154913 
L 264.137205 25.025545 
L 266.211145 24.715063 
L 266.225982 24.68919 
L 268.791678 24.24934 
L 269.083913 24.17172 
L 271.148531 24.016479 
L 273.275907 23.705997 
L 273.340465 23.65425 
L 277.434507 23.240274 
L 280.337886 22.852172 
L 283.526652 22.696931 
L 283.824243 22.61931 
L 289.161187 22.386449 
L 289.249409 22.360575 
L 292.883927 22.153587 
L 296.164048 21.894852 
L 302.144016 21.377382 
L 307.051676 21.222141 
L 309.887835 21.015153 
L 316.111146 20.782292 
L 316.292494 20.756418 
L 334.295911 20.342443 
L 424.972188 20.135455 
L 424.972188 20.135455 
" clip-path="url(#p7b9c9ed704)" style="fill: none; stroke: #0173b2; stroke-width: 1.5; stroke-linecap: round"/>
   </g>
   <g id="line2d_17">
    <path d="M 70.748594 278.58581 
L 73.570981 278.180685 
L 76.393369 277.471922 
L 79.215757 276.380482 
L 82.038144 274.840887 
L 84.860532 272.803702 
L 87.68292 270.236261 
L 90.505307 267.122201 
L 93.327695 263.460195 
L 96.150083 259.26223 
L 98.972471 254.551625 
L 101.794858 249.360982 
L 104.617246 243.730166 
L 107.439634 237.704412 
L 110.262021 231.332588 
L 113.084409 224.665658 
L 115.906797 217.755343 
L 118.729184 210.652993 
L 121.551572 203.408651 
L 124.37396 196.070308 
L 127.196348 188.683317 
L 130.018735 181.289969 
L 132.841123 173.92919 
L 135.663511 166.636358 
L 138.485898 159.443218 
L 141.308286 152.377877 
L 144.130674 145.464857 
L 146.953061 138.725216 
L 149.775449 132.176695 
L 152.597837 125.833901 
L 155.420224 119.708516 
L 158.242612 113.809513 
L 161.065 108.143381 
L 163.887388 102.714357 
L 166.709775 97.524649 
L 169.532163 92.574656 
L 172.354551 87.863183 
L 175.176938 83.387643 
L 177.999326 79.144246 
L 180.821714 75.128179 
L 183.644101 71.333768 
L 186.466489 67.754633 
L 189.288877 64.383825 
L 192.111265 61.213949 
L 194.933652 58.237278 
L 197.75604 55.445856 
L 200.578428 52.831582 
L 203.400815 50.386289 
L 206.223203 48.101815 
L 209.045591 45.970059 
L 211.867978 43.98303 
L 214.690366 42.132891 
L 217.512754 40.411993 
L 220.335141 38.812902 
L 223.157529 37.328427 
L 225.979917 35.95163 
L 228.802305 34.675845 
L 231.624692 33.494685 
L 234.44708 32.402048 
L 237.269468 31.392116 
L 240.091855 30.459363 
L 242.914243 29.598543 
L 245.736631 28.804695 
L 248.559018 28.073129 
L 251.381406 27.399426 
L 254.203794 26.779425 
L 257.026182 26.209218 
L 259.848569 25.685137 
L 262.670957 25.203746 
L 265.493345 24.761834 
L 268.315732 24.356397 
L 271.13812 23.984635 
L 273.960508 23.643939 
L 276.782895 23.33188 
L 279.605283 23.0462 
L 282.427671 22.784802 
L 285.250059 22.54574 
L 288.072446 22.327212 
L 290.894834 22.127547 
L 293.717222 21.9452 
L 296.539609 21.778746 
L 299.361997 21.626864 
L 302.184385 21.488338 
L 305.006772 21.362046 
L 307.82916 21.246955 
L 310.651548 21.142112 
L 313.473935 21.046643 
L 316.296323 20.959743 
L 319.118711 20.880671 
L 321.941099 20.808749 
L 324.763486 20.743353 
L 327.585874 20.683912 
L 330.408262 20.629903 
L 333.230649 20.580844 
L 336.053037 20.536297 
L 338.875425 20.49586 
L 341.697812 20.459166 
L 344.5202 20.425877 
L 347.342588 20.395687 
L 350.164976 20.368316 
" clip-path="url(#p7b9c9ed704)" style="fill: none; stroke: #de8f05; stroke-width: 1.5; stroke-linecap: round"/>
   </g>
   <g id="patch_3">
    <path d="M 49.807188 291.78 
L 49.807188 7.2 
" style="fill: none; stroke: #262626; stroke-width: 1.25; stroke-linejoin: miter; stroke-linecap: square"/>
   </g>
   <g id="patch_4">
    <path d="M 442.837188 291.78 
L 442.837188 7.2 
" style="fill: none; stroke: #262626; stroke-width: 1.25; stroke-linejoin: miter; stroke-linecap: square"/>
   </g>
   <g id="patch_5">
    <path d="M 49.807188 291.78 
L 442.837187 291.78 
" style="fill: none; stroke: #262626; stroke-width: 1.25; stroke-linejoin: miter; stroke-linecap: square"/>
   </g>
   <g id="patch_6">
    <path d="M 49.807188 7.2 
L 442.837187 7.2 
" style="fill: none; stroke: #262626; stroke-width: 1.25; stroke-linejoin: miter; stroke-linecap: square"/>
   </g>
   <g id="legend_1">
    <g id="patch_7">
     <path d="M 348.809531 167.285937 
L 435.137188 167.285937 
Q 437.337188 167.285937 437.337188 165.085937 
L 437.337188 133.894062 
Q 437.337188 131.694062 435.137188 131.694062 
L 348.809531 131.694062 
Q 346.609531 131.694062 346.609531 133.894062 
L 346.609531 165.085937 
Q 346.609531 167.285937 348.809531 167.285937 
z
" style="fill: #ffffff; opacity: 0.8; stroke: #cccccc; stroke-linejoin: miter"/>
    </g>
    <g id="line2d_18">
     <path d="M 351.009531 140.602344 
L 362.009531 140.602344 
L 373.009531 140.602344 
" style="fill: none; stroke: #0173b2; stroke-width: 1.5; stroke-linecap: round"/>
    </g>
    <g id="text_18">
     <!-- Empirical -->
     <g style="fill: #262626" transform="translate(381.809531 144.452344) scale(0.11 -0.11)">
      <defs>
       <path id="DejaVuSans-45" d="M 628 4666 
L 3578 4666 
L 3578 4134 
L 1259 4134 
L 1259 2753 
L 3481 2753 
L 3481 2222 
L 1259 2222 
L 1259 531 
L 3634 531 
L 3634 0 
L 628 0 
L 628 4666 
z
" transform="scale(0.015625)"/>
      </defs>
      <use xlink:href="#DejaVuSans-45"/>
      <use xlink:href="#DejaVuSans-6d" transform="translate(63.183594 0)"/>
      <use xlink:href="#DejaVuSans-70" transform="translate(160.595703 0)"/>
      <use xlink:href="#DejaVuSans-69" transform="translate(224.072266 0)"/>
      <use xlink:href="#DejaVuSans-72" transform="translate(251.855469 0)"/>
      <use xlink:href="#DejaVuSans-69" transform="translate(292.96875 0)"/>
      <use xlink:href="#DejaVuSans-63" transform="translate(320.751953 0)"/>
      <use xlink:href="#DejaVuSans-61" transform="translate(375.732422 0)"/>
      <use xlink:href="#DejaVuSans-6c" transform="translate(437.011719 0)"/>
     </g>
    </g>
    <g id="line2d_19">
     <path d="M 351.009531 156.748281 
L 362.009531 156.748281 
L 373.009531 156.748281 
" style="fill: none; stroke: #de8f05; stroke-width: 1.5; stroke-linecap: round"/>
    </g>
    <g id="text_19">
     <!-- Model -->
     <g style="fill: #262626" transform="translate(381.809531 160.598281) scale(0.11 -0.11)">
      <defs>
       <path id="DejaVuSans-4d" d="M 628 4666 
L 1569 4666 
L 2759 1491 
L 3956 4666 
L 4897 4666 
L 4897 0 
L 4281 0 
L 4281 4097 
L 3078 897 
L 2444 897 
L 1241 4097 
L 1241 0 
L 628 0 
L 628 4666 
z
" transform="scale(0.015625)"/>
      </defs>
      <use xlink:href="#DejaVuSans-4d"/>
      <use xlink:href="#DejaVuSans-6f" transform="translate(86.279297 0)"/>
      <use xlink:href="#DejaVuSans-64" transform="translate(147.460938 0)"/>
      <use xlink:href="#DejaVuSans-65" transform="translate(210.9375 0)"/>
      <use xlink:href="#DejaVuSans-6c" transform="translate(272.460938 0)"/>
     </g>
    </g>
   </g>
   <g id="text_20">
    <!-- KS D = 0.008 -->
    <g style="fill: #262626" transform="translate(371.785309 272.816211) scale(0.09996 -0.09996)">
     <defs>
      <path id="DejaVuSans-4b" d="M 628 4666 
L 1259 4666 
L 1259 2694 
L 3353 4666 
L 4166 4666 
L 1850 2491 
L 4331 0 
L 3500 0 
L 1259 2247 
L 1259 0 
L 628 0 
L 628 4666 
z
" transform="scale(0.015625)"/>
      <path id="DejaVuSans-53" d="M 3425 4513 
L 3425 3897 
Q 3066 4069 2747 4153 
Q 2428 4238 2131 4238 
Q 1616 4238 1336 4038 
Q 1056 3838 1056 3469 
Q 1056 3159 1242 3001 
Q 1428 2844 1947 2747 
L 2328 2669 
Q 3034 2534 3370 2195 
Q 3706 1856 3706 1288 
Q 3706 609 3251 259 
Q 2797 -91 1919 -91 
Q 1588 -91 1214 -16 
Q 841 59 441 206 
L 441 856 
Q 825 641 1194 531 
Q 1563 422 1919 422 
Q 2459 422 2753 634 
Q 3047 847 3047 1241 
Q 3047 1584 2836 1778 
Q 2625 1972 2144 2069 
L 1759 2144 
Q 1053 2284 737 2584 
Q 422 2884 422 3419 
Q 422 4038 858 4394 
Q 1294 4750 2059 4750 
Q 2388 4750 2728 4690 
Q 3069 4631 3425 4513 
z
" transform="scale(0.015625)"/>
      <path id="DejaVuSans-3d" d="M 678 2906 
L 4684 2906 
L 4684 2381 
L 678 2381 
L 678 2906 
z
M 678 1631 
L 4684 1631 
L 4684 1100 
L 678 1100 
L 678 1631 
z
" transform="scale(0.015625)"/>
     </defs>
     <use xlink:href="#DejaVuSans-4b"/>
     <use xlink:href="#DejaVuSans-53" transform="translate(65.576172 0)"/>
     <use xlink:href="#DejaVuSans-20" transform="translate(129.052734 0)"/>
     <use xlink:href="#DejaVuSans-44" transform="translate(160.839844 0)"/>
     <use xlink:href="#DejaVuSans-20" transform="translate(237.841797 0)"/>
     <use xlink:href="#DejaVuSans-3d" transform="translate(269.628906 0)"/>
     <use xlink:href="#DejaVuSans-20" transform="translate(353.417969 0)"/>
     <use xlink:href="#DejaVuSans-30" transform="translate(385.205078 0)"/>
     <use xlink:href="#DejaVuSans-2e" transform="translate(448.828125 0)"/>
     <use xlink:href="#DejaVuSans-30" transform="translate(480.615234 0)"/>
     <use xlink:href="#DejaVuSans-30" transform="translate(544.238281 0)"/>
     <use xlink:href="#DejaVuSans-38" transform="translate(607.861328 0)"/>
    </g>
    <!-- p = 0.54 -->
    <g style="fill: #262626" transform="translate(395.574228 284.009544) scale(0.09996 -0.09996)">
     <use xlink:href="#DejaVuSans-70"/>
     <use xlink:href="#DejaVuSans-20" transform="translate(63.476562 0)"/>
     <use xlink:href="#DejaVuSans-3d" transform="translate(95.263672 0)"/>
     <use xlink:href="#DejaVuSans-20" transform="translate(179.052734 0)"/>
     <use xlink:href="#DejaVuSans-30" transform="translate(210.839844 0)"/>
     <use xlink:href="#DejaVuSans-2e" transform="translate(274.462891 0)"/>
     <use xlink:href="#DejaVuSans-35" transform="translate(306.25 0)"/>
     <use xlink:href="#DejaVuSans-34" transform="translate(369.873047 0)"/>
    </g>
   </g>
  </g>
 </g>
 <defs>
  <clipPath id="p7b9c9ed704">
   <rect x="49.807188" y="7.2" width="393.03" height="284.58"/>
  </clipPath>
 </defs>
</svg>
