<?xml version="1.0" encoding="utf-8" standalone="no"?>
<!DOCTYPE svg PUBLIC "-//W3C//DTD SVG 1.1//EN"
  "http://www.w3.org/Graphics/SVG/1.1/DTD/svg11.dtd">
<svg xmlns:xlink="http://www.w3.org/1999/xlink" width="449.222737pt" height="334.739687pt" viewBox="0 0 449.222737 334.739687" xmlns="http://www.w3.org/2000/svg" version="1.1">
 <metadata>
  <rdf:RDF xmlns:dc="http://purl.org/dc/elements/1.1/" xmlns:cc="http://creativecommons.org/ns#" xmlns:rdf="http://www.w3.org/1999/02/22-rdf-syntax-ns#">
   <cc:Work>
    <dc:type rdf:resource="http://purl.org/dc/dcmitype/StillImage"/>
    <dc:date>2026-05-15T15:09:50.878551</dc:date>
    <dc:format>image/svg+xml</dc:format>
    <dc:creator>
     <cc:Agent>
      <dc:title>Matplotlib v3.10.9, https://matplotlib.org/</dc:title>
     </cc:Agent>
    </dc:creator>
   </cc:Work>
  </rdf:RDF>
 </metadata>
 <defs>
  <style type="text/css">*{stroke-linejoin: round; stroke-linecap: butt}</style>
 </defs>
 <g id="figure_1">
  <g id="patch_1">
   <path d="M 0 334.739687 
L 449.222737 334.739687 
L 449.222737 0 
L 0 0 
z
" style="fill: #ffffff"/>
  </g>
  <g id="axes_1">
   <g id="patch_2">
    <path d="M 49.807188 291.78 
L 442.022737 291.78 
L 442.022737 7.2 
L 49.807188 7.2 
z
" style="fill: #ffffff"/>
   </g>
   <g id="matplotlib.axis_1">
    <g id="xtick_1">
     <g id="line2d_1">
      <defs>
       <path id="m6061b35fa0" d="M 0 0 
L 0 6 
" style="stroke: #262626; stroke-width: 1.25"/>
      </defs>
      <g>
       <use xlink:href="#m6061b35fa0" x="67.625769" y="291.78" style="fill: #262626; stroke: #262626; stroke-width: 1.25"/>
      </g>
     </g>
     <g id="text_1">
      <!-- 0.00 -->
      <g style="fill: #262626" transform="translate(55.379675 309.638281) scale(0.11 -0.11)">
       <defs>
        <path id="DejaVuSans-30" d="M 2034 4250 
Q 1547 4250 1301 3770 
Q 1056 3291 1056 2328 
Q 1056 1369 1301 889 
Q 1547 409 2034 409 
Q 2525 409 2770 889 
Q 3016 1369 3016 2328 
Q 3016 3291 2770 3770 
Q 2525 4250 2034 4250 
z
M 2034 4750 
Q 2819 4750 3233 4129 
Q 3647 3509 3647 2328 
Q 3647 1150 3233 529 
Q 2819 -91 2034 -91 
Q 1250 -91 836 529 
Q 422 1150 422 2328 
Q 422 3509 836 4129 
Q 1250 4750 2034 4750 
z
" transform="scale(0.015625)"/>
        <path id="DejaVuSans-2e" d="M 684 794 
L 1344 794 
L 1344 0 
L 684 0 
L 684 794 
z
" transform="scale(0.015625)"/>
       </defs>
       <use xlink:href="#DejaVuSans-30"/>
       <use xlink:href="#DejaVuSans-2e" transform="translate(63.623047 0)"/>
       <use xlink:href="#DejaVuSans-30" transform="translate(95.410156 0)"/>
       <use xlink:href="#DejaVuSans-30" transform="translate(159.033203 0)"/>
      </g>
     </g>
    </g>
    <g id="xtick_2">
     <g id="line2d_2">
      <g>
       <use xlink:href="#m6061b35fa0" x="112.850664" y="291.78" style="fill: #262626; stroke: #262626; stroke-width: 1.25"/>
      </g>
     </g>
     <g id="text_2">
      <!-- 0.25 -->
      <g style="fill: #262626" transform="translate(100.604571 309.638281) scale(0.11 -0.11)">
       <defs>
        <path id="DejaVuSans-32" d="M 1228 531 
L 3431 531 
L 3431 0 
L 469 0 
L 469 531 
Q 828 903 1448 1529 
Q 2069 2156 2228 2338 
Q 2531 2678 2651 2914 
Q 2772 3150 2772 3378 
Q 2772 3750 2511 3984 
Q 2250 4219 1831 4219 
Q 1534 4219 1204 4116 
Q 875 4013 500 3803 
L 500 4441 
Q 881 4594 1212 4672 
Q 1544 4750 1819 4750 
Q 2544 4750 2975 4387 
Q 3406 4025 3406 3419 
Q 3406 3131 3298 2873 
Q 3191 2616 2906 2266 
Q 2828 2175 2409 1742 
Q 1991 1309 1228 531 
z
" transform="scale(0.015625)"/>
        <path id="DejaVuSans-35" d="M 691 4666 
L 3169 4666 
L 3169 4134 
L 1269 4134 
L 1269 2991 
Q 1406 3038 1543 3061 
Q 1681 3084 1819 3084 
Q 2600 3084 3056 2656 
Q 3513 2228 3513 1497 
Q 3513 744 3044 326 
Q 2575 -91 1722 -91 
Q 1428 -91 1123 -41 
Q 819 9 494 109 
L 494 744 
Q 775 591 1075 516 
Q 1375 441 1709 441 
Q 2250 441 2565 725 
Q 2881 1009 2881 1497 
Q 2881 1984 2565 2268 
Q 2250 2553 1709 2553 
Q 1456 2553 1204 2497 
Q 953 2441 691 2322 
L 691 4666 
z
" transform="scale(0.015625)"/>
       </defs>
       <use xlink:href="#DejaVuSans-30"/>
       <use xlink:href="#DejaVuSans-2e" transform="translate(63.623047 0)"/>
       <use xlink:href="#DejaVuSans-32" transform="translate(95.410156 0)"/>
       <use xlink:href="#DejaVuSans-35" transform="translate(159.033203 0)"/>
      </g>
     </g>
    </g>
    <g id="xtick_3">
     <g id="line2d_3">
      <g>
       <use xlink:href="#m6061b35fa0" x="158.07556" y="291.78" style="fill: #262626; stroke: #262626; stroke-width: 1.25"/>
      </g>
     </g>
     <g id="text_3">
      <!-- 0.50 -->
      <g style="fill: #262626" transform="translate(145.829466 309.638281) scale(0.11 -0.11)">
       <use xlink:href="#DejaVuSans-30"/>
       <use xlink:href="#DejaVuSans-2e" transform="translate(63.623047 0)"/>
       <use xlink:href="#DejaVuSans-35" transform="translate(95.410156 0)"/>
       <use xlink:href="#DejaVuSans-30" transform="translate(159.033203 0)"/>
      </g>
     </g>
    </g>
    <g id="xtick_4">
     <g id="line2d_4">
      <g>
       <use xlink:href="#m6061b35fa0" x="203.300455" y="291.78" style="fill: #262626; stroke: #262626; stroke-width: 1.25"/>
      </g>
     </g>
     <g id="text_4">
      <!-- 0.75 -->
      <g style="fill: #262626" transform="translate(191.054362 309.638281) scale(0.11 -0.11)">
       <defs>
        <path id="DejaVuSans-37" d="M 525 4666 
L 3525 4666 
L 3525 4397 
L 1831 0 
L 1172 0 
L 2766 4134 
L 525 4134 
L 525 4666 
z
" transform="scale(0.015625)"/>
       </defs>
       <use xlink:href="#DejaVuSans-30"/>
       <use xlink:href="#DejaVuSans-2e" transform="translate(63.623047 0)"/>
       <use xlink:href="#DejaVuSans-37" transform="translate(95.410156 0)"/>
       <use xlink:href="#DejaVuSans-35" transform="translate(159.033203 0)"/>
      </g>
     </g>
    </g>
    <g id="xtick_5">
     <g id="line2d_5">
      <g>
       <use xlink:href="#m6061b35fa0" x="248.525351" y="291.78" style="fill: #262626; stroke: #262626; stroke-width: 1.25"/>
      </g>
     </g>
     <g id="text_5">
      <!-- 1.00 -->
      <g style="fill: #262626" transform="translate(236.279257 309.638281) scale(0.11 -0.11)">
       <defs>
        <path id="DejaVuSans-31" d="M 794 531 
L 1825 531 
L 1825 4091 
L 703 3866 
L 703 4441 
L 1819 4666 
L 2450 4666 
L 2450 531 
L 3481 531 
L 3481 0 
L 794 0 
L 794 531 
z
" transform="scale(0.015625)"/>
       </defs>
       <use xlink:href="#DejaVuSans-31"/>
       <use xlink:href="#DejaVuSans-2e" transform="translate(63.623047 0)"/>
       <use xlink:href="#DejaVuSans-30" transform="translate(95.410156 0)"/>
       <use xlink:href="#DejaVuSans-30" transform="translate(159.033203 0)"/>
      </g>
     </g>
    </g>
    <g id="xtick_6">
     <g id="line2d_6">
      <g>
       <use xlink:href="#m6061b35fa0" x="293.750246" y="291.78" style="fill: #262626; stroke: #262626; stroke-width: 1.25"/>
      </g>
     </g>
     <g id="text_6">
      <!-- 1.25 -->
      <g style="fill: #262626" transform="translate(281.504153 309.638281) scale(0.11 -0.11)">
       <use xlink:href="#DejaVuSans-31"/>
       <use xlink:href="#DejaVuSans-2e" transform="translate(63.623047 0)"/>
       <use xlink:href="#DejaVuSans-32" transform="translate(95.410156 0)"/>
       <use xlink:href="#DejaVuSans-35" transform="translate(159.033203 0)"/>
      </g>
     </g>
    </g>
    <g id="xtick_7">
     <g id="line2d_7">
      <g>
       <use xlink:href="#m6061b35fa0" x="338.975142" y="291.78" style="fill: #262626; stroke: #262626; stroke-width: 1.25"/>
      </g>
     </g>
     <g id="text_7">
      <!-- 1.50 -->
      <g style="fill: #262626" transform="translate(326.729048 309.638281) scale(0.11 -0.11)">
       <use xlink:href="#DejaVuSans-31"/>
       <use xlink:href="#DejaVuSans-2e" transform="translate(63.623047 0)"/>
       <use xlink:href="#DejaVuSans-35" transform="translate(95.410156 0)"/>
       <use xlink:href="#DejaVuSans-30" transform="translate(159.033203 0)"/>
      </g>
     </g>
    </g>
    <g id="xtick_8">
     <g id="line2d_8">
      <g>
       <use xlink:href="#m6061b35fa0" x="384.200037" y="291.78" style="fill: #262626; stroke: #262626; stroke-width: 1.25"/>
      </g>
     </g>
     <g id="text_8">
      <!-- 1.75 -->
      <g style="fill: #262626" transform="translate(371.953943 309.638281) scale(0.11 -0.11)">
       <use xlink:href="#DejaVuSans-31"/>
       <use xlink:href="#DejaVuSans-2e" transform="translate(63.623047 0)"/>
       <use xlink:href="#DejaVuSans-37" transform="translate(95.410156 0)"/>
       <use xlink:href="#DejaVuSans-35" transform="translate(159.033203 0)"/>
      </g>
     </g>
    </g>
    <g id="xtick_9">
     <g id="line2d_9">
      <g>
       <use xlink:href="#m6061b35fa0" x="429.424933" y="291.78" style="fill: #262626; stroke: #262626; stroke-width: 1.25"/>
      </g>
     </g>
     <g id="text_9">
      <!-- 2.00 -->
      <g style="fill: #262626" transform="translate(417.178839 309.638281) scale(0.11 -0.11)">
       <use xlink:href="#DejaVuSans-32"/>
       <use xlink:href="#DejaVuSans-2e" transform="translate(63.623047 0)"/>
       <use xlink:href="#DejaVuSans-30" transform="translate(95.410156 0)"/>
       <use xlink:href="#DejaVuSans-30" transform="translate(159.033203 0)"/>
      </g>
     </g>
    </g>
    <g id="text_10">
     <!-- Time prior mean -->
     <g style="fill: #262626" transform="translate(196.324962 325.044062) scale(0.12 -0.12)">
      <defs>
       <path id="DejaVuSans-54" d="M -19 4666 
L 3928 4666 
L 3928 4134 
L 2272 4134 
L 2272 0 
L 1638 0 
L 1638 4134 
L -19 4134 
L -19 4666 
z
" transform="scale(0.015625)"/>
       <path id="DejaVuSans-69" d="M 603 3500 
L 1178 3500 
L 1178 0 
L 603 0 
L 603 3500 
z
M 603 4863 
L 1178 4863 
L 1178 4134 
L 603 4134 
L 603 4863 
z
" transform="scale(0.015625)"/>
       <path id="DejaVuSans-6d" d="M 3328 2828 
Q 3544 3216 3844 3400 
Q 4144 3584 4550 3584 
Q 5097 3584 5394 3201 
Q 5691 2819 5691 2113 
L 5691 0 
L 5113 0 
L 5113 2094 
Q 5113 2597 4934 2840 
Q 4756 3084 4391 3084 
Q 3944 3084 3684 2787 
Q 3425 2491 3425 1978 
L 3425 0 
L 2847 0 
L 2847 2094 
Q 2847 2600 2669 2842 
Q 2491 3084 2119 3084 
Q 1678 3084 1418 2786 
Q 1159 2488 1159 1978 
L 1159 0 
L 581 0 
L 581 3500 
L 1159 3500 
L 1159 2956 
Q 1356 3278 1631 3431 
Q 1906 3584 2284 3584 
Q 2666 3584 2933 3390 
Q 3200 3197 3328 2828 
z
" transform="scale(0.015625)"/>
       <path id="DejaVuSans-65" d="M 3597 1894 
L 3597 1613 
L 953 1613 
Q 991 1019 1311 708 
Q 1631 397 2203 397 
Q 2534 397 2845 478 
Q 3156 559 3463 722 
L 3463 178 
Q 3153 47 2828 -22 
Q 2503 -91 2169 -91 
Q 1331 -91 842 396 
Q 353 884 353 1716 
Q 353 2575 817 3079 
Q 1281 3584 2069 3584 
Q 2775 3584 3186 3129 
Q 3597 2675 3597 1894 
z
M 3022 2063 
Q 3016 2534 2758 2815 
Q 2500 3097 2075 3097 
Q 1594 3097 1305 2825 
Q 1016 2553 972 2059 
L 3022 2063 
z
" transform="scale(0.015625)"/>
       <path id="DejaVuSans-20" transform="scale(0.015625)"/>
       <path id="DejaVuSans-70" d="M 1159 525 
L 1159 -1331 
L 581 -1331 
L 581 3500 
L 1159 3500 
L 1159 2969 
Q 1341 3281 1617 3432 
Q 1894 3584 2278 3584 
Q 2916 3584 3314 3078 
Q 3713 2572 3713 1747 
Q 3713 922 3314 415 
Q 2916 -91 2278 -91 
Q 1894 -91 1617 61 
Q 1341 213 1159 525 
z
M 3116 1747 
Q 3116 2381 2855 2742 
Q 2594 3103 2138 3103 
Q 1681 3103 1420 2742 
Q 1159 2381 1159 1747 
Q 1159 1113 1420 752 
Q 1681 391 2138 391 
Q 2594 391 2855 752 
Q 3116 1113 3116 1747 
z
" transform="scale(0.015625)"/>
       <path id="DejaVuSans-72" d="M 2631 2963 
Q 2534 3019 2420 3045 
Q 2306 3072 2169 3072 
Q 1681 3072 1420 2755 
Q 1159 2438 1159 1844 
L 1159 0 
L 581 0 
L 581 3500 
L 1159 3500 
L 1159 2956 
Q 1341 3275 1631 3429 
Q 1922 3584 2338 3584 
Q 2397 3584 2469 3576 
Q 2541 3569 2628 3553 
L 2631 2963 
z
" transform="scale(0.015625)"/>
       <path id="DejaVuSans-6f" d="M 1959 3097 
Q 1497 3097 1228 2736 
Q 959 2375 959 1747 
Q 959 1119 1226 758 
Q 1494 397 1959 397 
Q 2419 397 2687 759 
Q 2956 1122 2956 1747 
Q 2956 2369 2687 2733 
Q 2419 3097 1959 3097 
z
M 1959 3584 
Q 2709 3584 3137 3096 
Q 3566 2609 3566 1747 
Q 3566 888 3137 398 
Q 2709 -91 1959 -91 
Q 1206 -91 779 398 
Q 353 888 353 1747 
Q 353 2609 779 3096 
Q 1206 3584 1959 3584 
z
" transform="scale(0.015625)"/>
       <path id="DejaVuSans-61" d="M 2194 1759 
Q 1497 1759 1228 1600 
Q 959 1441 959 1056 
Q 959 750 1161 570 
Q 1363 391 1709 391 
Q 2188 391 2477 730 
Q 2766 1069 2766 1631 
L 2766 1759 
L 2194 1759 
z
M 3341 1997 
L 3341 0 
L 2766 0 
L 2766 531 
Q 2569 213 2275 61 
Q 1981 -91 1556 -91 
Q 1019 -91 701 211 
Q 384 513 384 1019 
Q 384 1609 779 1909 
Q 1175 2209 1959 2209 
L 2766 2209 
L 2766 2266 
Q 2766 2663 2505 2880 
Q 2244 3097 1772 3097 
Q 1472 3097 1187 3025 
Q 903 2953 641 2809 
L 641 3341 
Q 956 3463 1253 3523 
Q 1550 3584 1831 3584 
Q 2591 3584 2966 3190 
Q 3341 2797 3341 1997 
z
" transform="scale(0.015625)"/>
       <path id="DejaVuSans-6e" d="M 3513 2113 
L 3513 0 
L 2938 0 
L 2938 2094 
Q 2938 2591 2744 2837 
Q 2550 3084 2163 3084 
Q 1697 3084 1428 2787 
Q 1159 2491 1159 1978 
L 1159 0 
L 581 0 
L 581 3500 
L 1159 3500 
L 1159 2956 
Q 1366 3272 1645 3428 
Q 1925 3584 2291 3584 
Q 2894 3584 3203 3211 
Q 3513 2838 3513 2113 
z
" transform="scale(0.015625)"/>
      </defs>
      <use xlink:href="#DejaVuSans-54"/>
      <use xlink:href="#DejaVuSans-69" transform="translate(57.958984 0)"/>
      <use xlink:href="#DejaVuSans-6d" transform="translate(85.742188 0)"/>
      <use xlink:href="#DejaVuSans-65" transform="translate(183.154297 0)"/>
      <use xlink:href="#DejaVuSans-20" transform="translate(244.677734 0)"/>
      <use xlink:href="#DejaVuSans-70" transform="translate(276.464844 0)"/>
      <use xlink:href="#DejaVuSans-72" transform="translate(339.941406 0)"/>
      <use xlink:href="#DejaVuSans-69" transform="translate(381.054688 0)"/>
      <use xlink:href="#DejaVuSans-6f" transform="translate(408.837891 0)"/>
      <use xlink:href="#DejaVuSans-72" transform="translate(470.019531 0)"/>
      <use xlink:href="#DejaVuSans-20" transform="translate(511.132812 0)"/>
      <use xlink:href="#DejaVuSans-6d" transform="translate(542.919922 0)"/>
      <use xlink:href="#DejaVuSans-65" transform="translate(640.332031 0)"/>
      <use xlink:href="#DejaVuSans-61" transform="translate(701.855469 0)"/>
      <use xlink:href="#DejaVuSans-6e" transform="translate(763.134766 0)"/>
     </g>
    </g>
   </g>
   <g id="matplotlib.axis_2">
    <g id="ytick_1">
     <g id="line2d_10">
      <defs>
       <path id="m33e96c6d51" d="M 0 0 
L -6 0 
" style="stroke: #262626; stroke-width: 1.25"/>
      </defs>
      <g>
       <use xlink:href="#m33e96c6d51" x="49.807188" y="278.844545" style="fill: #262626; stroke: #262626; stroke-width: 1.25"/>
      </g>
     </g>
     <g id="text_11">
      <!-- 0.0 -->
      <g style="fill: #262626" transform="translate(22.81375 283.023686) scale(0.11 -0.11)">
       <use xlink:href="#DejaVuSans-30"/>
       <use xlink:href="#DejaVuSans-2e" transform="translate(63.623047 0)"/>
       <use xlink:href="#DejaVuSans-30" transform="translate(95.410156 0)"/>
      </g>
     </g>
    </g>
    <g id="ytick_2">
     <g id="line2d_11">
      <g>
       <use xlink:href="#m33e96c6d51" x="49.807188" y="227.097553" style="fill: #262626; stroke: #262626; stroke-width: 1.25"/>
      </g>
     </g>
     <g id="text_12">
      <!-- 0.2 -->
      <g style="fill: #262626" transform="translate(22.81375 231.276693) scale(0.11 -0.11)">
       <use xlink:href="#DejaVuSans-30"/>
       <use xlink:href="#DejaVuSans-2e" transform="translate(63.623047 0)"/>
       <use xlink:href="#DejaVuSans-32" transform="translate(95.410156 0)"/>
      </g>
     </g>
    </g>
    <g id="ytick_3">
     <g id="line2d_12">
      <g>
       <use xlink:href="#m33e96c6d51" x="49.807188" y="175.35056" style="fill: #262626; stroke: #262626; stroke-width: 1.25"/>
      </g>
     </g>
     <g id="text_13">
      <!-- 0.4 -->
      <g style="fill: #262626" transform="translate(22.81375 179.5297) scale(0.11 -0.11)">
       <defs>
        <path id="DejaVuSans-34" d="M 2419 4116 
L 825 1625 
L 2419 1625 
L 2419 4116 
z
M 2253 4666 
L 3047 4666 
L 3047 1625 
L 3713 1625 
L 3713 1100 
L 3047 1100 
L 3047 0 
L 2419 0 
L 2419 1100 
L 313 1100 
L 313 1709 
L 2253 4666 
z
" transform="scale(0.015625)"/>
       </defs>
       <use xlink:href="#DejaVuSans-30"/>
       <use xlink:href="#DejaVuSans-2e" transform="translate(63.623047 0)"/>
       <use xlink:href="#DejaVuSans-34" transform="translate(95.410156 0)"/>
      </g>
     </g>
    </g>
    <g id="ytick_4">
     <g id="line2d_13">
      <g>
       <use xlink:href="#m33e96c6d51" x="49.807188" y="123.603567" style="fill: #262626; stroke: #262626; stroke-width: 1.25"/>
      </g>
     </g>
     <g id="text_14">
      <!-- 0.6 -->
      <g style="fill: #262626" transform="translate(22.81375 127.782707) scale(0.11 -0.11)">
       <defs>
        <path id="DejaVuSans-36" d="M 2113 2584 
Q 1688 2584 1439 2293 
Q 1191 2003 1191 1497 
Q 1191 994 1439 701 
Q 1688 409 2113 409 
Q 2538 409 2786 701 
Q 3034 994 3034 1497 
Q 3034 2003 2786 2293 
Q 2538 2584 2113 2584 
z
M 3366 4563 
L 3366 3988 
Q 3128 4100 2886 4159 
Q 2644 4219 2406 4219 
Q 1781 4219 1451 3797 
Q 1122 3375 1075 2522 
Q 1259 2794 1537 2939 
Q 1816 3084 2150 3084 
Q 2853 3084 3261 2657 
Q 3669 2231 3669 1497 
Q 3669 778 3244 343 
Q 2819 -91 2113 -91 
Q 1303 -91 875 529 
Q 447 1150 447 2328 
Q 447 3434 972 4092 
Q 1497 4750 2381 4750 
Q 2619 4750 2861 4703 
Q 3103 4656 3366 4563 
z
" transform="scale(0.015625)"/>
       </defs>
       <use xlink:href="#DejaVuSans-30"/>
       <use xlink:href="#DejaVuSans-2e" transform="translate(63.623047 0)"/>
       <use xlink:href="#DejaVuSans-36" transform="translate(95.410156 0)"/>
      </g>
     </g>
    </g>
    <g id="ytick_5">
     <g id="line2d_14">
      <g>
       <use xlink:href="#m33e96c6d51" x="49.807188" y="71.856574" style="fill: #262626; stroke: #262626; stroke-width: 1.25"/>
      </g>
     </g>
     <g id="text_15">
      <!-- 0.8 -->
      <g style="fill: #262626" transform="translate(22.81375 76.035715) scale(0.11 -0.11)">
       <defs>
        <path id="DejaVuSans-38" d="M 2034 2216 
Q 1584 2216 1326 1975 
Q 1069 1734 1069 1313 
Q 1069 891 1326 650 
Q 1584 409 2034 409 
Q 2484 409 2743 651 
Q 3003 894 3003 1313 
Q 3003 1734 2745 1975 
Q 2488 2216 2034 2216 
z
M 1403 2484 
Q 997 2584 770 2862 
Q 544 3141 544 3541 
Q 544 4100 942 4425 
Q 1341 4750 2034 4750 
Q 2731 4750 3128 4425 
Q 3525 4100 3525 3541 
Q 3525 3141 3298 2862 
Q 3072 2584 2669 2484 
Q 3125 2378 3379 2068 
Q 3634 1759 3634 1313 
Q 3634 634 3220 271 
Q 2806 -91 2034 -91 
Q 1263 -91 848 271 
Q 434 634 434 1313 
Q 434 1759 690 2068 
Q 947 2378 1403 2484 
z
M 1172 3481 
Q 1172 3119 1398 2916 
Q 1625 2713 2034 2713 
Q 2441 2713 2670 2916 
Q 2900 3119 2900 3481 
Q 2900 3844 2670 4047 
Q 2441 4250 2034 4250 
Q 1625 4250 1398 4047 
Q 1172 3844 1172 3481 
z
" transform="scale(0.015625)"/>
       </defs>
       <use xlink:href="#DejaVuSans-30"/>
       <use xlink:href="#DejaVuSans-2e" transform="translate(63.623047 0)"/>
       <use xlink:href="#DejaVuSans-38" transform="translate(95.410156 0)"/>
      </g>
     </g>
    </g>
    <g id="ytick_6">
     <g id="line2d_15">
      <g>
       <use xlink:href="#m33e96c6d51" x="49.807188" y="20.109581" style="fill: #262626; stroke: #262626; stroke-width: 1.25"/>
      </g>
     </g>
     <g id="text_16">
      <!-- 1.0 -->
      <g style="fill: #262626" transform="translate(22.81375 24.288722) scale(0.11 -0.11)">
       <use xlink:href="#DejaVuSans-31"/>
       <use xlink:href="#DejaVuSans-2e" transform="translate(63.623047 0)"/>
       <use xlink:href="#DejaVuSans-30" transform="translate(95.410156 0)"/>
      </g>
     </g>
    </g>
    <g id="text_17">
     <!-- Cumulative density -->
     <g style="fill: #262626" transform="translate(16.318125 207.64125) rotate(-90) scale(0.12 -0.12)">
      <defs>
       <path id="DejaVuSans-43" d="M 4122 4306 
L 4122 3641 
Q 3803 3938 3442 4084 
Q 3081 4231 2675 4231 
Q 1875 4231 1450 3742 
Q 1025 3253 1025 2328 
Q 1025 1406 1450 917 
Q 1875 428 2675 428 
Q 3081 428 3442 575 
Q 3803 722 4122 1019 
L 4122 359 
Q 3791 134 3420 21 
Q 3050 -91 2638 -91 
Q 1578 -91 968 557 
Q 359 1206 359 2328 
Q 359 3453 968 4101 
Q 1578 4750 2638 4750 
Q 3056 4750 3426 4639 
Q 3797 4528 4122 4306 
z
" transform="scale(0.015625)"/>
       <path id="DejaVuSans-75" d="M 544 1381 
L 544 3500 
L 1119 3500 
L 1119 1403 
Q 1119 906 1312 657 
Q 1506 409 1894 409 
Q 2359 409 2629 706 
Q 2900 1003 2900 1516 
L 2900 3500 
L 3475 3500 
L 3475 0 
L 2900 0 
L 2900 538 
Q 2691 219 2414 64 
Q 2138 -91 1772 -91 
Q 1169 -91 856 284 
Q 544 659 544 1381 
z
M 1991 3584 
L 1991 3584 
z
" transform="scale(0.015625)"/>
       <path id="DejaVuSans-6c" d="M 603 4863 
L 1178 4863 
L 1178 0 
L 603 0 
L 603 4863 
z
" transform="scale(0.015625)"/>
       <path id="DejaVuSans-74" d="M 1172 4494 
L 1172 3500 
L 2356 3500 
L 2356 3053 
L 1172 3053 
L 1172 1153 
Q 1172 725 1289 603 
Q 1406 481 1766 481 
L 2356 481 
L 2356 0 
L 1766 0 
Q 1100 0 847 248 
Q 594 497 594 1153 
L 594 3053 
L 172 3053 
L 172 3500 
L 594 3500 
L 594 4494 
L 1172 4494 
z
" transform="scale(0.015625)"/>
       <path id="DejaVuSans-76" d="M 191 3500 
L 800 3500 
L 1894 563 
L 2988 3500 
L 3597 3500 
L 2284 0 
L 1503 0 
L 191 3500 
z
" transform="scale(0.015625)"/>
       <path id="DejaVuSans-64" d="M 2906 2969 
L 2906 4863 
L 3481 4863 
L 3481 0 
L 2906 0 
L 2906 525 
Q 2725 213 2448 61 
Q 2172 -91 1784 -91 
Q 1150 -91 751 415 
Q 353 922 353 1747 
Q 353 2572 751 3078 
Q 1150 3584 1784 3584 
Q 2172 3584 2448 3432 
Q 2725 3281 2906 2969 
z
M 947 1747 
Q 947 1113 1208 752 
Q 1469 391 1925 391 
Q 2381 391 2643 752 
Q 2906 1113 2906 1747 
Q 2906 2381 2643 2742 
Q 2381 3103 1925 3103 
Q 1469 3103 1208 2742 
Q 947 2381 947 1747 
z
" transform="scale(0.015625)"/>
       <path id="DejaVuSans-73" d="M 2834 3397 
L 2834 2853 
Q 2591 2978 2328 3040 
Q 2066 3103 1784 3103 
Q 1356 3103 1142 2972 
Q 928 2841 928 2578 
Q 928 2378 1081 2264 
Q 1234 2150 1697 2047 
L 1894 2003 
Q 2506 1872 2764 1633 
Q 3022 1394 3022 966 
Q 3022 478 2636 193 
Q 2250 -91 1575 -91 
Q 1294 -91 989 -36 
Q 684 19 347 128 
L 347 722 
Q 666 556 975 473 
Q 1284 391 1588 391 
Q 1994 391 2212 530 
Q 2431 669 2431 922 
Q 2431 1156 2273 1281 
Q 2116 1406 1581 1522 
L 1381 1569 
Q 847 1681 609 1914 
Q 372 2147 372 2553 
Q 372 3047 722 3315 
Q 1072 3584 1716 3584 
Q 2034 3584 2315 3537 
Q 2597 3491 2834 3397 
z
" transform="scale(0.015625)"/>
       <path id="DejaVuSans-79" d="M 2059 -325 
Q 1816 -950 1584 -1140 
Q 1353 -1331 966 -1331 
L 506 -1331 
L 506 -850 
L 844 -850 
Q 1081 -850 1212 -737 
Q 1344 -625 1503 -206 
L 1606 56 
L 191 3500 
L 800 3500 
L 1894 763 
L 2988 3500 
L 3597 3500 
L 2059 -325 
z
" transform="scale(0.015625)"/>
      </defs>
      <use xlink:href="#DejaVuSans-43"/>
      <use xlink:href="#DejaVuSans-75" transform="translate(69.824219 0)"/>
      <use xlink:href="#DejaVuSans-6d" transform="translate(133.203125 0)"/>
      <use xlink:href="#DejaVuSans-75" transform="translate(230.615234 0)"/>
      <use xlink:href="#DejaVuSans-6c" transform="translate(293.994141 0)"/>
      <use xlink:href="#DejaVuSans-61" transform="translate(321.777344 0)"/>
      <use xlink:href="#DejaVuSans-74" transform="translate(383.056641 0)"/>
      <use xlink:href="#DejaVuSans-69" transform="translate(422.265625 0)"/>
      <use xlink:href="#DejaVuSans-76" transform="translate(450.048828 0)"/>
      <use xlink:href="#DejaVuSans-65" transform="translate(509.228516 0)"/>
      <use xlink:href="#DejaVuSans-20" transform="translate(570.751953 0)"/>
      <use xlink:href="#DejaVuSans-64" transform="translate(602.539062 0)"/>
      <use xlink:href="#DejaVuSans-65" transform="translate(666.015625 0)"/>
      <use xlink:href="#DejaVuSans-6e" transform="translate(727.539062 0)"/>
      <use xlink:href="#DejaVuSans-73" transform="translate(790.917969 0)"/>
      <use xlink:href="#DejaVuSans-69" transform="translate(843.017578 0)"/>
      <use xlink:href="#DejaVuSans-74" transform="translate(870.800781 0)"/>
      <use xlink:href="#DejaVuSans-79" transform="translate(910.009766 0)"/>
     </g>
    </g>
   </g>
   <g id="FillBetweenPolyCollection_1">
    <defs>
     <path id="m26df3b6856" d="M 78.855094 -123.010992 
L 78.855094 -122.985118 
L 78.855094 -123.010992 
L 78.855094 -123.010992 
z
" style="stroke: #0173b2; stroke-opacity: 0.2"/>
    </defs>
    <g clip-path="url(#pac999f6e98)">
     <use xlink:href="#m26df3b6856" x="0" y="334.739687" style="fill: #0173b2; fill-opacity: 0.2; stroke: #0173b2; stroke-opacity: 0.2"/>
    </g>
   </g>
   <g id="FillBetweenPolyCollection_2"/>
   <g id="line2d_16">
    <path d="M 67.635167 278.844545 
L 67.77283 278.275329 
L 67.987113 276.852286 
L 68.109927 275.84322 
L 68.234697 275.041141 
L 68.647985 272.272677 
L 68.891233 270.746141 
L 68.95237 270.332165 
L 69.627749 266.037165 
L 69.703011 265.364454 
L 69.886029 264.174273 
L 69.959268 263.70855 
L 70.11825 262.67361 
L 70.410214 260.888339 
L 70.461625 260.500236 
L 70.677924 259.103068 
L 70.87657 257.86114 
L 71.009472 256.877947 
L 71.140459 255.920628 
L 71.520581 253.695507 
L 71.637379 253.12629 
L 71.789299 252.117224 
L 71.968825 250.849422 
L 72.123437 249.478127 
L 72.199999 249.038278 
L 72.319691 248.184452 
L 72.88638 244.769151 
L 73.053751 243.501349 
L 77.096035 220.163456 
L 77.157926 219.852974 
L 77.812063 216.489419 
L 77.864171 216.282431 
L 78.061 215.454479 
L 78.11537 215.118124 
L 78.354521 213.772702 
L 78.410729 213.436346 
L 79.680224 207.847671 
L 79.831056 207.123213 
L 79.867674 206.864478 
L 80.057297 205.700171 
L 80.401548 203.47505 
L 80.526359 202.724719 
L 80.664199 201.922641 
L 80.762944 201.586285 
L 80.869206 201.120562 
L 81.03393 200.033875 
L 81.167079 199.438785 
L 81.294893 198.947188 
L 82.010767 195.635381 
L 82.104131 195.195531 
L 82.180865 195.04029 
L 82.62304 192.789296 
L 83.407494 189.244627 
L 83.466765 188.985892 
L 83.849751 187.148874 
L 84.005559 186.45029 
L 84.064307 186.243302 
L 84.182707 185.648211 
L 87.013747 173.824023 
L 87.067631 173.539415 
L 87.272707 172.452728 
L 88.001422 169.399656 
L 88.136147 168.908059 
L 88.3599 167.898993 
L 88.59449 166.99342 
L 88.764396 166.424203 
L 88.992596 165.751493 
L 89.31891 164.121462 
L 89.402882 163.681613 
L 89.519709 163.164143 
L 89.733978 162.517305 
L 89.911149 161.766974 
L 90.163437 160.706161 
L 90.29504 160.318058 
L 90.698828 158.739775 
L 90.802933 158.377546 
L 91.15993 156.92863 
L 91.305839 156.255919 
L 91.351699 156.100678 
L 91.471501 155.557335 
L 91.593604 155.169232 
L 91.726692 154.574142 
L 92.158639 152.840618 
L 92.265977 152.452515 
L 92.505562 151.753931 
L 92.581527 151.288208 
L 92.710558 150.770738 
L 92.808441 150.434383 
L 92.926015 149.813419 
L 93.20348 148.752605 
L 93.474947 148.079894 
L 93.848 146.812093 
L 93.903471 146.656852 
L 93.988089 146.34637 
L 94.115342 145.647786 
L 94.415172 144.871581 
L 95.068794 142.775828 
L 95.302737 141.999623 
L 95.382528 141.637394 
L 96.890109 136.566189 
L 97.020445 136.126339 
L 97.267351 135.298387 
L 99.302631 128.778266 
L 99.44956 128.260796 
L 99.563397 128.027935 
L 99.659077 127.639832 
L 100.228559 125.492332 
L 100.376001 125.285344 
L 100.783926 124.172784 
L 100.838973 123.939922 
L 101.130385 123.189591 
L 101.216362 122.904982 
L 101.328656 122.697994 
L 101.509607 122.025284 
L 101.632757 121.818296 
L 101.729862 121.585434 
L 101.823139 121.430193 
L 101.965144 121.223205 
L 102.108143 120.88685 
L 102.179213 120.602241 
L 102.277239 120.162392 
L 102.422839 119.696669 
L 102.518173 119.437934 
L 102.660954 119.256819 
L 102.764378 118.972211 
L 104.865764 113.56465 
L 105.331179 112.089861 
L 105.420036 111.93462 
L 105.679376 111.49477 
L 105.811232 111.158415 
L 105.982215 110.537451 
L 106.162078 110.226969 
L 106.323863 109.994108 
L 106.521599 109.554258 
L 106.789315 109.114409 
L 106.908408 108.726306 
L 107.026191 108.493445 
L 107.194129 108.105342 
L 107.33221 107.872481 
L 107.529455 107.251517 
L 107.847106 106.397692 
L 107.966946 106.138957 
L 108.055538 105.880222 
L 108.145825 105.776728 
L 108.287969 105.543866 
L 108.440247 105.05227 
L 108.588066 104.845282 
L 109.186531 103.49986 
L 109.363479 103.163505 
L 110.346796 101.197119 
L 110.545417 100.964257 
L 110.930044 99.903444 
L 111.130121 99.256607 
L 111.581563 98.325161 
L 111.717698 97.859438 
L 111.847899 97.65245 
L 111.978264 97.316094 
L 112.061329 97.160853 
L 112.178205 96.927992 
L 112.451611 96.591637 
L 112.544426 96.358775 
L 112.67738 96.10004 
L 112.873841 95.608444 
L 115.794717 89.631666 
L 115.929781 89.372931 
L 118.097557 84.92269 
L 118.211142 84.663955 
L 118.335912 84.508714 
L 118.640151 83.88775 
L 118.788086 83.706635 
L 118.921588 83.396153 
L 119.024018 83.266786 
L 119.1743 82.956304 
L 119.585521 82.645822 
L 119.837567 81.973111 
L 119.943711 81.791997 
L 120.060624 81.559135 
L 120.420916 81.015792 
L 120.664768 80.679436 
L 120.720211 80.472448 
L 123.801526 75.504737 
L 123.944671 75.271875 
L 124.231396 74.676785 
L 124.605074 74.159315 
L 125.087383 73.331363 
L 125.425705 72.969134 
L 126.45333 71.339104 
L 126.789923 71.080369 
L 127.050833 70.666393 
L 127.246548 70.355911 
L 127.372743 70.148923 
L 127.629728 69.890188 
L 127.75969 69.527959 
L 128.823238 68.05317 
L 129.040866 67.716814 
L 129.393508 67.354586 
L 129.467115 67.199345 
L 129.62529 67.044104 
L 129.775696 66.862989 
L 130.011835 66.604254 
L 130.193068 66.345519 
L 130.338474 66.190278 
L 130.784263 65.646935 
L 130.95374 65.46582 
L 131.308565 64.818983 
L 131.502605 64.534374 
L 131.646694 64.198019 
L 132.185934 63.551182 
L 132.582376 63.137206 
L 132.687397 62.956091 
L 133.162097 62.309254 
L 133.439524 62.128139 
L 133.690073 61.740037 
L 134.032914 61.24844 
L 134.14892 61.093199 
L 134.485341 60.886211 
L 134.766724 60.65335 
L 134.93157 60.446362 
L 135.120914 60.161754 
L 135.484992 59.851272 
L 135.617147 59.592537 
L 137.311 57.677898 
L 137.473245 57.54853 
L 137.670293 57.341542 
L 137.877171 57.160428 
L 138.288492 56.746452 
L 138.492918 56.539464 
L 139.852325 55.168169 
L 140.338939 54.728319 
L 140.448906 54.598952 
L 140.72222 54.391964 
L 140.824494 54.159102 
L 141.917978 53.072416 
L 142.221714 52.839554 
L 142.349086 52.65844 
L 142.475164 52.503199 
L 142.586984 52.425578 
L 143.283515 51.882235 
L 143.406668 51.778741 
L 143.991221 51.364765 
L 144.100763 51.287144 
L 144.413654 51.080156 
L 145.147926 50.381572 
L 145.39377 50.252204 
L 145.719794 50.045216 
L 145.956781 49.734734 
L 146.16464 49.55362 
L 146.477407 49.243138 
L 146.825214 48.932656 
L 146.953598 48.777415 
L 147.179289 48.544554 
L 147.376226 48.337566 
L 147.514937 48.259945 
L 147.988966 48.078831 
L 148.167497 47.871843 
L 148.763899 47.690728 
L 148.966545 47.509614 
L 149.576545 47.121511 
L 149.687542 47.043891 
L 152.130632 45.025758 
L 152.242838 44.948138 
L 152.847154 44.611782 
L 153.270876 44.456541 
L 153.63036 44.249553 
L 153.759742 44.146059 
L 154.295002 43.809704 
L 154.573559 43.654463 
L 155.155348 43.26636 
L 155.295085 43.111119 
L 155.518803 42.955878 
L 156.061384 42.593649 
L 156.424219 42.438408 
L 156.529539 42.309041 
L 157.056031 42.127927 
L 158.833159 41.015366 
L 159.074674 40.756631 
L 159.279604 40.575517 
L 159.58631 40.342655 
L 159.986262 40.058047 
L 160.051979 39.954553 
L 160.857946 39.618197 
L 161.320852 39.333589 
L 161.412483 39.230095 
L 161.778046 39.04898 
L 161.886182 38.997233 
L 163.535063 38.065788 
L 164.479354 37.315456 
L 165.733123 36.746239 
L 165.82468 36.642745 
L 166.157798 36.487504 
L 166.368518 36.358137 
L 167.008338 36.099402 
L 167.079416 35.995908 
L 168.198861 35.452564 
L 168.32969 35.323197 
L 168.854115 35.116209 
L 170.142691 34.624613 
L 170.175546 34.572866 
L 170.648072 34.391751 
L 170.742929 34.314131 
L 172.596001 33.64142 
L 172.949926 33.460305 
L 173.173459 33.382685 
L 173.533502 33.253317 
L 174.631723 33.046329 
L 175.924474 32.554733 
L 176.491152 32.399492 
L 176.495802 32.373618 
L 178.124954 32.063136 
L 178.43277 31.959642 
L 178.947906 31.804401 
L 179.190029 31.675034 
L 180.28746 31.442172 
L 180.749746 31.286932 
L 180.858744 31.209311 
L 181.572066 30.97645 
L 182.350084 30.743588 
L 182.916157 30.5366 
L 183.429075 30.381359 
L 184.176541 30.148498 
L 184.182343 30.122624 
L 184.64959 29.967383 
L 185.25884 29.786269 
L 185.890596 29.579281 
L 189.693977 28.492594 
L 192.342224 28.052744 
L 192.817297 27.94925 
L 194.167202 27.768136 
L 195.76111 27.535275 
L 198.510237 26.991931 
L 199.65593 26.810817 
L 199.729115 26.784943 
L 201.027382 26.629702 
L 202.060536 26.474461 
L 203.446757 26.345094 
L 203.575792 26.293347 
L 205.100986 26.060485 
L 206.117788 25.646509 
L 207.415758 25.491268 
L 211.668074 24.896178 
L 214.680499 24.456328 
L 214.692275 24.430455 
L 224.218689 23.033286 
L 228.934901 22.748678 
L 244.03703 21.843105 
L 244.043991 21.817232 
L 263.411612 20.98928 
L 283.215886 20.678798 
L 296.672034 20.47181 
L 368.923607 20.161328 
L 424.194758 20.135455 
L 424.194758 20.135455 
" clip-path="url(#pac999f6e98)" style="fill: none; stroke: #0173b2; stroke-width: 1.5; stroke-linecap: round"/>
   </g>
   <g id="line2d_17">
    <path d="M 67.661967 278.58581 
L 70.186066 261.167814 
L 72.710165 244.923568 
L 75.234264 229.773976 
L 77.758363 215.645274 
L 80.282462 202.468666 
L 82.806562 190.179992 
L 85.330661 178.719419 
L 87.85476 168.031141 
L 90.378859 158.063117 
L 92.902958 148.766811 
L 95.427057 140.096957 
L 97.951156 132.01134 
L 100.475255 124.470591 
L 102.999354 117.437992 
L 105.523453 110.8793 
L 108.047553 104.76258 
L 110.571652 99.058049 
L 113.095751 93.737931 
L 115.61985 88.77632 
L 118.143949 84.149059 
L 120.668048 79.833616 
L 123.192147 75.808979 
L 125.716246 72.055551 
L 128.240345 68.555056 
L 130.764444 65.29045 
L 133.288543 62.245836 
L 135.812643 59.406391 
L 138.336742 56.758288 
L 140.860841 54.288633 
L 143.38494 51.985401 
L 145.909039 49.837378 
L 148.433138 47.834104 
L 150.957237 45.965826 
L 153.481336 44.223445 
L 156.005435 42.598479 
L 158.529534 41.083014 
L 161.053633 39.669673 
L 163.577733 38.351572 
L 166.101832 37.122295 
L 168.625931 35.975855 
L 171.15003 34.906671 
L 173.674129 33.909536 
L 176.198228 32.979595 
L 178.722327 32.112321 
L 181.246426 31.30349 
L 183.770525 30.549163 
L 186.294624 29.845669 
L 188.818724 29.189581 
L 191.342823 28.577705 
L 193.866922 28.007061 
L 196.391021 27.474872 
L 198.91512 26.978545 
L 201.439219 26.515665 
L 203.963318 26.083977 
L 206.487417 25.681379 
L 209.011516 25.305911 
L 211.535615 24.955744 
L 214.059714 24.629175 
L 216.583814 24.324612 
L 219.107913 24.040573 
L 221.632012 23.775674 
L 224.156111 23.528626 
L 226.68021 23.298226 
L 229.204309 23.083352 
L 231.728408 22.882958 
L 234.252507 22.696068 
L 236.776606 22.521772 
L 239.300705 22.359221 
L 241.824804 22.207624 
L 244.348904 22.066243 
L 246.873003 21.934389 
L 249.397102 21.81142 
L 251.921201 21.696738 
L 254.4453 21.589784 
L 256.969399 21.490037 
L 259.493498 21.397012 
L 262.017597 21.310255 
L 264.541696 21.229345 
L 267.065795 21.153887 
L 269.589895 21.083515 
L 272.113994 21.017884 
L 274.638093 20.956676 
L 277.162192 20.899592 
L 279.686291 20.846356 
L 282.21039 20.796707 
L 284.734489 20.750403 
L 287.258588 20.70722 
L 289.782687 20.666947 
L 292.306786 20.629387 
L 294.830885 20.594359 
L 297.354985 20.561691 
L 299.879084 20.531225 
L 302.403183 20.502811 
L 304.927282 20.476313 
L 307.451381 20.4516 
L 309.97548 20.428552 
L 312.499579 20.407057 
L 315.023678 20.387011 
L 317.547777 20.368316 
" clip-path="url(#pac999f6e98)" style="fill: none; stroke: #de8f05; stroke-width: 1.5; stroke-linecap: round"/>
   </g>
   <g id="patch_3">
    <path d="M 49.807188 291.78 
L 49.807188 7.2 
" style="fill: none; stroke: #262626; stroke-width: 1.25; stroke-linejoin: miter; stroke-linecap: square"/>
   </g>
   <g id="patch_4">
    <path d="M 442.022737 291.78 
L 442.022737 7.2 
" style="fill: none; stroke: #262626; stroke-width: 1.25; stroke-linejoin: miter; stroke-linecap: square"/>
   </g>
   <g id="patch_5">
    <path d="M 49.807188 291.78 
L 442.022737 291.78 
" style="fill: none; stroke: #262626; stroke-width: 1.25; stroke-linejoin: miter; stroke-linecap: square"/>
   </g>
   <g id="patch_6">
    <path d="M 49.807188 7.2 
L 442.022737 7.2 
" style="fill: none; stroke: #262626; stroke-width: 1.25; stroke-linejoin: miter; stroke-linecap: square"/>
   </g>
   <g id="legend_1">
    <g id="patch_7">
     <path d="M 347.995081 167.285937 
L 434.322737 167.285937 
Q 436.522737 167.285937 436.522737 165.085937 
L 436.522737 133.894062 
Q 436.522737 131.694062 434.322737 131.694062 
L 347.995081 131.694062 
Q 345.795081 131.694062 345.795081 133.894062 
L 345.795081 165.085937 
Q 345.795081 167.285937 347.995081 167.285937 
z
" style="fill: #ffffff; opacity: 0.8; stroke: #cccccc; stroke-linejoin: miter"/>
    </g>
    <g id="line2d_18">
     <path d="M 350.195081 140.602344 
L 361.195081 140.602344 
L 372.195081 140.602344 
" style="fill: none; stroke: #0173b2; stroke-width: 1.5; stroke-linecap: round"/>
    </g>
    <g id="text_18">
     <!-- Empirical -->
     <g style="fill: #262626" transform="translate(380.995081 144.452344) scale(0.11 -0.11)">
      <defs>
       <path id="DejaVuSans-45" d="M 628 4666 
L 3578 4666 
L 3578 4134 
L 1259 4134 
L 1259 2753 
L 3481 2753 
L 3481 2222 
L 1259 2222 
L 1259 531 
L 3634 531 
L 3634 0 
L 628 0 
L 628 4666 
z
" transform="scale(0.015625)"/>
       <path id="DejaVuSans-63" d="M 3122 3366 
L 3122 2828 
Q 2878 2963 2633 3030 
Q 2388 3097 2138 3097 
Q 1578 3097 1268 2742 
Q 959 2388 959 1747 
Q 959 1106 1268 751 
Q 1578 397 2138 397 
Q 2388 397 2633 464 
Q 2878 531 3122 666 
L 3122 134 
Q 2881 22 2623 -34 
Q 2366 -91 2075 -91 
Q 1284 -91 818 406 
Q 353 903 353 1747 
Q 353 2603 823 3093 
Q 1294 3584 2113 3584 
Q 2378 3584 2631 3529 
Q 2884 3475 3122 3366 
z
" transform="scale(0.015625)"/>
      </defs>
      <use xlink:href="#DejaVuSans-45"/>
      <use xlink:href="#DejaVuSans-6d" transform="translate(63.183594 0)"/>
      <use xlink:href="#DejaVuSans-70" transform="translate(160.595703 0)"/>
      <use xlink:href="#DejaVuSans-69" transform="translate(224.072266 0)"/>
      <use xlink:href="#DejaVuSans-72" transform="translate(251.855469 0)"/>
      <use xlink:href="#DejaVuSans-69" transform="translate(292.96875 0)"/>
      <use xlink:href="#DejaVuSans-63" transform="translate(320.751953 0)"/>
      <use xlink:href="#DejaVuSans-61" transform="translate(375.732422 0)"/>
      <use xlink:href="#DejaVuSans-6c" transform="translate(437.011719 0)"/>
     </g>
    </g>
    <g id="line2d_19">
     <path d="M 350.195081 156.748281 
L 361.195081 156.748281 
L 372.195081 156.748281 
" style="fill: none; stroke: #de8f05; stroke-width: 1.5; stroke-linecap: round"/>
    </g>
    <g id="text_19">
     <!-- Model -->
     <g style="fill: #262626" transform="translate(380.995081 160.598281) scale(0.11 -0.11)">
      <defs>
       <path id="DejaVuSans-4d" d="M 628 4666 
L 1569 4666 
L 2759 1491 
L 3956 4666 
L 4897 4666 
L 4897 0 
L 4281 0 
L 4281 4097 
L 3078 897 
L 2444 897 
L 1241 4097 
L 1241 0 
L 628 0 
L 628 4666 
z
" transform="scale(0.015625)"/>
      </defs>
      <use xlink:href="#DejaVuSans-4d"/>
      <use xlink:href="#DejaVuSans-6f" transform="translate(86.279297 0)"/>
      <use xlink:href="#DejaVuSans-64" transform="translate(147.460938 0)"/>
      <use xlink:href="#DejaVuSans-65" transform="translate(210.9375 0)"/>
      <use xlink:href="#DejaVuSans-6c" transform="translate(272.460938 0)"/>
     </g>
    </g>
   </g>
   <g id="text_20">
    <!-- KS D = 0.0099 -->
    <g style="fill: #262626" transform="translate(364.619049 272.816211) scale(0.09996 -0.09996)">
     <defs>
      <path id="DejaVuSans-4b" d="M 628 4666 
L 1259 4666 
L 1259 2694 
L 3353 4666 
L 4166 4666 
L 1850 2491 
L 4331 0 
L 3500 0 
L 1259 2247 
L 1259 0 
L 628 0 
L 628 4666 
z
" transform="scale(0.015625)"/>
      <path id="DejaVuSans-53" d="M 3425 4513 
L 3425 3897 
Q 3066 4069 2747 4153 
Q 2428 4238 2131 4238 
Q 1616 4238 1336 4038 
Q 1056 3838 1056 3469 
Q 1056 3159 1242 3001 
Q 1428 2844 1947 2747 
L 2328 2669 
Q 3034 2534 3370 2195 
Q 3706 1856 3706 1288 
Q 3706 609 3251 259 
Q 2797 -91 1919 -91 
Q 1588 -91 1214 -16 
Q 841 59 441 206 
L 441 856 
Q 825 641 1194 531 
Q 1563 422 1919 422 
Q 2459 422 2753 634 
Q 3047 847 3047 1241 
Q 3047 1584 2836 1778 
Q 2625 1972 2144 2069 
L 1759 2144 
Q 1053 2284 737 2584 
Q 422 2884 422 3419 
Q 422 4038 858 4394 
Q 1294 4750 2059 4750 
Q 2388 4750 2728 4690 
Q 3069 4631 3425 4513 
z
" transform="scale(0.015625)"/>
      <path id="DejaVuSans-44" d="M 1259 4147 
L 1259 519 
L 2022 519 
Q 2988 519 3436 956 
Q 3884 1394 3884 2338 
Q 3884 3275 3436 3711 
Q 2988 4147 2022 4147 
L 1259 4147 
z
M 628 4666 
L 1925 4666 
Q 3281 4666 3915 4102 
Q 4550 3538 4550 2338 
Q 4550 1131 3912 565 
Q 3275 0 1925 0 
L 628 0 
L 628 4666 
z
" transform="scale(0.015625)"/>
      <path id="DejaVuSans-3d" d="M 678 2906 
L 4684 2906 
L 4684 2381 
L 678 2381 
L 678 2906 
z
M 678 1631 
L 4684 1631 
L 4684 1100 
L 678 1100 
L 678 1631 
z
" transform="scale(0.015625)"/>
      <path id="DejaVuSans-39" d="M 703 97 
L 703 672 
Q 941 559 1184 500 
Q 1428 441 1663 441 
Q 2288 441 2617 861 
Q 2947 1281 2994 2138 
Q 2813 1869 2534 1725 
Q 2256 1581 1919 1581 
Q 1219 1581 811 2004 
Q 403 2428 403 3163 
Q 403 3881 828 4315 
Q 1253 4750 1959 4750 
Q 2769 4750 3195 4129 
Q 3622 3509 3622 2328 
Q 3622 1225 3098 567 
Q 2575 -91 1691 -91 
Q 1453 -91 1209 -44 
Q 966 3 703 97 
z
M 1959 2075 
Q 2384 2075 2632 2365 
Q 2881 2656 2881 3163 
Q 2881 3666 2632 3958 
Q 2384 4250 1959 4250 
Q 1534 4250 1286 3958 
Q 1038 3666 1038 3163 
Q 1038 2656 1286 2365 
Q 1534 2075 1959 2075 
z
" transform="scale(0.015625)"/>
     </defs>
     <use xlink:href="#DejaVuSans-4b"/>
     <use xlink:href="#DejaVuSans-53" transform="translate(65.576172 0)"/>
     <use xlink:href="#DejaVuSans-20" transform="translate(129.052734 0)"/>
     <use xlink:href="#DejaVuSans-44" transform="translate(160.839844 0)"/>
     <use xlink:href="#DejaVuSans-20" transform="translate(237.841797 0)"/>
     <use xlink:href="#DejaVuSans-3d" transform="translate(269.628906 0)"/>
     <use xlink:href="#DejaVuSans-20" transform="translate(353.417969 0)"/>
     <use xlink:href="#DejaVuSans-30" transform="translate(385.205078 0)"/>
     <use xlink:href="#DejaVuSans-2e" transform="translate(448.828125 0)"/>
     <use xlink:href="#DejaVuSans-30" transform="translate(480.615234 0)"/>
     <use xlink:href="#DejaVuSans-30" transform="translate(544.238281 0)"/>
     <use xlink:href="#DejaVuSans-39" transform="translate(607.861328 0)"/>
     <use xlink:href="#DejaVuSans-39" transform="translate(671.484375 0)"/>
    </g>
    <!-- p = 0.28 -->
    <g style="fill: #262626" transform="translate(394.767922 284.009544) scale(0.09996 -0.09996)">
     <use xlink:href="#DejaVuSans-70"/>
     <use xlink:href="#DejaVuSans-20" transform="translate(63.476562 0)"/>
     <use xlink:href="#DejaVuSans-3d" transform="translate(95.263672 0)"/>
     <use xlink:href="#DejaVuSans-20" transform="translate(179.052734 0)"/>
     <use xlink:href="#DejaVuSans-30" transform="translate(210.839844 0)"/>
     <use xlink:href="#DejaVuSans-2e" transform="translate(274.462891 0)"/>
     <use xlink:href="#DejaVuSans-32" transform="translate(306.25 0)"/>
     <use xlink:href="#DejaVuSans-38" transform="translate(369.873047 0)"/>
    </g>
   </g>
  </g>
 </g>
 <defs>
  <clipPath id="pac999f6e98">
   <rect x="49.807188" y="7.2" width="392.21555" height="284.58"/>
  </clipPath>
 </defs>
</svg>
