<?xml version="1.0" encoding="utf-8" standalone="no"?>
<!DOCTYPE svg PUBLIC "-//W3C//DTD SVG 1.1//EN"
  "http://www.w3.org/Graphics/SVG/1.1/DTD/svg11.dtd">
<svg xmlns:xlink="http://www.w3.org/1999/xlink" width="450.037187pt" height="334.739687pt" viewBox="0 0 450.037187 334.739687" xmlns="http://www.w3.org/2000/svg" version="1.1">
 <metadata>
  <rdf:RDF xmlns:dc="http://purl.org/dc/elements/1.1/" xmlns:cc="http://creativecommons.org/ns#" xmlns:rdf="http://www.w3.org/1999/02/22-rdf-syntax-ns#">
   <cc:Work>
    <dc:type rdf:resource="http://purl.org/dc/dcmitype/StillImage"/>
    <dc:date>2026-05-15T15:09:49.247579</dc:date>
    <dc:format>image/svg+xml</dc:format>
    <dc:creator>
     <cc:Agent>
      <dc:title>Matplotlib v3.10.9, https://matplotlib.org/</dc:title>
     </cc:Agent>
    </dc:creator>
   </cc:Work>
  </rdf:RDF>
 </metadata>
 <defs>
  <style type="text/css">*{stroke-linejoin: round; stroke-linecap: butt}</style>
 </defs>
 <g id="figure_1">
  <g id="patch_1">
   <path d="M 0 334.739687 
L 450.037187 334.739687 
L 450.037187 0 
L 0 0 
z
" style="fill: #ffffff"/>
  </g>
  <g id="axes_1">
   <g id="patch_2">
    <path d="M 49.807188 291.78 
L 442.837188 291.78 
L 442.837188 7.2 
L 49.807188 7.2 
z
" style="fill: #ffffff"/>
   </g>
   <g id="matplotlib.axis_1">
    <g id="xtick_1">
     <g id="line2d_1">
      <defs>
       <path id="m8d5dda69f3" d="M 0 0 
L 0 6 
" style="stroke: #262626; stroke-width: 1.25"/>
      </defs>
      <g>
       <use xlink:href="#m8d5dda69f3" x="63.039455" y="291.78" style="fill: #262626; stroke: #262626; stroke-width: 1.25"/>
      </g>
     </g>
     <g id="text_1">
      <!-- 0 -->
      <g style="fill: #262626" transform="translate(59.54008 309.638281) scale(0.11 -0.11)">
       <defs>
        <path id="DejaVuSans-30" d="M 2034 4250 
Q 1547 4250 1301 3770 
Q 1056 3291 1056 2328 
Q 1056 1369 1301 889 
Q 1547 409 2034 409 
Q 2525 409 2770 889 
Q 3016 1369 3016 2328 
Q 3016 3291 2770 3770 
Q 2525 4250 2034 4250 
z
M 2034 4750 
Q 2819 4750 3233 4129 
Q 3647 3509 3647 2328 
Q 3647 1150 3233 529 
Q 2819 -91 2034 -91 
Q 1250 -91 836 529 
Q 422 1150 422 2328 
Q 422 3509 836 4129 
Q 1250 4750 2034 4750 
z
" transform="scale(0.015625)"/>
       </defs>
       <use xlink:href="#DejaVuSans-30"/>
      </g>
     </g>
    </g>
    <g id="xtick_2">
     <g id="line2d_2">
      <g>
       <use xlink:href="#m8d5dda69f3" x="149.570137" y="291.78" style="fill: #262626; stroke: #262626; stroke-width: 1.25"/>
      </g>
     </g>
     <g id="text_2">
      <!-- 10 -->
      <g style="fill: #262626" transform="translate(142.571387 309.638281) scale(0.11 -0.11)">
       <defs>
        <path id="DejaVuSans-31" d="M 794 531 
L 1825 531 
L 1825 4091 
L 703 3866 
L 703 4441 
L 1819 4666 
L 2450 4666 
L 2450 531 
L 3481 531 
L 3481 0 
L 794 0 
L 794 531 
z
" transform="scale(0.015625)"/>
       </defs>
       <use xlink:href="#DejaVuSans-31"/>
       <use xlink:href="#DejaVuSans-30" transform="translate(63.623047 0)"/>
      </g>
     </g>
    </g>
    <g id="xtick_3">
     <g id="line2d_3">
      <g>
       <use xlink:href="#m8d5dda69f3" x="236.100819" y="291.78" style="fill: #262626; stroke: #262626; stroke-width: 1.25"/>
      </g>
     </g>
     <g id="text_3">
      <!-- 20 -->
      <g style="fill: #262626" transform="translate(229.102069 309.638281) scale(0.11 -0.11)">
       <defs>
        <path id="DejaVuSans-32" d="M 1228 531 
L 3431 531 
L 3431 0 
L 469 0 
L 469 531 
Q 828 903 1448 1529 
Q 2069 2156 2228 2338 
Q 2531 2678 2651 2914 
Q 2772 3150 2772 3378 
Q 2772 3750 2511 3984 
Q 2250 4219 1831 4219 
Q 1534 4219 1204 4116 
Q 875 4013 500 3803 
L 500 4441 
Q 881 4594 1212 4672 
Q 1544 4750 1819 4750 
Q 2544 4750 2975 4387 
Q 3406 4025 3406 3419 
Q 3406 3131 3298 2873 
Q 3191 2616 2906 2266 
Q 2828 2175 2409 1742 
Q 1991 1309 1228 531 
z
" transform="scale(0.015625)"/>
       </defs>
       <use xlink:href="#DejaVuSans-32"/>
       <use xlink:href="#DejaVuSans-30" transform="translate(63.623047 0)"/>
      </g>
     </g>
    </g>
    <g id="xtick_4">
     <g id="line2d_4">
      <g>
       <use xlink:href="#m8d5dda69f3" x="322.6315" y="291.78" style="fill: #262626; stroke: #262626; stroke-width: 1.25"/>
      </g>
     </g>
     <g id="text_4">
      <!-- 30 -->
      <g style="fill: #262626" transform="translate(315.63275 309.638281) scale(0.11 -0.11)">
       <defs>
        <path id="DejaVuSans-33" d="M 2597 2516 
Q 3050 2419 3304 2112 
Q 3559 1806 3559 1356 
Q 3559 666 3084 287 
Q 2609 -91 1734 -91 
Q 1441 -91 1130 -33 
Q 819 25 488 141 
L 488 750 
Q 750 597 1062 519 
Q 1375 441 1716 441 
Q 2309 441 2620 675 
Q 2931 909 2931 1356 
Q 2931 1769 2642 2001 
Q 2353 2234 1838 2234 
L 1294 2234 
L 1294 2753 
L 1863 2753 
Q 2328 2753 2575 2939 
Q 2822 3125 2822 3475 
Q 2822 3834 2567 4026 
Q 2313 4219 1838 4219 
Q 1578 4219 1281 4162 
Q 984 4106 628 3988 
L 628 4550 
Q 988 4650 1302 4700 
Q 1616 4750 1894 4750 
Q 2613 4750 3031 4423 
Q 3450 4097 3450 3541 
Q 3450 3153 3228 2886 
Q 3006 2619 2597 2516 
z
" transform="scale(0.015625)"/>
       </defs>
       <use xlink:href="#DejaVuSans-33"/>
       <use xlink:href="#DejaVuSans-30" transform="translate(63.623047 0)"/>
      </g>
     </g>
    </g>
    <g id="xtick_5">
     <g id="line2d_5">
      <g>
       <use xlink:href="#m8d5dda69f3" x="409.162182" y="291.78" style="fill: #262626; stroke: #262626; stroke-width: 1.25"/>
      </g>
     </g>
     <g id="text_5">
      <!-- 40 -->
      <g style="fill: #262626" transform="translate(402.163432 309.638281) scale(0.11 -0.11)">
       <defs>
        <path id="DejaVuSans-34" d="M 2419 4116 
L 825 1625 
L 2419 1625 
L 2419 4116 
z
M 2253 4666 
L 3047 4666 
L 3047 1625 
L 3713 1625 
L 3713 1100 
L 3047 1100 
L 3047 0 
L 2419 0 
L 2419 1100 
L 313 1100 
L 313 1709 
L 2253 4666 
z
" transform="scale(0.015625)"/>
       </defs>
       <use xlink:href="#DejaVuSans-34"/>
       <use xlink:href="#DejaVuSans-30" transform="translate(63.623047 0)"/>
      </g>
     </g>
    </g>
    <g id="text_6">
     <!-- Dirichlet process concentration -->
     <g style="fill: #262626" transform="translate(152.666875 325.044062) scale(0.12 -0.12)">
      <defs>
       <path id="DejaVuSans-44" d="M 1259 4147 
L 1259 519 
L 2022 519 
Q 2988 519 3436 956 
Q 3884 1394 3884 2338 
Q 3884 3275 3436 3711 
Q 2988 4147 2022 4147 
L 1259 4147 
z
M 628 4666 
L 1925 4666 
Q 3281 4666 3915 4102 
Q 4550 3538 4550 2338 
Q 4550 1131 3912 565 
Q 3275 0 1925 0 
L 628 0 
L 628 4666 
z
" transform="scale(0.015625)"/>
       <path id="DejaVuSans-69" d="M 603 3500 
L 1178 3500 
L 1178 0 
L 603 0 
L 603 3500 
z
M 603 4863 
L 1178 4863 
L 1178 4134 
L 603 4134 
L 603 4863 
z
" transform="scale(0.015625)"/>
       <path id="DejaVuSans-72" d="M 2631 2963 
Q 2534 3019 2420 3045 
Q 2306 3072 2169 3072 
Q 1681 3072 1420 2755 
Q 1159 2438 1159 1844 
L 1159 0 
L 581 0 
L 581 3500 
L 1159 3500 
L 1159 2956 
Q 1341 3275 1631 3429 
Q 1922 3584 2338 3584 
Q 2397 3584 2469 3576 
Q 2541 3569 2628 3553 
L 2631 2963 
z
" transform="scale(0.015625)"/>
       <path id="DejaVuSans-63" d="M 3122 3366 
L 3122 2828 
Q 2878 2963 2633 3030 
Q 2388 3097 2138 3097 
Q 1578 3097 1268 2742 
Q 959 2388 959 1747 
Q 959 1106 1268 751 
Q 1578 397 2138 397 
Q 2388 397 2633 464 
Q 2878 531 3122 666 
L 3122 134 
Q 2881 22 2623 -34 
Q 2366 -91 2075 -91 
Q 1284 -91 818 406 
Q 353 903 353 1747 
Q 353 2603 823 3093 
Q 1294 3584 2113 3584 
Q 2378 3584 2631 3529 
Q 2884 3475 3122 3366 
z
" transform="scale(0.015625)"/>
       <path id="DejaVuSans-68" d="M 3513 2113 
L 3513 0 
L 2938 0 
L 2938 2094 
Q 2938 2591 2744 2837 
Q 2550 3084 2163 3084 
Q 1697 3084 1428 2787 
Q 1159 2491 1159 1978 
L 1159 0 
L 581 0 
L 581 4863 
L 1159 4863 
L 1159 2956 
Q 1366 3272 1645 3428 
Q 1925 3584 2291 3584 
Q 2894 3584 3203 3211 
Q 3513 2838 3513 2113 
z
" transform="scale(0.015625)"/>
       <path id="DejaVuSans-6c" d="M 603 4863 
L 1178 4863 
L 1178 0 
L 603 0 
L 603 4863 
z
" transform="scale(0.015625)"/>
       <path id="DejaVuSans-65" d="M 3597 1894 
L 3597 1613 
L 953 1613 
Q 991 1019 1311 708 
Q 1631 397 2203 397 
Q 2534 397 2845 478 
Q 3156 559 3463 722 
L 3463 178 
Q 3153 47 2828 -22 
Q 2503 -91 2169 -91 
Q 1331 -91 842 396 
Q 353 884 353 1716 
Q 353 2575 817 3079 
Q 1281 3584 2069 3584 
Q 2775 3584 3186 3129 
Q 3597 2675 3597 1894 
z
M 3022 2063 
Q 3016 2534 2758 2815 
Q 2500 3097 2075 3097 
Q 1594 3097 1305 2825 
Q 1016 2553 972 2059 
L 3022 2063 
z
" transform="scale(0.015625)"/>
       <path id="DejaVuSans-74" d="M 1172 4494 
L 1172 3500 
L 2356 3500 
L 2356 3053 
L 1172 3053 
L 1172 1153 
Q 1172 725 1289 603 
Q 1406 481 1766 481 
L 2356 481 
L 2356 0 
L 1766 0 
Q 1100 0 847 248 
Q 594 497 594 1153 
L 594 3053 
L 172 3053 
L 172 3500 
L 594 3500 
L 594 4494 
L 1172 4494 
z
" transform="scale(0.015625)"/>
       <path id="DejaVuSans-20" transform="scale(0.015625)"/>
       <path id="DejaVuSans-70" d="M 1159 525 
L 1159 -1331 
L 581 -1331 
L 581 3500 
L 1159 3500 
L 1159 2969 
Q 1341 3281 1617 3432 
Q 1894 3584 2278 3584 
Q 2916 3584 3314 3078 
Q 3713 2572 3713 1747 
Q 3713 922 3314 415 
Q 2916 -91 2278 -91 
Q 1894 -91 1617 61 
Q 1341 213 1159 525 
z
M 3116 1747 
Q 3116 2381 2855 2742 
Q 2594 3103 2138 3103 
Q 1681 3103 1420 2742 
Q 1159 2381 1159 1747 
Q 1159 1113 1420 752 
Q 1681 391 2138 391 
Q 2594 391 2855 752 
Q 3116 1113 3116 1747 
z
" transform="scale(0.015625)"/>
       <path id="DejaVuSans-6f" d="M 1959 3097 
Q 1497 3097 1228 2736 
Q 959 2375 959 1747 
Q 959 1119 1226 758 
Q 1494 397 1959 397 
Q 2419 397 2687 759 
Q 2956 1122 2956 1747 
Q 2956 2369 2687 2733 
Q 2419 3097 1959 3097 
z
M 1959 3584 
Q 2709 3584 3137 3096 
Q 3566 2609 3566 1747 
Q 3566 888 3137 398 
Q 2709 -91 1959 -91 
Q 1206 -91 779 398 
Q 353 888 353 1747 
Q 353 2609 779 3096 
Q 1206 3584 1959 3584 
z
" transform="scale(0.015625)"/>
       <path id="DejaVuSans-73" d="M 2834 3397 
L 2834 2853 
Q 2591 2978 2328 3040 
Q 2066 3103 1784 3103 
Q 1356 3103 1142 2972 
Q 928 2841 928 2578 
Q 928 2378 1081 2264 
Q 1234 2150 1697 2047 
L 1894 2003 
Q 2506 1872 2764 1633 
Q 3022 1394 3022 966 
Q 3022 478 2636 193 
Q 2250 -91 1575 -91 
Q 1294 -91 989 -36 
Q 684 19 347 128 
L 347 722 
Q 666 556 975 473 
Q 1284 391 1588 391 
Q 1994 391 2212 530 
Q 2431 669 2431 922 
Q 2431 1156 2273 1281 
Q 2116 1406 1581 1522 
L 1381 1569 
Q 847 1681 609 1914 
Q 372 2147 372 2553 
Q 372 3047 722 3315 
Q 1072 3584 1716 3584 
Q 2034 3584 2315 3537 
Q 2597 3491 2834 3397 
z
" transform="scale(0.015625)"/>
       <path id="DejaVuSans-6e" d="M 3513 2113 
L 3513 0 
L 2938 0 
L 2938 2094 
Q 2938 2591 2744 2837 
Q 2550 3084 2163 3084 
Q 1697 3084 1428 2787 
Q 1159 2491 1159 1978 
L 1159 0 
L 581 0 
L 581 3500 
L 1159 3500 
L 1159 2956 
Q 1366 3272 1645 3428 
Q 1925 3584 2291 3584 
Q 2894 3584 3203 3211 
Q 3513 2838 3513 2113 
z
" transform="scale(0.015625)"/>
       <path id="DejaVuSans-61" d="M 2194 1759 
Q 1497 1759 1228 1600 
Q 959 1441 959 1056 
Q 959 750 1161 570 
Q 1363 391 1709 391 
Q 2188 391 2477 730 
Q 2766 1069 2766 1631 
L 2766 1759 
L 2194 1759 
z
M 3341 1997 
L 3341 0 
L 2766 0 
L 2766 531 
Q 2569 213 2275 61 
Q 1981 -91 1556 -91 
Q 1019 -91 701 211 
Q 384 513 384 1019 
Q 384 1609 779 1909 
Q 1175 2209 1959 2209 
L 2766 2209 
L 2766 2266 
Q 2766 2663 2505 2880 
Q 2244 3097 1772 3097 
Q 1472 3097 1187 3025 
Q 903 2953 641 2809 
L 641 3341 
Q 956 3463 1253 3523 
Q 1550 3584 1831 3584 
Q 2591 3584 2966 3190 
Q 3341 2797 3341 1997 
z
" transform="scale(0.015625)"/>
      </defs>
      <use xlink:href="#DejaVuSans-44"/>
      <use xlink:href="#DejaVuSans-69" transform="translate(77.001953 0)"/>
      <use xlink:href="#DejaVuSans-72" transform="translate(104.785156 0)"/>
      <use xlink:href="#DejaVuSans-69" transform="translate(145.898438 0)"/>
      <use xlink:href="#DejaVuSans-63" transform="translate(173.681641 0)"/>
      <use xlink:href="#DejaVuSans-68" transform="translate(228.662109 0)"/>
      <use xlink:href="#DejaVuSans-6c" transform="translate(292.041016 0)"/>
      <use xlink:href="#DejaVuSans-65" transform="translate(319.824219 0)"/>
      <use xlink:href="#DejaVuSans-74" transform="translate(381.347656 0)"/>
      <use xlink:href="#DejaVuSans-20" transform="translate(420.556641 0)"/>
      <use xlink:href="#DejaVuSans-70" transform="translate(452.34375 0)"/>
      <use xlink:href="#DejaVuSans-72" transform="translate(515.820312 0)"/>
      <use xlink:href="#DejaVuSans-6f" transform="translate(554.683594 0)"/>
      <use xlink:href="#DejaVuSans-63" transform="translate(615.865234 0)"/>
      <use xlink:href="#DejaVuSans-65" transform="translate(670.845703 0)"/>
      <use xlink:href="#DejaVuSans-73" transform="translate(732.369141 0)"/>
      <use xlink:href="#DejaVuSans-73" transform="translate(784.46875 0)"/>
      <use xlink:href="#DejaVuSans-20" transform="translate(836.568359 0)"/>
      <use xlink:href="#DejaVuSans-63" transform="translate(868.355469 0)"/>
      <use xlink:href="#DejaVuSans-6f" transform="translate(923.335938 0)"/>
      <use xlink:href="#DejaVuSans-6e" transform="translate(984.517578 0)"/>
      <use xlink:href="#DejaVuSans-63" transform="translate(1047.896484 0)"/>
      <use xlink:href="#DejaVuSans-65" transform="translate(1102.876953 0)"/>
      <use xlink:href="#DejaVuSans-6e" transform="translate(1164.400391 0)"/>
      <use xlink:href="#DejaVuSans-74" transform="translate(1227.779297 0)"/>
      <use xlink:href="#DejaVuSans-72" transform="translate(1266.988281 0)"/>
      <use xlink:href="#DejaVuSans-61" transform="translate(1308.101562 0)"/>
      <use xlink:href="#DejaVuSans-74" transform="translate(1369.380859 0)"/>
      <use xlink:href="#DejaVuSans-69" transform="translate(1408.589844 0)"/>
      <use xlink:href="#DejaVuSans-6f" transform="translate(1436.373047 0)"/>
      <use xlink:href="#DejaVuSans-6e" transform="translate(1497.554688 0)"/>
     </g>
    </g>
   </g>
   <g id="matplotlib.axis_2">
    <g id="ytick_1">
     <g id="line2d_6">
      <defs>
       <path id="m980f777642" d="M 0 0 
L -6 0 
" style="stroke: #262626; stroke-width: 1.25"/>
      </defs>
      <g>
       <use xlink:href="#m980f777642" x="49.807188" y="278.844545" style="fill: #262626; stroke: #262626; stroke-width: 1.25"/>
      </g>
     </g>
     <g id="text_7">
      <!-- 0.0 -->
      <g style="fill: #262626" transform="translate(22.81375 283.023686) scale(0.11 -0.11)">
       <defs>
        <path id="DejaVuSans-2e" d="M 684 794 
L 1344 794 
L 1344 0 
L 684 0 
L 684 794 
z
" transform="scale(0.015625)"/>
       </defs>
       <use xlink:href="#DejaVuSans-30"/>
       <use xlink:href="#DejaVuSans-2e" transform="translate(63.623047 0)"/>
       <use xlink:href="#DejaVuSans-30" transform="translate(95.410156 0)"/>
      </g>
     </g>
    </g>
    <g id="ytick_2">
     <g id="line2d_7">
      <g>
       <use xlink:href="#m980f777642" x="49.807188" y="227.097553" style="fill: #262626; stroke: #262626; stroke-width: 1.25"/>
      </g>
     </g>
     <g id="text_8">
      <!-- 0.2 -->
      <g style="fill: #262626" transform="translate(22.81375 231.276693) scale(0.11 -0.11)">
       <use xlink:href="#DejaVuSans-30"/>
       <use xlink:href="#DejaVuSans-2e" transform="translate(63.623047 0)"/>
       <use xlink:href="#DejaVuSans-32" transform="translate(95.410156 0)"/>
      </g>
     </g>
    </g>
    <g id="ytick_3">
     <g id="line2d_8">
      <g>
       <use xlink:href="#m980f777642" x="49.807188" y="175.35056" style="fill: #262626; stroke: #262626; stroke-width: 1.25"/>
      </g>
     </g>
     <g id="text_9">
      <!-- 0.4 -->
      <g style="fill: #262626" transform="translate(22.81375 179.5297) scale(0.11 -0.11)">
       <use xlink:href="#DejaVuSans-30"/>
       <use xlink:href="#DejaVuSans-2e" transform="translate(63.623047 0)"/>
       <use xlink:href="#DejaVuSans-34" transform="translate(95.410156 0)"/>
      </g>
     </g>
    </g>
    <g id="ytick_4">
     <g id="line2d_9">
      <g>
       <use xlink:href="#m980f777642" x="49.807188" y="123.603567" style="fill: #262626; stroke: #262626; stroke-width: 1.25"/>
      </g>
     </g>
     <g id="text_10">
      <!-- 0.6 -->
      <g style="fill: #262626" transform="translate(22.81375 127.782707) scale(0.11 -0.11)">
       <defs>
        <path id="DejaVuSans-36" d="M 2113 2584 
Q 1688 2584 1439 2293 
Q 1191 2003 1191 1497 
Q 1191 994 1439 701 
Q 1688 409 2113 409 
Q 2538 409 2786 701 
Q 3034 994 3034 1497 
Q 3034 2003 2786 2293 
Q 2538 2584 2113 2584 
z
M 3366 4563 
L 3366 3988 
Q 3128 4100 2886 4159 
Q 2644 4219 2406 4219 
Q 1781 4219 1451 3797 
Q 1122 3375 1075 2522 
Q 1259 2794 1537 2939 
Q 1816 3084 2150 3084 
Q 2853 3084 3261 2657 
Q 3669 2231 3669 1497 
Q 3669 778 3244 343 
Q 2819 -91 2113 -91 
Q 1303 -91 875 529 
Q 447 1150 447 2328 
Q 447 3434 972 4092 
Q 1497 4750 2381 4750 
Q 2619 4750 2861 4703 
Q 3103 4656 3366 4563 
z
" transform="scale(0.015625)"/>
       </defs>
       <use xlink:href="#DejaVuSans-30"/>
       <use xlink:href="#DejaVuSans-2e" transform="translate(63.623047 0)"/>
       <use xlink:href="#DejaVuSans-36" transform="translate(95.410156 0)"/>
      </g>
     </g>
    </g>
    <g id="ytick_5">
     <g id="line2d_10">
      <g>
       <use xlink:href="#m980f777642" x="49.807188" y="71.856574" style="fill: #262626; stroke: #262626; stroke-width: 1.25"/>
      </g>
     </g>
     <g id="text_11">
      <!-- 0.8 -->
      <g style="fill: #262626" transform="translate(22.81375 76.035715) scale(0.11 -0.11)">
       <defs>
        <path id="DejaVuSans-38" d="M 2034 2216 
Q 1584 2216 1326 1975 
Q 1069 1734 1069 1313 
Q 1069 891 1326 650 
Q 1584 409 2034 409 
Q 2484 409 2743 651 
Q 3003 894 3003 1313 
Q 3003 1734 2745 1975 
Q 2488 2216 2034 2216 
z
M 1403 2484 
Q 997 2584 770 2862 
Q 544 3141 544 3541 
Q 544 4100 942 4425 
Q 1341 4750 2034 4750 
Q 2731 4750 3128 4425 
Q 3525 4100 3525 3541 
Q 3525 3141 3298 2862 
Q 3072 2584 2669 2484 
Q 3125 2378 3379 2068 
Q 3634 1759 3634 1313 
Q 3634 634 3220 271 
Q 2806 -91 2034 -91 
Q 1263 -91 848 271 
Q 434 634 434 1313 
Q 434 1759 690 2068 
Q 947 2378 1403 2484 
z
M 1172 3481 
Q 1172 3119 1398 2916 
Q 1625 2713 2034 2713 
Q 2441 2713 2670 2916 
Q 2900 3119 2900 3481 
Q 2900 3844 2670 4047 
Q 2441 4250 2034 4250 
Q 1625 4250 1398 4047 
Q 1172 3844 1172 3481 
z
" transform="scale(0.015625)"/>
       </defs>
       <use xlink:href="#DejaVuSans-30"/>
       <use xlink:href="#DejaVuSans-2e" transform="translate(63.623047 0)"/>
       <use xlink:href="#DejaVuSans-38" transform="translate(95.410156 0)"/>
      </g>
     </g>
    </g>
    <g id="ytick_6">
     <g id="line2d_11">
      <g>
       <use xlink:href="#m980f777642" x="49.807188" y="20.109581" style="fill: #262626; stroke: #262626; stroke-width: 1.25"/>
      </g>
     </g>
     <g id="text_12">
      <!-- 1.0 -->
      <g style="fill: #262626" transform="translate(22.81375 24.288722) scale(0.11 -0.11)">
       <use xlink:href="#DejaVuSans-31"/>
       <use xlink:href="#DejaVuSans-2e" transform="translate(63.623047 0)"/>
       <use xlink:href="#DejaVuSans-30" transform="translate(95.410156 0)"/>
      </g>
     </g>
    </g>
    <g id="text_13">
     <!-- Cumulative density -->
     <g style="fill: #262626" transform="translate(16.318125 207.64125) rotate(-90) scale(0.12 -0.12)">
      <defs>
       <path id="DejaVuSans-43" d="M 4122 4306 
L 4122 3641 
Q 3803 3938 3442 4084 
Q 3081 4231 2675 4231 
Q 1875 4231 1450 3742 
Q 1025 3253 1025 2328 
Q 1025 1406 1450 917 
Q 1875 428 2675 428 
Q 3081 428 3442 575 
Q 3803 722 4122 1019 
L 4122 359 
Q 3791 134 3420 21 
Q 3050 -91 2638 -91 
Q 1578 -91 968 557 
Q 359 1206 359 2328 
Q 359 3453 968 4101 
Q 1578 4750 2638 4750 
Q 3056 4750 3426 4639 
Q 3797 4528 4122 4306 
z
" transform="scale(0.015625)"/>
       <path id="DejaVuSans-75" d="M 544 1381 
L 544 3500 
L 1119 3500 
L 1119 1403 
Q 1119 906 1312 657 
Q 1506 409 1894 409 
Q 2359 409 2629 706 
Q 2900 1003 2900 1516 
L 2900 3500 
L 3475 3500 
L 3475 0 
L 2900 0 
L 2900 538 
Q 2691 219 2414 64 
Q 2138 -91 1772 -91 
Q 1169 -91 856 284 
Q 544 659 544 1381 
z
M 1991 3584 
L 1991 3584 
z
" transform="scale(0.015625)"/>
       <path id="DejaVuSans-6d" d="M 3328 2828 
Q 3544 3216 3844 3400 
Q 4144 3584 4550 3584 
Q 5097 3584 5394 3201 
Q 5691 2819 5691 2113 
L 5691 0 
L 5113 0 
L 5113 2094 
Q 5113 2597 4934 2840 
Q 4756 3084 4391 3084 
Q 3944 3084 3684 2787 
Q 3425 2491 3425 1978 
L 3425 0 
L 2847 0 
L 2847 2094 
Q 2847 2600 2669 2842 
Q 2491 3084 2119 3084 
Q 1678 3084 1418 2786 
Q 1159 2488 1159 1978 
L 1159 0 
L 581 0 
L 581 3500 
L 1159 3500 
L 1159 2956 
Q 1356 3278 1631 3431 
Q 1906 3584 2284 3584 
Q 2666 3584 2933 3390 
Q 3200 3197 3328 2828 
z
" transform="scale(0.015625)"/>
       <path id="DejaVuSans-76" d="M 191 3500 
L 800 3500 
L 1894 563 
L 2988 3500 
L 3597 3500 
L 2284 0 
L 1503 0 
L 191 3500 
z
" transform="scale(0.015625)"/>
       <path id="DejaVuSans-64" d="M 2906 2969 
L 2906 4863 
L 3481 4863 
L 3481 0 
L 2906 0 
L 2906 525 
Q 2725 213 2448 61 
Q 2172 -91 1784 -91 
Q 1150 -91 751 415 
Q 353 922 353 1747 
Q 353 2572 751 3078 
Q 1150 3584 1784 3584 
Q 2172 3584 2448 3432 
Q 2725 3281 2906 2969 
z
M 947 1747 
Q 947 1113 1208 752 
Q 1469 391 1925 391 
Q 2381 391 2643 752 
Q 2906 1113 2906 1747 
Q 2906 2381 2643 2742 
Q 2381 3103 1925 3103 
Q 1469 3103 1208 2742 
Q 947 2381 947 1747 
z
" transform="scale(0.015625)"/>
       <path id="DejaVuSans-79" d="M 2059 -325 
Q 1816 -950 1584 -1140 
Q 1353 -1331 966 -1331 
L 506 -1331 
L 506 -850 
L 844 -850 
Q 1081 -850 1212 -737 
Q 1344 -625 1503 -206 
L 1606 56 
L 191 3500 
L 800 3500 
L 1894 763 
L 2988 3500 
L 3597 3500 
L 2059 -325 
z
" transform="scale(0.015625)"/>
      </defs>
      <use xlink:href="#DejaVuSans-43"/>
      <use xlink:href="#DejaVuSans-75" transform="translate(69.824219 0)"/>
      <use xlink:href="#DejaVuSans-6d" transform="translate(133.203125 0)"/>
      <use xlink:href="#DejaVuSans-75" transform="translate(230.615234 0)"/>
      <use xlink:href="#DejaVuSans-6c" transform="translate(293.994141 0)"/>
      <use xlink:href="#DejaVuSans-61" transform="translate(321.777344 0)"/>
      <use xlink:href="#DejaVuSans-74" transform="translate(383.056641 0)"/>
      <use xlink:href="#DejaVuSans-69" transform="translate(422.265625 0)"/>
      <use xlink:href="#DejaVuSans-76" transform="translate(450.048828 0)"/>
      <use xlink:href="#DejaVuSans-65" transform="translate(509.228516 0)"/>
      <use xlink:href="#DejaVuSans-20" transform="translate(570.751953 0)"/>
      <use xlink:href="#DejaVuSans-64" transform="translate(602.539062 0)"/>
      <use xlink:href="#DejaVuSans-65" transform="translate(666.015625 0)"/>
      <use xlink:href="#DejaVuSans-6e" transform="translate(727.539062 0)"/>
      <use xlink:href="#DejaVuSans-73" transform="translate(790.917969 0)"/>
      <use xlink:href="#DejaVuSans-69" transform="translate(843.017578 0)"/>
      <use xlink:href="#DejaVuSans-74" transform="translate(870.800781 0)"/>
      <use xlink:href="#DejaVuSans-79" transform="translate(910.009766 0)"/>
     </g>
    </g>
   </g>
   <g id="FillBetweenPolyCollection_1">
    <defs>
     <path id="m0040dd063d" d="M 128.946134 -149.945302 
L 128.946134 -149.919428 
L 128.946134 -149.945302 
L 128.946134 -149.945302 
z
" style="stroke: #0173b2; stroke-opacity: 0.2"/>
    </defs>
    <g clip-path="url(#p2148bcea7e)">
     <use xlink:href="#m0040dd063d" x="0" y="334.739687" style="fill: #0173b2; fill-opacity: 0.2; stroke: #0173b2; stroke-opacity: 0.2"/>
    </g>
   </g>
   <g id="FillBetweenPolyCollection_2"/>
   <g id="line2d_12">
    <path d="M 67.672188 278.844545 
L 71.189901 278.663431 
L 75.230933 278.275329 
L 77.506741 277.809606 
L 77.630199 277.731985 
L 78.644325 277.421503 
L 80.080933 276.904033 
L 80.531266 276.671172 
L 80.986722 276.386563 
L 81.686091 276.179575 
L 81.794454 276.024334 
L 82.28261 275.713852 
L 82.893285 275.299876 
L 83.799305 274.627166 
L 84.03921 274.497798 
L 84.164935 274.394304 
L 84.640022 274.135569 
L 84.979323 273.850961 
L 85.077252 273.77334 
L 85.657199 273.385238 
L 86.868242 272.065689 
L 87.012471 271.910448 
L 87.375703 271.548219 
L 87.567309 271.263611 
L 87.646995 271.10837 
L 87.718245 270.849635 
L 88.008093 270.642647 
L 88.094678 270.51328 
L 88.398333 270.280418 
L 88.599388 269.99581 
L 88.876558 269.711201 
L 88.972018 269.530087 
L 89.510555 268.986743 
L 89.734565 268.779755 
L 89.876026 268.650388 
L 90.066709 268.495147 
L 91.970091 266.580508 
L 92.339141 266.2959 
L 92.532169 266.037165 
L 92.686611 265.830177 
L 93.007175 265.26096 
L 93.135357 265.105719 
L 93.7509 264.22602 
L 94.610993 263.268701 
L 94.784378 263.061713 
L 94.971222 262.854725 
L 95.061284 262.67361 
L 95.259657 262.440749 
L 95.391486 262.07852 
L 95.654824 261.690417 
L 95.854295 261.405809 
L 96.131766 260.991833 
L 96.242212 260.784845 
L 96.553452 260.241502 
L 96.638568 260.00864 
L 96.761655 259.853399 
L 96.903014 259.568791 
L 97.117385 259.103068 
L 97.330165 258.844333 
L 97.44111 258.637345 
L 97.890763 258.068128 
L 98.010439 257.86114 
L 98.127188 257.628278 
L 98.328208 257.136682 
L 98.458112 256.800326 
L 98.661517 256.515718 
L 99.146119 255.843007 
L 99.229241 255.661893 
L 99.326888 255.480778 
L 99.444779 255.170296 
L 99.575675 254.885688 
L 99.804814 254.419965 
L 99.960218 254.16123 
L 100.147347 253.592013 
L 100.317214 253.307404 
L 100.498828 252.789935 
L 100.65356 252.660567 
L 100.780458 252.453579 
L 101.1293 251.754995 
L 101.34404 251.548007 
L 103.033592 248.029211 
L 103.169998 247.822223 
L 103.331498 247.511741 
L 103.506115 247.046018 
L 103.941887 246.295687 
L 104.187675 246.088699 
L 104.292315 245.80409 
L 104.461944 245.467735 
L 104.64188 244.924392 
L 104.893581 244.303428 
L 104.998179 244.070566 
L 105.114144 243.863578 
L 105.186618 243.708337 
L 105.291352 243.553096 
L 105.831151 242.62165 
L 105.906419 242.440536 
L 106.018448 242.130054 
L 106.186142 241.612584 
L 106.37427 241.353849 
L 106.490281 241.120988 
L 106.554446 240.914 
L 106.794586 240.370656 
L 106.974326 239.982554 
L 107.082515 239.568578 
L 107.353288 238.947614 
L 107.542037 238.740626 
L 107.656679 238.533638 
L 107.791002 238.32665 
L 107.876121 238.067915 
L 107.994453 237.938548 
L 108.19607 237.498698 
L 108.276698 237.162343 
L 108.43098 237.007102 
L 108.487002 236.825987 
L 109.024969 235.325324 
L 109.125802 235.170083 
L 109.262537 234.781981 
L 109.434375 234.419752 
L 109.588618 233.979903 
L 109.702984 233.669421 
L 109.831523 233.333065 
L 110.831564 230.900957 
L 110.937952 230.512854 
L 111.004533 230.305866 
L 111.134777 229.840143 
L 111.199546 229.555535 
L 111.494906 228.986318 
L 111.698346 228.546468 
L 117.099676 215.971949 
L 117.202691 215.764961 
L 117.468159 215.118124 
L 117.526062 214.937009 
L 117.650743 214.548907 
L 118.110898 213.358726 
L 118.233258 212.86713 
L 118.334007 212.660142 
L 118.544748 212.194419 
L 118.621303 211.961557 
L 118.766319 211.444087 
L 118.885703 211.185352 
L 119.055004 210.564388 
L 120.200248 207.744177 
L 120.37017 207.381948 
L 120.429702 207.200834 
L 120.578137 206.916225 
L 120.832754 206.165894 
L 121.304787 204.639358 
L 121.577626 203.863153 
L 121.683446 203.39743 
L 121.772319 203.242189 
L 122.120227 202.543604 
L 122.231159 202.233122 
L 122.412003 201.586285 
L 122.584147 201.146436 
L 122.691399 200.913574 
L 122.789763 200.680713 
L 122.993422 200.033875 
L 123.073815 199.826887 
L 123.282441 199.076556 
L 123.398192 198.688453 
L 123.5054 198.533213 
L 124.011598 197.317158 
L 124.121649 196.929056 
L 124.239307 196.618574 
L 124.451591 196.049357 
L 125.068692 194.264086 
L 125.232772 193.92773 
L 125.312211 193.772489 
L 125.702157 192.841043 
L 125.969003 192.271826 
L 128.139282 186.372669 
L 128.354059 185.958693 
L 128.442425 185.725832 
L 128.587229 185.49297 
L 128.720239 185.156615 
L 129.01402 184.665018 
L 129.193362 183.914687 
L 129.534245 183.164356 
L 129.645909 182.905621 
L 129.775756 182.569265 
L 132.144363 176.126765 
L 132.236968 175.86803 
L 132.40837 175.557548 
L 132.489082 175.376433 
L 132.603052 174.91071 
L 132.713525 174.600228 
L 132.866256 174.108632 
L 132.973722 173.694656 
L 133.203632 173.254806 
L 133.338282 172.76321 
L 134.928224 168.002487 
L 135.195861 167.174535 
L 135.349974 166.786432 
L 135.607604 166.087848 
L 135.708988 165.80324 
L 135.979456 164.975288 
L 136.485975 163.552245 
L 136.611263 163.345257 
L 136.865235 162.491432 
L 137.027651 162.232697 
L 137.145651 161.741101 
L 137.308683 161.352998 
L 137.470704 160.680287 
L 137.660512 160.343932 
L 138.017962 159.490106 
L 138.202284 158.99851 
L 138.280014 158.817395 
L 138.425519 158.351673 
L 138.564894 158.041191 
L 138.791499 157.316733 
L 138.949226 156.92863 
L 139.09447 156.540528 
L 139.229828 156.048931 
L 139.487707 155.453841 
L 139.624812 155.013991 
L 139.734636 154.755257 
L 139.844929 154.496522 
L 139.910859 154.341281 
L 140.028414 153.979052 
L 140.143336 153.616823 
L 140.229082 153.435708 
L 140.314768 153.22872 
L 141.56192 150.641371 
L 141.749786 150.020407 
L 141.971447 149.502937 
L 142.133401 149.063087 
L 142.584234 148.157515 
L 142.788237 147.588298 
L 143.017762 147.200196 
L 143.343201 146.217003 
L 143.440102 145.984141 
L 143.6411 145.466671 
L 143.801774 145.207936 
L 144.065739 144.509352 
L 144.198893 144.147123 
L 144.394563 143.526159 
L 144.714675 142.64646 
L 144.968088 142.12899 
L 145.152853 141.456279 
L 145.273916 141.223418 
L 145.469693 140.628327 
L 145.579371 140.447213 
L 145.682303 140.369593 
L 145.90229 140.007364 
L 146.04324 139.696882 
L 146.454287 138.998297 
L 146.615296 138.610195 
L 146.716165 138.42908 
L 147.332907 137.238899 
L 147.524769 136.954291 
L 147.649258 136.592062 
L 147.972328 135.608869 
L 148.163148 135.117273 
L 149.214574 132.426429 
L 149.329346 132.0642 
L 149.433806 131.908959 
L 149.921048 130.770525 
L 150.394202 129.735585 
L 150.554019 129.373357 
L 150.660653 129.218116 
L 150.807305 128.80414 
L 150.937468 128.519531 
L 151.837412 126.372031 
L 152.083146 126.190916 
L 152.203032 125.854561 
L 152.337492 125.544079 
L 152.46447 125.311218 
L 152.585602 125.078356 
L 154.796086 120.291759 
L 154.915933 120.136518 
L 155.037892 119.955404 
L 155.644261 118.170133 
L 155.902459 117.652663 
L 156.158237 116.824711 
L 156.201812 116.66947 
L 156.448102 116.203747 
L 156.816793 115.608656 
L 157.947095 113.228295 
L 158.09149 112.943686 
L 158.399836 112.633204 
L 158.511173 112.270975 
L 158.67107 111.93462 
L 158.763955 111.598264 
L 158.974583 111.287783 
L 159.11265 110.89968 
L 159.286533 110.433957 
L 159.925442 109.26965 
L 160.035235 108.959168 
L 160.108966 108.803927 
L 160.299715 108.415824 
L 160.558734 107.898354 
L 160.702143 107.743113 
L 161.176979 107.018656 
L 161.472078 106.371818 
L 161.610045 106.16483 
L 161.710273 106.009589 
L 161.916392 105.699107 
L 162.023951 105.440372 
L 162.264458 104.845282 
L 162.46186 104.638294 
L 163.661779 101.818083 
L 163.87962 101.611095 
L 164.026359 101.378233 
L 164.418702 100.938384 
L 164.637067 100.446787 
L 164.785389 100.265673 
L 164.958892 99.981065 
L 166.197261 97.704197 
L 166.296346 97.523082 
L 166.426179 97.109106 
L 166.579197 96.850371 
L 166.727867 96.488143 
L 167.69018 94.858112 
L 167.783292 94.625251 
L 167.890393 94.392389 
L 168.01462 94.211275 
L 168.215453 93.823172 
L 168.378194 93.486817 
L 168.667712 92.814106 
L 168.81496 92.477751 
L 168.943461 92.219016 
L 169.079708 91.934407 
L 169.250889 91.727419 
L 169.488088 91.28757 
L 169.736136 90.7701 
L 170.030225 90.071515 
L 170.12999 89.916274 
L 170.311059 89.761033 
L 170.469991 89.502299 
L 170.618625 89.243564 
L 170.867635 88.881335 
L 171.06544 88.648473 
L 171.196279 88.312118 
L 171.319291 88.131003 
L 171.432832 87.924015 
L 171.555912 87.613533 
L 171.676659 87.432419 
L 171.789465 87.199557 
L 172.055127 86.837328 
L 173.242107 85.233172 
L 173.435255 84.870943 
L 173.947975 84.017117 
L 174.241642 83.810129 
L 174.371658 83.4479 
L 174.599071 83.189165 
L 174.670688 83.059798 
L 174.84353 82.878683 
L 174.944711 82.723442 
L 175.092892 82.542328 
L 175.441281 81.998985 
L 175.577351 81.714376 
L 175.764579 81.481515 
L 175.961758 81.119286 
L 177.037902 79.515129 
L 177.177341 79.334014 
L 177.546825 78.71305 
L 177.724455 78.531936 
L 178.542634 77.264135 
L 178.704246 77.108894 
L 178.842981 76.901906 
L 179.035572 76.591424 
L 179.164826 76.436183 
L 179.292473 76.255068 
L 179.395012 76.073954 
L 179.60369 75.789345 
L 179.741756 75.478863 
L 179.916047 75.297749 
L 180.076717 75.01314 
L 180.316703 74.599165 
L 180.584169 74.133442 
L 180.747737 73.926454 
L 181.007224 73.615972 
L 181.324602 73.227869 
L 181.434911 72.917387 
L 181.632786 72.658652 
L 182.089839 72.011815 
L 182.206266 71.778953 
L 182.357314 71.571965 
L 182.574721 71.209737 
L 182.770968 71.028622 
L 182.891888 70.795761 
L 182.983076 70.588773 
L 183.414141 69.864315 
L 183.736551 69.346845 
L 184.108106 69.062236 
L 184.305853 68.829375 
L 184.881726 68.05317 
L 185.706219 67.095851 
L 185.864734 66.785369 
L 186.09072 66.604254 
L 186.227537 66.397266 
L 188.699239 63.499435 
L 188.880705 63.344194 
L 189.990188 61.869404 
L 190.051756 61.76591 
L 190.308658 61.558922 
L 190.414629 61.377808 
L 193.511112 58.402356 
L 193.719489 58.143621 
L 194.043605 57.910759 
L 194.251917 57.652024 
L 194.324597 57.496783 
L 194.445586 57.367416 
L 194.484569 57.315669 
L 194.741236 57.134554 
L 195.99803 56.021994 
L 196.13706 55.789133 
L 198.220819 53.952114 
L 198.477102 53.796873 
L 199.392176 53.046542 
L 199.694223 52.865428 
L 199.807852 52.710187 
L 199.948249 52.554946 
L 200.410927 52.011602 
L 200.528898 51.830488 
L 200.635133 51.649373 
L 200.715083 51.468259 
L 200.892667 51.313018 
L 201.33954 50.924915 
L 201.717303 50.640307 
L 201.835243 50.510939 
L 201.962751 50.355698 
L 202.121276 50.174584 
L 202.408519 49.915849 
L 202.717294 49.734734 
L 202.85373 49.579493 
L 203.324122 49.217265 
L 203.571051 48.906783 
L 203.897448 48.596301 
L 204.111108 48.44106 
L 204.28753 48.311692 
L 205.292719 47.250879 
L 205.447666 47.018017 
L 206.301345 46.345306 
L 206.410873 46.241812 
L 206.728253 46.034824 
L 206.833248 45.93133 
L 210.380824 43.18874 
L 210.471732 43.111119 
L 210.781122 42.878258 
L 210.899123 42.723017 
L 211.618195 42.231421 
L 212.245042 42.050306 
L 216.108644 39.721691 
L 216.66146 39.540577 
L 216.780628 39.462956 
L 217.18483 39.307715 
L 217.600352 38.97136 
L 218.186125 38.764372 
L 218.633827 38.479764 
L 219.07112 38.091661 
L 220.050173 37.625938 
L 220.245892 37.41895 
L 220.841662 37.237836 
L 220.949122 37.186089 
L 221.549605 36.875607 
L 221.675934 36.694492 
L 222.988041 36.151149 
L 223.042145 36.073528 
L 223.95586 35.763046 
L 224.97148 35.27145 
L 225.294394 35.090335 
L 225.830169 34.960968 
L 226.494814 34.624613 
L 226.739737 34.443498 
L 227.574378 34.133016 
L 227.693108 34.029522 
L 227.93035 33.900155 
L 230.341949 33.020456 
L 231.029076 32.735847 
L 231.293559 32.580606 
L 231.463886 32.451239 
L 231.877115 32.244251 
L 232.019267 32.140757 
L 232.919722 31.778528 
L 233.522698 31.57154 
L 233.875777 31.390425 
L 234.337498 31.157564 
L 234.80919 30.97645 
L 234.940576 30.872956 
L 235.878272 30.5366 
L 236.032348 30.433106 
L 236.125383 30.329612 
L 236.638586 30.174371 
L 237.960792 29.682775 
L 240.085005 29.242925 
L 240.247442 29.139431 
L 240.989992 28.958317 
L 241.018519 28.90657 
L 241.950618 28.699582 
L 243.242095 28.363226 
L 243.368406 28.259732 
L 244.286561 28.104491 
L 245.04587 27.94925 
L 245.400504 27.794009 
L 246.609022 27.587022 
L 246.619761 27.561148 
L 247.320726 27.380034 
L 253.139058 25.905244 
L 254.82668 25.698256 
L 254.881932 25.646509 
L 255.971672 25.387774 
L 258.869931 24.973798 
L 260.506599 24.740937 
L 260.720281 24.68919 
L 261.482818 24.533949 
L 262.487057 24.378708 
L 263.864316 24.0941 
L 263.867071 24.068226 
L 265.90235 23.809491 
L 266.075589 23.757744 
L 267.267839 23.550756 
L 270.22785 23.13678 
L 272.022518 22.981539 
L 272.06453 22.955666 
L 275.563219 22.671057 
L 275.62232 22.645184 
L 293.824838 21.351509 
L 298.697312 21.196268 
L 299.349025 21.092774 
L 312.905399 20.704671 
L 331.22556 20.445937 
L 331.48771 20.420063 
L 345.828488 20.264822 
L 424.972188 20.135455 
L 424.972188 20.135455 
" clip-path="url(#p2148bcea7e)" style="fill: none; stroke: #0173b2; stroke-width: 1.5; stroke-linecap: round"/>
   </g>
   <g id="line2d_13">
    <path d="M 72.310188 278.58581 
L 75.070798 278.180685 
L 77.831409 277.471922 
L 80.592019 276.380482 
L 83.352629 274.840887 
L 86.113239 272.803702 
L 88.87385 270.236261 
L 91.63446 267.122201 
L 94.39507 263.460195 
L 97.155681 259.26223 
L 99.916291 254.551625 
L 102.676901 249.360982 
L 105.437511 243.730166 
L 108.198122 237.704412 
L 110.958732 231.332588 
L 113.719342 224.665658 
L 116.479952 217.755343 
L 119.240563 210.652993 
L 122.001173 203.408651 
L 124.761783 196.070308 
L 127.522394 188.683317 
L 130.283004 181.289969 
L 133.043614 173.92919 
L 135.804224 166.636358 
L 138.564835 159.443218 
L 141.325445 152.377877 
L 144.086055 145.464857 
L 146.846665 138.725216 
L 149.607276 132.176695 
L 152.367886 125.833901 
L 155.128496 119.708516 
L 157.889107 113.809513 
L 160.649717 108.143381 
L 163.410327 102.714357 
L 166.170937 97.524649 
L 168.931548 92.574656 
L 171.692158 87.863183 
L 174.452768 83.387643 
L 177.213378 79.144246 
L 179.973989 75.128179 
L 182.734599 71.333768 
L 185.495209 67.754633 
L 188.25582 64.383825 
L 191.01643 61.213949 
L 193.77704 58.237278 
L 196.53765 55.445856 
L 199.298261 52.831582 
L 202.058871 50.386289 
L 204.819481 48.101815 
L 207.580091 45.970059 
L 210.340702 43.98303 
L 213.101312 42.132891 
L 215.861922 40.411993 
L 218.622533 38.812902 
L 221.383143 37.328427 
L 224.143753 35.95163 
L 226.904363 34.675845 
L 229.664974 33.494685 
L 232.425584 32.402048 
L 235.186194 31.392116 
L 237.946804 30.459363 
L 240.707415 29.598543 
L 243.468025 28.804695 
L 246.228635 28.073129 
L 248.989246 27.399426 
L 251.749856 26.779425 
L 254.510466 26.209218 
L 257.271076 25.685137 
L 260.031687 25.203746 
L 262.792297 24.761834 
L 265.552907 24.356397 
L 268.313517 23.984635 
L 271.074128 23.643939 
L 273.834738 23.33188 
L 276.595348 23.0462 
L 279.355959 22.784802 
L 282.116569 22.54574 
L 284.877179 22.327212 
L 287.637789 22.127547 
L 290.3984 21.9452 
L 293.15901 21.778746 
L 295.91962 21.626864 
L 298.680231 21.488338 
L 301.440841 21.362046 
L 304.201451 21.246955 
L 306.962061 21.142112 
L 309.722672 21.046643 
L 312.483282 20.959743 
L 315.243892 20.880671 
L 318.004502 20.808749 
L 320.765113 20.743353 
L 323.525723 20.683912 
L 326.286333 20.629903 
L 329.046944 20.580844 
L 331.807554 20.536297 
L 334.568164 20.49586 
L 337.328774 20.459166 
L 340.089385 20.425877 
L 342.849995 20.395687 
L 345.610605 20.368316 
" clip-path="url(#p2148bcea7e)" style="fill: none; stroke: #de8f05; stroke-width: 1.5; stroke-linecap: round"/>
   </g>
   <g id="patch_3">
    <path d="M 49.807188 291.78 
L 49.807188 7.2 
" style="fill: none; stroke: #262626; stroke-width: 1.25; stroke-linejoin: miter; stroke-linecap: square"/>
   </g>
   <g id="patch_4">
    <path d="M 442.837188 291.78 
L 442.837188 7.2 
" style="fill: none; stroke: #262626; stroke-width: 1.25; stroke-linejoin: miter; stroke-linecap: square"/>
   </g>
   <g id="patch_5">
    <path d="M 49.807187 291.78 
L 442.837188 291.78 
" style="fill: none; stroke: #262626; stroke-width: 1.25; stroke-linejoin: miter; stroke-linecap: square"/>
   </g>
   <g id="patch_6">
    <path d="M 49.807187 7.2 
L 442.837188 7.2 
" style="fill: none; stroke: #262626; stroke-width: 1.25; stroke-linejoin: miter; stroke-linecap: square"/>
   </g>
   <g id="legend_1">
    <g id="patch_7">
     <path d="M 348.809531 167.285937 
L 435.137188 167.285937 
Q 437.337188 167.285937 437.337188 165.085937 
L 437.337188 133.894062 
Q 437.337188 131.694062 435.137188 131.694062 
L 348.809531 131.694062 
Q 346.609531 131.694062 346.609531 133.894062 
L 346.609531 165.085937 
Q 346.609531 167.285937 348.809531 167.285937 
z
" style="fill: #ffffff; opacity: 0.8; stroke: #cccccc; stroke-linejoin: miter"/>
    </g>
    <g id="line2d_14">
     <path d="M 351.009531 140.602344 
L 362.009531 140.602344 
L 373.009531 140.602344 
" style="fill: none; stroke: #0173b2; stroke-width: 1.5; stroke-linecap: round"/>
    </g>
    <g id="text_14">
     <!-- Empirical -->
     <g style="fill: #262626" transform="translate(381.809531 144.452344) scale(0.11 -0.11)">
      <defs>
       <path id="DejaVuSans-45" d="M 628 4666 
L 3578 4666 
L 3578 4134 
L 1259 4134 
L 1259 2753 
L 3481 2753 
L 3481 2222 
L 1259 2222 
L 1259 531 
L 3634 531 
L 3634 0 
L 628 0 
L 628 4666 
z
" transform="scale(0.015625)"/>
      </defs>
      <use xlink:href="#DejaVuSans-45"/>
      <use xlink:href="#DejaVuSans-6d" transform="translate(63.183594 0)"/>
      <use xlink:href="#DejaVuSans-70" transform="translate(160.595703 0)"/>
      <use xlink:href="#DejaVuSans-69" transform="translate(224.072266 0)"/>
      <use xlink:href="#DejaVuSans-72" transform="translate(251.855469 0)"/>
      <use xlink:href="#DejaVuSans-69" transform="translate(292.96875 0)"/>
      <use xlink:href="#DejaVuSans-63" transform="translate(320.751953 0)"/>
      <use xlink:href="#DejaVuSans-61" transform="translate(375.732422 0)"/>
      <use xlink:href="#DejaVuSans-6c" transform="translate(437.011719 0)"/>
     </g>
    </g>
    <g id="line2d_15">
     <path d="M 351.009531 156.748281 
L 362.009531 156.748281 
L 373.009531 156.748281 
" style="fill: none; stroke: #de8f05; stroke-width: 1.5; stroke-linecap: round"/>
    </g>
    <g id="text_15">
     <!-- Model -->
     <g style="fill: #262626" transform="translate(381.809531 160.598281) scale(0.11 -0.11)">
      <defs>
       <path id="DejaVuSans-4d" d="M 628 4666 
L 1569 4666 
L 2759 1491 
L 3956 4666 
L 4897 4666 
L 4897 0 
L 4281 0 
L 4281 4097 
L 3078 897 
L 2444 897 
L 1241 4097 
L 1241 0 
L 628 0 
L 628 4666 
z
" transform="scale(0.015625)"/>
      </defs>
      <use xlink:href="#DejaVuSans-4d"/>
      <use xlink:href="#DejaVuSans-6f" transform="translate(86.279297 0)"/>
      <use xlink:href="#DejaVuSans-64" transform="translate(147.460938 0)"/>
      <use xlink:href="#DejaVuSans-65" transform="translate(210.9375 0)"/>
      <use xlink:href="#DejaVuSans-6c" transform="translate(272.460938 0)"/>
     </g>
    </g>
   </g>
   <g id="text_16">
    <!-- KS D = 0.007 -->
    <g style="fill: #262626" transform="translate(371.785309 272.816211) scale(0.09996 -0.09996)">
     <defs>
      <path id="DejaVuSans-4b" d="M 628 4666 
L 1259 4666 
L 1259 2694 
L 3353 4666 
L 4166 4666 
L 1850 2491 
L 4331 0 
L 3500 0 
L 1259 2247 
L 1259 0 
L 628 0 
L 628 4666 
z
" transform="scale(0.015625)"/>
      <path id="DejaVuSans-53" d="M 3425 4513 
L 3425 3897 
Q 3066 4069 2747 4153 
Q 2428 4238 2131 4238 
Q 1616 4238 1336 4038 
Q 1056 3838 1056 3469 
Q 1056 3159 1242 3001 
Q 1428 2844 1947 2747 
L 2328 2669 
Q 3034 2534 3370 2195 
Q 3706 1856 3706 1288 
Q 3706 609 3251 259 
Q 2797 -91 1919 -91 
Q 1588 -91 1214 -16 
Q 841 59 441 206 
L 441 856 
Q 825 641 1194 531 
Q 1563 422 1919 422 
Q 2459 422 2753 634 
Q 3047 847 3047 1241 
Q 3047 1584 2836 1778 
Q 2625 1972 2144 2069 
L 1759 2144 
Q 1053 2284 737 2584 
Q 422 2884 422 3419 
Q 422 4038 858 4394 
Q 1294 4750 2059 4750 
Q 2388 4750 2728 4690 
Q 3069 4631 3425 4513 
z
" transform="scale(0.015625)"/>
      <path id="DejaVuSans-3d" d="M 678 2906 
L 4684 2906 
L 4684 2381 
L 678 2381 
L 678 2906 
z
M 678 1631 
L 4684 1631 
L 4684 1100 
L 678 1100 
L 678 1631 
z
" transform="scale(0.015625)"/>
      <path id="DejaVuSans-37" d="M 525 4666 
L 3525 4666 
L 3525 4397 
L 1831 0 
L 1172 0 
L 2766 4134 
L 525 4134 
L 525 4666 
z
" transform="scale(0.015625)"/>
     </defs>
     <use xlink:href="#DejaVuSans-4b"/>
     <use xlink:href="#DejaVuSans-53" transform="translate(65.576172 0)"/>
     <use xlink:href="#DejaVuSans-20" transform="translate(129.052734 0)"/>
     <use xlink:href="#DejaVuSans-44" transform="translate(160.839844 0)"/>
     <use xlink:href="#DejaVuSans-20" transform="translate(237.841797 0)"/>
     <use xlink:href="#DejaVuSans-3d" transform="translate(269.628906 0)"/>
     <use xlink:href="#DejaVuSans-20" transform="translate(353.417969 0)"/>
     <use xlink:href="#DejaVuSans-30" transform="translate(385.205078 0)"/>
     <use xlink:href="#DejaVuSans-2e" transform="translate(448.828125 0)"/>
     <use xlink:href="#DejaVuSans-30" transform="translate(480.615234 0)"/>
     <use xlink:href="#DejaVuSans-30" transform="translate(544.238281 0)"/>
     <use xlink:href="#DejaVuSans-37" transform="translate(607.861328 0)"/>
    </g>
    <!-- p = 0.7 -->
    <g style="fill: #262626" transform="translate(401.934183 284.009544) scale(0.09996 -0.09996)">
     <use xlink:href="#DejaVuSans-70"/>
     <use xlink:href="#DejaVuSans-20" transform="translate(63.476562 0)"/>
     <use xlink:href="#DejaVuSans-3d" transform="translate(95.263672 0)"/>
     <use xlink:href="#DejaVuSans-20" transform="translate(179.052734 0)"/>
     <use xlink:href="#DejaVuSans-30" transform="translate(210.839844 0)"/>
     <use xlink:href="#DejaVuSans-2e" transform="translate(274.462891 0)"/>
     <use xlink:href="#DejaVuSans-37" transform="translate(306.25 0)"/>
    </g>
   </g>
  </g>
 </g>
 <defs>
  <clipPath id="p2148bcea7e">
   <rect x="49.807188" y="7.2" width="393.03" height="284.58"/>
  </clipPath>
 </defs>
</svg>
