<?xml version="1.0" encoding="utf-8" standalone="no"?>
<!DOCTYPE svg PUBLIC "-//W3C//DTD SVG 1.1//EN"
  "http://www.w3.org/Graphics/SVG/1.1/DTD/svg11.dtd">
<svg xmlns:xlink="http://www.w3.org/1999/xlink" width="450.037188pt" height="334.739687pt" viewBox="0 0 450.037188 334.739687" xmlns="http://www.w3.org/2000/svg" version="1.1">
 <metadata>
  <rdf:RDF xmlns:dc="http://purl.org/dc/elements/1.1/" xmlns:cc="http://creativecommons.org/ns#" xmlns:rdf="http://www.w3.org/1999/02/22-rdf-syntax-ns#">
   <cc:Work>
    <dc:type rdf:resource="http://purl.org/dc/dcmitype/StillImage"/>
    <dc:date>2026-05-15T15:10:49.717220</dc:date>
    <dc:format>image/svg+xml</dc:format>
    <dc:creator>
     <cc:Agent>
      <dc:title>Matplotlib v3.10.9, https://matplotlib.org/</dc:title>
     </cc:Agent>
    </dc:creator>
   </cc:Work>
  </rdf:RDF>
 </metadata>
 <defs>
  <style type="text/css">*{stroke-linejoin: round; stroke-linecap: butt}</style>
 </defs>
 <g id="figure_1">
  <g id="patch_1">
   <path d="M 0 334.739687 
L 450.037188 334.739687 
L 450.037188 0 
L 0 0 
z
" style="fill: #ffffff"/>
  </g>
  <g id="axes_1">
   <g id="patch_2">
    <path d="M 49.807188 291.78 
L 442.837188 291.78 
L 442.837188 7.2 
L 49.807188 7.2 
z
" style="fill: #ffffff"/>
   </g>
   <g id="matplotlib.axis_1">
    <g id="xtick_1">
     <g id="line2d_1">
      <defs>
       <path id="m1ec52e5a4b" d="M 0 0 
L 0 6 
" style="stroke: #262626; stroke-width: 1.25"/>
      </defs>
      <g>
       <use xlink:href="#m1ec52e5a4b" x="67.314405" y="291.78" style="fill: #262626; stroke: #262626; stroke-width: 1.25"/>
      </g>
     </g>
     <g id="text_1">
      <!-- 0.000 -->
      <g style="fill: #262626" transform="translate(51.568936 309.638281) scale(0.11 -0.11)">
       <defs>
        <path id="DejaVuSans-30" d="M 2034 4250 
Q 1547 4250 1301 3770 
Q 1056 3291 1056 2328 
Q 1056 1369 1301 889 
Q 1547 409 2034 409 
Q 2525 409 2770 889 
Q 3016 1369 3016 2328 
Q 3016 3291 2770 3770 
Q 2525 4250 2034 4250 
z
M 2034 4750 
Q 2819 4750 3233 4129 
Q 3647 3509 3647 2328 
Q 3647 1150 3233 529 
Q 2819 -91 2034 -91 
Q 1250 -91 836 529 
Q 422 1150 422 2328 
Q 422 3509 836 4129 
Q 1250 4750 2034 4750 
z
" transform="scale(0.015625)"/>
        <path id="DejaVuSans-2e" d="M 684 794 
L 1344 794 
L 1344 0 
L 684 0 
L 684 794 
z
" transform="scale(0.015625)"/>
       </defs>
       <use xlink:href="#DejaVuSans-30"/>
       <use xlink:href="#DejaVuSans-2e" transform="translate(63.623047 0)"/>
       <use xlink:href="#DejaVuSans-30" transform="translate(95.410156 0)"/>
       <use xlink:href="#DejaVuSans-30" transform="translate(159.033203 0)"/>
       <use xlink:href="#DejaVuSans-30" transform="translate(222.65625 0)"/>
      </g>
     </g>
    </g>
    <g id="xtick_2">
     <g id="line2d_2">
      <g>
       <use xlink:href="#m1ec52e5a4b" x="112.037225" y="291.78" style="fill: #262626; stroke: #262626; stroke-width: 1.25"/>
      </g>
     </g>
     <g id="text_2">
      <!-- 0.025 -->
      <g style="fill: #262626" transform="translate(96.291756 309.638281) scale(0.11 -0.11)">
       <defs>
        <path id="DejaVuSans-32" d="M 1228 531 
L 3431 531 
L 3431 0 
L 469 0 
L 469 531 
Q 828 903 1448 1529 
Q 2069 2156 2228 2338 
Q 2531 2678 2651 2914 
Q 2772 3150 2772 3378 
Q 2772 3750 2511 3984 
Q 2250 4219 1831 4219 
Q 1534 4219 1204 4116 
Q 875 4013 500 3803 
L 500 4441 
Q 881 4594 1212 4672 
Q 1544 4750 1819 4750 
Q 2544 4750 2975 4387 
Q 3406 4025 3406 3419 
Q 3406 3131 3298 2873 
Q 3191 2616 2906 2266 
Q 2828 2175 2409 1742 
Q 1991 1309 1228 531 
z
" transform="scale(0.015625)"/>
        <path id="DejaVuSans-35" d="M 691 4666 
L 3169 4666 
L 3169 4134 
L 1269 4134 
L 1269 2991 
Q 1406 3038 1543 3061 
Q 1681 3084 1819 3084 
Q 2600 3084 3056 2656 
Q 3513 2228 3513 1497 
Q 3513 744 3044 326 
Q 2575 -91 1722 -91 
Q 1428 -91 1123 -41 
Q 819 9 494 109 
L 494 744 
Q 775 591 1075 516 
Q 1375 441 1709 441 
Q 2250 441 2565 725 
Q 2881 1009 2881 1497 
Q 2881 1984 2565 2268 
Q 2250 2553 1709 2553 
Q 1456 2553 1204 2497 
Q 953 2441 691 2322 
L 691 4666 
z
" transform="scale(0.015625)"/>
       </defs>
       <use xlink:href="#DejaVuSans-30"/>
       <use xlink:href="#DejaVuSans-2e" transform="translate(63.623047 0)"/>
       <use xlink:href="#DejaVuSans-30" transform="translate(95.410156 0)"/>
       <use xlink:href="#DejaVuSans-32" transform="translate(159.033203 0)"/>
       <use xlink:href="#DejaVuSans-35" transform="translate(222.65625 0)"/>
      </g>
     </g>
    </g>
    <g id="xtick_3">
     <g id="line2d_3">
      <g>
       <use xlink:href="#m1ec52e5a4b" x="156.760045" y="291.78" style="fill: #262626; stroke: #262626; stroke-width: 1.25"/>
      </g>
     </g>
     <g id="text_3">
      <!-- 0.050 -->
      <g style="fill: #262626" transform="translate(141.014577 309.638281) scale(0.11 -0.11)">
       <use xlink:href="#DejaVuSans-30"/>
       <use xlink:href="#DejaVuSans-2e" transform="translate(63.623047 0)"/>
       <use xlink:href="#DejaVuSans-30" transform="translate(95.410156 0)"/>
       <use xlink:href="#DejaVuSans-35" transform="translate(159.033203 0)"/>
       <use xlink:href="#DejaVuSans-30" transform="translate(222.65625 0)"/>
      </g>
     </g>
    </g>
    <g id="xtick_4">
     <g id="line2d_4">
      <g>
       <use xlink:href="#m1ec52e5a4b" x="201.482865" y="291.78" style="fill: #262626; stroke: #262626; stroke-width: 1.25"/>
      </g>
     </g>
     <g id="text_4">
      <!-- 0.075 -->
      <g style="fill: #262626" transform="translate(185.737397 309.638281) scale(0.11 -0.11)">
       <defs>
        <path id="DejaVuSans-37" d="M 525 4666 
L 3525 4666 
L 3525 4397 
L 1831 0 
L 1172 0 
L 2766 4134 
L 525 4134 
L 525 4666 
z
" transform="scale(0.015625)"/>
       </defs>
       <use xlink:href="#DejaVuSans-30"/>
       <use xlink:href="#DejaVuSans-2e" transform="translate(63.623047 0)"/>
       <use xlink:href="#DejaVuSans-30" transform="translate(95.410156 0)"/>
       <use xlink:href="#DejaVuSans-37" transform="translate(159.033203 0)"/>
       <use xlink:href="#DejaVuSans-35" transform="translate(222.65625 0)"/>
      </g>
     </g>
    </g>
    <g id="xtick_5">
     <g id="line2d_5">
      <g>
       <use xlink:href="#m1ec52e5a4b" x="246.205686" y="291.78" style="fill: #262626; stroke: #262626; stroke-width: 1.25"/>
      </g>
     </g>
     <g id="text_5">
      <!-- 0.100 -->
      <g style="fill: #262626" transform="translate(230.460217 309.638281) scale(0.11 -0.11)">
       <defs>
        <path id="DejaVuSans-31" d="M 794 531 
L 1825 531 
L 1825 4091 
L 703 3866 
L 703 4441 
L 1819 4666 
L 2450 4666 
L 2450 531 
L 3481 531 
L 3481 0 
L 794 0 
L 794 531 
z
" transform="scale(0.015625)"/>
       </defs>
       <use xlink:href="#DejaVuSans-30"/>
       <use xlink:href="#DejaVuSans-2e" transform="translate(63.623047 0)"/>
       <use xlink:href="#DejaVuSans-31" transform="translate(95.410156 0)"/>
       <use xlink:href="#DejaVuSans-30" transform="translate(159.033203 0)"/>
       <use xlink:href="#DejaVuSans-30" transform="translate(222.65625 0)"/>
      </g>
     </g>
    </g>
    <g id="xtick_6">
     <g id="line2d_6">
      <g>
       <use xlink:href="#m1ec52e5a4b" x="290.928506" y="291.78" style="fill: #262626; stroke: #262626; stroke-width: 1.25"/>
      </g>
     </g>
     <g id="text_6">
      <!-- 0.125 -->
      <g style="fill: #262626" transform="translate(275.183037 309.638281) scale(0.11 -0.11)">
       <use xlink:href="#DejaVuSans-30"/>
       <use xlink:href="#DejaVuSans-2e" transform="translate(63.623047 0)"/>
       <use xlink:href="#DejaVuSans-31" transform="translate(95.410156 0)"/>
       <use xlink:href="#DejaVuSans-32" transform="translate(159.033203 0)"/>
       <use xlink:href="#DejaVuSans-35" transform="translate(222.65625 0)"/>
      </g>
     </g>
    </g>
    <g id="xtick_7">
     <g id="line2d_7">
      <g>
       <use xlink:href="#m1ec52e5a4b" x="335.651326" y="291.78" style="fill: #262626; stroke: #262626; stroke-width: 1.25"/>
      </g>
     </g>
     <g id="text_7">
      <!-- 0.150 -->
      <g style="fill: #262626" transform="translate(319.905857 309.638281) scale(0.11 -0.11)">
       <use xlink:href="#DejaVuSans-30"/>
       <use xlink:href="#DejaVuSans-2e" transform="translate(63.623047 0)"/>
       <use xlink:href="#DejaVuSans-31" transform="translate(95.410156 0)"/>
       <use xlink:href="#DejaVuSans-35" transform="translate(159.033203 0)"/>
       <use xlink:href="#DejaVuSans-30" transform="translate(222.65625 0)"/>
      </g>
     </g>
    </g>
    <g id="xtick_8">
     <g id="line2d_8">
      <g>
       <use xlink:href="#m1ec52e5a4b" x="380.374146" y="291.78" style="fill: #262626; stroke: #262626; stroke-width: 1.25"/>
      </g>
     </g>
     <g id="text_8">
      <!-- 0.175 -->
      <g style="fill: #262626" transform="translate(364.628677 309.638281) scale(0.11 -0.11)">
       <use xlink:href="#DejaVuSans-30"/>
       <use xlink:href="#DejaVuSans-2e" transform="translate(63.623047 0)"/>
       <use xlink:href="#DejaVuSans-31" transform="translate(95.410156 0)"/>
       <use xlink:href="#DejaVuSans-37" transform="translate(159.033203 0)"/>
       <use xlink:href="#DejaVuSans-35" transform="translate(222.65625 0)"/>
      </g>
     </g>
    </g>
    <g id="xtick_9">
     <g id="line2d_9">
      <g>
       <use xlink:href="#m1ec52e5a4b" x="425.096966" y="291.78" style="fill: #262626; stroke: #262626; stroke-width: 1.25"/>
      </g>
     </g>
     <g id="text_9">
      <!-- 0.200 -->
      <g style="fill: #262626" transform="translate(409.351498 309.638281) scale(0.11 -0.11)">
       <use xlink:href="#DejaVuSans-30"/>
       <use xlink:href="#DejaVuSans-2e" transform="translate(63.623047 0)"/>
       <use xlink:href="#DejaVuSans-32" transform="translate(95.410156 0)"/>
       <use xlink:href="#DejaVuSans-30" transform="translate(159.033203 0)"/>
       <use xlink:href="#DejaVuSans-30" transform="translate(222.65625 0)"/>
      </g>
     </g>
    </g>
    <g id="text_10">
     <!-- Time prior max -->
     <g style="fill: #262626" transform="translate(200.675313 325.044062) scale(0.12 -0.12)">
      <defs>
       <path id="DejaVuSans-54" d="M -19 4666 
L 3928 4666 
L 3928 4134 
L 2272 4134 
L 2272 0 
L 1638 0 
L 1638 4134 
L -19 4134 
L -19 4666 
z
" transform="scale(0.015625)"/>
       <path id="DejaVuSans-69" d="M 603 3500 
L 1178 3500 
L 1178 0 
L 603 0 
L 603 3500 
z
M 603 4863 
L 1178 4863 
L 1178 4134 
L 603 4134 
L 603 4863 
z
" transform="scale(0.015625)"/>
       <path id="DejaVuSans-6d" d="M 3328 2828 
Q 3544 3216 3844 3400 
Q 4144 3584 4550 3584 
Q 5097 3584 5394 3201 
Q 5691 2819 5691 2113 
L 5691 0 
L 5113 0 
L 5113 2094 
Q 5113 2597 4934 2840 
Q 4756 3084 4391 3084 
Q 3944 3084 3684 2787 
Q 3425 2491 3425 1978 
L 3425 0 
L 2847 0 
L 2847 2094 
Q 2847 2600 2669 2842 
Q 2491 3084 2119 3084 
Q 1678 3084 1418 2786 
Q 1159 2488 1159 1978 
L 1159 0 
L 581 0 
L 581 3500 
L 1159 3500 
L 1159 2956 
Q 1356 3278 1631 3431 
Q 1906 3584 2284 3584 
Q 2666 3584 2933 3390 
Q 3200 3197 3328 2828 
z
" transform="scale(0.015625)"/>
       <path id="DejaVuSans-65" d="M 3597 1894 
L 3597 1613 
L 953 1613 
Q 991 1019 1311 708 
Q 1631 397 2203 397 
Q 2534 397 2845 478 
Q 3156 559 3463 722 
L 3463 178 
Q 3153 47 2828 -22 
Q 2503 -91 2169 -91 
Q 1331 -91 842 396 
Q 353 884 353 1716 
Q 353 2575 817 3079 
Q 1281 3584 2069 3584 
Q 2775 3584 3186 3129 
Q 3597 2675 3597 1894 
z
M 3022 2063 
Q 3016 2534 2758 2815 
Q 2500 3097 2075 3097 
Q 1594 3097 1305 2825 
Q 1016 2553 972 2059 
L 3022 2063 
z
" transform="scale(0.015625)"/>
       <path id="DejaVuSans-20" transform="scale(0.015625)"/>
       <path id="DejaVuSans-70" d="M 1159 525 
L 1159 -1331 
L 581 -1331 
L 581 3500 
L 1159 3500 
L 1159 2969 
Q 1341 3281 1617 3432 
Q 1894 3584 2278 3584 
Q 2916 3584 3314 3078 
Q 3713 2572 3713 1747 
Q 3713 922 3314 415 
Q 2916 -91 2278 -91 
Q 1894 -91 1617 61 
Q 1341 213 1159 525 
z
M 3116 1747 
Q 3116 2381 2855 2742 
Q 2594 3103 2138 3103 
Q 1681 3103 1420 2742 
Q 1159 2381 1159 1747 
Q 1159 1113 1420 752 
Q 1681 391 2138 391 
Q 2594 391 2855 752 
Q 3116 1113 3116 1747 
z
" transform="scale(0.015625)"/>
       <path id="DejaVuSans-72" d="M 2631 2963 
Q 2534 3019 2420 3045 
Q 2306 3072 2169 3072 
Q 1681 3072 1420 2755 
Q 1159 2438 1159 1844 
L 1159 0 
L 581 0 
L 581 3500 
L 1159 3500 
L 1159 2956 
Q 1341 3275 1631 3429 
Q 1922 3584 2338 3584 
Q 2397 3584 2469 3576 
Q 2541 3569 2628 3553 
L 2631 2963 
z
" transform="scale(0.015625)"/>
       <path id="DejaVuSans-6f" d="M 1959 3097 
Q 1497 3097 1228 2736 
Q 959 2375 959 1747 
Q 959 1119 1226 758 
Q 1494 397 1959 397 
Q 2419 397 2687 759 
Q 2956 1122 2956 1747 
Q 2956 2369 2687 2733 
Q 2419 3097 1959 3097 
z
M 1959 3584 
Q 2709 3584 3137 3096 
Q 3566 2609 3566 1747 
Q 3566 888 3137 398 
Q 2709 -91 1959 -91 
Q 1206 -91 779 398 
Q 353 888 353 1747 
Q 353 2609 779 3096 
Q 1206 3584 1959 3584 
z
" transform="scale(0.015625)"/>
       <path id="DejaVuSans-61" d="M 2194 1759 
Q 1497 1759 1228 1600 
Q 959 1441 959 1056 
Q 959 750 1161 570 
Q 1363 391 1709 391 
Q 2188 391 2477 730 
Q 2766 1069 2766 1631 
L 2766 1759 
L 2194 1759 
z
M 3341 1997 
L 3341 0 
L 2766 0 
L 2766 531 
Q 2569 213 2275 61 
Q 1981 -91 1556 -91 
Q 1019 -91 701 211 
Q 384 513 384 1019 
Q 384 1609 779 1909 
Q 1175 2209 1959 2209 
L 2766 2209 
L 2766 2266 
Q 2766 2663 2505 2880 
Q 2244 3097 1772 3097 
Q 1472 3097 1187 3025 
Q 903 2953 641 2809 
L 641 3341 
Q 956 3463 1253 3523 
Q 1550 3584 1831 3584 
Q 2591 3584 2966 3190 
Q 3341 2797 3341 1997 
z
" transform="scale(0.015625)"/>
       <path id="DejaVuSans-78" d="M 3513 3500 
L 2247 1797 
L 3578 0 
L 2900 0 
L 1881 1375 
L 863 0 
L 184 0 
L 1544 1831 
L 300 3500 
L 978 3500 
L 1906 2253 
L 2834 3500 
L 3513 3500 
z
" transform="scale(0.015625)"/>
      </defs>
      <use xlink:href="#DejaVuSans-54"/>
      <use xlink:href="#DejaVuSans-69" transform="translate(57.958984 0)"/>
      <use xlink:href="#DejaVuSans-6d" transform="translate(85.742188 0)"/>
      <use xlink:href="#DejaVuSans-65" transform="translate(183.154297 0)"/>
      <use xlink:href="#DejaVuSans-20" transform="translate(244.677734 0)"/>
      <use xlink:href="#DejaVuSans-70" transform="translate(276.464844 0)"/>
      <use xlink:href="#DejaVuSans-72" transform="translate(339.941406 0)"/>
      <use xlink:href="#DejaVuSans-69" transform="translate(381.054688 0)"/>
      <use xlink:href="#DejaVuSans-6f" transform="translate(408.837891 0)"/>
      <use xlink:href="#DejaVuSans-72" transform="translate(470.019531 0)"/>
      <use xlink:href="#DejaVuSans-20" transform="translate(511.132812 0)"/>
      <use xlink:href="#DejaVuSans-6d" transform="translate(542.919922 0)"/>
      <use xlink:href="#DejaVuSans-61" transform="translate(640.332031 0)"/>
      <use xlink:href="#DejaVuSans-78" transform="translate(701.611328 0)"/>
     </g>
    </g>
   </g>
   <g id="matplotlib.axis_2">
    <g id="ytick_1">
     <g id="line2d_10">
      <defs>
       <path id="ma48191795f" d="M 0 0 
L -6 0 
" style="stroke: #262626; stroke-width: 1.25"/>
      </defs>
      <g>
       <use xlink:href="#ma48191795f" x="49.807188" y="278.844545" style="fill: #262626; stroke: #262626; stroke-width: 1.25"/>
      </g>
     </g>
     <g id="text_11">
      <!-- 0.0 -->
      <g style="fill: #262626" transform="translate(22.81375 283.023686) scale(0.11 -0.11)">
       <use xlink:href="#DejaVuSans-30"/>
       <use xlink:href="#DejaVuSans-2e" transform="translate(63.623047 0)"/>
       <use xlink:href="#DejaVuSans-30" transform="translate(95.410156 0)"/>
      </g>
     </g>
    </g>
    <g id="ytick_2">
     <g id="line2d_11">
      <g>
       <use xlink:href="#ma48191795f" x="49.807188" y="227.097553" style="fill: #262626; stroke: #262626; stroke-width: 1.25"/>
      </g>
     </g>
     <g id="text_12">
      <!-- 0.2 -->
      <g style="fill: #262626" transform="translate(22.81375 231.276693) scale(0.11 -0.11)">
       <use xlink:href="#DejaVuSans-30"/>
       <use xlink:href="#DejaVuSans-2e" transform="translate(63.623047 0)"/>
       <use xlink:href="#DejaVuSans-32" transform="translate(95.410156 0)"/>
      </g>
     </g>
    </g>
    <g id="ytick_3">
     <g id="line2d_12">
      <g>
       <use xlink:href="#ma48191795f" x="49.807188" y="175.35056" style="fill: #262626; stroke: #262626; stroke-width: 1.25"/>
      </g>
     </g>
     <g id="text_13">
      <!-- 0.4 -->
      <g style="fill: #262626" transform="translate(22.81375 179.5297) scale(0.11 -0.11)">
       <defs>
        <path id="DejaVuSans-34" d="M 2419 4116 
L 825 1625 
L 2419 1625 
L 2419 4116 
z
M 2253 4666 
L 3047 4666 
L 3047 1625 
L 3713 1625 
L 3713 1100 
L 3047 1100 
L 3047 0 
L 2419 0 
L 2419 1100 
L 313 1100 
L 313 1709 
L 2253 4666 
z
" transform="scale(0.015625)"/>
       </defs>
       <use xlink:href="#DejaVuSans-30"/>
       <use xlink:href="#DejaVuSans-2e" transform="translate(63.623047 0)"/>
       <use xlink:href="#DejaVuSans-34" transform="translate(95.410156 0)"/>
      </g>
     </g>
    </g>
    <g id="ytick_4">
     <g id="line2d_13">
      <g>
       <use xlink:href="#ma48191795f" x="49.807188" y="123.603567" style="fill: #262626; stroke: #262626; stroke-width: 1.25"/>
      </g>
     </g>
     <g id="text_14">
      <!-- 0.6 -->
      <g style="fill: #262626" transform="translate(22.81375 127.782707) scale(0.11 -0.11)">
       <defs>
        <path id="DejaVuSans-36" d="M 2113 2584 
Q 1688 2584 1439 2293 
Q 1191 2003 1191 1497 
Q 1191 994 1439 701 
Q 1688 409 2113 409 
Q 2538 409 2786 701 
Q 3034 994 3034 1497 
Q 3034 2003 2786 2293 
Q 2538 2584 2113 2584 
z
M 3366 4563 
L 3366 3988 
Q 3128 4100 2886 4159 
Q 2644 4219 2406 4219 
Q 1781 4219 1451 3797 
Q 1122 3375 1075 2522 
Q 1259 2794 1537 2939 
Q 1816 3084 2150 3084 
Q 2853 3084 3261 2657 
Q 3669 2231 3669 1497 
Q 3669 778 3244 343 
Q 2819 -91 2113 -91 
Q 1303 -91 875 529 
Q 447 1150 447 2328 
Q 447 3434 972 4092 
Q 1497 4750 2381 4750 
Q 2619 4750 2861 4703 
Q 3103 4656 3366 4563 
z
" transform="scale(0.015625)"/>
       </defs>
       <use xlink:href="#DejaVuSans-30"/>
       <use xlink:href="#DejaVuSans-2e" transform="translate(63.623047 0)"/>
       <use xlink:href="#DejaVuSans-36" transform="translate(95.410156 0)"/>
      </g>
     </g>
    </g>
    <g id="ytick_5">
     <g id="line2d_14">
      <g>
       <use xlink:href="#ma48191795f" x="49.807188" y="71.856574" style="fill: #262626; stroke: #262626; stroke-width: 1.25"/>
      </g>
     </g>
     <g id="text_15">
      <!-- 0.8 -->
      <g style="fill: #262626" transform="translate(22.81375 76.035715) scale(0.11 -0.11)">
       <defs>
        <path id="DejaVuSans-38" d="M 2034 2216 
Q 1584 2216 1326 1975 
Q 1069 1734 1069 1313 
Q 1069 891 1326 650 
Q 1584 409 2034 409 
Q 2484 409 2743 651 
Q 3003 894 3003 1313 
Q 3003 1734 2745 1975 
Q 2488 2216 2034 2216 
z
M 1403 2484 
Q 997 2584 770 2862 
Q 544 3141 544 3541 
Q 544 4100 942 4425 
Q 1341 4750 2034 4750 
Q 2731 4750 3128 4425 
Q 3525 4100 3525 3541 
Q 3525 3141 3298 2862 
Q 3072 2584 2669 2484 
Q 3125 2378 3379 2068 
Q 3634 1759 3634 1313 
Q 3634 634 3220 271 
Q 2806 -91 2034 -91 
Q 1263 -91 848 271 
Q 434 634 434 1313 
Q 434 1759 690 2068 
Q 947 2378 1403 2484 
z
M 1172 3481 
Q 1172 3119 1398 2916 
Q 1625 2713 2034 2713 
Q 2441 2713 2670 2916 
Q 2900 3119 2900 3481 
Q 2900 3844 2670 4047 
Q 2441 4250 2034 4250 
Q 1625 4250 1398 4047 
Q 1172 3844 1172 3481 
z
" transform="scale(0.015625)"/>
       </defs>
       <use xlink:href="#DejaVuSans-30"/>
       <use xlink:href="#DejaVuSans-2e" transform="translate(63.623047 0)"/>
       <use xlink:href="#DejaVuSans-38" transform="translate(95.410156 0)"/>
      </g>
     </g>
    </g>
    <g id="ytick_6">
     <g id="line2d_15">
      <g>
       <use xlink:href="#ma48191795f" x="49.807188" y="20.109581" style="fill: #262626; stroke: #262626; stroke-width: 1.25"/>
      </g>
     </g>
     <g id="text_16">
      <!-- 1.0 -->
      <g style="fill: #262626" transform="translate(22.81375 24.288722) scale(0.11 -0.11)">
       <use xlink:href="#DejaVuSans-31"/>
       <use xlink:href="#DejaVuSans-2e" transform="translate(63.623047 0)"/>
       <use xlink:href="#DejaVuSans-30" transform="translate(95.410156 0)"/>
      </g>
     </g>
    </g>
    <g id="text_17">
     <!-- Cumulative density -->
     <g style="fill: #262626" transform="translate(16.318125 207.64125) rotate(-90) scale(0.12 -0.12)">
      <defs>
       <path id="DejaVuSans-43" d="M 4122 4306 
L 4122 3641 
Q 3803 3938 3442 4084 
Q 3081 4231 2675 4231 
Q 1875 4231 1450 3742 
Q 1025 3253 1025 2328 
Q 1025 1406 1450 917 
Q 1875 428 2675 428 
Q 3081 428 3442 575 
Q 3803 722 4122 1019 
L 4122 359 
Q 3791 134 3420 21 
Q 3050 -91 2638 -91 
Q 1578 -91 968 557 
Q 359 1206 359 2328 
Q 359 3453 968 4101 
Q 1578 4750 2638 4750 
Q 3056 4750 3426 4639 
Q 3797 4528 4122 4306 
z
" transform="scale(0.015625)"/>
       <path id="DejaVuSans-75" d="M 544 1381 
L 544 3500 
L 1119 3500 
L 1119 1403 
Q 1119 906 1312 657 
Q 1506 409 1894 409 
Q 2359 409 2629 706 
Q 2900 1003 2900 1516 
L 2900 3500 
L 3475 3500 
L 3475 0 
L 2900 0 
L 2900 538 
Q 2691 219 2414 64 
Q 2138 -91 1772 -91 
Q 1169 -91 856 284 
Q 544 659 544 1381 
z
M 1991 3584 
L 1991 3584 
z
" transform="scale(0.015625)"/>
       <path id="DejaVuSans-6c" d="M 603 4863 
L 1178 4863 
L 1178 0 
L 603 0 
L 603 4863 
z
" transform="scale(0.015625)"/>
       <path id="DejaVuSans-74" d="M 1172 4494 
L 1172 3500 
L 2356 3500 
L 2356 3053 
L 1172 3053 
L 1172 1153 
Q 1172 725 1289 603 
Q 1406 481 1766 481 
L 2356 481 
L 2356 0 
L 1766 0 
Q 1100 0 847 248 
Q 594 497 594 1153 
L 594 3053 
L 172 3053 
L 172 3500 
L 594 3500 
L 594 4494 
L 1172 4494 
z
" transform="scale(0.015625)"/>
       <path id="DejaVuSans-76" d="M 191 3500 
L 800 3500 
L 1894 563 
L 2988 3500 
L 3597 3500 
L 2284 0 
L 1503 0 
L 191 3500 
z
" transform="scale(0.015625)"/>
       <path id="DejaVuSans-64" d="M 2906 2969 
L 2906 4863 
L 3481 4863 
L 3481 0 
L 2906 0 
L 2906 525 
Q 2725 213 2448 61 
Q 2172 -91 1784 -91 
Q 1150 -91 751 415 
Q 353 922 353 1747 
Q 353 2572 751 3078 
Q 1150 3584 1784 3584 
Q 2172 3584 2448 3432 
Q 2725 3281 2906 2969 
z
M 947 1747 
Q 947 1113 1208 752 
Q 1469 391 1925 391 
Q 2381 391 2643 752 
Q 2906 1113 2906 1747 
Q 2906 2381 2643 2742 
Q 2381 3103 1925 3103 
Q 1469 3103 1208 2742 
Q 947 2381 947 1747 
z
" transform="scale(0.015625)"/>
       <path id="DejaVuSans-6e" d="M 3513 2113 
L 3513 0 
L 2938 0 
L 2938 2094 
Q 2938 2591 2744 2837 
Q 2550 3084 2163 3084 
Q 1697 3084 1428 2787 
Q 1159 2491 1159 1978 
L 1159 0 
L 581 0 
L 581 3500 
L 1159 3500 
L 1159 2956 
Q 1366 3272 1645 3428 
Q 1925 3584 2291 3584 
Q 2894 3584 3203 3211 
Q 3513 2838 3513 2113 
z
" transform="scale(0.015625)"/>
       <path id="DejaVuSans-73" d="M 2834 3397 
L 2834 2853 
Q 2591 2978 2328 3040 
Q 2066 3103 1784 3103 
Q 1356 3103 1142 2972 
Q 928 2841 928 2578 
Q 928 2378 1081 2264 
Q 1234 2150 1697 2047 
L 1894 2003 
Q 2506 1872 2764 1633 
Q 3022 1394 3022 966 
Q 3022 478 2636 193 
Q 2250 -91 1575 -91 
Q 1294 -91 989 -36 
Q 684 19 347 128 
L 347 722 
Q 666 556 975 473 
Q 1284 391 1588 391 
Q 1994 391 2212 530 
Q 2431 669 2431 922 
Q 2431 1156 2273 1281 
Q 2116 1406 1581 1522 
L 1381 1569 
Q 847 1681 609 1914 
Q 372 2147 372 2553 
Q 372 3047 722 3315 
Q 1072 3584 1716 3584 
Q 2034 3584 2315 3537 
Q 2597 3491 2834 3397 
z
" transform="scale(0.015625)"/>
       <path id="DejaVuSans-79" d="M 2059 -325 
Q 1816 -950 1584 -1140 
Q 1353 -1331 966 -1331 
L 506 -1331 
L 506 -850 
L 844 -850 
Q 1081 -850 1212 -737 
Q 1344 -625 1503 -206 
L 1606 56 
L 191 3500 
L 800 3500 
L 1894 763 
L 2988 3500 
L 3597 3500 
L 2059 -325 
z
" transform="scale(0.015625)"/>
      </defs>
      <use xlink:href="#DejaVuSans-43"/>
      <use xlink:href="#DejaVuSans-75" transform="translate(69.824219 0)"/>
      <use xlink:href="#DejaVuSans-6d" transform="translate(133.203125 0)"/>
      <use xlink:href="#DejaVuSans-75" transform="translate(230.615234 0)"/>
      <use xlink:href="#DejaVuSans-6c" transform="translate(293.994141 0)"/>
      <use xlink:href="#DejaVuSans-61" transform="translate(321.777344 0)"/>
      <use xlink:href="#DejaVuSans-74" transform="translate(383.056641 0)"/>
      <use xlink:href="#DejaVuSans-69" transform="translate(422.265625 0)"/>
      <use xlink:href="#DejaVuSans-76" transform="translate(450.048828 0)"/>
      <use xlink:href="#DejaVuSans-65" transform="translate(509.228516 0)"/>
      <use xlink:href="#DejaVuSans-20" transform="translate(570.751953 0)"/>
      <use xlink:href="#DejaVuSans-64" transform="translate(602.539062 0)"/>
      <use xlink:href="#DejaVuSans-65" transform="translate(666.015625 0)"/>
      <use xlink:href="#DejaVuSans-6e" transform="translate(727.539062 0)"/>
      <use xlink:href="#DejaVuSans-73" transform="translate(790.917969 0)"/>
      <use xlink:href="#DejaVuSans-69" transform="translate(843.017578 0)"/>
      <use xlink:href="#DejaVuSans-74" transform="translate(870.800781 0)"/>
      <use xlink:href="#DejaVuSans-79" transform="translate(910.009766 0)"/>
     </g>
    </g>
   </g>
   <g id="FillBetweenPolyCollection_1"/>
   <g id="FillBetweenPolyCollection_2"/>
   <g id="line2d_16">
    <path d="M 68.06408 278.844545 
L 69.844432 278.249455 
L 69.964153 278.145961 
L 71.095762 277.680238 
L 71.889031 276.981654 
L 72.877654 276.541804 
L 73.847375 275.713852 
L 74.373527 275.455117 
L 74.695395 275.196382 
L 74.98165 275.041141 
L 74.990331 275.015268 
L 75.883256 274.834154 
L 75.992857 274.704786 
L 76.315106 274.549545 
L 76.346755 274.471925 
L 76.572031 274.342557 
L 77.093006 273.876834 
L 77.763458 273.488732 
L 77.813908 273.411111 
L 78.223765 273.204123 
L 78.225956 273.17825 
L 78.612804 273.023009 
L 78.809615 272.816021 
L 79.200346 272.609033 
L 79.282107 272.479665 
L 79.61021 272.324424 
L 79.632158 272.298551 
L 80.201169 272.117436 
L 80.768027 271.858701 
L 80.97819 271.677587 
L 81.080354 271.574093 
L 81.751356 271.315358 
L 81.853824 271.185991 
L 82.212351 270.979003 
L 82.752815 270.5909 
L 83.150131 270.409786 
L 83.382049 270.254545 
L 83.505592 270.047557 
L 83.717673 269.840569 
L 84.709634 269.090237 
L 85.115593 268.934996 
L 85.435971 268.598641 
L 85.622098 268.52102 
L 87.86625 266.321773 
L 88.10266 266.166532 
L 88.19696 266.063038 
L 88.555264 265.85605 
L 88.730598 265.726683 
L 88.993044 265.519695 
L 89.09359 265.442074 
L 89.512621 265.131592 
L 90.678876 263.967285 
L 90.883241 263.760297 
L 90.952379 263.70855 
L 91.220826 263.527436 
L 91.335027 263.449815 
L 91.585497 263.11346 
L 92.207024 262.59599 
L 92.369637 262.440749 
L 92.678517 262.207887 
L 92.7687 262.104393 
L 93.041671 261.949152 
L 93.390116 261.742164 
L 93.828301 261.535176 
L 94.039945 261.328188 
L 94.289019 261.172947 
L 94.543481 260.940086 
L 94.830232 260.707224 
L 95.045433 260.500236 
L 95.376159 260.319122 
L 95.439179 260.215628 
L 95.792461 260.034514 
L 96.324301 259.439423 
L 96.852087 258.999574 
L 97.031838 258.844333 
L 97.500687 258.404483 
L 97.93609 258.223369 
L 98.357357 257.887013 
L 98.623412 257.550658 
L 100.328008 256.256983 
L 100.850576 256.101742 
L 101.167213 255.765387 
L 101.614368 255.610146 
L 103.680243 253.799001 
L 106.122546 252.065477 
L 106.152803 252.039603 
L 106.478034 251.910236 
L 106.606998 251.729121 
L 107.191947 251.315145 
L 107.53096 251.159904 
L 107.711502 250.97879 
L 107.843754 250.797675 
L 108.924493 250.306079 
L 110.419472 248.883037 
L 110.753184 248.701922 
L 111.254606 248.443187 
L 112.564181 247.459994 
L 112.719518 247.27888 
L 112.720124 247.253006 
L 112.993057 247.097765 
L 113.342461 246.83903 
L 114.828436 245.72647 
L 115.113386 245.441862 
L 115.547868 245.13138 
L 116.181274 244.717404 
L 116.714891 244.277554 
L 117.150391 243.992946 
L 117.281904 243.863578 
L 117.515739 243.65659 
L 117.741462 243.423729 
L 118.012776 243.268488 
L 118.284436 243.0615 
L 118.692158 242.673397 
L 119.225383 242.362915 
L 119.577966 242.052434 
L 119.716114 241.923066 
L 119.974607 241.612584 
L 120.48695 241.198608 
L 120.723129 241.069241 
L 120.843623 240.862253 
L 121.816842 240.370656 
L 122.130424 240.111921 
L 122.603025 239.801439 
L 122.666047 239.749692 
L 123.21774 239.490957 
L 123.35555 239.335716 
L 123.825914 238.92174 
L 124.167509 238.740626 
L 124.675581 238.32665 
L 124.715687 238.197283 
L 125.35307 237.964421 
L 125.7851 237.576319 
L 126.089229 237.421078 
L 126.496326 237.188216 
L 126.626265 237.084722 
L 127.439616 236.515505 
L 127.718148 236.282644 
L 128.163125 235.946288 
L 128.400726 235.816921 
L 128.408564 235.791047 
L 129.013379 235.584059 
L 129.077903 235.506439 
L 129.311263 235.377071 
L 129.434991 235.170083 
L 129.666359 234.988969 
L 129.695114 234.911348 
L 130.613254 234.62674 
L 130.733425 234.574993 
L 130.967228 234.419752 
L 131.087602 234.316258 
L 132.207219 233.617674 
L 132.516981 233.436559 
L 132.846606 233.100204 
L 133.001901 232.944963 
L 133.22208 232.660354 
L 134.116117 232.220505 
L 135.074945 231.780655 
L 135.322264 231.625414 
L 135.797957 231.159692 
L 136.2274 231.004451 
L 136.252952 230.92683 
L 136.478042 230.771589 
L 137.273418 230.073005 
L 137.32339 230.021258 
L 137.555197 229.840143 
L 137.706274 229.736649 
L 139.136536 228.675836 
L 139.269018 228.546468 
L 139.600472 228.313607 
L 139.725387 228.210113 
L 140.664467 227.433908 
L 140.912506 227.252794 
L 141.94316 226.554209 
L 142.033389 226.502462 
L 142.571949 226.140233 
L 142.727095 225.933245 
L 144.265198 224.665444 
L 144.487251 224.536076 
L 144.617862 224.406709 
L 145.123339 224.251468 
L 145.226622 223.992733 
L 145.585216 223.811619 
L 145.887466 223.656378 
L 146.048082 223.578757 
L 146.357098 223.423516 
L 146.684829 223.113034 
L 146.802077 223.00954 
L 146.813091 222.983667 
L 147.100771 222.828426 
L 147.539515 222.466197 
L 147.754012 222.310956 
L 147.806508 222.259209 
L 148.077086 222.103968 
L 148.07917 222.078094 
L 148.775156 221.845233 
L 149.120439 221.664118 
L 149.300834 221.45713 
L 149.920176 220.93966 
L 150.467044 220.758546 
L 151.235394 220.241076 
L 151.545432 220.059962 
L 151.818917 219.852974 
L 152.187812 219.671859 
L 152.509911 219.490745 
L 152.62941 219.335504 
L 153.28794 218.947401 
L 153.499821 218.79216 
L 153.708517 218.662793 
L 153.954247 218.481678 
L 154.16195 218.248817 
L 154.460948 217.938335 
L 154.708007 217.808967 
L 154.914075 217.576106 
L 155.022372 217.420865 
L 156.015501 216.929268 
L 156.350285 216.64466 
L 156.604083 216.541166 
L 157.092833 216.308305 
L 157.34596 216.075443 
L 161.972692 212.504901 
L 162.267454 212.323786 
L 162.459456 212.039178 
L 162.54853 211.935684 
L 163.068917 211.702822 
L 163.262641 211.521708 
L 163.597492 211.31472 
L 164.527678 210.590262 
L 164.866212 210.435021 
L 164.977764 210.383274 
L 165.299942 209.943424 
L 165.417351 209.83993 
L 165.823046 209.684689 
L 166.254684 209.348334 
L 167.63389 208.416888 
L 168.352792 208.002912 
L 169.117675 207.459569 
L 169.248047 207.252581 
L 169.607604 206.967972 
L 169.616498 206.942099 
L 169.951013 206.786858 
L 170.0545 206.735111 
L 170.343456 206.450502 
L 170.607494 206.243514 
L 170.807832 206.088273 
L 170.866639 206.010653 
L 171.08791 205.855412 
L 171.191127 205.648424 
L 171.431036 205.415563 
L 171.653559 205.286195 
L 171.744672 205.182701 
L 172.241556 204.872219 
L 172.729198 204.43237 
L 173.209158 204.147761 
L 174.290918 203.293936 
L 174.54487 203.138695 
L 174.68036 203.035201 
L 174.79609 202.983454 
L 175.364298 202.672972 
L 175.570578 202.465984 
L 176.578272 201.741526 
L 176.710944 201.586285 
L 177.042759 201.301677 
L 177.419162 201.146436 
L 177.751994 200.887701 
L 177.861153 200.706586 
L 178.071898 200.577219 
L 178.31563 200.396104 
L 178.401084 200.318484 
L 178.871147 200.033875 
L 179.264213 199.619899 
L 179.388587 199.438785 
L 180.068358 198.843694 
L 180.456602 198.688453 
L 181.157303 197.886375 
L 181.669497 197.601767 
L 181.812262 197.472399 
L 182.161107 197.213664 
L 182.598203 196.903182 
L 182.993015 196.747941 
L 183.301216 196.437459 
L 184.053345 196.101104 
L 184.259257 195.868242 
L 184.316536 195.738875 
L 184.747108 195.506013 
L 184.854805 195.376646 
L 185.222428 195.04029 
L 185.372433 194.833303 
L 185.4977 194.755682 
L 186.41481 194.522821 
L 186.722557 194.186465 
L 187.106848 193.824236 
L 187.320707 193.513754 
L 187.735368 193.229146 
L 188.092015 193.073905 
L 188.416898 192.89279 
L 189.377967 192.323573 
L 189.601054 192.064838 
L 189.858186 191.883724 
L 189.922941 191.78023 
L 190.275106 191.469748 
L 190.507242 191.26276 
L 190.805058 191.107519 
L 190.831275 191.004025 
L 191.141909 190.848784 
L 191.214306 190.797037 
L 191.467856 190.615923 
L 191.513985 190.512429 
L 192.002244 190.305441 
L 192.358869 190.098453 
L 192.460238 189.994959 
L 192.919268 189.555109 
L 193.016542 189.425742 
L 193.81772 188.934145 
L 194.972869 188.106193 
L 195.08479 187.950952 
L 195.527647 187.743964 
L 195.809274 187.48523 
L 196.131407 187.252368 
L 196.514473 186.916013 
L 196.866378 186.734898 
L 197.728831 186.113934 
L 197.844711 185.958693 
L 198.143627 185.725832 
L 198.357212 185.441223 
L 198.746188 185.234235 
L 198.837559 185.156615 
L 199.105446 185.001374 
L 199.977106 183.992308 
L 200.055951 183.940561 
L 200.829098 183.500711 
L 200.895668 183.423091 
L 201.417628 183.190229 
L 201.610905 183.009115 
L 201.930329 182.75038 
L 202.310261 182.439898 
L 202.726903 182.258783 
L 202.982627 182.051795 
L 203.571652 181.611946 
L 204.014807 181.172096 
L 204.699834 181.016855 
L 204.937043 180.732247 
L 205.229032 180.551132 
L 207.77682 178.274265 
L 208.348888 178.119024 
L 208.373399 178.01553 
L 208.643305 177.860289 
L 208.755014 177.705048 
L 208.939601 177.549807 
L 209.046855 177.368692 
L 209.280573 177.135831 
L 210.129505 176.670108 
L 210.494092 176.514867 
L 210.755968 176.333753 
L 211.141337 176.049144 
L 211.468786 175.86803 
L 211.737395 175.661042 
L 212.295183 175.454054 
L 212.728598 175.065951 
L 212.845398 174.936584 
L 213.178901 174.781343 
L 213.493889 174.626102 
L 213.669761 174.419114 
L 213.995394 174.212126 
L 214.100539 174.108632 
L 214.350863 173.901644 
L 214.486416 173.79815 
L 214.995175 173.461794 
L 215.334072 173.28068 
L 215.683166 173.047819 
L 215.903385 172.840831 
L 216.206122 172.582096 
L 217.204363 171.72827 
L 217.734071 171.547156 
L 217.83398 171.391915 
L 218.486439 170.977939 
L 218.995216 170.538089 
L 219.544308 170.279354 
L 220.012554 169.994746 
L 220.103039 169.813631 
L 220.232033 169.58077 
L 220.34349 169.322035 
L 221.560398 168.442336 
L 221.631838 168.364716 
L 222.615256 167.898993 
L 222.807119 167.640258 
L 225.175082 165.906733 
L 225.693386 165.466884 
L 226.069576 165.234023 
L 226.188787 165.130529 
L 226.356767 165.027035 
L 226.597219 164.897667 
L 226.719712 164.7683 
L 227.142763 164.587185 
L 227.40027 164.199083 
L 227.648608 164.069715 
L 227.75388 163.940348 
L 229.239366 162.957155 
L 229.348927 162.827787 
L 229.753445 162.569052 
L 229.835821 162.465558 
L 230.047834 162.25857 
L 230.158297 162.051583 
L 231.010677 161.456492 
L 231.134849 161.275378 
L 231.388967 161.042516 
L 231.503549 160.913149 
L 232.467844 160.395679 
L 232.664118 160.240438 
L 233.140652 160.03345 
L 233.381479 159.800588 
L 233.871529 159.464233 
L 234.422413 159.283118 
L 234.532522 159.179624 
L 234.986661 158.99851 
L 235.66303 158.377546 
L 236.035455 158.196432 
L 236.166443 158.092938 
L 236.818962 157.420227 
L 237.443078 157.187365 
L 238.065513 156.747516 
L 238.102999 156.644022 
L 238.288829 156.488781 
L 238.673999 156.230046 
L 239.027846 156.048931 
L 239.117864 155.997184 
L 239.281353 155.841943 
L 239.370531 155.660829 
L 239.636473 155.427967 
L 239.795787 155.324473 
L 240.033481 155.169232 
L 240.153972 155.065738 
L 240.309874 154.910498 
L 240.875585 154.26366 
L 241.113041 154.108419 
L 241.217979 154.030799 
L 242.046708 153.358088 
L 242.534246 153.176973 
L 243.010911 152.63363 
L 247.488483 149.554684 
L 247.539501 149.477063 
L 247.971741 149.270075 
L 249.508467 148.390376 
L 249.630703 148.261009 
L 249.994734 148.054021 
L 250.105604 147.950527 
L 250.812186 147.510678 
L 251.046782 147.355437 
L 251.30407 147.174322 
L 251.381634 147.096702 
L 251.717226 146.915587 
L 252.480815 146.398117 
L 253.474709 145.854774 
L 257.031284 143.189804 
L 257.255676 142.982816 
L 257.653309 142.724081 
L 258.684693 142.077243 
L 259.246282 141.378659 
L 259.615175 141.119924 
L 259.692595 141.042303 
L 260.042816 140.835315 
L 260.122214 140.757695 
L 260.611818 140.49896 
L 262.051897 139.360526 
L 262.266063 139.205285 
L 263.283593 138.506701 
L 263.694792 138.35146 
L 265.614189 136.954291 
L 266.030892 136.79905 
L 266.165292 136.669683 
L 266.501374 136.436821 
L 266.706223 136.20396 
L 267.01798 135.893478 
L 267.274819 135.660616 
L 267.467056 135.479502 
L 267.585818 135.376008 
L 268.262414 135.039652 
L 269.178555 134.263447 
L 269.579575 133.978839 
L 269.829621 133.771851 
L 270.036997 133.61661 
L 270.256761 133.461369 
L 270.371716 133.332001 
L 270.618194 133.125014 
L 270.760708 132.969773 
L 270.953221 132.633417 
L 271.06124 132.555797 
L 271.839566 132.348809 
L 272.096001 132.0642 
L 272.343751 131.908959 
L 272.742967 131.650224 
L 272.982232 131.417363 
L 273.440239 130.899893 
L 273.58729 130.770525 
L 274.141152 130.278929 
L 274.472607 129.9167 
L 275.330833 129.606218 
L 275.337372 129.580344 
L 275.708234 129.39923 
L 275.960329 129.192242 
L 281.226637 125.725194 
L 281.716265 125.311218 
L 282.010725 125.155977 
L 282.206354 124.793748 
L 282.334954 124.612633 
L 282.474362 124.535013 
L 282.817499 124.379772 
L 282.946525 124.328025 
L 283.223764 124.095163 
L 283.362031 123.914049 
L 283.588921 123.758808 
L 283.886392 123.55182 
L 284.063167 123.396579 
L 284.30734 123.189591 
L 284.585948 122.879109 
L 284.77734 122.697994 
L 284.874028 122.542753 
L 285.181254 122.335765 
L 285.552275 122.102904 
L 285.651253 121.973537 
L 286.139913 121.40432 
L 286.23136 121.300826 
L 286.470052 121.145585 
L 286.71492 120.990344 
L 286.973201 120.757482 
L 287.392813 120.36938 
L 287.425649 120.265886 
L 287.863614 120.084771 
L 288.120794 119.85191 
L 288.98186 119.386187 
L 289.275994 119.127452 
L 289.563019 118.946337 
L 289.709061 118.791096 
L 290.453437 118.377121 
L 290.864369 118.170133 
L 291.113736 118.066639 
L 292.137036 117.419801 
L 292.892988 116.772964 
L 293.42444 116.591849 
L 293.737384 116.281367 
L 295.765869 114.677211 
L 295.944632 114.547843 
L 296.102921 114.444349 
L 297.361946 113.48703 
L 297.548094 113.305915 
L 298.245458 112.633204 
L 298.363188 112.400343 
L 298.71701 112.141608 
L 298.828072 112.038114 
L 299.364703 111.624138 
L 300.154286 110.847933 
L 300.222848 110.692692 
L 300.386964 110.563325 
L 300.729393 110.201096 
L 301.018025 109.916487 
L 301.454364 109.761246 
L 301.742173 109.554258 
L 302.14127 109.26965 
L 302.417471 109.140282 
L 302.606691 108.907421 
L 302.890615 108.700433 
L 303.026772 108.571065 
L 303.301532 108.260583 
L 303.410876 108.105342 
L 303.983918 107.79486 
L 304.134221 107.432632 
L 304.81175 106.889288 
L 304.948156 106.811668 
L 305.367708 106.449439 
L 305.524194 106.242451 
L 306.621628 105.388625 
L 308.215494 104.198444 
L 308.643602 103.991457 
L 310.002566 102.956517 
L 310.119714 102.749529 
L 310.643555 102.283806 
L 310.731134 102.206185 
L 310.928874 102.025071 
L 311.006443 101.973324 
L 311.163337 101.766336 
L 311.518779 101.42998 
L 313.2363 100.291547 
L 313.661531 100.110432 
L 313.73493 100.032812 
L 313.943175 99.877571 
L 314.172611 99.72233 
L 314.634418 99.385974 
L 315.394508 98.68739 
L 315.807978 98.454528 
L 315.858705 98.402781 
L 316.054752 98.221667 
L 316.201278 98.066426 
L 316.691632 97.859438 
L 316.812676 97.807691 
L 317.029406 97.65245 
L 317.095022 97.574829 
L 317.512548 97.367841 
L 319.381402 95.737811 
L 319.802057 95.530823 
L 320.320196 95.0651 
L 320.628041 94.909859 
L 320.921887 94.728745 
L 321.394006 94.495883 
L 322.238999 93.874919 
L 322.482131 93.693805 
L 322.654619 93.486817 
L 322.879339 93.305702 
L 323.046842 93.176335 
L 323.340411 92.995221 
L 323.434612 92.891727 
L 325.316295 91.416937 
L 325.886181 91.106455 
L 326.004483 90.925341 
L 326.204051 90.7701 
L 326.60509 90.511365 
L 326.895443 90.200883 
L 327.101276 90.045642 
L 327.226451 89.838654 
L 327.545091 89.683413 
L 327.85777 89.398805 
L 328.012768 89.243564 
L 328.519987 88.829588 
L 328.60133 88.751967 
L 328.801849 88.544979 
L 328.916699 88.389738 
L 329.272584 88.10513 
L 331.613295 86.397479 
L 334.204331 84.767449 
L 334.583223 84.560461 
L 334.78488 84.431093 
L 334.972859 84.249979 
L 335.084089 84.146485 
L 335.661085 83.706635 
L 336.050603 83.4479 
L 336.152052 83.37028 
L 337.364233 82.723442 
L 337.519014 82.568201 
L 338.09868 82.180099 
L 338.25332 81.998985 
L 338.426469 81.766123 
L 339.690708 81.067539 
L 339.822732 80.938171 
L 340.433591 80.524195 
L 340.559679 80.394828 
L 340.852912 80.213713 
L 341.352604 79.851484 
L 341.480092 79.773864 
L 343.031152 78.790671 
L 343.140166 78.687177 
L 343.820092 78.195581 
L 343.948367 78.066213 
L 344.329865 77.910972 
L 345.023267 77.548743 
L 345.12044 77.393502 
L 345.611405 77.238261 
L 345.780929 77.057147 
L 345.990368 76.901906 
L 346.829361 76.203321 
L 346.875384 76.151574 
L 347.205987 75.97046 
L 347.646762 75.634104 
L 347.72648 75.53061 
L 348.001445 75.297749 
L 348.142605 75.220128 
L 351.239174 73.538351 
L 351.299408 73.408984 
L 351.697621 73.253743 
L 351.770916 73.150249 
L 352.115392 72.995008 
L 353.505981 71.804827 
L 353.775401 71.597839 
L 353.935083 71.468471 
L 356.991521 69.346845 
L 356.995309 69.295098 
L 357.198514 69.16573 
L 357.535225 68.803501 
L 357.743538 68.64826 
L 358.59829 68.027296 
L 359.005401 67.690941 
L 359.20252 67.432206 
L 359.549533 67.225218 
L 360.075376 66.837116 
L 360.390333 66.656001 
L 360.885257 66.293772 
L 361.260574 66.086784 
L 361.583117 65.828049 
L 361.596044 65.750429 
L 361.904973 65.595188 
L 362.068254 65.46582 
L 362.454092 65.258832 
L 362.576719 65.103591 
L 362.750936 64.974224 
L 363.147088 64.818983 
L 363.307963 64.715489 
L 363.67368 64.456754 
L 363.746635 64.301513 
L 364.304693 63.913411 
L 364.417231 63.706423 
L 365.220944 63.188953 
L 365.224201 63.163079 
L 365.900472 62.930218 
L 366.289907 62.593862 
L 366.414238 62.438621 
L 366.739058 62.257507 
L 367.146952 61.791784 
L 367.418124 61.558922 
L 368.19951 61.067326 
L 368.651471 60.937958 
L 370.265389 59.696031 
L 370.629316 59.411422 
L 370.718506 59.307928 
L 371.499627 58.893952 
L 371.604321 58.816332 
L 371.921539 58.479976 
L 372.093274 58.324735 
L 373.81938 57.108681 
L 373.904759 57.056934 
L 374.168622 56.901693 
L 374.349627 56.720579 
L 374.654851 56.539464 
L 375.026876 56.306603 
L 375.566835 56.047868 
L 375.638142 55.9185 
L 375.893848 55.711512 
L 377.62491 54.391964 
L 377.710955 54.340217 
L 378.301514 53.874494 
L 378.469882 53.745126 
L 380.013494 52.684313 
L 380.294685 52.503199 
L 380.760353 52.270337 
L 381.20085 52.063349 
L 381.329769 51.959855 
L 381.605905 51.752867 
L 381.790711 51.494132 
L 382.209666 51.287144 
L 382.640903 50.847295 
L 382.784039 50.717927 
L 382.974161 50.562686 
L 383.576918 50.200457 
L 383.784014 50.096963 
L 383.988747 49.941722 
L 384.184169 49.760608 
L 384.904448 49.191391 
L 385.019668 49.087897 
L 385.5454 48.829162 
L 386.071336 48.363439 
L 386.318185 48.104704 
L 386.902308 47.897716 
L 387.875926 47.250879 
L 388.080908 47.121511 
L 388.239453 46.96627 
L 388.349956 46.88865 
L 388.552375 46.733409 
L 389.02259 46.397053 
L 389.481445 46.215939 
L 389.76871 46.008951 
L 389.909672 45.801963 
L 390.102356 45.620849 
L 390.180159 45.491481 
L 390.413333 45.33624 
L 390.712646 45.077505 
L 391.004913 44.922264 
L 391.091907 44.844644 
L 391.363411 44.689403 
L 391.486682 44.560035 
L 391.98666 44.120186 
L 392.131969 44.016692 
L 393.613518 43.033499 
L 393.735097 42.930005 
L 395.057656 42.07618 
L 395.262268 41.895065 
L 395.67513 41.63633 
L 395.788964 41.55871 
L 396.401213 41.248228 
L 397.448803 40.472023 
L 397.80273 40.342655 
L 398.01437 40.239161 
L 398.210811 40.0063 
L 398.607915 39.669944 
L 399.131964 39.462956 
L 399.176966 39.359462 
L 399.531743 39.152474 
L 399.928229 38.816119 
L 400.212706 38.635005 
L 400.480802 38.298649 
L 401.263416 37.832926 
L 401.317523 37.781179 
L 401.664484 37.574191 
L 402.559701 36.720366 
L 402.901568 36.513378 
L 403.100482 36.409884 
L 404.301196 35.659552 
L 404.501536 35.504311 
L 405.373644 35.012715 
L 405.860282 34.650486 
L 405.969206 34.598739 
L 406.156004 34.443498 
L 406.240977 34.340004 
L 406.848412 33.822534 
L 406.977005 33.615546 
L 407.146267 33.408558 
L 407.577752 33.098076 
L 407.954125 32.891088 
L 409.609406 31.675034 
L 409.876673 31.468046 
L 409.978573 31.338679 
L 411.535819 30.329612 
L 411.792962 29.993257 
L 412.031126 29.838016 
L 412.274357 29.579281 
L 412.748228 29.268799 
L 412.863295 29.165305 
L 413.119105 28.958317 
L 413.310912 28.803076 
L 413.570801 28.596088 
L 413.576309 28.570214 
L 413.918814 28.3891 
L 413.974761 28.259732 
L 414.269381 28.052744 
L 414.298195 28.000997 
L 414.605863 27.845756 
L 414.729747 27.664642 
L 415.084014 27.457654 
L 416.568577 26.603829 
L 416.596987 26.526208 
L 417.077278 26.31922 
L 419.568743 24.119973 
L 419.788998 23.964732 
L 420.51659 23.292021 
L 420.633436 23.13678 
L 420.908149 22.929792 
L 421.551458 22.489943 
L 421.894845 22.308828 
L 422.169641 22.231208 
L 423.057102 21.610244 
L 423.402529 21.273888 
L 423.651186 21.118647 
L 424.284963 20.704671 
L 424.972188 20.135455 
L 424.972188 20.135455 
" clip-path="url(#p5b6321bf8f)" style="fill: none; stroke: #0173b2; stroke-width: 1.5; stroke-linecap: round"/>
   </g>
   <g id="line2d_17">
    <path d="M 67.672188 278.58581 
L 71.278925 275.977553 
L 74.885662 273.369295 
L 78.4924 270.761038 
L 82.099137 268.15278 
L 85.705874 265.544523 
L 89.312612 262.936265 
L 92.919349 260.328008 
L 96.526086 257.71975 
L 100.132824 255.111493 
L 103.739561 252.503235 
L 107.346298 249.894978 
L 110.953036 247.28672 
L 114.559773 244.678463 
L 118.16651 242.070205 
L 121.773248 239.461948 
L 125.379985 236.85369 
L 128.986722 234.245433 
L 132.59346 231.637175 
L 136.200197 229.028918 
L 139.806934 226.42066 
L 143.413672 223.812403 
L 147.020409 221.204145 
L 150.627146 218.595888 
L 154.233884 215.98763 
L 157.840621 213.379372 
L 161.447358 210.771115 
L 165.054096 208.162857 
L 168.660833 205.5546 
L 172.26757 202.946342 
L 175.874308 200.338085 
L 179.481045 197.729827 
L 183.087782 195.12157 
L 186.69452 192.513312 
L 190.301257 189.905055 
L 193.907994 187.296797 
L 197.514732 184.68854 
L 201.121469 182.080282 
L 204.728206 179.472025 
L 208.334944 176.863767 
L 211.941681 174.25551 
L 215.548418 171.647252 
L 219.155156 169.038995 
L 222.761893 166.430737 
L 226.36863 163.82248 
L 229.975368 161.214222 
L 233.582105 158.605965 
L 237.188842 155.997707 
L 240.79558 153.38945 
L 244.402317 150.781192 
L 248.009054 148.172934 
L 251.615792 145.564677 
L 255.222529 142.956419 
L 258.829266 140.348162 
L 262.436004 137.739904 
L 266.042741 135.131647 
L 269.649478 132.523389 
L 273.256216 129.915132 
L 276.862953 127.306874 
L 280.46969 124.698617 
L 284.076428 122.090359 
L 287.683165 119.482102 
L 291.289902 116.873844 
L 294.89664 114.265587 
L 298.503377 111.657329 
L 302.110114 109.049072 
L 305.716852 106.440814 
L 309.323589 103.832557 
L 312.930326 101.224299 
L 316.537064 98.616042 
L 320.143801 96.007784 
L 323.750538 93.399527 
L 327.357276 90.791269 
L 330.964013 88.183012 
L 334.57075 85.574754 
L 338.177488 82.966496 
L 341.784225 80.358239 
L 345.390962 77.749981 
L 348.9977 75.141724 
L 352.604437 72.533466 
L 356.211174 69.925209 
L 359.817912 67.316951 
L 363.424649 64.708694 
L 367.031386 62.100436 
L 370.638124 59.492179 
L 374.244861 56.883921 
L 377.851598 54.275664 
L 381.458336 51.667406 
L 385.065073 49.059149 
L 388.67181 46.450891 
L 392.278548 43.842634 
L 395.885285 41.234376 
L 399.492023 38.626119 
L 403.09876 36.017861 
L 406.705497 33.409604 
L 410.312235 30.801346 
L 413.918972 28.193089 
L 417.525709 25.584831 
L 421.132447 22.976574 
L 424.739184 20.368316 
" clip-path="url(#p5b6321bf8f)" style="fill: none; stroke: #de8f05; stroke-width: 1.5; stroke-linecap: round"/>
   </g>
   <g id="patch_3">
    <path d="M 49.807188 291.78 
L 49.807188 7.2 
" style="fill: none; stroke: #262626; stroke-width: 1.25; stroke-linejoin: miter; stroke-linecap: square"/>
   </g>
   <g id="patch_4">
    <path d="M 442.837188 291.78 
L 442.837188 7.2 
" style="fill: none; stroke: #262626; stroke-width: 1.25; stroke-linejoin: miter; stroke-linecap: square"/>
   </g>
   <g id="patch_5">
    <path d="M 49.807188 291.78 
L 442.837188 291.78 
" style="fill: none; stroke: #262626; stroke-width: 1.25; stroke-linejoin: miter; stroke-linecap: square"/>
   </g>
   <g id="patch_6">
    <path d="M 49.807188 7.2 
L 442.837188 7.2 
" style="fill: none; stroke: #262626; stroke-width: 1.25; stroke-linejoin: miter; stroke-linecap: square"/>
   </g>
   <g id="legend_1">
    <g id="patch_7">
     <path d="M 348.809531 167.285937 
L 435.137188 167.285937 
Q 437.337188 167.285937 437.337188 165.085937 
L 437.337188 133.894062 
Q 437.337188 131.694062 435.137188 131.694062 
L 348.809531 131.694062 
Q 346.609531 131.694062 346.609531 133.894062 
L 346.609531 165.085937 
Q 346.609531 167.285937 348.809531 167.285937 
z
" style="fill: #ffffff; opacity: 0.8; stroke: #cccccc; stroke-linejoin: miter"/>
    </g>
    <g id="line2d_18">
     <path d="M 351.009531 140.602344 
L 362.009531 140.602344 
L 373.009531 140.602344 
" style="fill: none; stroke: #0173b2; stroke-width: 1.5; stroke-linecap: round"/>
    </g>
    <g id="text_18">
     <!-- Empirical -->
     <g style="fill: #262626" transform="translate(381.809531 144.452344) scale(0.11 -0.11)">
      <defs>
       <path id="DejaVuSans-45" d="M 628 4666 
L 3578 4666 
L 3578 4134 
L 1259 4134 
L 1259 2753 
L 3481 2753 
L 3481 2222 
L 1259 2222 
L 1259 531 
L 3634 531 
L 3634 0 
L 628 0 
L 628 4666 
z
" transform="scale(0.015625)"/>
       <path id="DejaVuSans-63" d="M 3122 3366 
L 3122 2828 
Q 2878 2963 2633 3030 
Q 2388 3097 2138 3097 
Q 1578 3097 1268 2742 
Q 959 2388 959 1747 
Q 959 1106 1268 751 
Q 1578 397 2138 397 
Q 2388 397 2633 464 
Q 2878 531 3122 666 
L 3122 134 
Q 2881 22 2623 -34 
Q 2366 -91 2075 -91 
Q 1284 -91 818 406 
Q 353 903 353 1747 
Q 353 2603 823 3093 
Q 1294 3584 2113 3584 
Q 2378 3584 2631 3529 
Q 2884 3475 3122 3366 
z
" transform="scale(0.015625)"/>
      </defs>
      <use xlink:href="#DejaVuSans-45"/>
      <use xlink:href="#DejaVuSans-6d" transform="translate(63.183594 0)"/>
      <use xlink:href="#DejaVuSans-70" transform="translate(160.595703 0)"/>
      <use xlink:href="#DejaVuSans-69" transform="translate(224.072266 0)"/>
      <use xlink:href="#DejaVuSans-72" transform="translate(251.855469 0)"/>
      <use xlink:href="#DejaVuSans-69" transform="translate(292.96875 0)"/>
      <use xlink:href="#DejaVuSans-63" transform="translate(320.751953 0)"/>
      <use xlink:href="#DejaVuSans-61" transform="translate(375.732422 0)"/>
      <use xlink:href="#DejaVuSans-6c" transform="translate(437.011719 0)"/>
     </g>
    </g>
    <g id="line2d_19">
     <path d="M 351.009531 156.748281 
L 362.009531 156.748281 
L 373.009531 156.748281 
" style="fill: none; stroke: #de8f05; stroke-width: 1.5; stroke-linecap: round"/>
    </g>
    <g id="text_19">
     <!-- Model -->
     <g style="fill: #262626" transform="translate(381.809531 160.598281) scale(0.11 -0.11)">
      <defs>
       <path id="DejaVuSans-4d" d="M 628 4666 
L 1569 4666 
L 2759 1491 
L 3956 4666 
L 4897 4666 
L 4897 0 
L 4281 0 
L 4281 4097 
L 3078 897 
L 2444 897 
L 1241 4097 
L 1241 0 
L 628 0 
L 628 4666 
z
" transform="scale(0.015625)"/>
      </defs>
      <use xlink:href="#DejaVuSans-4d"/>
      <use xlink:href="#DejaVuSans-6f" transform="translate(86.279297 0)"/>
      <use xlink:href="#DejaVuSans-64" transform="translate(147.460938 0)"/>
      <use xlink:href="#DejaVuSans-65" transform="translate(210.9375 0)"/>
      <use xlink:href="#DejaVuSans-6c" transform="translate(272.460938 0)"/>
     </g>
    </g>
   </g>
   <g id="text_20">
    <!-- KS D = 0.012 -->
    <g style="fill: #262626" transform="translate(371.785309 272.816211) scale(0.09996 -0.09996)">
     <defs>
      <path id="DejaVuSans-4b" d="M 628 4666 
L 1259 4666 
L 1259 2694 
L 3353 4666 
L 4166 4666 
L 1850 2491 
L 4331 0 
L 3500 0 
L 1259 2247 
L 1259 0 
L 628 0 
L 628 4666 
z
" transform="scale(0.015625)"/>
      <path id="DejaVuSans-53" d="M 3425 4513 
L 3425 3897 
Q 3066 4069 2747 4153 
Q 2428 4238 2131 4238 
Q 1616 4238 1336 4038 
Q 1056 3838 1056 3469 
Q 1056 3159 1242 3001 
Q 1428 2844 1947 2747 
L 2328 2669 
Q 3034 2534 3370 2195 
Q 3706 1856 3706 1288 
Q 3706 609 3251 259 
Q 2797 -91 1919 -91 
Q 1588 -91 1214 -16 
Q 841 59 441 206 
L 441 856 
Q 825 641 1194 531 
Q 1563 422 1919 422 
Q 2459 422 2753 634 
Q 3047 847 3047 1241 
Q 3047 1584 2836 1778 
Q 2625 1972 2144 2069 
L 1759 2144 
Q 1053 2284 737 2584 
Q 422 2884 422 3419 
Q 422 4038 858 4394 
Q 1294 4750 2059 4750 
Q 2388 4750 2728 4690 
Q 3069 4631 3425 4513 
z
" transform="scale(0.015625)"/>
      <path id="DejaVuSans-44" d="M 1259 4147 
L 1259 519 
L 2022 519 
Q 2988 519 3436 956 
Q 3884 1394 3884 2338 
Q 3884 3275 3436 3711 
Q 2988 4147 2022 4147 
L 1259 4147 
z
M 628 4666 
L 1925 4666 
Q 3281 4666 3915 4102 
Q 4550 3538 4550 2338 
Q 4550 1131 3912 565 
Q 3275 0 1925 0 
L 628 0 
L 628 4666 
z
" transform="scale(0.015625)"/>
      <path id="DejaVuSans-3d" d="M 678 2906 
L 4684 2906 
L 4684 2381 
L 678 2381 
L 678 2906 
z
M 678 1631 
L 4684 1631 
L 4684 1100 
L 678 1100 
L 678 1631 
z
" transform="scale(0.015625)"/>
     </defs>
     <use xlink:href="#DejaVuSans-4b"/>
     <use xlink:href="#DejaVuSans-53" transform="translate(65.576172 0)"/>
     <use xlink:href="#DejaVuSans-20" transform="translate(129.052734 0)"/>
     <use xlink:href="#DejaVuSans-44" transform="translate(160.839844 0)"/>
     <use xlink:href="#DejaVuSans-20" transform="translate(237.841797 0)"/>
     <use xlink:href="#DejaVuSans-3d" transform="translate(269.628906 0)"/>
     <use xlink:href="#DejaVuSans-20" transform="translate(353.417969 0)"/>
     <use xlink:href="#DejaVuSans-30" transform="translate(385.205078 0)"/>
     <use xlink:href="#DejaVuSans-2e" transform="translate(448.828125 0)"/>
     <use xlink:href="#DejaVuSans-30" transform="translate(480.615234 0)"/>
     <use xlink:href="#DejaVuSans-31" transform="translate(544.238281 0)"/>
     <use xlink:href="#DejaVuSans-32" transform="translate(607.861328 0)"/>
    </g>
    <!-- p = 0.12 -->
    <g style="fill: #262626" transform="translate(395.574228 284.009544) scale(0.09996 -0.09996)">
     <use xlink:href="#DejaVuSans-70"/>
     <use xlink:href="#DejaVuSans-20" transform="translate(63.476562 0)"/>
     <use xlink:href="#DejaVuSans-3d" transform="translate(95.263672 0)"/>
     <use xlink:href="#DejaVuSans-20" transform="translate(179.052734 0)"/>
     <use xlink:href="#DejaVuSans-30" transform="translate(210.839844 0)"/>
     <use xlink:href="#DejaVuSans-2e" transform="translate(274.462891 0)"/>
     <use xlink:href="#DejaVuSans-31" transform="translate(306.25 0)"/>
     <use xlink:href="#DejaVuSans-32" transform="translate(369.873047 0)"/>
    </g>
   </g>
  </g>
 </g>
 <defs>
  <clipPath id="p5b6321bf8f">
   <rect x="49.807188" y="7.2" width="393.03" height="284.58"/>
  </clipPath>
 </defs>
</svg>
