<?xml version="1.0" encoding="utf-8" standalone="no"?>
<!DOCTYPE svg PUBLIC "-//W3C//DTD SVG 1.1//EN"
  "http://www.w3.org/Graphics/SVG/1.1/DTD/svg11.dtd">
<svg xmlns:xlink="http://www.w3.org/1999/xlink" width="448.959007pt" height="335.073438pt" viewBox="0 0 448.959007 335.073438" xmlns="http://www.w3.org/2000/svg" version="1.1">
 <metadata>
  <rdf:RDF xmlns:dc="http://purl.org/dc/elements/1.1/" xmlns:cc="http://creativecommons.org/ns#" xmlns:rdf="http://www.w3.org/1999/02/22-rdf-syntax-ns#">
   <cc:Work>
    <dc:type rdf:resource="http://purl.org/dc/dcmitype/StillImage"/>
    <dc:date>2026-05-15T15:10:54.434913</dc:date>
    <dc:format>image/svg+xml</dc:format>
    <dc:creator>
     <cc:Agent>
      <dc:title>Matplotlib v3.10.9, https://matplotlib.org/</dc:title>
     </cc:Agent>
    </dc:creator>
   </cc:Work>
  </rdf:RDF>
 </metadata>
 <defs>
  <style type="text/css">*{stroke-linejoin: round; stroke-linecap: butt}</style>
 </defs>
 <g id="figure_1">
  <g id="patch_1">
   <path d="M 0 335.073438 
L 448.959007 335.073438 
L 448.959007 0 
L 0 0 
z
" style="fill: #ffffff"/>
  </g>
  <g id="axes_1">
   <g id="patch_2">
    <path d="M 49.807188 291.78 
L 441.759007 291.78 
L 441.759007 7.2 
L 49.807188 7.2 
z
" style="fill: #ffffff"/>
   </g>
   <g id="matplotlib.axis_1">
    <g id="xtick_1">
     <g id="line2d_1">
      <defs>
       <path id="ma9767022f1" d="M 0 0 
L 0 6 
" style="stroke: #262626; stroke-width: 1.25"/>
      </defs>
      <g>
       <use xlink:href="#ma9767022f1" x="67.623121" y="291.78" style="fill: #262626; stroke: #262626; stroke-width: 1.25"/>
      </g>
     </g>
     <g id="text_1">
      <!-- 0.000 -->
      <g style="fill: #262626" transform="translate(51.877652 309.638281) scale(0.11 -0.11)">
       <defs>
        <path id="DejaVuSans-30" d="M 2034 4250 
Q 1547 4250 1301 3770 
Q 1056 3291 1056 2328 
Q 1056 1369 1301 889 
Q 1547 409 2034 409 
Q 2525 409 2770 889 
Q 3016 1369 3016 2328 
Q 3016 3291 2770 3770 
Q 2525 4250 2034 4250 
z
M 2034 4750 
Q 2819 4750 3233 4129 
Q 3647 3509 3647 2328 
Q 3647 1150 3233 529 
Q 2819 -91 2034 -91 
Q 1250 -91 836 529 
Q 422 1150 422 2328 
Q 422 3509 836 4129 
Q 1250 4750 2034 4750 
z
" transform="scale(0.015625)"/>
        <path id="DejaVuSans-2e" d="M 684 794 
L 1344 794 
L 1344 0 
L 684 0 
L 684 794 
z
" transform="scale(0.015625)"/>
       </defs>
       <use xlink:href="#DejaVuSans-30"/>
       <use xlink:href="#DejaVuSans-2e" transform="translate(63.623047 0)"/>
       <use xlink:href="#DejaVuSans-30" transform="translate(95.410156 0)"/>
       <use xlink:href="#DejaVuSans-30" transform="translate(159.033203 0)"/>
       <use xlink:href="#DejaVuSans-30" transform="translate(222.65625 0)"/>
      </g>
     </g>
    </g>
    <g id="xtick_2">
     <g id="line2d_2">
      <g>
       <use xlink:href="#ma9767022f1" x="112.371078" y="291.78" style="fill: #262626; stroke: #262626; stroke-width: 1.25"/>
      </g>
     </g>
     <g id="text_2">
      <!-- 0.025 -->
      <g style="fill: #262626" transform="translate(96.62561 309.638281) scale(0.11 -0.11)">
       <defs>
        <path id="DejaVuSans-32" d="M 1228 531 
L 3431 531 
L 3431 0 
L 469 0 
L 469 531 
Q 828 903 1448 1529 
Q 2069 2156 2228 2338 
Q 2531 2678 2651 2914 
Q 2772 3150 2772 3378 
Q 2772 3750 2511 3984 
Q 2250 4219 1831 4219 
Q 1534 4219 1204 4116 
Q 875 4013 500 3803 
L 500 4441 
Q 881 4594 1212 4672 
Q 1544 4750 1819 4750 
Q 2544 4750 2975 4387 
Q 3406 4025 3406 3419 
Q 3406 3131 3298 2873 
Q 3191 2616 2906 2266 
Q 2828 2175 2409 1742 
Q 1991 1309 1228 531 
z
" transform="scale(0.015625)"/>
        <path id="DejaVuSans-35" d="M 691 4666 
L 3169 4666 
L 3169 4134 
L 1269 4134 
L 1269 2991 
Q 1406 3038 1543 3061 
Q 1681 3084 1819 3084 
Q 2600 3084 3056 2656 
Q 3513 2228 3513 1497 
Q 3513 744 3044 326 
Q 2575 -91 1722 -91 
Q 1428 -91 1123 -41 
Q 819 9 494 109 
L 494 744 
Q 775 591 1075 516 
Q 1375 441 1709 441 
Q 2250 441 2565 725 
Q 2881 1009 2881 1497 
Q 2881 1984 2565 2268 
Q 2250 2553 1709 2553 
Q 1456 2553 1204 2497 
Q 953 2441 691 2322 
L 691 4666 
z
" transform="scale(0.015625)"/>
       </defs>
       <use xlink:href="#DejaVuSans-30"/>
       <use xlink:href="#DejaVuSans-2e" transform="translate(63.623047 0)"/>
       <use xlink:href="#DejaVuSans-30" transform="translate(95.410156 0)"/>
       <use xlink:href="#DejaVuSans-32" transform="translate(159.033203 0)"/>
       <use xlink:href="#DejaVuSans-35" transform="translate(222.65625 0)"/>
      </g>
     </g>
    </g>
    <g id="xtick_3">
     <g id="line2d_3">
      <g>
       <use xlink:href="#ma9767022f1" x="157.119035" y="291.78" style="fill: #262626; stroke: #262626; stroke-width: 1.25"/>
      </g>
     </g>
     <g id="text_3">
      <!-- 0.050 -->
      <g style="fill: #262626" transform="translate(141.373567 309.638281) scale(0.11 -0.11)">
       <use xlink:href="#DejaVuSans-30"/>
       <use xlink:href="#DejaVuSans-2e" transform="translate(63.623047 0)"/>
       <use xlink:href="#DejaVuSans-30" transform="translate(95.410156 0)"/>
       <use xlink:href="#DejaVuSans-35" transform="translate(159.033203 0)"/>
       <use xlink:href="#DejaVuSans-30" transform="translate(222.65625 0)"/>
      </g>
     </g>
    </g>
    <g id="xtick_4">
     <g id="line2d_4">
      <g>
       <use xlink:href="#ma9767022f1" x="201.866992" y="291.78" style="fill: #262626; stroke: #262626; stroke-width: 1.25"/>
      </g>
     </g>
     <g id="text_4">
      <!-- 0.075 -->
      <g style="fill: #262626" transform="translate(186.121524 309.638281) scale(0.11 -0.11)">
       <defs>
        <path id="DejaVuSans-37" d="M 525 4666 
L 3525 4666 
L 3525 4397 
L 1831 0 
L 1172 0 
L 2766 4134 
L 525 4134 
L 525 4666 
z
" transform="scale(0.015625)"/>
       </defs>
       <use xlink:href="#DejaVuSans-30"/>
       <use xlink:href="#DejaVuSans-2e" transform="translate(63.623047 0)"/>
       <use xlink:href="#DejaVuSans-30" transform="translate(95.410156 0)"/>
       <use xlink:href="#DejaVuSans-37" transform="translate(159.033203 0)"/>
       <use xlink:href="#DejaVuSans-35" transform="translate(222.65625 0)"/>
      </g>
     </g>
    </g>
    <g id="xtick_5">
     <g id="line2d_5">
      <g>
       <use xlink:href="#ma9767022f1" x="246.614949" y="291.78" style="fill: #262626; stroke: #262626; stroke-width: 1.25"/>
      </g>
     </g>
     <g id="text_5">
      <!-- 0.100 -->
      <g style="fill: #262626" transform="translate(230.869481 309.638281) scale(0.11 -0.11)">
       <defs>
        <path id="DejaVuSans-31" d="M 794 531 
L 1825 531 
L 1825 4091 
L 703 3866 
L 703 4441 
L 1819 4666 
L 2450 4666 
L 2450 531 
L 3481 531 
L 3481 0 
L 794 0 
L 794 531 
z
" transform="scale(0.015625)"/>
       </defs>
       <use xlink:href="#DejaVuSans-30"/>
       <use xlink:href="#DejaVuSans-2e" transform="translate(63.623047 0)"/>
       <use xlink:href="#DejaVuSans-31" transform="translate(95.410156 0)"/>
       <use xlink:href="#DejaVuSans-30" transform="translate(159.033203 0)"/>
       <use xlink:href="#DejaVuSans-30" transform="translate(222.65625 0)"/>
      </g>
     </g>
    </g>
    <g id="xtick_6">
     <g id="line2d_6">
      <g>
       <use xlink:href="#ma9767022f1" x="291.362906" y="291.78" style="fill: #262626; stroke: #262626; stroke-width: 1.25"/>
      </g>
     </g>
     <g id="text_6">
      <!-- 0.125 -->
      <g style="fill: #262626" transform="translate(275.617438 309.638281) scale(0.11 -0.11)">
       <use xlink:href="#DejaVuSans-30"/>
       <use xlink:href="#DejaVuSans-2e" transform="translate(63.623047 0)"/>
       <use xlink:href="#DejaVuSans-31" transform="translate(95.410156 0)"/>
       <use xlink:href="#DejaVuSans-32" transform="translate(159.033203 0)"/>
       <use xlink:href="#DejaVuSans-35" transform="translate(222.65625 0)"/>
      </g>
     </g>
    </g>
    <g id="xtick_7">
     <g id="line2d_7">
      <g>
       <use xlink:href="#ma9767022f1" x="336.110863" y="291.78" style="fill: #262626; stroke: #262626; stroke-width: 1.25"/>
      </g>
     </g>
     <g id="text_7">
      <!-- 0.150 -->
      <g style="fill: #262626" transform="translate(320.365395 309.638281) scale(0.11 -0.11)">
       <use xlink:href="#DejaVuSans-30"/>
       <use xlink:href="#DejaVuSans-2e" transform="translate(63.623047 0)"/>
       <use xlink:href="#DejaVuSans-31" transform="translate(95.410156 0)"/>
       <use xlink:href="#DejaVuSans-35" transform="translate(159.033203 0)"/>
       <use xlink:href="#DejaVuSans-30" transform="translate(222.65625 0)"/>
      </g>
     </g>
    </g>
    <g id="xtick_8">
     <g id="line2d_8">
      <g>
       <use xlink:href="#ma9767022f1" x="380.858821" y="291.78" style="fill: #262626; stroke: #262626; stroke-width: 1.25"/>
      </g>
     </g>
     <g id="text_8">
      <!-- 0.175 -->
      <g style="fill: #262626" transform="translate(365.113352 309.638281) scale(0.11 -0.11)">
       <use xlink:href="#DejaVuSans-30"/>
       <use xlink:href="#DejaVuSans-2e" transform="translate(63.623047 0)"/>
       <use xlink:href="#DejaVuSans-31" transform="translate(95.410156 0)"/>
       <use xlink:href="#DejaVuSans-37" transform="translate(159.033203 0)"/>
       <use xlink:href="#DejaVuSans-35" transform="translate(222.65625 0)"/>
      </g>
     </g>
    </g>
    <g id="xtick_9">
     <g id="line2d_9">
      <g>
       <use xlink:href="#ma9767022f1" x="425.606778" y="291.78" style="fill: #262626; stroke: #262626; stroke-width: 1.25"/>
      </g>
     </g>
     <g id="text_9">
      <!-- 0.200 -->
      <g style="fill: #262626" transform="translate(409.861309 309.638281) scale(0.11 -0.11)">
       <use xlink:href="#DejaVuSans-30"/>
       <use xlink:href="#DejaVuSans-2e" transform="translate(63.623047 0)"/>
       <use xlink:href="#DejaVuSans-32" transform="translate(95.410156 0)"/>
       <use xlink:href="#DejaVuSans-30" transform="translate(159.033203 0)"/>
       <use xlink:href="#DejaVuSans-30" transform="translate(222.65625 0)"/>
      </g>
     </g>
    </g>
    <g id="text_10">
     <!-- root_height_c1sp1 -->
     <g style="fill: #262626" transform="translate(190.763097 325.044062) scale(0.12 -0.12)">
      <defs>
       <path id="DejaVuSans-72" d="M 2631 2963 
Q 2534 3019 2420 3045 
Q 2306 3072 2169 3072 
Q 1681 3072 1420 2755 
Q 1159 2438 1159 1844 
L 1159 0 
L 581 0 
L 581 3500 
L 1159 3500 
L 1159 2956 
Q 1341 3275 1631 3429 
Q 1922 3584 2338 3584 
Q 2397 3584 2469 3576 
Q 2541 3569 2628 3553 
L 2631 2963 
z
" transform="scale(0.015625)"/>
       <path id="DejaVuSans-6f" d="M 1959 3097 
Q 1497 3097 1228 2736 
Q 959 2375 959 1747 
Q 959 1119 1226 758 
Q 1494 397 1959 397 
Q 2419 397 2687 759 
Q 2956 1122 2956 1747 
Q 2956 2369 2687 2733 
Q 2419 3097 1959 3097 
z
M 1959 3584 
Q 2709 3584 3137 3096 
Q 3566 2609 3566 1747 
Q 3566 888 3137 398 
Q 2709 -91 1959 -91 
Q 1206 -91 779 398 
Q 353 888 353 1747 
Q 353 2609 779 3096 
Q 1206 3584 1959 3584 
z
" transform="scale(0.015625)"/>
       <path id="DejaVuSans-74" d="M 1172 4494 
L 1172 3500 
L 2356 3500 
L 2356 3053 
L 1172 3053 
L 1172 1153 
Q 1172 725 1289 603 
Q 1406 481 1766 481 
L 2356 481 
L 2356 0 
L 1766 0 
Q 1100 0 847 248 
Q 594 497 594 1153 
L 594 3053 
L 172 3053 
L 172 3500 
L 594 3500 
L 594 4494 
L 1172 4494 
z
" transform="scale(0.015625)"/>
       <path id="DejaVuSans-5f" d="M 3263 -1063 
L 3263 -1509 
L -63 -1509 
L -63 -1063 
L 3263 -1063 
z
" transform="scale(0.015625)"/>
       <path id="DejaVuSans-68" d="M 3513 2113 
L 3513 0 
L 2938 0 
L 2938 2094 
Q 2938 2591 2744 2837 
Q 2550 3084 2163 3084 
Q 1697 3084 1428 2787 
Q 1159 2491 1159 1978 
L 1159 0 
L 581 0 
L 581 4863 
L 1159 4863 
L 1159 2956 
Q 1366 3272 1645 3428 
Q 1925 3584 2291 3584 
Q 2894 3584 3203 3211 
Q 3513 2838 3513 2113 
z
" transform="scale(0.015625)"/>
       <path id="DejaVuSans-65" d="M 3597 1894 
L 3597 1613 
L 953 1613 
Q 991 1019 1311 708 
Q 1631 397 2203 397 
Q 2534 397 2845 478 
Q 3156 559 3463 722 
L 3463 178 
Q 3153 47 2828 -22 
Q 2503 -91 2169 -91 
Q 1331 -91 842 396 
Q 353 884 353 1716 
Q 353 2575 817 3079 
Q 1281 3584 2069 3584 
Q 2775 3584 3186 3129 
Q 3597 2675 3597 1894 
z
M 3022 2063 
Q 3016 2534 2758 2815 
Q 2500 3097 2075 3097 
Q 1594 3097 1305 2825 
Q 1016 2553 972 2059 
L 3022 2063 
z
" transform="scale(0.015625)"/>
       <path id="DejaVuSans-69" d="M 603 3500 
L 1178 3500 
L 1178 0 
L 603 0 
L 603 3500 
z
M 603 4863 
L 1178 4863 
L 1178 4134 
L 603 4134 
L 603 4863 
z
" transform="scale(0.015625)"/>
       <path id="DejaVuSans-67" d="M 2906 1791 
Q 2906 2416 2648 2759 
Q 2391 3103 1925 3103 
Q 1463 3103 1205 2759 
Q 947 2416 947 1791 
Q 947 1169 1205 825 
Q 1463 481 1925 481 
Q 2391 481 2648 825 
Q 2906 1169 2906 1791 
z
M 3481 434 
Q 3481 -459 3084 -895 
Q 2688 -1331 1869 -1331 
Q 1566 -1331 1297 -1286 
Q 1028 -1241 775 -1147 
L 775 -588 
Q 1028 -725 1275 -790 
Q 1522 -856 1778 -856 
Q 2344 -856 2625 -561 
Q 2906 -266 2906 331 
L 2906 616 
Q 2728 306 2450 153 
Q 2172 0 1784 0 
Q 1141 0 747 490 
Q 353 981 353 1791 
Q 353 2603 747 3093 
Q 1141 3584 1784 3584 
Q 2172 3584 2450 3431 
Q 2728 3278 2906 2969 
L 2906 3500 
L 3481 3500 
L 3481 434 
z
" transform="scale(0.015625)"/>
       <path id="DejaVuSans-63" d="M 3122 3366 
L 3122 2828 
Q 2878 2963 2633 3030 
Q 2388 3097 2138 3097 
Q 1578 3097 1268 2742 
Q 959 2388 959 1747 
Q 959 1106 1268 751 
Q 1578 397 2138 397 
Q 2388 397 2633 464 
Q 2878 531 3122 666 
L 3122 134 
Q 2881 22 2623 -34 
Q 2366 -91 2075 -91 
Q 1284 -91 818 406 
Q 353 903 353 1747 
Q 353 2603 823 3093 
Q 1294 3584 2113 3584 
Q 2378 3584 2631 3529 
Q 2884 3475 3122 3366 
z
" transform="scale(0.015625)"/>
       <path id="DejaVuSans-73" d="M 2834 3397 
L 2834 2853 
Q 2591 2978 2328 3040 
Q 2066 3103 1784 3103 
Q 1356 3103 1142 2972 
Q 928 2841 928 2578 
Q 928 2378 1081 2264 
Q 1234 2150 1697 2047 
L 1894 2003 
Q 2506 1872 2764 1633 
Q 3022 1394 3022 966 
Q 3022 478 2636 193 
Q 2250 -91 1575 -91 
Q 1294 -91 989 -36 
Q 684 19 347 128 
L 347 722 
Q 666 556 975 473 
Q 1284 391 1588 391 
Q 1994 391 2212 530 
Q 2431 669 2431 922 
Q 2431 1156 2273 1281 
Q 2116 1406 1581 1522 
L 1381 1569 
Q 847 1681 609 1914 
Q 372 2147 372 2553 
Q 372 3047 722 3315 
Q 1072 3584 1716 3584 
Q 2034 3584 2315 3537 
Q 2597 3491 2834 3397 
z
" transform="scale(0.015625)"/>
       <path id="DejaVuSans-70" d="M 1159 525 
L 1159 -1331 
L 581 -1331 
L 581 3500 
L 1159 3500 
L 1159 2969 
Q 1341 3281 1617 3432 
Q 1894 3584 2278 3584 
Q 2916 3584 3314 3078 
Q 3713 2572 3713 1747 
Q 3713 922 3314 415 
Q 2916 -91 2278 -91 
Q 1894 -91 1617 61 
Q 1341 213 1159 525 
z
M 3116 1747 
Q 3116 2381 2855 2742 
Q 2594 3103 2138 3103 
Q 1681 3103 1420 2742 
Q 1159 2381 1159 1747 
Q 1159 1113 1420 752 
Q 1681 391 2138 391 
Q 2594 391 2855 752 
Q 3116 1113 3116 1747 
z
" transform="scale(0.015625)"/>
      </defs>
      <use xlink:href="#DejaVuSans-72"/>
      <use xlink:href="#DejaVuSans-6f" transform="translate(38.863281 0)"/>
      <use xlink:href="#DejaVuSans-6f" transform="translate(100.044922 0)"/>
      <use xlink:href="#DejaVuSans-74" transform="translate(161.226562 0)"/>
      <use xlink:href="#DejaVuSans-5f" transform="translate(200.435547 0)"/>
      <use xlink:href="#DejaVuSans-68" transform="translate(250.435547 0)"/>
      <use xlink:href="#DejaVuSans-65" transform="translate(313.814453 0)"/>
      <use xlink:href="#DejaVuSans-69" transform="translate(375.337891 0)"/>
      <use xlink:href="#DejaVuSans-67" transform="translate(403.121094 0)"/>
      <use xlink:href="#DejaVuSans-68" transform="translate(466.597656 0)"/>
      <use xlink:href="#DejaVuSans-74" transform="translate(529.976562 0)"/>
      <use xlink:href="#DejaVuSans-5f" transform="translate(569.185547 0)"/>
      <use xlink:href="#DejaVuSans-63" transform="translate(619.185547 0)"/>
      <use xlink:href="#DejaVuSans-31" transform="translate(674.166016 0)"/>
      <use xlink:href="#DejaVuSans-73" transform="translate(737.789062 0)"/>
      <use xlink:href="#DejaVuSans-70" transform="translate(789.888672 0)"/>
      <use xlink:href="#DejaVuSans-31" transform="translate(853.365234 0)"/>
     </g>
    </g>
   </g>
   <g id="matplotlib.axis_2">
    <g id="ytick_1">
     <g id="line2d_10">
      <defs>
       <path id="maaefdac343" d="M 0 0 
L -6 0 
" style="stroke: #262626; stroke-width: 1.25"/>
      </defs>
      <g>
       <use xlink:href="#maaefdac343" x="49.807188" y="278.844545" style="fill: #262626; stroke: #262626; stroke-width: 1.25"/>
      </g>
     </g>
     <g id="text_11">
      <!-- 0.0 -->
      <g style="fill: #262626" transform="translate(22.81375 283.023686) scale(0.11 -0.11)">
       <use xlink:href="#DejaVuSans-30"/>
       <use xlink:href="#DejaVuSans-2e" transform="translate(63.623047 0)"/>
       <use xlink:href="#DejaVuSans-30" transform="translate(95.410156 0)"/>
      </g>
     </g>
    </g>
    <g id="ytick_2">
     <g id="line2d_11">
      <g>
       <use xlink:href="#maaefdac343" x="49.807188" y="227.10221" style="fill: #262626; stroke: #262626; stroke-width: 1.25"/>
      </g>
     </g>
     <g id="text_12">
      <!-- 0.2 -->
      <g style="fill: #262626" transform="translate(22.81375 231.28135) scale(0.11 -0.11)">
       <use xlink:href="#DejaVuSans-30"/>
       <use xlink:href="#DejaVuSans-2e" transform="translate(63.623047 0)"/>
       <use xlink:href="#DejaVuSans-32" transform="translate(95.410156 0)"/>
      </g>
     </g>
    </g>
    <g id="ytick_3">
     <g id="line2d_12">
      <g>
       <use xlink:href="#maaefdac343" x="49.807188" y="175.359874" style="fill: #262626; stroke: #262626; stroke-width: 1.25"/>
      </g>
     </g>
     <g id="text_13">
      <!-- 0.4 -->
      <g style="fill: #262626" transform="translate(22.81375 179.539015) scale(0.11 -0.11)">
       <defs>
        <path id="DejaVuSans-34" d="M 2419 4116 
L 825 1625 
L 2419 1625 
L 2419 4116 
z
M 2253 4666 
L 3047 4666 
L 3047 1625 
L 3713 1625 
L 3713 1100 
L 3047 1100 
L 3047 0 
L 2419 0 
L 2419 1100 
L 313 1100 
L 313 1709 
L 2253 4666 
z
" transform="scale(0.015625)"/>
       </defs>
       <use xlink:href="#DejaVuSans-30"/>
       <use xlink:href="#DejaVuSans-2e" transform="translate(63.623047 0)"/>
       <use xlink:href="#DejaVuSans-34" transform="translate(95.410156 0)"/>
      </g>
     </g>
    </g>
    <g id="ytick_4">
     <g id="line2d_13">
      <g>
       <use xlink:href="#maaefdac343" x="49.807188" y="123.617539" style="fill: #262626; stroke: #262626; stroke-width: 1.25"/>
      </g>
     </g>
     <g id="text_14">
      <!-- 0.6 -->
      <g style="fill: #262626" transform="translate(22.81375 127.796679) scale(0.11 -0.11)">
       <defs>
        <path id="DejaVuSans-36" d="M 2113 2584 
Q 1688 2584 1439 2293 
Q 1191 2003 1191 1497 
Q 1191 994 1439 701 
Q 1688 409 2113 409 
Q 2538 409 2786 701 
Q 3034 994 3034 1497 
Q 3034 2003 2786 2293 
Q 2538 2584 2113 2584 
z
M 3366 4563 
L 3366 3988 
Q 3128 4100 2886 4159 
Q 2644 4219 2406 4219 
Q 1781 4219 1451 3797 
Q 1122 3375 1075 2522 
Q 1259 2794 1537 2939 
Q 1816 3084 2150 3084 
Q 2853 3084 3261 2657 
Q 3669 2231 3669 1497 
Q 3669 778 3244 343 
Q 2819 -91 2113 -91 
Q 1303 -91 875 529 
Q 447 1150 447 2328 
Q 447 3434 972 4092 
Q 1497 4750 2381 4750 
Q 2619 4750 2861 4703 
Q 3103 4656 3366 4563 
z
" transform="scale(0.015625)"/>
       </defs>
       <use xlink:href="#DejaVuSans-30"/>
       <use xlink:href="#DejaVuSans-2e" transform="translate(63.623047 0)"/>
       <use xlink:href="#DejaVuSans-36" transform="translate(95.410156 0)"/>
      </g>
     </g>
    </g>
    <g id="ytick_5">
     <g id="line2d_14">
      <g>
       <use xlink:href="#maaefdac343" x="49.807188" y="71.875203" style="fill: #262626; stroke: #262626; stroke-width: 1.25"/>
      </g>
     </g>
     <g id="text_15">
      <!-- 0.8 -->
      <g style="fill: #262626" transform="translate(22.81375 76.054344) scale(0.11 -0.11)">
       <defs>
        <path id="DejaVuSans-38" d="M 2034 2216 
Q 1584 2216 1326 1975 
Q 1069 1734 1069 1313 
Q 1069 891 1326 650 
Q 1584 409 2034 409 
Q 2484 409 2743 651 
Q 3003 894 3003 1313 
Q 3003 1734 2745 1975 
Q 2488 2216 2034 2216 
z
M 1403 2484 
Q 997 2584 770 2862 
Q 544 3141 544 3541 
Q 544 4100 942 4425 
Q 1341 4750 2034 4750 
Q 2731 4750 3128 4425 
Q 3525 4100 3525 3541 
Q 3525 3141 3298 2862 
Q 3072 2584 2669 2484 
Q 3125 2378 3379 2068 
Q 3634 1759 3634 1313 
Q 3634 634 3220 271 
Q 2806 -91 2034 -91 
Q 1263 -91 848 271 
Q 434 634 434 1313 
Q 434 1759 690 2068 
Q 947 2378 1403 2484 
z
M 1172 3481 
Q 1172 3119 1398 2916 
Q 1625 2713 2034 2713 
Q 2441 2713 2670 2916 
Q 2900 3119 2900 3481 
Q 2900 3844 2670 4047 
Q 2441 4250 2034 4250 
Q 1625 4250 1398 4047 
Q 1172 3844 1172 3481 
z
" transform="scale(0.015625)"/>
       </defs>
       <use xlink:href="#DejaVuSans-30"/>
       <use xlink:href="#DejaVuSans-2e" transform="translate(63.623047 0)"/>
       <use xlink:href="#DejaVuSans-38" transform="translate(95.410156 0)"/>
      </g>
     </g>
    </g>
    <g id="ytick_6">
     <g id="line2d_15">
      <g>
       <use xlink:href="#maaefdac343" x="49.807188" y="20.132867" style="fill: #262626; stroke: #262626; stroke-width: 1.25"/>
      </g>
     </g>
     <g id="text_16">
      <!-- 1.0 -->
      <g style="fill: #262626" transform="translate(22.81375 24.312008) scale(0.11 -0.11)">
       <use xlink:href="#DejaVuSans-31"/>
       <use xlink:href="#DejaVuSans-2e" transform="translate(63.623047 0)"/>
       <use xlink:href="#DejaVuSans-30" transform="translate(95.410156 0)"/>
      </g>
     </g>
    </g>
    <g id="text_17">
     <!-- Cumulative density -->
     <g style="fill: #262626" transform="translate(16.318125 207.64125) rotate(-90) scale(0.12 -0.12)">
      <defs>
       <path id="DejaVuSans-43" d="M 4122 4306 
L 4122 3641 
Q 3803 3938 3442 4084 
Q 3081 4231 2675 4231 
Q 1875 4231 1450 3742 
Q 1025 3253 1025 2328 
Q 1025 1406 1450 917 
Q 1875 428 2675 428 
Q 3081 428 3442 575 
Q 3803 722 4122 1019 
L 4122 359 
Q 3791 134 3420 21 
Q 3050 -91 2638 -91 
Q 1578 -91 968 557 
Q 359 1206 359 2328 
Q 359 3453 968 4101 
Q 1578 4750 2638 4750 
Q 3056 4750 3426 4639 
Q 3797 4528 4122 4306 
z
" transform="scale(0.015625)"/>
       <path id="DejaVuSans-75" d="M 544 1381 
L 544 3500 
L 1119 3500 
L 1119 1403 
Q 1119 906 1312 657 
Q 1506 409 1894 409 
Q 2359 409 2629 706 
Q 2900 1003 2900 1516 
L 2900 3500 
L 3475 3500 
L 3475 0 
L 2900 0 
L 2900 538 
Q 2691 219 2414 64 
Q 2138 -91 1772 -91 
Q 1169 -91 856 284 
Q 544 659 544 1381 
z
M 1991 3584 
L 1991 3584 
z
" transform="scale(0.015625)"/>
       <path id="DejaVuSans-6d" d="M 3328 2828 
Q 3544 3216 3844 3400 
Q 4144 3584 4550 3584 
Q 5097 3584 5394 3201 
Q 5691 2819 5691 2113 
L 5691 0 
L 5113 0 
L 5113 2094 
Q 5113 2597 4934 2840 
Q 4756 3084 4391 3084 
Q 3944 3084 3684 2787 
Q 3425 2491 3425 1978 
L 3425 0 
L 2847 0 
L 2847 2094 
Q 2847 2600 2669 2842 
Q 2491 3084 2119 3084 
Q 1678 3084 1418 2786 
Q 1159 2488 1159 1978 
L 1159 0 
L 581 0 
L 581 3500 
L 1159 3500 
L 1159 2956 
Q 1356 3278 1631 3431 
Q 1906 3584 2284 3584 
Q 2666 3584 2933 3390 
Q 3200 3197 3328 2828 
z
" transform="scale(0.015625)"/>
       <path id="DejaVuSans-6c" d="M 603 4863 
L 1178 4863 
L 1178 0 
L 603 0 
L 603 4863 
z
" transform="scale(0.015625)"/>
       <path id="DejaVuSans-61" d="M 2194 1759 
Q 1497 1759 1228 1600 
Q 959 1441 959 1056 
Q 959 750 1161 570 
Q 1363 391 1709 391 
Q 2188 391 2477 730 
Q 2766 1069 2766 1631 
L 2766 1759 
L 2194 1759 
z
M 3341 1997 
L 3341 0 
L 2766 0 
L 2766 531 
Q 2569 213 2275 61 
Q 1981 -91 1556 -91 
Q 1019 -91 701 211 
Q 384 513 384 1019 
Q 384 1609 779 1909 
Q 1175 2209 1959 2209 
L 2766 2209 
L 2766 2266 
Q 2766 2663 2505 2880 
Q 2244 3097 1772 3097 
Q 1472 3097 1187 3025 
Q 903 2953 641 2809 
L 641 3341 
Q 956 3463 1253 3523 
Q 1550 3584 1831 3584 
Q 2591 3584 2966 3190 
Q 3341 2797 3341 1997 
z
" transform="scale(0.015625)"/>
       <path id="DejaVuSans-76" d="M 191 3500 
L 800 3500 
L 1894 563 
L 2988 3500 
L 3597 3500 
L 2284 0 
L 1503 0 
L 191 3500 
z
" transform="scale(0.015625)"/>
       <path id="DejaVuSans-20" transform="scale(0.015625)"/>
       <path id="DejaVuSans-64" d="M 2906 2969 
L 2906 4863 
L 3481 4863 
L 3481 0 
L 2906 0 
L 2906 525 
Q 2725 213 2448 61 
Q 2172 -91 1784 -91 
Q 1150 -91 751 415 
Q 353 922 353 1747 
Q 353 2572 751 3078 
Q 1150 3584 1784 3584 
Q 2172 3584 2448 3432 
Q 2725 3281 2906 2969 
z
M 947 1747 
Q 947 1113 1208 752 
Q 1469 391 1925 391 
Q 2381 391 2643 752 
Q 2906 1113 2906 1747 
Q 2906 2381 2643 2742 
Q 2381 3103 1925 3103 
Q 1469 3103 1208 2742 
Q 947 2381 947 1747 
z
" transform="scale(0.015625)"/>
       <path id="DejaVuSans-6e" d="M 3513 2113 
L 3513 0 
L 2938 0 
L 2938 2094 
Q 2938 2591 2744 2837 
Q 2550 3084 2163 3084 
Q 1697 3084 1428 2787 
Q 1159 2491 1159 1978 
L 1159 0 
L 581 0 
L 581 3500 
L 1159 3500 
L 1159 2956 
Q 1366 3272 1645 3428 
Q 1925 3584 2291 3584 
Q 2894 3584 3203 3211 
Q 3513 2838 3513 2113 
z
" transform="scale(0.015625)"/>
       <path id="DejaVuSans-79" d="M 2059 -325 
Q 1816 -950 1584 -1140 
Q 1353 -1331 966 -1331 
L 506 -1331 
L 506 -850 
L 844 -850 
Q 1081 -850 1212 -737 
Q 1344 -625 1503 -206 
L 1606 56 
L 191 3500 
L 800 3500 
L 1894 763 
L 2988 3500 
L 3597 3500 
L 2059 -325 
z
" transform="scale(0.015625)"/>
      </defs>
      <use xlink:href="#DejaVuSans-43"/>
      <use xlink:href="#DejaVuSans-75" transform="translate(69.824219 0)"/>
      <use xlink:href="#DejaVuSans-6d" transform="translate(133.203125 0)"/>
      <use xlink:href="#DejaVuSans-75" transform="translate(230.615234 0)"/>
      <use xlink:href="#DejaVuSans-6c" transform="translate(293.994141 0)"/>
      <use xlink:href="#DejaVuSans-61" transform="translate(321.777344 0)"/>
      <use xlink:href="#DejaVuSans-74" transform="translate(383.056641 0)"/>
      <use xlink:href="#DejaVuSans-69" transform="translate(422.265625 0)"/>
      <use xlink:href="#DejaVuSans-76" transform="translate(450.048828 0)"/>
      <use xlink:href="#DejaVuSans-65" transform="translate(509.228516 0)"/>
      <use xlink:href="#DejaVuSans-20" transform="translate(570.751953 0)"/>
      <use xlink:href="#DejaVuSans-64" transform="translate(602.539062 0)"/>
      <use xlink:href="#DejaVuSans-65" transform="translate(666.015625 0)"/>
      <use xlink:href="#DejaVuSans-6e" transform="translate(727.539062 0)"/>
      <use xlink:href="#DejaVuSans-73" transform="translate(790.917969 0)"/>
      <use xlink:href="#DejaVuSans-69" transform="translate(843.017578 0)"/>
      <use xlink:href="#DejaVuSans-74" transform="translate(870.800781 0)"/>
      <use xlink:href="#DejaVuSans-79" transform="translate(910.009766 0)"/>
     </g>
    </g>
   </g>
   <g id="FillBetweenPolyCollection_1"/>
   <g id="FillBetweenPolyCollection_2"/>
   <g id="line2d_16">
    <path d="M 67.625489 278.844545 
L 68.009212 277.292275 
L 68.086744 277.033564 
L 68.533671 275.558907 
L 68.70221 274.575803 
L 68.811978 274.29122 
L 68.92685 273.929024 
L 69.740683 270.824483 
L 69.860592 270.332931 
L 70.218881 269.349827 
L 70.270341 269.168729 
L 70.383275 268.832404 
L 70.555641 268.289109 
L 70.734872 267.64233 
L 70.855131 267.280133 
L 71.053131 266.478127 
L 71.113469 266.271158 
L 71.221156 265.960704 
L 71.670589 264.77063 
L 71.830323 264.123851 
L 72.016453 263.451201 
L 72.09993 263.037262 
L 72.199636 262.856164 
L 72.341968 262.312869 
L 72.492956 261.717832 
L 72.609104 261.381507 
L 73.184199 259.622268 
L 73.359683 259.053102 
L 73.829919 257.552574 
L 73.970408 257.164507 
L 74.055284 256.983409 
L 74.409132 255.922691 
L 74.632197 255.741593 
L 74.784439 255.068942 
L 75.058222 254.34455 
L 75.173697 254.034096 
L 76.177943 251.084782 
L 76.322543 250.774328 
L 76.394271 250.59323 
L 76.527109 250.386261 
L 77.447162 247.980242 
L 77.579987 247.773273 
L 77.713064 247.462819 
L 77.789613 247.281721 
L 77.919643 246.945396 
L 78.07897 246.583199 
L 78.4094 245.962291 
L 79.003137 244.565248 
L 79.102738 244.358279 
L 79.902574 242.366199 
L 80.27151 241.408966 
L 80.680081 240.270634 
L 80.802156 240.089536 
L 80.993699 239.72734 
L 81.126897 239.235788 
L 81.24695 238.977076 
L 81.355681 238.666622 
L 81.506321 238.433781 
L 81.619178 237.9681 
L 82.370684 236.18299 
L 82.496509 235.794922 
L 82.668127 235.458597 
L 82.95212 234.734204 
L 83.103423 234.372008 
L 83.265224 234.035683 
L 83.400847 233.725229 
L 83.623042 233.07845 
L 83.758683 232.845609 
L 83.863917 232.63864 
L 83.973649 232.43167 
L 84.893803 230.594818 
L 85.224173 229.922167 
L 85.334047 229.715198 
L 87.258378 225.653424 
L 87.638461 225.058388 
L 87.875748 224.489222 
L 88.130254 223.945927 
L 88.233483 223.687216 
L 88.582136 223.066308 
L 88.700088 222.911081 
L 89.054366 222.083203 
L 89.142074 221.850363 
L 89.238733 221.539909 
L 89.354292 221.358811 
L 89.59794 220.660289 
L 89.741666 220.272222 
L 89.903709 219.910025 
L 90.032656 219.703056 
L 90.169381 219.34086 
L 90.438442 218.69408 
L 90.563542 218.435369 
L 90.859727 217.685105 
L 91.00946 217.400522 
L 91.211489 217.090068 
L 91.326858 216.676129 
L 91.570384 216.158706 
L 92.13705 215.253215 
L 92.357868 214.425338 
L 92.501734 214.166626 
L 92.677326 213.959657 
L 92.9364 213.623331 
L 93.815926 211.993448 
L 93.970901 211.838221 
L 94.071637 211.60538 
L 94.459512 211.062086 
L 94.584704 210.725761 
L 94.679445 210.518791 
L 97.607702 204.51668 
L 97.71707 204.28384 
L 97.777779 204.076871 
L 98.100865 203.533576 
L 98.316139 203.326607 
L 98.433632 203.197251 
L 98.528411 203.042024 
L 98.633153 202.912668 
L 98.712293 202.757441 
L 98.829793 202.550472 
L 99.073074 202.162404 
L 99.18502 201.877821 
L 99.603106 200.998202 
L 99.723872 200.73949 
L 99.929387 200.403165 
L 100.057834 200.247938 
L 100.561616 199.342447 
L 100.585781 199.264833 
L 100.836424 199.083735 
L 101.369218 198.255858 
L 101.478989 198.07476 
L 101.702144 197.660821 
L 102.235995 196.807072 
L 102.347375 196.496618 
L 102.5572 196.160293 
L 102.793221 195.616999 
L 103.210403 194.944348 
L 103.292249 194.608023 
L 103.396923 194.452796 
L 103.596678 194.116471 
L 103.724656 193.857759 
L 104.327299 192.874655 
L 104.53865 192.667686 
L 104.88259 192.150262 
L 105.130231 191.762195 
L 105.406444 191.477612 
L 105.619801 190.98606 
L 105.762986 190.830833 
L 105.930618 190.572121 
L 106.079383 190.365152 
L 106.540105 189.640759 
L 106.695371 189.407918 
L 106.816615 189.200949 
L 106.984572 188.761139 
L 107.157928 188.605912 
L 107.7641 187.803906 
L 107.966093 187.389967 
L 108.022012 187.23474 
L 108.138419 187.053642 
L 108.343211 186.587961 
L 108.467085 186.406863 
L 108.596349 186.12228 
L 108.75864 185.734213 
L 109.032784 185.44963 
L 109.129665 185.397887 
L 109.376831 185.190918 
L 109.581951 184.725237 
L 110.023997 184.000844 
L 110.113306 183.89736 
L 110.274612 183.768004 
L 110.393011 183.483421 
L 110.558673 183.25058 
L 111.289279 182.008764 
L 111.436791 181.853537 
L 111.589455 181.672439 
L 112.268714 180.508237 
L 112.382102 180.378881 
L 112.511357 180.120169 
L 112.672435 179.9132 
L 112.880888 179.576875 
L 113.083765 179.318163 
L 113.269058 179.059451 
L 113.780169 178.438543 
L 113.983939 178.15396 
L 114.405371 177.507181 
L 114.667188 177.377825 
L 114.931017 177.144985 
L 115.160374 176.938015 
L 115.267799 176.731046 
L 115.515725 176.36885 
L 115.795826 175.980782 
L 115.97723 175.722071 
L 116.293697 175.334003 
L 116.589496 174.945936 
L 116.7935 174.635482 
L 116.954947 174.325028 
L 117.089758 174.169801 
L 117.167415 174.118058 
L 117.395993 173.988702 
L 117.519107 173.781733 
L 117.662333 173.600635 
L 117.784486 173.367794 
L 118.016736 173.005598 
L 118.298885 172.410561 
L 118.435239 172.177721 
L 118.556355 171.970751 
L 118.744918 171.634426 
L 118.849167 171.530941 
L 120.466531 169.254279 
L 120.613442 169.021438 
L 120.749595 168.762726 
L 120.968876 168.529886 
L 122.491737 166.227352 
L 122.589802 166.072125 
L 122.826871 165.839284 
L 122.9177 165.761671 
L 123.443128 165.166634 
L 123.582869 164.804438 
L 123.72449 164.571597 
L 123.862399 164.390499 
L 124.37371 163.74372 
L 125.821393 161.622284 
L 125.90055 161.441186 
L 126.035168 161.260088 
L 126.309454 160.897891 
L 126.415867 160.716793 
L 126.532047 160.587437 
L 126.719058 160.354597 
L 129.391277 156.65502 
L 129.579914 156.499793 
L 129.773327 156.266952 
L 130.006572 155.98237 
L 130.21969 155.827143 
L 130.376065 155.568431 
L 130.503894 155.413204 
L 130.607704 155.283848 
L 130.801645 155.025136 
L 130.881668 154.895781 
L 131.025025 154.688811 
L 131.397423 154.197259 
L 131.591441 153.99029 
L 131.71519 153.602222 
L 132.104673 153.214155 
L 132.233677 153.007185 
L 132.277838 152.877829 
L 132.540401 152.696731 
L 132.655331 152.567375 
L 132.989025 152.153437 
L 133.171291 151.972339 
L 133.303954 151.868854 
L 133.514141 151.687756 
L 133.638057 151.454915 
L 133.921226 151.222075 
L 134.139921 151.040977 
L 134.304615 150.756394 
L 134.820965 150.213099 
L 134.978478 150.00613 
L 135.113226 149.79916 
L 135.209189 149.592191 
L 135.440177 149.385222 
L 135.616822 148.997154 
L 135.947656 148.712571 
L 136.213403 148.376246 
L 136.41556 148.169277 
L 137.838998 146.306553 
L 137.965536 146.099583 
L 138.073483 145.970228 
L 138.281261 145.815001 
L 139.291705 144.547313 
L 139.465193 144.392086 
L 141.547522 141.649743 
L 141.766216 141.313417 
L 142.039162 140.92535 
L 142.408826 140.563154 
L 142.642606 140.071601 
L 143.03302 139.709405 
L 144.916089 137.691454 
L 145.073027 137.510356 
L 145.210359 137.355129 
L 145.867316 136.604865 
L 146.118215 136.423767 
L 146.2886 136.035699 
L 147.25553 134.94911 
L 147.415817 134.793883 
L 147.567496 134.638656 
L 148.074817 134.06949 
L 148.248158 133.862521 
L 148.341537 133.733165 
L 148.59442 133.526196 
L 149.198654 132.931159 
L 149.643369 132.129153 
L 149.872894 131.973926 
L 149.943514 131.896312 
L 150.149089 131.741085 
L 150.243772 131.585858 
L 151.381076 130.576883 
L 151.521348 130.447527 
L 151.677903 130.188815 
L 151.852915 129.955975 
L 151.934637 129.878361 
L 152.497784 129.567907 
L 153.323541 128.714159 
L 153.740553 128.507189 
L 153.886412 128.377834 
L 154.24206 128.170864 
L 154.42871 127.938024 
L 154.531321 127.756925 
L 155.618097 126.670336 
L 155.759401 126.515109 
L 155.955151 126.282269 
L 156.099402 126.049428 
L 158.137475 123.824508 
L 158.268788 123.669281 
L 158.399054 123.539925 
L 158.946041 123.048373 
L 159.041945 122.919017 
L 159.34112 122.737919 
L 159.504131 122.479207 
L 161.033933 120.77171 
L 161.191019 120.564741 
L 161.507605 120.254287 
L 161.601921 120.150802 
L 161.974183 119.917962 
L 162.843798 118.831373 
L 163.065127 118.676146 
L 163.429303 118.184593 
L 163.752376 118.029366 
L 163.816138 117.925882 
L 164.00228 117.744784 
L 164.08317 117.641299 
L 164.602403 117.201489 
L 164.73495 117.072133 
L 164.89267 116.942777 
L 165.52116 116.684066 
L 165.669422 116.425354 
L 166.009179 116.1149 
L 166.209759 115.933802 
L 166.33041 115.752704 
L 166.470004 115.597477 
L 167.335878 114.821342 
L 167.468539 114.666115 
L 167.583947 114.485016 
L 167.862369 114.226305 
L 167.963807 114.071078 
L 168.098127 113.915851 
L 168.5326 113.553654 
L 168.877836 113.294943 
L 169.05732 113.062102 
L 169.248907 112.881004 
L 169.57785 112.467065 
L 169.809052 112.234225 
L 170.116762 111.975513 
L 170.233612 111.8979 
L 170.398058 111.768544 
L 171.331546 111.121765 
L 171.555816 110.940666 
L 171.674208 110.888924 
L 172.168016 110.526728 
L 172.333829 110.34563 
L 172.564728 110.13866 
L 172.716801 109.957562 
L 172.912915 109.776464 
L 173.179034 109.595366 
L 173.449659 109.362525 
L 173.551025 109.129685 
L 173.669446 108.948586 
L 173.980115 108.534648 
L 174.097741 108.301807 
L 174.696222 107.887869 
L 175.853397 106.775408 
L 176.31204 106.59431 
L 176.595032 106.439083 
L 177.24185 106.051016 
L 177.987797 105.404237 
L 178.267623 105.197267 
L 178.413984 105.119654 
L 178.604657 104.964427 
L 178.717265 104.860942 
L 178.91693 104.757457 
L 179.18477 104.524617 
L 180.924934 102.532537 
L 181.110285 102.351439 
L 183.409528 100.902653 
L 183.833757 100.747426 
L 184.482261 100.100647 
L 184.725683 99.919549 
L 185.550979 99.376254 
L 185.616602 99.246899 
L 185.981783 99.014058 
L 186.824731 98.39315 
L 187.277599 97.823984 
L 187.628483 97.565273 
L 190.97639 95.004027 
L 191.086493 94.874671 
L 191.225163 94.719444 
L 191.506657 94.564217 
L 192.038104 94.072665 
L 192.193273 93.943309 
L 193.54253 92.779107 
L 193.706253 92.598008 
L 193.821101 92.494524 
L 194.138843 92.261683 
L 195.4198 91.330321 
L 195.68069 91.149223 
L 196.039325 90.993996 
L 196.56922 90.605929 
L 196.680554 90.373088 
L 196.907578 90.114376 
L 199.886869 88.329266 
L 200.029502 88.174039 
L 200.168465 88.096425 
L 200.335057 87.941198 
L 200.455087 87.837714 
L 201.013552 87.553131 
L 201.439412 87.32029 
L 203.154026 85.923247 
L 203.483058 85.716278 
L 203.60873 85.664535 
L 206.816455 83.594842 
L 206.965873 83.439615 
L 207.279311 83.232646 
L 207.353923 83.180903 
L 208.265878 82.741094 
L 210.28991 81.240566 
L 210.752014 81.059468 
L 211.388496 80.645529 
L 211.54236 80.464431 
L 212.15729 80.024621 
L 213.935333 78.88629 
L 214.381983 78.731063 
L 214.598979 78.524093 
L 214.822407 78.394737 
L 215.368428 77.877314 
L 215.501488 77.825572 
L 215.895259 77.592731 
L 216.309134 77.308148 
L 216.515478 77.230535 
L 216.739811 77.075308 
L 216.887668 76.971823 
L 217.402366 76.713111 
L 217.605784 76.583756 
L 217.745824 76.506142 
L 218.042518 76.350915 
L 218.121136 76.299173 
L 218.511888 76.143946 
L 219.07969 75.755878 
L 219.284731 75.600651 
L 219.775963 75.393682 
L 220.210504 74.979743 
L 220.965504 74.69516 
L 221.184562 74.591676 
L 221.688615 74.436449 
L 222.010477 74.203608 
L 222.101204 74.125995 
L 222.5156 73.970768 
L 222.805022 73.737927 
L 223.148772 73.530958 
L 223.632486 73.220504 
L 223.882587 73.091148 
L 224.022453 72.935921 
L 224.110242 72.858307 
L 225.788953 71.901074 
L 226.410194 71.719976 
L 226.527914 71.642363 
L 227.114382 71.15081 
L 228.384219 70.452289 
L 228.515979 70.348804 
L 228.869584 70.03835 
L 229.534612 69.702025 
L 229.617065 69.650283 
L 230.522028 69.262215 
L 230.622374 69.106988 
L 231.04249 68.951761 
L 231.762171 68.589565 
L 232.046994 68.408467 
L 232.330399 68.201497 
L 232.677479 67.994528 
L 232.783217 67.942786 
L 236.009553 66.338773 
L 236.149892 66.26116 
L 238.544465 65.122828 
L 238.68577 65.019344 
L 238.958601 64.94173 
L 239.302326 64.786503 
L 239.370439 64.683018 
L 240.06991 64.346693 
L 240.174398 64.26908 
L 240.616 64.087982 
L 241.477423 63.699914 
L 242.553166 63.234233 
L 242.863386 63.027264 
L 243.190774 62.846165 
L 243.636177 62.535711 
L 244.00025 62.380484 
L 244.212051 62.173515 
L 244.827833 61.888932 
L 245.209072 61.604349 
L 245.549088 61.39738 
L 245.84286 61.242153 
L 246.193044 60.983441 
L 246.535479 60.595374 
L 248.468978 59.612269 
L 248.757087 59.379429 
L 249.162716 59.250073 
L 250.07289 58.810263 
L 250.399805 58.603294 
L 252.983673 57.232122 
L 253.523263 56.999282 
L 254.626766 56.533601 
L 254.938382 56.378374 
L 255.700513 56.06792 
L 255.814954 55.964435 
L 256.353034 55.62811 
L 256.37838 55.576367 
L 256.818281 55.447011 
L 257.364794 55.007202 
L 257.873195 54.826103 
L 259.185393 54.231067 
L 259.269279 54.101711 
L 260.846333 53.558416 
L 261.060188 53.403189 
L 262.788591 52.652925 
L 262.898408 52.52357 
L 263.661333 52.161373 
L 264.056067 51.980275 
L 264.410464 51.799177 
L 264.706613 51.592207 
L 265.655848 51.152398 
L 265.724813 51.048913 
L 266.221915 50.893686 
L 266.482075 50.712588 
L 266.620485 50.557361 
L 267.467987 50.221036 
L 267.623832 50.169293 
L 268.837805 49.807097 
L 269.105053 49.65187 
L 269.807504 49.393158 
L 270.415668 49.056833 
L 271.031081 48.720508 
L 271.170258 48.617023 
L 272.327766 48.228956 
L 275.067165 47.064753 
L 276.610311 46.54733 
L 276.667726 46.495587 
L 277.643905 46.288618 
L 278.384684 46.029906 
L 278.437169 45.978164 
L 278.978138 45.745324 
L 280.606213 45.098544 
L 281.580972 44.917446 
L 281.643526 44.865704 
L 282.766066 44.451765 
L 283.195426 44.296538 
L 284.266669 43.908471 
L 284.994307 43.598017 
L 285.121898 43.468661 
L 285.626125 43.313434 
L 285.731915 43.132336 
L 286.130426 43.00298 
L 296.284504 39.613857 
L 296.40256 39.536243 
L 297.459023 39.225789 
L 297.5801 39.148176 
L 298.206043 38.941206 
L 298.918079 38.708366 
L 300.413057 38.216814 
L 302.086154 37.544163 
L 302.695779 37.233709 
L 304.01576 36.897384 
L 304.20023 36.819771 
L 304.953798 36.509317 
L 306.403562 36.379961 
L 307.553735 36.017764 
L 307.967921 35.836666 
L 308.160556 35.603826 
L 309.045552 35.448599 
L 311.400941 34.672464 
L 311.789957 34.517237 
L 311.840392 34.491366 
L 314.553896 34.15504 
L 314.622866 34.103298 
L 315.621933 33.818715 
L 315.735811 33.741102 
L 317.04787 33.404777 
L 318.274342 33.04258 
L 318.391447 32.939095 
L 319.091176 32.757997 
L 319.176639 32.706255 
L 322.3521 31.878378 
L 323.201659 31.671408 
L 325.259496 31.102243 
L 325.596649 30.947016 
L 326.106964 30.791789 
L 331.034846 29.575844 
L 332.798151 29.368874 
L 333.036678 29.26539 
L 334.141372 28.980807 
L 334.192611 28.954936 
L 334.913456 28.799709 
L 335.202284 28.722095 
L 340.106315 27.894218 
L 340.133701 27.842475 
L 342.521684 27.583764 
L 342.769474 27.532021 
L 347.76471 26.730015 
L 356.958086 25.07426 
L 358.963818 24.919033 
L 359.003556 24.893162 
L 360.817928 24.660322 
L 363.108982 24.246383 
L 365.62544 23.72896 
L 367.312277 23.573733 
L 367.318315 23.547862 
L 370.932378 23.082181 
L 372.950507 22.797598 
L 376.513086 22.383659 
L 379.820368 22.228432 
L 380.573908 22.17669 
L 382.013064 22.021463 
L 382.12019 21.96972 
L 384.725643 21.788622 
L 385.891116 21.711009 
L 394.388119 21.090101 
L 394.894198 21.038358 
L 397.22204 20.909002 
L 402.022771 20.727904 
L 408.305694 20.41745 
L 416.514605 20.236352 
L 421.045417 20.158739 
L 421.045417 20.158739 
" clip-path="url(#p3fdad17d8e)" style="fill: none; stroke: #0173b2; stroke-width: 1.5; stroke-linecap: round"/>
   </g>
   <g id="line2d_17">
    <path d="M 67.623179 278.844545 
L 67.932103 277.023215 
L 67.985358 276.769678 
L 68.1242 276.053046 
L 68.19361 275.794335 
L 68.619791 273.859171 
L 68.746817 273.367619 
L 68.917354 272.583723 
L 69.273722 271.217725 
L 69.353851 270.907271 
L 69.553706 270.017303 
L 69.628622 269.774114 
L 69.773331 269.189426 
L 74.631515 253.695183 
L 74.765814 253.31229 
L 74.970813 252.704318 
L 75.048038 252.497348 
L 76.00778 249.638584 
L 76.082856 249.408331 
L 78.003975 244.422957 
L 78.075754 244.234097 
L 78.560108 242.901732 
L 78.678296 242.614562 
L 78.784791 242.348089 
L 78.928947 241.993654 
L 79.093294 241.605587 
L 79.231571 241.212345 
L 79.342514 240.948459 
L 79.530673 240.542282 
L 79.619569 240.299093 
L 79.743903 239.988639 
L 79.93111 239.468628 
L 80.066434 239.160761 
L 80.430481 238.226812 
L 80.531139 238.00432 
L 80.892839 237.14281 
L 81.027754 236.845292 
L 81.148578 236.573644 
L 81.45674 235.844077 
L 81.599555 235.487055 
L 81.747529 235.13262 
L 82.008293 234.501364 
L 82.138187 234.211607 
L 82.281107 233.90374 
L 82.746226 232.855958 
L 82.855659 232.573962 
L 83.172167 231.823698 
L 85.224133 227.040119 
L 85.374733 226.69862 
L 85.577636 226.282094 
L 85.866847 225.733625 
L 85.984751 225.487849 
L 86.043406 225.358493 
L 86.223249 224.985948 
L 86.439871 224.564248 
L 86.585764 224.261556 
L 86.699631 223.989908 
L 92.664166 212.011558 
L 93.056384 211.258707 
L 93.183868 211.036215 
L 93.588491 210.275602 
L 95.024735 207.585001 
L 95.096854 207.450471 
L 95.214272 207.230566 
L 95.294261 207.070165 
L 95.41305 206.876131 
L 98.918132 200.522172 
L 99.057624 200.294506 
L 99.246679 199.911612 
L 99.443032 199.55459 
L 99.600517 199.316576 
L 99.898422 198.876766 
L 100.291842 198.235161 
L 100.413287 198.030779 
L 100.543892 197.836745 
L 100.810759 197.389174 
L 101.07941 196.931254 
L 101.220544 196.747569 
L 102.02994 195.410029 
L 102.175744 195.190124 
L 102.270417 195.024549 
L 102.395741 194.794295 
L 102.724615 194.284633 
L 102.859483 194.093187 
L 103.276832 193.446408 
L 103.473235 193.086798 
L 104.116428 192.054539 
L 104.245141 191.886376 
L 104.421153 191.609555 
L 104.710461 191.125764 
L 104.796788 190.96795 
L 105.322977 190.132311 
L 105.596586 189.713198 
L 105.838792 189.28115 
L 105.965756 189.089703 
L 106.4133 188.300632 
L 106.489232 188.171277 
L 106.652737 187.886694 
L 106.801672 187.666789 
L 106.920915 187.511562 
L 107.068268 187.28907 
L 107.194002 187.113146 
L 107.343184 186.898415 
L 107.453472 186.699207 
L 107.586012 186.531045 
L 108.047522 185.804065 
L 108.136196 185.656599 
L 108.265562 185.436694 
L 108.649635 184.883051 
L 108.768787 184.707127 
L 108.91688 184.448415 
L 109.083305 184.145723 
L 109.220097 183.938753 
L 109.355542 183.685216 
L 109.659686 183.229883 
L 109.846794 183.007391 
L 110.143431 182.580517 
L 110.286709 182.34509 
L 110.398818 182.179514 
L 110.511738 182.001003 
L 111.247201 180.867846 
L 111.436817 180.539282 
L 111.614545 180.272809 
L 111.789902 179.9934 
L 111.926079 179.789018 
L 114.12714 176.549948 
L 114.243836 176.280888 
L 116.572553 172.896939 
L 116.834653 172.524394 
L 117.761362 171.215313 
L 117.878669 171.031628 
L 117.989101 170.899685 
L 118.09594 170.752219 
L 118.210793 170.602166 
L 118.312259 170.467636 
L 118.82112 169.787225 
L 118.937097 169.637172 
L 119.076278 169.463835 
L 119.365987 169.068006 
L 119.516536 168.899844 
L 120.635027 167.355335 
L 120.791556 167.122494 
L 121.069739 166.747362 
L 121.200554 166.602484 
L 121.386488 166.359295 
L 121.613818 166.092822 
L 121.734076 165.932421 
L 122.00657 165.572811 
L 123.167195 163.981735 
L 123.318323 163.751481 
L 123.519647 163.503118 
L 123.633419 163.342717 
L 134.560305 149.46801 
L 134.71271 149.31537 
L 135.123006 148.844514 
L 135.482026 148.389182 
L 135.60772 148.228781 
L 135.71176 148.078728 
L 135.831769 147.944198 
L 136.04074 147.701009 
L 136.290475 147.40349 
L 136.540486 147.126669 
L 136.711921 146.930048 
L 136.817078 146.800692 
L 137.080703 146.472128 
L 137.198725 146.29103 
L 137.359309 146.084061 
L 137.831115 145.522656 
L 138.313977 144.904336 
L 138.476003 144.736173 
L 139.214517 143.853966 
L 139.442769 143.566796 
L 139.582515 143.390872 
L 139.693169 143.261516 
L 142.434132 140.239764 
L 142.568086 140.10006 
L 142.726647 139.89309 
L 142.990722 139.608507 
L 143.125373 139.442932 
L 143.401029 139.109194 
L 143.523018 138.966902 
L 143.645116 138.822024 
L 144.563204 137.735435 
L 144.719015 137.567272 
L 144.910513 137.365477 
L 145.047126 137.194728 
L 145.26603 136.943777 
L 145.388856 136.793724 
L 145.516778 136.656607 
L 145.686296 136.478096 
L 145.888025 136.245256 
L 145.994958 136.1159 
L 146.329511 135.839078 
L 146.47042 135.678677 
L 146.710374 135.476882 
L 146.843331 135.332003 
L 147.31314 134.780948 
L 147.453741 134.605024 
L 147.757516 134.242827 
L 147.909787 134.079839 
L 148.071704 133.927199 
L 148.411853 133.523609 
L 150.52914 131.197791 
L 150.733556 130.94684 
L 150.88197 130.75022 
L 151.227489 130.447527 
L 151.338502 130.344042 
L 151.689399 129.984433 
L 151.88013 129.798161 
L 152.020843 129.632585 
L 152.203334 129.425616 
L 152.335892 129.247105 
L 152.551163 129.0272 
L 152.707962 128.815056 
L 153.017444 128.527886 
L 153.348845 128.134645 
L 153.633036 127.868172 
L 153.88196 127.588763 
L 154.015927 127.4206 
L 154.145016 127.28607 
L 154.34005 127.092036 
L 154.470511 126.931635 
L 154.690141 126.691033 
L 154.867321 126.484064 
L 154.993735 126.331424 
L 155.181559 126.134803 
L 155.305204 125.992512 
L 156.800678 124.435068 
L 157.130107 124.101329 
L 157.544718 123.710675 
L 157.705965 123.542512 
L 157.890399 123.376937 
L 158.035198 123.224297 
L 158.614228 122.740506 
L 158.989575 122.391245 
L 159.213835 122.176515 
L 159.342219 122.013526 
L 159.513605 121.858299 
L 160.831732 120.668226 
L 160.988537 120.52076 
L 161.280438 120.228416 
L 161.542413 119.985227 
L 162.05071 119.447106 
L 162.38986 119.180633 
L 162.55947 119.040929 
L 162.777683 118.859831 
L 162.966832 118.676146 
L 163.111007 118.531267 
L 164.44991 117.336019 
L 164.577472 117.204076 
L 164.8972 116.955713 
L 165.86137 116.073506 
L 166.045378 115.858775 
L 166.267314 115.685439 
L 166.406013 115.55867 
L 166.687798 115.328416 
L 166.858431 115.13697 
L 167.092898 114.914478 
L 167.30259 114.720444 
L 167.803691 114.303918 
L 168.004432 114.120233 
L 168.243246 113.928786 
L 168.389515 113.820127 
L 168.547217 113.677836 
L 168.879067 113.341511 
L 169.737689 112.539505 
L 171.484627 110.98206 
L 171.610573 110.868227 
L 172.91412 109.742831 
L 173.069539 109.610888 
L 173.215088 109.504817 
L 173.521574 109.266802 
L 173.907221 108.896844 
L 174.090274 108.759727 
L 174.322097 108.563106 
L 174.565046 108.356137 
L 174.955499 107.942198 
L 175.35287 107.675725 
L 175.549098 107.512737 
L 175.824526 107.272135 
L 176.036257 107.098798 
L 176.257451 106.89959 
L 176.371977 106.757299 
L 177.100909 106.131216 
L 177.313618 105.955292 
L 177.43661 105.849221 
L 177.607922 105.696581 
L 178.079342 105.256771 
L 178.328026 105.067911 
L 178.613532 104.848006 
L 179.458512 104.201227 
L 179.741116 103.989084 
L 181.272916 102.692938 
L 182.06404 101.986655 
L 182.236248 101.83919 
L 182.373667 101.720182 
L 182.955407 101.26485 
L 183.250379 100.988028 
L 183.640861 100.594786 
L 183.944416 100.341249 
L 184.111107 100.201545 
L 184.583927 99.821238 
L 184.759614 99.684121 
L 184.966899 99.495262 
L 185.295801 99.215853 
L 185.438162 99.104607 
L 185.71323 98.887289 
L 185.849821 98.747585 
L 186.043459 98.592358 
L 186.17206 98.501809 
L 186.631859 98.098219 
L 187.3869 97.54975 
L 187.698554 97.319497 
L 187.930972 97.135811 
L 188.103085 96.985759 
L 194.863746 91.614904 
L 195.01701 91.49331 
L 195.15301 91.387238 
L 195.472785 91.195791 
L 195.642837 91.061261 
L 195.748777 90.978473 
L 196.089771 90.761156 
L 196.253804 90.600754 
L 196.728706 90.241145 
L 196.990934 90.067808 
L 197.114269 89.956562 
L 197.606597 89.604714 
L 197.821914 89.42879 
L 198.238013 89.069181 
L 198.429268 88.929477 
L 198.599129 88.797534 
L 198.863424 88.647481 
L 199.053827 88.500015 
L 199.189482 88.391357 
L 199.423604 88.256826 
L 199.876547 87.990353 
L 200.173945 87.767861 
L 200.397809 87.622983 
L 200.631011 87.459995 
L 200.966705 87.227154 
L 201.390847 86.958094 
L 201.562583 86.815802 
L 201.844195 86.624356 
L 201.951949 86.559678 
L 202.541706 86.104345 
L 203.61485 85.307513 
L 203.825261 85.172983 
L 204.221264 84.919446 
L 205.244666 84.267492 
L 205.361328 84.156246 
L 205.798937 83.874251 
L 205.925304 83.79405 
L 206.155722 83.64141 
L 207.018617 83.077419 
L 207.15985 82.960998 
L 207.448394 82.79801 
L 207.58588 82.6997 
L 207.834287 82.503079 
L 208.120891 82.3582 
L 208.458706 82.10725 
L 208.714275 81.9365 
L 208.82831 81.851125 
L 209.082314 81.677789 
L 209.214666 81.56913 
L 211.567679 79.952182 
L 212.144791 79.613269 
L 213.528946 78.720714 
L 213.691489 78.578423 
L 213.964172 78.438718 
L 214.322795 78.200704 
L 214.597828 78.009257 
L 216.333821 76.961475 
L 216.450823 76.889035 
L 216.906619 76.640672 
L 217.028968 76.565646 
L 221.241121 74.019923 
L 221.620315 73.758624 
L 221.883803 73.60081 
L 222.21361 73.370557 
L 222.61303 73.104084 
L 222.980378 72.902288 
L 223.215101 72.75741 
L 223.579358 72.594421 
L 223.885556 72.446956 
L 223.997788 72.361581 
L 224.229184 72.227051 
L 224.364052 72.133915 
L 224.923954 71.771718 
L 225.070173 71.678582 
L 225.414735 71.453503 
L 225.737133 71.306037 
L 226.1097 71.078371 
L 226.237148 71.008519 
L 226.654275 70.78344 
L 226.77839 70.716175 
L 227.549324 70.237558 
L 227.771317 70.079744 
L 227.907644 70.00213 
L 228.153959 69.852078 
L 228.555042 69.606302 
L 228.763496 69.466597 
L 229.038175 69.308783 
L 229.165961 69.244105 
L 230.614536 68.496429 
L 230.950342 68.281698 
L 231.118477 68.144581 
L 231.522072 67.914327 
L 231.815044 67.733229 
L 232.101383 67.559892 
L 234.542049 66.219766 
L 234.755346 66.080061 
L 235.617875 65.580748 
L 236.067197 65.368604 
L 236.382247 65.208203 
L 236.683634 65.055563 
L 236.941406 64.915859 
L 237.073186 64.809787 
L 237.468934 64.623515 
L 237.78122 64.445004 
L 238.091298 64.305299 
L 238.237431 64.261318 
L 238.753533 63.979323 
L 238.951027 63.883599 
L 239.976182 63.241994 
L 240.284168 63.094529 
L 240.444667 63.029851 
L 240.828571 62.830643 
L 240.954095 62.734919 
L 241.252237 62.574518 
L 242.217363 62.147644 
L 242.402829 62.054508 
L 242.744386 61.907042 
L 243.17986 61.68455 
L 243.576646 61.487929 
L 243.813057 61.350812 
L 244.65161 60.931699 
L 245.036619 60.74284 
L 247.129129 59.671773 
L 247.408911 59.513959 
L 247.892092 59.304403 
L 249.214988 58.673146 
L 249.730659 58.448067 
L 249.932671 58.354931 
L 250.471001 58.078109 
L 254.648476 56.078268 
L 255.045846 55.907518 
L 255.148698 55.863537 
L 255.56225 55.679852 
L 255.733362 55.617761 
L 256.436055 55.309894 
L 256.920376 55.110686 
L 257.039165 55.03566 
L 258.374294 54.432862 
L 258.546205 54.337138 
L 259.062335 54.124995 
L 259.98029 53.687772 
L 260.470075 53.462693 
L 263.034116 52.288142 
L 263.548105 52.078585 
L 263.912335 51.915597 
L 264.078401 51.845745 
L 264.435794 51.656885 
L 264.756929 51.499071 
L 265.098175 51.325734 
L 267.301247 50.412482 
L 268.369875 49.962324 
L 268.538344 49.895059 
L 268.956287 49.708786 
L 269.218118 49.638934 
L 269.952018 49.362113 
L 270.061926 49.302609 
L 270.9049 48.896432 
L 271.309933 48.743792 
L 279.236238 45.678059 
L 279.34403 45.641839 
L 283.200466 44.185292 
L 283.311386 44.141311 
L 283.673186 43.993845 
L 284.247873 43.768766 
L 284.727681 43.600604 
L 285.48438 43.303085 
L 285.597402 43.251343 
L 285.972235 43.116813 
L 286.584949 42.876211 
L 287.04958 42.708048 
L 287.305724 42.622674 
L 287.868059 42.431227 
L 288.062434 42.361375 
L 288.436252 42.213909 
L 288.578001 42.162167 
L 289.053561 41.994004 
L 289.221173 41.934501 
L 289.612554 41.784448 
L 290.401095 41.479168 
L 292.085543 40.928112 
L 292.691912 40.677162 
L 293.151293 40.519348 
L 293.28569 40.465018 
L 294.058071 40.172674 
L 294.172236 40.126106 
L 294.633039 39.976053 
L 298.972426 38.537616 
L 299.526282 38.384976 
L 300.111799 38.198704 
L 300.589929 38.053825 
L 302.06088 37.621777 
L 302.339362 37.510531 
L 302.859899 37.365652 
L 303.325052 37.236296 
L 304.352213 36.962062 
L 305.225418 36.742157 
L 305.635688 36.620563 
L 306.446125 36.400658 
L 307.152089 36.172991 
L 307.36283 36.103139 
L 308.054201 35.91428 
L 308.15661 35.885822 
L 308.89044 35.717659 
L 309.81694 35.477057 
L 310.537342 35.246804 
L 311.41002 34.972569 
L 311.67349 34.889782 
L 312.270281 34.708683 
L 312.425908 34.644005 
L 313.192843 34.444797 
L 325.542604 31.226424 
L 326.135272 31.099655 
L 331.355069 29.961324 
L 332.21741 29.780226 
L 332.530041 29.723309 
L 333.556909 29.526688 
L 334.258982 29.376636 
L 335.208473 29.174841 
L 335.325027 29.156731 
L 336.075276 28.99633 
L 337.450507 28.678114 
L 338.584589 28.476319 
L 339.255489 28.365073 
L 340.150538 28.189149 
L 344.052131 27.433711 
L 344.293873 27.381969 
L 345.133603 27.224155 
L 345.431354 27.151715 
L 346.358308 26.942159 
L 356.865867 25.097545 
L 358.02874 24.944905 
L 358.134842 24.924208 
L 359.788364 24.686193 
L 366.934512 23.690153 
L 368.118943 23.550449 
L 370.214875 23.327957 
L 372.030525 23.123574 
L 372.35535 23.082181 
L 373.451855 22.957999 
L 374.678849 22.810533 
L 382.156365 22.070618 
L 383.550996 21.917978 
L 385.791714 21.71877 
L 387.694188 21.589414 
L 387.804195 21.576479 
L 408.27196 20.448496 
L 423.943015 20.135455 
L 423.943015 20.135455 
" clip-path="url(#p3fdad17d8e)" style="fill: none; stroke: #de8f05; stroke-width: 1.5; stroke-linecap: round"/>
   </g>
   <g id="patch_3">
    <path d="M 49.807188 291.78 
L 49.807188 7.2 
" style="fill: none; stroke: #262626; stroke-width: 1.25; stroke-linejoin: miter; stroke-linecap: square"/>
   </g>
   <g id="patch_4">
    <path d="M 441.759007 291.78 
L 441.759007 7.2 
" style="fill: none; stroke: #262626; stroke-width: 1.25; stroke-linejoin: miter; stroke-linecap: square"/>
   </g>
   <g id="patch_5">
    <path d="M 49.807188 291.78 
L 441.759007 291.78 
" style="fill: none; stroke: #262626; stroke-width: 1.25; stroke-linejoin: miter; stroke-linecap: square"/>
   </g>
   <g id="patch_6">
    <path d="M 49.807188 7.2 
L 441.759007 7.2 
" style="fill: none; stroke: #262626; stroke-width: 1.25; stroke-linejoin: miter; stroke-linecap: square"/>
   </g>
   <g id="legend_1">
    <g id="patch_7">
     <path d="M 347.73135 167.285937 
L 434.059007 167.285937 
Q 436.259007 167.285937 436.259007 165.085938 
L 436.259007 133.894062 
Q 436.259007 131.694062 434.059007 131.694062 
L 347.73135 131.694062 
Q 345.53135 131.694062 345.53135 133.894062 
L 345.53135 165.085938 
Q 345.53135 167.285937 347.73135 167.285937 
z
" style="fill: #ffffff; opacity: 0.8; stroke: #cccccc; stroke-linejoin: miter"/>
    </g>
    <g id="line2d_18">
     <path d="M 349.93135 140.602344 
L 360.93135 140.602344 
L 371.93135 140.602344 
" style="fill: none; stroke: #0173b2; stroke-width: 1.5; stroke-linecap: round"/>
    </g>
    <g id="text_18">
     <!-- Empirical -->
     <g style="fill: #262626" transform="translate(380.73135 144.452344) scale(0.11 -0.11)">
      <defs>
       <path id="DejaVuSans-45" d="M 628 4666 
L 3578 4666 
L 3578 4134 
L 1259 4134 
L 1259 2753 
L 3481 2753 
L 3481 2222 
L 1259 2222 
L 1259 531 
L 3634 531 
L 3634 0 
L 628 0 
L 628 4666 
z
" transform="scale(0.015625)"/>
      </defs>
      <use xlink:href="#DejaVuSans-45"/>
      <use xlink:href="#DejaVuSans-6d" transform="translate(63.183594 0)"/>
      <use xlink:href="#DejaVuSans-70" transform="translate(160.595703 0)"/>
      <use xlink:href="#DejaVuSans-69" transform="translate(224.072266 0)"/>
      <use xlink:href="#DejaVuSans-72" transform="translate(251.855469 0)"/>
      <use xlink:href="#DejaVuSans-69" transform="translate(292.96875 0)"/>
      <use xlink:href="#DejaVuSans-63" transform="translate(320.751953 0)"/>
      <use xlink:href="#DejaVuSans-61" transform="translate(375.732422 0)"/>
      <use xlink:href="#DejaVuSans-6c" transform="translate(437.011719 0)"/>
     </g>
    </g>
    <g id="line2d_19">
     <path d="M 349.93135 156.748281 
L 360.93135 156.748281 
L 371.93135 156.748281 
" style="fill: none; stroke: #de8f05; stroke-width: 1.5; stroke-linecap: round"/>
    </g>
    <g id="text_19">
     <!-- Model -->
     <g style="fill: #262626" transform="translate(380.73135 160.598281) scale(0.11 -0.11)">
      <defs>
       <path id="DejaVuSans-4d" d="M 628 4666 
L 1569 4666 
L 2759 1491 
L 3956 4666 
L 4897 4666 
L 4897 0 
L 4281 0 
L 4281 4097 
L 3078 897 
L 2444 897 
L 1241 4097 
L 1241 0 
L 628 0 
L 628 4666 
z
" transform="scale(0.015625)"/>
      </defs>
      <use xlink:href="#DejaVuSans-4d"/>
      <use xlink:href="#DejaVuSans-6f" transform="translate(86.279297 0)"/>
      <use xlink:href="#DejaVuSans-64" transform="translate(147.460938 0)"/>
      <use xlink:href="#DejaVuSans-65" transform="translate(210.9375 0)"/>
      <use xlink:href="#DejaVuSans-6c" transform="translate(272.460938 0)"/>
     </g>
    </g>
   </g>
   <g id="text_20">
    <!-- KS D = 0.012 -->
    <g style="fill: #262626" transform="translate(370.71791 272.816211) scale(0.09996 -0.09996)">
     <defs>
      <path id="DejaVuSans-4b" d="M 628 4666 
L 1259 4666 
L 1259 2694 
L 3353 4666 
L 4166 4666 
L 1850 2491 
L 4331 0 
L 3500 0 
L 1259 2247 
L 1259 0 
L 628 0 
L 628 4666 
z
" transform="scale(0.015625)"/>
      <path id="DejaVuSans-53" d="M 3425 4513 
L 3425 3897 
Q 3066 4069 2747 4153 
Q 2428 4238 2131 4238 
Q 1616 4238 1336 4038 
Q 1056 3838 1056 3469 
Q 1056 3159 1242 3001 
Q 1428 2844 1947 2747 
L 2328 2669 
Q 3034 2534 3370 2195 
Q 3706 1856 3706 1288 
Q 3706 609 3251 259 
Q 2797 -91 1919 -91 
Q 1588 -91 1214 -16 
Q 841 59 441 206 
L 441 856 
Q 825 641 1194 531 
Q 1563 422 1919 422 
Q 2459 422 2753 634 
Q 3047 847 3047 1241 
Q 3047 1584 2836 1778 
Q 2625 1972 2144 2069 
L 1759 2144 
Q 1053 2284 737 2584 
Q 422 2884 422 3419 
Q 422 4038 858 4394 
Q 1294 4750 2059 4750 
Q 2388 4750 2728 4690 
Q 3069 4631 3425 4513 
z
" transform="scale(0.015625)"/>
      <path id="DejaVuSans-44" d="M 1259 4147 
L 1259 519 
L 2022 519 
Q 2988 519 3436 956 
Q 3884 1394 3884 2338 
Q 3884 3275 3436 3711 
Q 2988 4147 2022 4147 
L 1259 4147 
z
M 628 4666 
L 1925 4666 
Q 3281 4666 3915 4102 
Q 4550 3538 4550 2338 
Q 4550 1131 3912 565 
Q 3275 0 1925 0 
L 628 0 
L 628 4666 
z
" transform="scale(0.015625)"/>
      <path id="DejaVuSans-3d" d="M 678 2906 
L 4684 2906 
L 4684 2381 
L 678 2381 
L 678 2906 
z
M 678 1631 
L 4684 1631 
L 4684 1100 
L 678 1100 
L 678 1631 
z
" transform="scale(0.015625)"/>
     </defs>
     <use xlink:href="#DejaVuSans-4b"/>
     <use xlink:href="#DejaVuSans-53" transform="translate(65.576172 0)"/>
     <use xlink:href="#DejaVuSans-20" transform="translate(129.052734 0)"/>
     <use xlink:href="#DejaVuSans-44" transform="translate(160.839844 0)"/>
     <use xlink:href="#DejaVuSans-20" transform="translate(237.841797 0)"/>
     <use xlink:href="#DejaVuSans-3d" transform="translate(269.628906 0)"/>
     <use xlink:href="#DejaVuSans-20" transform="translate(353.417969 0)"/>
     <use xlink:href="#DejaVuSans-30" transform="translate(385.205078 0)"/>
     <use xlink:href="#DejaVuSans-2e" transform="translate(448.828125 0)"/>
     <use xlink:href="#DejaVuSans-30" transform="translate(480.615234 0)"/>
     <use xlink:href="#DejaVuSans-31" transform="translate(544.238281 0)"/>
     <use xlink:href="#DejaVuSans-32" transform="translate(607.861328 0)"/>
    </g>
    <!-- p = 0.14 -->
    <g style="fill: #262626" transform="translate(394.506829 284.009544) scale(0.09996 -0.09996)">
     <use xlink:href="#DejaVuSans-70"/>
     <use xlink:href="#DejaVuSans-20" transform="translate(63.476562 0)"/>
     <use xlink:href="#DejaVuSans-3d" transform="translate(95.263672 0)"/>
     <use xlink:href="#DejaVuSans-20" transform="translate(179.052734 0)"/>
     <use xlink:href="#DejaVuSans-30" transform="translate(210.839844 0)"/>
     <use xlink:href="#DejaVuSans-2e" transform="translate(274.462891 0)"/>
     <use xlink:href="#DejaVuSans-31" transform="translate(306.25 0)"/>
     <use xlink:href="#DejaVuSans-34" transform="translate(369.873047 0)"/>
    </g>
   </g>
  </g>
 </g>
 <defs>
  <clipPath id="p3fdad17d8e">
   <rect x="49.807188" y="7.2" width="391.951819" height="284.58"/>
  </clipPath>
 </defs>
</svg>
