<?xml version="1.0" encoding="utf-8" standalone="no"?>
<!DOCTYPE svg PUBLIC "-//W3C//DTD SVG 1.1//EN"
  "http://www.w3.org/Graphics/SVG/1.1/DTD/svg11.dtd">
<svg xmlns:xlink="http://www.w3.org/1999/xlink" width="449.994687pt" height="349.857813pt" viewBox="0 0 449.994687 349.857813" xmlns="http://www.w3.org/2000/svg" version="1.1">
 <metadata>
  <rdf:RDF xmlns:dc="http://purl.org/dc/elements/1.1/" xmlns:cc="http://creativecommons.org/ns#" xmlns:rdf="http://www.w3.org/1999/02/22-rdf-syntax-ns#">
   <cc:Work>
    <dc:type rdf:resource="http://purl.org/dc/dcmitype/StillImage"/>
    <dc:date>2026-05-15T15:10:49.783692</dc:date>
    <dc:format>image/svg+xml</dc:format>
    <dc:creator>
     <cc:Agent>
      <dc:title>Matplotlib v3.10.9, https://matplotlib.org/</dc:title>
     </cc:Agent>
    </dc:creator>
   </cc:Work>
  </rdf:RDF>
 </metadata>
 <defs>
  <style type="text/css">*{stroke-linejoin: round; stroke-linecap: butt}</style>
 </defs>
 <g id="figure_1">
  <g id="patch_1">
   <path d="M 0 349.857813 
L 449.994687 349.857813 
L 449.994687 0 
L 0 0 
z
" style="fill: #ffffff"/>
  </g>
  <g id="axes_1">
   <g id="patch_2">
    <path d="M 63.804688 306.898125 
L 442.794688 306.898125 
L 442.794688 22.318125 
L 63.804688 22.318125 
z
" style="fill: #ffffff"/>
   </g>
   <g id="line2d_1">
    <path d="M 63.804688 306.898125 
L 442.794688 22.318125 
" clip-path="url(#pc59c705661)" style="fill: none; stroke: #b2b2b2; stroke-linecap: round"/>
   </g>
   <g id="matplotlib.axis_1">
    <g id="xtick_1">
     <g id="line2d_2">
      <defs>
       <path id="m22bb98d846" d="M 0 0 
L 0 6 
" style="stroke: #262626; stroke-width: 1.25"/>
      </defs>
      <g>
       <use xlink:href="#m22bb98d846" x="108.278004" y="306.898125" style="fill: #262626; stroke: #262626; stroke-width: 1.25"/>
      </g>
     </g>
     <g id="text_1">
      <!-- 0.025 -->
      <g style="fill: #262626" transform="translate(92.532535 324.756406) scale(0.11 -0.11)">
       <defs>
        <path id="DejaVuSans-30" d="M 2034 4250 
Q 1547 4250 1301 3770 
Q 1056 3291 1056 2328 
Q 1056 1369 1301 889 
Q 1547 409 2034 409 
Q 2525 409 2770 889 
Q 3016 1369 3016 2328 
Q 3016 3291 2770 3770 
Q 2525 4250 2034 4250 
z
M 2034 4750 
Q 2819 4750 3233 4129 
Q 3647 3509 3647 2328 
Q 3647 1150 3233 529 
Q 2819 -91 2034 -91 
Q 1250 -91 836 529 
Q 422 1150 422 2328 
Q 422 3509 836 4129 
Q 1250 4750 2034 4750 
z
" transform="scale(0.015625)"/>
        <path id="DejaVuSans-2e" d="M 684 794 
L 1344 794 
L 1344 0 
L 684 0 
L 684 794 
z
" transform="scale(0.015625)"/>
        <path id="DejaVuSans-32" d="M 1228 531 
L 3431 531 
L 3431 0 
L 469 0 
L 469 531 
Q 828 903 1448 1529 
Q 2069 2156 2228 2338 
Q 2531 2678 2651 2914 
Q 2772 3150 2772 3378 
Q 2772 3750 2511 3984 
Q 2250 4219 1831 4219 
Q 1534 4219 1204 4116 
Q 875 4013 500 3803 
L 500 4441 
Q 881 4594 1212 4672 
Q 1544 4750 1819 4750 
Q 2544 4750 2975 4387 
Q 3406 4025 3406 3419 
Q 3406 3131 3298 2873 
Q 3191 2616 2906 2266 
Q 2828 2175 2409 1742 
Q 1991 1309 1228 531 
z
" transform="scale(0.015625)"/>
        <path id="DejaVuSans-35" d="M 691 4666 
L 3169 4666 
L 3169 4134 
L 1269 4134 
L 1269 2991 
Q 1406 3038 1543 3061 
Q 1681 3084 1819 3084 
Q 2600 3084 3056 2656 
Q 3513 2228 3513 1497 
Q 3513 744 3044 326 
Q 2575 -91 1722 -91 
Q 1428 -91 1123 -41 
Q 819 9 494 109 
L 494 744 
Q 775 591 1075 516 
Q 1375 441 1709 441 
Q 2250 441 2565 725 
Q 2881 1009 2881 1497 
Q 2881 1984 2565 2268 
Q 2250 2553 1709 2553 
Q 1456 2553 1204 2497 
Q 953 2441 691 2322 
L 691 4666 
z
" transform="scale(0.015625)"/>
       </defs>
       <use xlink:href="#DejaVuSans-30"/>
       <use xlink:href="#DejaVuSans-2e" transform="translate(63.623047 0)"/>
       <use xlink:href="#DejaVuSans-30" transform="translate(95.410156 0)"/>
       <use xlink:href="#DejaVuSans-32" transform="translate(159.033203 0)"/>
       <use xlink:href="#DejaVuSans-35" transform="translate(222.65625 0)"/>
      </g>
     </g>
    </g>
    <g id="xtick_2">
     <g id="line2d_3">
      <g>
       <use xlink:href="#m22bb98d846" x="156.618565" y="306.898125" style="fill: #262626; stroke: #262626; stroke-width: 1.25"/>
      </g>
     </g>
     <g id="text_2">
      <!-- 0.050 -->
      <g style="fill: #262626" transform="translate(140.873096 324.756406) scale(0.11 -0.11)">
       <use xlink:href="#DejaVuSans-30"/>
       <use xlink:href="#DejaVuSans-2e" transform="translate(63.623047 0)"/>
       <use xlink:href="#DejaVuSans-30" transform="translate(95.410156 0)"/>
       <use xlink:href="#DejaVuSans-35" transform="translate(159.033203 0)"/>
       <use xlink:href="#DejaVuSans-30" transform="translate(222.65625 0)"/>
      </g>
     </g>
    </g>
    <g id="xtick_3">
     <g id="line2d_4">
      <g>
       <use xlink:href="#m22bb98d846" x="204.959126" y="306.898125" style="fill: #262626; stroke: #262626; stroke-width: 1.25"/>
      </g>
     </g>
     <g id="text_3">
      <!-- 0.075 -->
      <g style="fill: #262626" transform="translate(189.213658 324.756406) scale(0.11 -0.11)">
       <defs>
        <path id="DejaVuSans-37" d="M 525 4666 
L 3525 4666 
L 3525 4397 
L 1831 0 
L 1172 0 
L 2766 4134 
L 525 4134 
L 525 4666 
z
" transform="scale(0.015625)"/>
       </defs>
       <use xlink:href="#DejaVuSans-30"/>
       <use xlink:href="#DejaVuSans-2e" transform="translate(63.623047 0)"/>
       <use xlink:href="#DejaVuSans-30" transform="translate(95.410156 0)"/>
       <use xlink:href="#DejaVuSans-37" transform="translate(159.033203 0)"/>
       <use xlink:href="#DejaVuSans-35" transform="translate(222.65625 0)"/>
      </g>
     </g>
    </g>
    <g id="xtick_4">
     <g id="line2d_5">
      <g>
       <use xlink:href="#m22bb98d846" x="253.299688" y="306.898125" style="fill: #262626; stroke: #262626; stroke-width: 1.25"/>
      </g>
     </g>
     <g id="text_4">
      <!-- 0.100 -->
      <g style="fill: #262626" transform="translate(237.554219 324.756406) scale(0.11 -0.11)">
       <defs>
        <path id="DejaVuSans-31" d="M 794 531 
L 1825 531 
L 1825 4091 
L 703 3866 
L 703 4441 
L 1819 4666 
L 2450 4666 
L 2450 531 
L 3481 531 
L 3481 0 
L 794 0 
L 794 531 
z
" transform="scale(0.015625)"/>
       </defs>
       <use xlink:href="#DejaVuSans-30"/>
       <use xlink:href="#DejaVuSans-2e" transform="translate(63.623047 0)"/>
       <use xlink:href="#DejaVuSans-31" transform="translate(95.410156 0)"/>
       <use xlink:href="#DejaVuSans-30" transform="translate(159.033203 0)"/>
       <use xlink:href="#DejaVuSans-30" transform="translate(222.65625 0)"/>
      </g>
     </g>
    </g>
    <g id="xtick_5">
     <g id="line2d_6">
      <g>
       <use xlink:href="#m22bb98d846" x="301.640249" y="306.898125" style="fill: #262626; stroke: #262626; stroke-width: 1.25"/>
      </g>
     </g>
     <g id="text_5">
      <!-- 0.125 -->
      <g style="fill: #262626" transform="translate(285.89478 324.756406) scale(0.11 -0.11)">
       <use xlink:href="#DejaVuSans-30"/>
       <use xlink:href="#DejaVuSans-2e" transform="translate(63.623047 0)"/>
       <use xlink:href="#DejaVuSans-31" transform="translate(95.410156 0)"/>
       <use xlink:href="#DejaVuSans-32" transform="translate(159.033203 0)"/>
       <use xlink:href="#DejaVuSans-35" transform="translate(222.65625 0)"/>
      </g>
     </g>
    </g>
    <g id="xtick_6">
     <g id="line2d_7">
      <g>
       <use xlink:href="#m22bb98d846" x="349.98081" y="306.898125" style="fill: #262626; stroke: #262626; stroke-width: 1.25"/>
      </g>
     </g>
     <g id="text_6">
      <!-- 0.150 -->
      <g style="fill: #262626" transform="translate(334.235341 324.756406) scale(0.11 -0.11)">
       <use xlink:href="#DejaVuSans-30"/>
       <use xlink:href="#DejaVuSans-2e" transform="translate(63.623047 0)"/>
       <use xlink:href="#DejaVuSans-31" transform="translate(95.410156 0)"/>
       <use xlink:href="#DejaVuSans-35" transform="translate(159.033203 0)"/>
       <use xlink:href="#DejaVuSans-30" transform="translate(222.65625 0)"/>
      </g>
     </g>
    </g>
    <g id="xtick_7">
     <g id="line2d_8">
      <g>
       <use xlink:href="#m22bb98d846" x="398.321371" y="306.898125" style="fill: #262626; stroke: #262626; stroke-width: 1.25"/>
      </g>
     </g>
     <g id="text_7">
      <!-- 0.175 -->
      <g style="fill: #262626" transform="translate(382.575902 324.756406) scale(0.11 -0.11)">
       <use xlink:href="#DejaVuSans-30"/>
       <use xlink:href="#DejaVuSans-2e" transform="translate(63.623047 0)"/>
       <use xlink:href="#DejaVuSans-31" transform="translate(95.410156 0)"/>
       <use xlink:href="#DejaVuSans-37" transform="translate(159.033203 0)"/>
       <use xlink:href="#DejaVuSans-35" transform="translate(222.65625 0)"/>
      </g>
     </g>
    </g>
    <g id="text_8">
     <!-- Model quantiles -->
     <g style="fill: #262626" transform="translate(205.7825 340.162188) scale(0.12 -0.12)">
      <defs>
       <path id="DejaVuSans-4d" d="M 628 4666 
L 1569 4666 
L 2759 1491 
L 3956 4666 
L 4897 4666 
L 4897 0 
L 4281 0 
L 4281 4097 
L 3078 897 
L 2444 897 
L 1241 4097 
L 1241 0 
L 628 0 
L 628 4666 
z
" transform="scale(0.015625)"/>
       <path id="DejaVuSans-6f" d="M 1959 3097 
Q 1497 3097 1228 2736 
Q 959 2375 959 1747 
Q 959 1119 1226 758 
Q 1494 397 1959 397 
Q 2419 397 2687 759 
Q 2956 1122 2956 1747 
Q 2956 2369 2687 2733 
Q 2419 3097 1959 3097 
z
M 1959 3584 
Q 2709 3584 3137 3096 
Q 3566 2609 3566 1747 
Q 3566 888 3137 398 
Q 2709 -91 1959 -91 
Q 1206 -91 779 398 
Q 353 888 353 1747 
Q 353 2609 779 3096 
Q 1206 3584 1959 3584 
z
" transform="scale(0.015625)"/>
       <path id="DejaVuSans-64" d="M 2906 2969 
L 2906 4863 
L 3481 4863 
L 3481 0 
L 2906 0 
L 2906 525 
Q 2725 213 2448 61 
Q 2172 -91 1784 -91 
Q 1150 -91 751 415 
Q 353 922 353 1747 
Q 353 2572 751 3078 
Q 1150 3584 1784 3584 
Q 2172 3584 2448 3432 
Q 2725 3281 2906 2969 
z
M 947 1747 
Q 947 1113 1208 752 
Q 1469 391 1925 391 
Q 2381 391 2643 752 
Q 2906 1113 2906 1747 
Q 2906 2381 2643 2742 
Q 2381 3103 1925 3103 
Q 1469 3103 1208 2742 
Q 947 2381 947 1747 
z
" transform="scale(0.015625)"/>
       <path id="DejaVuSans-65" d="M 3597 1894 
L 3597 1613 
L 953 1613 
Q 991 1019 1311 708 
Q 1631 397 2203 397 
Q 2534 397 2845 478 
Q 3156 559 3463 722 
L 3463 178 
Q 3153 47 2828 -22 
Q 2503 -91 2169 -91 
Q 1331 -91 842 396 
Q 353 884 353 1716 
Q 353 2575 817 3079 
Q 1281 3584 2069 3584 
Q 2775 3584 3186 3129 
Q 3597 2675 3597 1894 
z
M 3022 2063 
Q 3016 2534 2758 2815 
Q 2500 3097 2075 3097 
Q 1594 3097 1305 2825 
Q 1016 2553 972 2059 
L 3022 2063 
z
" transform="scale(0.015625)"/>
       <path id="DejaVuSans-6c" d="M 603 4863 
L 1178 4863 
L 1178 0 
L 603 0 
L 603 4863 
z
" transform="scale(0.015625)"/>
       <path id="DejaVuSans-20" transform="scale(0.015625)"/>
       <path id="DejaVuSans-71" d="M 947 1747 
Q 947 1113 1208 752 
Q 1469 391 1925 391 
Q 2381 391 2643 752 
Q 2906 1113 2906 1747 
Q 2906 2381 2643 2742 
Q 2381 3103 1925 3103 
Q 1469 3103 1208 2742 
Q 947 2381 947 1747 
z
M 2906 525 
Q 2725 213 2448 61 
Q 2172 -91 1784 -91 
Q 1150 -91 751 415 
Q 353 922 353 1747 
Q 353 2572 751 3078 
Q 1150 3584 1784 3584 
Q 2172 3584 2448 3432 
Q 2725 3281 2906 2969 
L 2906 3500 
L 3481 3500 
L 3481 -1331 
L 2906 -1331 
L 2906 525 
z
" transform="scale(0.015625)"/>
       <path id="DejaVuSans-75" d="M 544 1381 
L 544 3500 
L 1119 3500 
L 1119 1403 
Q 1119 906 1312 657 
Q 1506 409 1894 409 
Q 2359 409 2629 706 
Q 2900 1003 2900 1516 
L 2900 3500 
L 3475 3500 
L 3475 0 
L 2900 0 
L 2900 538 
Q 2691 219 2414 64 
Q 2138 -91 1772 -91 
Q 1169 -91 856 284 
Q 544 659 544 1381 
z
M 1991 3584 
L 1991 3584 
z
" transform="scale(0.015625)"/>
       <path id="DejaVuSans-61" d="M 2194 1759 
Q 1497 1759 1228 1600 
Q 959 1441 959 1056 
Q 959 750 1161 570 
Q 1363 391 1709 391 
Q 2188 391 2477 730 
Q 2766 1069 2766 1631 
L 2766 1759 
L 2194 1759 
z
M 3341 1997 
L 3341 0 
L 2766 0 
L 2766 531 
Q 2569 213 2275 61 
Q 1981 -91 1556 -91 
Q 1019 -91 701 211 
Q 384 513 384 1019 
Q 384 1609 779 1909 
Q 1175 2209 1959 2209 
L 2766 2209 
L 2766 2266 
Q 2766 2663 2505 2880 
Q 2244 3097 1772 3097 
Q 1472 3097 1187 3025 
Q 903 2953 641 2809 
L 641 3341 
Q 956 3463 1253 3523 
Q 1550 3584 1831 3584 
Q 2591 3584 2966 3190 
Q 3341 2797 3341 1997 
z
" transform="scale(0.015625)"/>
       <path id="DejaVuSans-6e" d="M 3513 2113 
L 3513 0 
L 2938 0 
L 2938 2094 
Q 2938 2591 2744 2837 
Q 2550 3084 2163 3084 
Q 1697 3084 1428 2787 
Q 1159 2491 1159 1978 
L 1159 0 
L 581 0 
L 581 3500 
L 1159 3500 
L 1159 2956 
Q 1366 3272 1645 3428 
Q 1925 3584 2291 3584 
Q 2894 3584 3203 3211 
Q 3513 2838 3513 2113 
z
" transform="scale(0.015625)"/>
       <path id="DejaVuSans-74" d="M 1172 4494 
L 1172 3500 
L 2356 3500 
L 2356 3053 
L 1172 3053 
L 1172 1153 
Q 1172 725 1289 603 
Q 1406 481 1766 481 
L 2356 481 
L 2356 0 
L 1766 0 
Q 1100 0 847 248 
Q 594 497 594 1153 
L 594 3053 
L 172 3053 
L 172 3500 
L 594 3500 
L 594 4494 
L 1172 4494 
z
" transform="scale(0.015625)"/>
       <path id="DejaVuSans-69" d="M 603 3500 
L 1178 3500 
L 1178 0 
L 603 0 
L 603 3500 
z
M 603 4863 
L 1178 4863 
L 1178 4134 
L 603 4134 
L 603 4863 
z
" transform="scale(0.015625)"/>
       <path id="DejaVuSans-73" d="M 2834 3397 
L 2834 2853 
Q 2591 2978 2328 3040 
Q 2066 3103 1784 3103 
Q 1356 3103 1142 2972 
Q 928 2841 928 2578 
Q 928 2378 1081 2264 
Q 1234 2150 1697 2047 
L 1894 2003 
Q 2506 1872 2764 1633 
Q 3022 1394 3022 966 
Q 3022 478 2636 193 
Q 2250 -91 1575 -91 
Q 1294 -91 989 -36 
Q 684 19 347 128 
L 347 722 
Q 666 556 975 473 
Q 1284 391 1588 391 
Q 1994 391 2212 530 
Q 2431 669 2431 922 
Q 2431 1156 2273 1281 
Q 2116 1406 1581 1522 
L 1381 1569 
Q 847 1681 609 1914 
Q 372 2147 372 2553 
Q 372 3047 722 3315 
Q 1072 3584 1716 3584 
Q 2034 3584 2315 3537 
Q 2597 3491 2834 3397 
z
" transform="scale(0.015625)"/>
      </defs>
      <use xlink:href="#DejaVuSans-4d"/>
      <use xlink:href="#DejaVuSans-6f" transform="translate(86.279297 0)"/>
      <use xlink:href="#DejaVuSans-64" transform="translate(147.460938 0)"/>
      <use xlink:href="#DejaVuSans-65" transform="translate(210.9375 0)"/>
      <use xlink:href="#DejaVuSans-6c" transform="translate(272.460938 0)"/>
      <use xlink:href="#DejaVuSans-20" transform="translate(300.244141 0)"/>
      <use xlink:href="#DejaVuSans-71" transform="translate(332.03125 0)"/>
      <use xlink:href="#DejaVuSans-75" transform="translate(395.507812 0)"/>
      <use xlink:href="#DejaVuSans-61" transform="translate(458.886719 0)"/>
      <use xlink:href="#DejaVuSans-6e" transform="translate(520.166016 0)"/>
      <use xlink:href="#DejaVuSans-74" transform="translate(583.544922 0)"/>
      <use xlink:href="#DejaVuSans-69" transform="translate(622.753906 0)"/>
      <use xlink:href="#DejaVuSans-6c" transform="translate(650.537109 0)"/>
      <use xlink:href="#DejaVuSans-65" transform="translate(678.320312 0)"/>
      <use xlink:href="#DejaVuSans-73" transform="translate(739.84375 0)"/>
     </g>
    </g>
   </g>
   <g id="matplotlib.axis_2">
    <g id="ytick_1">
     <g id="line2d_9">
      <defs>
       <path id="mc182c21394" d="M 0 0 
L -6 0 
" style="stroke: #262626; stroke-width: 1.25"/>
      </defs>
      <g>
       <use xlink:href="#mc182c21394" x="63.804688" y="273.503533" style="fill: #262626; stroke: #262626; stroke-width: 1.25"/>
      </g>
     </g>
     <g id="text_9">
      <!-- 0.025 -->
      <g style="fill: #262626" transform="translate(22.81375 277.682674) scale(0.11 -0.11)">
       <use xlink:href="#DejaVuSans-30"/>
       <use xlink:href="#DejaVuSans-2e" transform="translate(63.623047 0)"/>
       <use xlink:href="#DejaVuSans-30" transform="translate(95.410156 0)"/>
       <use xlink:href="#DejaVuSans-32" transform="translate(159.033203 0)"/>
       <use xlink:href="#DejaVuSans-35" transform="translate(222.65625 0)"/>
      </g>
     </g>
    </g>
    <g id="ytick_2">
     <g id="line2d_10">
      <g>
       <use xlink:href="#mc182c21394" x="63.804688" y="237.205064" style="fill: #262626; stroke: #262626; stroke-width: 1.25"/>
      </g>
     </g>
     <g id="text_10">
      <!-- 0.050 -->
      <g style="fill: #262626" transform="translate(22.81375 241.384204) scale(0.11 -0.11)">
       <use xlink:href="#DejaVuSans-30"/>
       <use xlink:href="#DejaVuSans-2e" transform="translate(63.623047 0)"/>
       <use xlink:href="#DejaVuSans-30" transform="translate(95.410156 0)"/>
       <use xlink:href="#DejaVuSans-35" transform="translate(159.033203 0)"/>
       <use xlink:href="#DejaVuSans-30" transform="translate(222.65625 0)"/>
      </g>
     </g>
    </g>
    <g id="ytick_3">
     <g id="line2d_11">
      <g>
       <use xlink:href="#mc182c21394" x="63.804688" y="200.906594" style="fill: #262626; stroke: #262626; stroke-width: 1.25"/>
      </g>
     </g>
     <g id="text_11">
      <!-- 0.075 -->
      <g style="fill: #262626" transform="translate(22.81375 205.085735) scale(0.11 -0.11)">
       <use xlink:href="#DejaVuSans-30"/>
       <use xlink:href="#DejaVuSans-2e" transform="translate(63.623047 0)"/>
       <use xlink:href="#DejaVuSans-30" transform="translate(95.410156 0)"/>
       <use xlink:href="#DejaVuSans-37" transform="translate(159.033203 0)"/>
       <use xlink:href="#DejaVuSans-35" transform="translate(222.65625 0)"/>
      </g>
     </g>
    </g>
    <g id="ytick_4">
     <g id="line2d_12">
      <g>
       <use xlink:href="#mc182c21394" x="63.804688" y="164.608125" style="fill: #262626; stroke: #262626; stroke-width: 1.25"/>
      </g>
     </g>
     <g id="text_12">
      <!-- 0.100 -->
      <g style="fill: #262626" transform="translate(22.81375 168.787266) scale(0.11 -0.11)">
       <use xlink:href="#DejaVuSans-30"/>
       <use xlink:href="#DejaVuSans-2e" transform="translate(63.623047 0)"/>
       <use xlink:href="#DejaVuSans-31" transform="translate(95.410156 0)"/>
       <use xlink:href="#DejaVuSans-30" transform="translate(159.033203 0)"/>
       <use xlink:href="#DejaVuSans-30" transform="translate(222.65625 0)"/>
      </g>
     </g>
    </g>
    <g id="ytick_5">
     <g id="line2d_13">
      <g>
       <use xlink:href="#mc182c21394" x="63.804688" y="128.309656" style="fill: #262626; stroke: #262626; stroke-width: 1.25"/>
      </g>
     </g>
     <g id="text_13">
      <!-- 0.125 -->
      <g style="fill: #262626" transform="translate(22.81375 132.488796) scale(0.11 -0.11)">
       <use xlink:href="#DejaVuSans-30"/>
       <use xlink:href="#DejaVuSans-2e" transform="translate(63.623047 0)"/>
       <use xlink:href="#DejaVuSans-31" transform="translate(95.410156 0)"/>
       <use xlink:href="#DejaVuSans-32" transform="translate(159.033203 0)"/>
       <use xlink:href="#DejaVuSans-35" transform="translate(222.65625 0)"/>
      </g>
     </g>
    </g>
    <g id="ytick_6">
     <g id="line2d_14">
      <g>
       <use xlink:href="#mc182c21394" x="63.804688" y="92.011186" style="fill: #262626; stroke: #262626; stroke-width: 1.25"/>
      </g>
     </g>
     <g id="text_14">
      <!-- 0.150 -->
      <g style="fill: #262626" transform="translate(22.81375 96.190327) scale(0.11 -0.11)">
       <use xlink:href="#DejaVuSans-30"/>
       <use xlink:href="#DejaVuSans-2e" transform="translate(63.623047 0)"/>
       <use xlink:href="#DejaVuSans-31" transform="translate(95.410156 0)"/>
       <use xlink:href="#DejaVuSans-35" transform="translate(159.033203 0)"/>
       <use xlink:href="#DejaVuSans-30" transform="translate(222.65625 0)"/>
      </g>
     </g>
    </g>
    <g id="ytick_7">
     <g id="line2d_15">
      <g>
       <use xlink:href="#mc182c21394" x="63.804688" y="55.712717" style="fill: #262626; stroke: #262626; stroke-width: 1.25"/>
      </g>
     </g>
     <g id="text_15">
      <!-- 0.175 -->
      <g style="fill: #262626" transform="translate(22.81375 59.891857) scale(0.11 -0.11)">
       <use xlink:href="#DejaVuSans-30"/>
       <use xlink:href="#DejaVuSans-2e" transform="translate(63.623047 0)"/>
       <use xlink:href="#DejaVuSans-31" transform="translate(95.410156 0)"/>
       <use xlink:href="#DejaVuSans-37" transform="translate(159.033203 0)"/>
       <use xlink:href="#DejaVuSans-35" transform="translate(222.65625 0)"/>
      </g>
     </g>
    </g>
    <g id="text_16">
     <!-- Sample quantiles -->
     <g style="fill: #262626" transform="translate(16.318125 216.6075) rotate(-90) scale(0.12 -0.12)">
      <defs>
       <path id="DejaVuSans-53" d="M 3425 4513 
L 3425 3897 
Q 3066 4069 2747 4153 
Q 2428 4238 2131 4238 
Q 1616 4238 1336 4038 
Q 1056 3838 1056 3469 
Q 1056 3159 1242 3001 
Q 1428 2844 1947 2747 
L 2328 2669 
Q 3034 2534 3370 2195 
Q 3706 1856 3706 1288 
Q 3706 609 3251 259 
Q 2797 -91 1919 -91 
Q 1588 -91 1214 -16 
Q 841 59 441 206 
L 441 856 
Q 825 641 1194 531 
Q 1563 422 1919 422 
Q 2459 422 2753 634 
Q 3047 847 3047 1241 
Q 3047 1584 2836 1778 
Q 2625 1972 2144 2069 
L 1759 2144 
Q 1053 2284 737 2584 
Q 422 2884 422 3419 
Q 422 4038 858 4394 
Q 1294 4750 2059 4750 
Q 2388 4750 2728 4690 
Q 3069 4631 3425 4513 
z
" transform="scale(0.015625)"/>
       <path id="DejaVuSans-6d" d="M 3328 2828 
Q 3544 3216 3844 3400 
Q 4144 3584 4550 3584 
Q 5097 3584 5394 3201 
Q 5691 2819 5691 2113 
L 5691 0 
L 5113 0 
L 5113 2094 
Q 5113 2597 4934 2840 
Q 4756 3084 4391 3084 
Q 3944 3084 3684 2787 
Q 3425 2491 3425 1978 
L 3425 0 
L 2847 0 
L 2847 2094 
Q 2847 2600 2669 2842 
Q 2491 3084 2119 3084 
Q 1678 3084 1418 2786 
Q 1159 2488 1159 1978 
L 1159 0 
L 581 0 
L 581 3500 
L 1159 3500 
L 1159 2956 
Q 1356 3278 1631 3431 
Q 1906 3584 2284 3584 
Q 2666 3584 2933 3390 
Q 3200 3197 3328 2828 
z
" transform="scale(0.015625)"/>
       <path id="DejaVuSans-70" d="M 1159 525 
L 1159 -1331 
L 581 -1331 
L 581 3500 
L 1159 3500 
L 1159 2969 
Q 1341 3281 1617 3432 
Q 1894 3584 2278 3584 
Q 2916 3584 3314 3078 
Q 3713 2572 3713 1747 
Q 3713 922 3314 415 
Q 2916 -91 2278 -91 
Q 1894 -91 1617 61 
Q 1341 213 1159 525 
z
M 3116 1747 
Q 3116 2381 2855 2742 
Q 2594 3103 2138 3103 
Q 1681 3103 1420 2742 
Q 1159 2381 1159 1747 
Q 1159 1113 1420 752 
Q 1681 391 2138 391 
Q 2594 391 2855 752 
Q 3116 1113 3116 1747 
z
" transform="scale(0.015625)"/>
      </defs>
      <use xlink:href="#DejaVuSans-53"/>
      <use xlink:href="#DejaVuSans-61" transform="translate(63.476562 0)"/>
      <use xlink:href="#DejaVuSans-6d" transform="translate(124.755859 0)"/>
      <use xlink:href="#DejaVuSans-70" transform="translate(222.167969 0)"/>
      <use xlink:href="#DejaVuSans-6c" transform="translate(285.644531 0)"/>
      <use xlink:href="#DejaVuSans-65" transform="translate(313.427734 0)"/>
      <use xlink:href="#DejaVuSans-20" transform="translate(374.951172 0)"/>
      <use xlink:href="#DejaVuSans-71" transform="translate(406.738281 0)"/>
      <use xlink:href="#DejaVuSans-75" transform="translate(470.214844 0)"/>
      <use xlink:href="#DejaVuSans-61" transform="translate(533.59375 0)"/>
      <use xlink:href="#DejaVuSans-6e" transform="translate(594.873047 0)"/>
      <use xlink:href="#DejaVuSans-74" transform="translate(658.251953 0)"/>
      <use xlink:href="#DejaVuSans-69" transform="translate(697.460938 0)"/>
      <use xlink:href="#DejaVuSans-6c" transform="translate(725.244141 0)"/>
      <use xlink:href="#DejaVuSans-65" transform="translate(753.027344 0)"/>
      <use xlink:href="#DejaVuSans-73" transform="translate(814.550781 0)"/>
     </g>
    </g>
   </g>
   <g id="patch_3">
    <path d="M 63.804688 306.898125 
L 63.804688 22.318125 
" style="fill: none; stroke: #262626; stroke-width: 1.25; stroke-linejoin: miter; stroke-linecap: square"/>
   </g>
   <g id="patch_4">
    <path d="M 442.794688 306.898125 
L 442.794688 22.318125 
" style="fill: none; stroke: #262626; stroke-width: 1.25; stroke-linejoin: miter; stroke-linecap: square"/>
   </g>
   <g id="patch_5">
    <path d="M 63.804688 306.898125 
L 442.794688 306.898125 
" style="fill: none; stroke: #262626; stroke-width: 1.25; stroke-linejoin: miter; stroke-linecap: square"/>
   </g>
   <g id="patch_6">
    <path d="M 63.804688 22.318125 
L 442.794688 22.318125 
" style="fill: none; stroke: #262626; stroke-width: 1.25; stroke-linejoin: miter; stroke-linecap: square"/>
   </g>
   <g id="text_17">
    <!-- Time prior max -->
    <g style="fill: #262626" transform="translate(207.652813 16.318125) scale(0.12 -0.12)">
     <defs>
      <path id="DejaVuSans-54" d="M -19 4666 
L 3928 4666 
L 3928 4134 
L 2272 4134 
L 2272 0 
L 1638 0 
L 1638 4134 
L -19 4134 
L -19 4666 
z
" transform="scale(0.015625)"/>
      <path id="DejaVuSans-72" d="M 2631 2963 
Q 2534 3019 2420 3045 
Q 2306 3072 2169 3072 
Q 1681 3072 1420 2755 
Q 1159 2438 1159 1844 
L 1159 0 
L 581 0 
L 581 3500 
L 1159 3500 
L 1159 2956 
Q 1341 3275 1631 3429 
Q 1922 3584 2338 3584 
Q 2397 3584 2469 3576 
Q 2541 3569 2628 3553 
L 2631 2963 
z
" transform="scale(0.015625)"/>
      <path id="DejaVuSans-78" d="M 3513 3500 
L 2247 1797 
L 3578 0 
L 2900 0 
L 1881 1375 
L 863 0 
L 184 0 
L 1544 1831 
L 300 3500 
L 978 3500 
L 1906 2253 
L 2834 3500 
L 3513 3500 
z
" transform="scale(0.015625)"/>
     </defs>
     <use xlink:href="#DejaVuSans-54"/>
     <use xlink:href="#DejaVuSans-69" transform="translate(57.958984 0)"/>
     <use xlink:href="#DejaVuSans-6d" transform="translate(85.742188 0)"/>
     <use xlink:href="#DejaVuSans-65" transform="translate(183.154297 0)"/>
     <use xlink:href="#DejaVuSans-20" transform="translate(244.677734 0)"/>
     <use xlink:href="#DejaVuSans-70" transform="translate(276.464844 0)"/>
     <use xlink:href="#DejaVuSans-72" transform="translate(339.941406 0)"/>
     <use xlink:href="#DejaVuSans-69" transform="translate(381.054688 0)"/>
     <use xlink:href="#DejaVuSans-6f" transform="translate(408.837891 0)"/>
     <use xlink:href="#DejaVuSans-72" transform="translate(470.019531 0)"/>
     <use xlink:href="#DejaVuSans-20" transform="translate(511.132812 0)"/>
     <use xlink:href="#DejaVuSans-6d" transform="translate(542.919922 0)"/>
     <use xlink:href="#DejaVuSans-61" transform="translate(640.332031 0)"/>
     <use xlink:href="#DejaVuSans-78" transform="translate(701.611328 0)"/>
    </g>
   </g>
   <g id="line2d_16">
    <defs>
     <path id="m0f6c0595ab" d="M 0 3 
C 0.795609 3 1.55874 2.683901 2.12132 2.12132 
C 2.683901 1.55874 3 0.795609 3 0 
C 3 -0.795609 2.683901 -1.55874 2.12132 -2.12132 
C 1.55874 -2.683901 0.795609 -3 0 -3 
C -0.795609 -3 -1.55874 -2.683901 -2.12132 -2.12132 
C -2.683901 -1.55874 -3 -0.795609 -3 0 
C -3 0.795609 -2.683901 1.55874 -2.12132 2.12132 
C -1.55874 2.683901 -0.795609 3 0 3 
z
" style="stroke: #595959"/>
    </defs>
    <g clip-path="url(#pc59c705661)">
     <use xlink:href="#m0f6c0595ab" x="63.804688" y="305.00407" style="fill-opacity: 0; stroke: #595959"/>
     <use xlink:href="#m0f6c0595ab" x="67.671932" y="301.518129" style="fill-opacity: 0; stroke: #595959"/>
     <use xlink:href="#m0f6c0595ab" x="71.539177" y="297.778769" style="fill-opacity: 0; stroke: #595959"/>
     <use xlink:href="#m0f6c0595ab" x="75.406422" y="294.923155" style="fill-opacity: 0; stroke: #595959"/>
     <use xlink:href="#m0f6c0595ab" x="79.273667" y="292.634085" style="fill-opacity: 0; stroke: #595959"/>
     <use xlink:href="#m0f6c0595ab" x="83.140912" y="290.199185" style="fill-opacity: 0; stroke: #595959"/>
     <use xlink:href="#m0f6c0595ab" x="87.008157" y="287.477011" style="fill-opacity: 0; stroke: #595959"/>
     <use xlink:href="#m0f6c0595ab" x="90.875402" y="284.896168" style="fill-opacity: 0; stroke: #595959"/>
     <use xlink:href="#m0f6c0595ab" x="94.742647" y="281.918679" style="fill-opacity: 0; stroke: #595959"/>
     <use xlink:href="#m0f6c0595ab" x="98.609892" y="279.175251" style="fill-opacity: 0; stroke: #595959"/>
     <use xlink:href="#m0f6c0595ab" x="102.477136" y="276.119352" style="fill-opacity: 0; stroke: #595959"/>
     <use xlink:href="#m0f6c0595ab" x="106.344381" y="273.478536" style="fill-opacity: 0; stroke: #595959"/>
     <use xlink:href="#m0f6c0595ab" x="110.211626" y="270.754263" style="fill-opacity: 0; stroke: #595959"/>
     <use xlink:href="#m0f6c0595ab" x="114.078871" y="268.057841" style="fill-opacity: 0; stroke: #595959"/>
     <use xlink:href="#m0f6c0595ab" x="117.946116" y="265.224213" style="fill-opacity: 0; stroke: #595959"/>
     <use xlink:href="#m0f6c0595ab" x="121.813361" y="262.116091" style="fill-opacity: 0; stroke: #595959"/>
     <use xlink:href="#m0f6c0595ab" x="125.680606" y="258.961312" style="fill-opacity: 0; stroke: #595959"/>
     <use xlink:href="#m0f6c0595ab" x="129.547851" y="255.655055" style="fill-opacity: 0; stroke: #595959"/>
     <use xlink:href="#m0f6c0595ab" x="133.415096" y="252.617838" style="fill-opacity: 0; stroke: #595959"/>
     <use xlink:href="#m0f6c0595ab" x="137.282341" y="249.868261" style="fill-opacity: 0; stroke: #595959"/>
     <use xlink:href="#m0f6c0595ab" x="141.149585" y="247.154439" style="fill-opacity: 0; stroke: #595959"/>
     <use xlink:href="#m0f6c0595ab" x="145.01683" y="243.773935" style="fill-opacity: 0; stroke: #595959"/>
     <use xlink:href="#m0f6c0595ab" x="148.884075" y="240.558423" style="fill-opacity: 0; stroke: #595959"/>
     <use xlink:href="#m0f6c0595ab" x="152.75132" y="237.597524" style="fill-opacity: 0; stroke: #595959"/>
     <use xlink:href="#m0f6c0595ab" x="156.618565" y="234.779098" style="fill-opacity: 0; stroke: #595959"/>
     <use xlink:href="#m0f6c0595ab" x="160.48581" y="231.978083" style="fill-opacity: 0; stroke: #595959"/>
     <use xlink:href="#m0f6c0595ab" x="164.353055" y="229.111913" style="fill-opacity: 0; stroke: #595959"/>
     <use xlink:href="#m0f6c0595ab" x="168.2203" y="226.140538" style="fill-opacity: 0; stroke: #595959"/>
     <use xlink:href="#m0f6c0595ab" x="172.087545" y="223.481978" style="fill-opacity: 0; stroke: #595959"/>
     <use xlink:href="#m0f6c0595ab" x="175.95479" y="220.488794" style="fill-opacity: 0; stroke: #595959"/>
     <use xlink:href="#m0f6c0595ab" x="179.822034" y="217.940369" style="fill-opacity: 0; stroke: #595959"/>
     <use xlink:href="#m0f6c0595ab" x="183.689279" y="215.009867" style="fill-opacity: 0; stroke: #595959"/>
     <use xlink:href="#m0f6c0595ab" x="187.556524" y="212.3635" style="fill-opacity: 0; stroke: #595959"/>
     <use xlink:href="#m0f6c0595ab" x="191.423769" y="209.325107" style="fill-opacity: 0; stroke: #595959"/>
     <use xlink:href="#m0f6c0595ab" x="195.291014" y="206.413024" style="fill-opacity: 0; stroke: #595959"/>
     <use xlink:href="#m0f6c0595ab" x="199.158259" y="203.610692" style="fill-opacity: 0; stroke: #595959"/>
     <use xlink:href="#m0f6c0595ab" x="203.025504" y="200.843377" style="fill-opacity: 0; stroke: #595959"/>
     <use xlink:href="#m0f6c0595ab" x="206.892749" y="197.852227" style="fill-opacity: 0; stroke: #595959"/>
     <use xlink:href="#m0f6c0595ab" x="210.759994" y="195.19581" style="fill-opacity: 0; stroke: #595959"/>
     <use xlink:href="#m0f6c0595ab" x="214.627239" y="192.045823" style="fill-opacity: 0; stroke: #595959"/>
     <use xlink:href="#m0f6c0595ab" x="218.494483" y="189.146261" style="fill-opacity: 0; stroke: #595959"/>
     <use xlink:href="#m0f6c0595ab" x="222.361728" y="186.086667" style="fill-opacity: 0; stroke: #595959"/>
     <use xlink:href="#m0f6c0595ab" x="226.228973" y="183.562266" style="fill-opacity: 0; stroke: #595959"/>
     <use xlink:href="#m0f6c0595ab" x="230.096218" y="180.646189" style="fill-opacity: 0; stroke: #595959"/>
     <use xlink:href="#m0f6c0595ab" x="233.963463" y="177.833569" style="fill-opacity: 0; stroke: #595959"/>
     <use xlink:href="#m0f6c0595ab" x="237.830708" y="175.063633" style="fill-opacity: 0; stroke: #595959"/>
     <use xlink:href="#m0f6c0595ab" x="241.697953" y="171.895614" style="fill-opacity: 0; stroke: #595959"/>
     <use xlink:href="#m0f6c0595ab" x="245.565198" y="169.280647" style="fill-opacity: 0; stroke: #595959"/>
     <use xlink:href="#m0f6c0595ab" x="249.432443" y="166.514627" style="fill-opacity: 0; stroke: #595959"/>
     <use xlink:href="#m0f6c0595ab" x="253.299688" y="163.532085" style="fill-opacity: 0; stroke: #595959"/>
     <use xlink:href="#m0f6c0595ab" x="257.166932" y="160.122513" style="fill-opacity: 0; stroke: #595959"/>
     <use xlink:href="#m0f6c0595ab" x="261.034177" y="156.961718" style="fill-opacity: 0; stroke: #595959"/>
     <use xlink:href="#m0f6c0595ab" x="264.901422" y="154.264949" style="fill-opacity: 0; stroke: #595959"/>
     <use xlink:href="#m0f6c0595ab" x="268.768667" y="151.501747" style="fill-opacity: 0; stroke: #595959"/>
     <use xlink:href="#m0f6c0595ab" x="272.635912" y="148.267306" style="fill-opacity: 0; stroke: #595959"/>
     <use xlink:href="#m0f6c0595ab" x="276.503157" y="145.61348" style="fill-opacity: 0; stroke: #595959"/>
     <use xlink:href="#m0f6c0595ab" x="280.370402" y="142.850244" style="fill-opacity: 0; stroke: #595959"/>
     <use xlink:href="#m0f6c0595ab" x="284.237647" y="140.011537" style="fill-opacity: 0; stroke: #595959"/>
     <use xlink:href="#m0f6c0595ab" x="288.104892" y="136.69301" style="fill-opacity: 0; stroke: #595959"/>
     <use xlink:href="#m0f6c0595ab" x="291.972136" y="134.108947" style="fill-opacity: 0; stroke: #595959"/>
     <use xlink:href="#m0f6c0595ab" x="295.839381" y="131.762546" style="fill-opacity: 0; stroke: #595959"/>
     <use xlink:href="#m0f6c0595ab" x="299.706626" y="128.845076" style="fill-opacity: 0; stroke: #595959"/>
     <use xlink:href="#m0f6c0595ab" x="303.573871" y="125.610934" style="fill-opacity: 0; stroke: #595959"/>
     <use xlink:href="#m0f6c0595ab" x="307.441116" y="122.892807" style="fill-opacity: 0; stroke: #595959"/>
     <use xlink:href="#m0f6c0595ab" x="311.308361" y="120.763188" style="fill-opacity: 0; stroke: #595959"/>
     <use xlink:href="#m0f6c0595ab" x="315.175606" y="118.157632" style="fill-opacity: 0; stroke: #595959"/>
     <use xlink:href="#m0f6c0595ab" x="319.042851" y="115.651335" style="fill-opacity: 0; stroke: #595959"/>
     <use xlink:href="#m0f6c0595ab" x="322.910096" y="112.823214" style="fill-opacity: 0; stroke: #595959"/>
     <use xlink:href="#m0f6c0595ab" x="326.777341" y="110.256119" style="fill-opacity: 0; stroke: #595959"/>
     <use xlink:href="#m0f6c0595ab" x="330.644585" y="107.21476" style="fill-opacity: 0; stroke: #595959"/>
     <use xlink:href="#m0f6c0595ab" x="334.51183" y="104.519422" style="fill-opacity: 0; stroke: #595959"/>
     <use xlink:href="#m0f6c0595ab" x="338.379075" y="101.593414" style="fill-opacity: 0; stroke: #595959"/>
     <use xlink:href="#m0f6c0595ab" x="342.24632" y="98.910096" style="fill-opacity: 0; stroke: #595959"/>
     <use xlink:href="#m0f6c0595ab" x="346.113565" y="96.421886" style="fill-opacity: 0; stroke: #595959"/>
     <use xlink:href="#m0f6c0595ab" x="349.98081" y="93.318961" style="fill-opacity: 0; stroke: #595959"/>
     <use xlink:href="#m0f6c0595ab" x="353.848055" y="90.071517" style="fill-opacity: 0; stroke: #595959"/>
     <use xlink:href="#m0f6c0595ab" x="357.7153" y="87.097287" style="fill-opacity: 0; stroke: #595959"/>
     <use xlink:href="#m0f6c0595ab" x="361.582545" y="83.771986" style="fill-opacity: 0; stroke: #595959"/>
     <use xlink:href="#m0f6c0595ab" x="365.44979" y="80.703433" style="fill-opacity: 0; stroke: #595959"/>
     <use xlink:href="#m0f6c0595ab" x="369.317034" y="77.726674" style="fill-opacity: 0; stroke: #595959"/>
     <use xlink:href="#m0f6c0595ab" x="373.184279" y="74.659937" style="fill-opacity: 0; stroke: #595959"/>
     <use xlink:href="#m0f6c0595ab" x="377.051524" y="72.005999" style="fill-opacity: 0; stroke: #595959"/>
     <use xlink:href="#m0f6c0595ab" x="380.918769" y="69.013064" style="fill-opacity: 0; stroke: #595959"/>
     <use xlink:href="#m0f6c0595ab" x="384.786014" y="66.192419" style="fill-opacity: 0; stroke: #595959"/>
     <use xlink:href="#m0f6c0595ab" x="388.653259" y="63.037277" style="fill-opacity: 0; stroke: #595959"/>
     <use xlink:href="#m0f6c0595ab" x="392.520504" y="60.080597" style="fill-opacity: 0; stroke: #595959"/>
     <use xlink:href="#m0f6c0595ab" x="396.387749" y="57.281578" style="fill-opacity: 0; stroke: #595959"/>
     <use xlink:href="#m0f6c0595ab" x="400.254994" y="54.134531" style="fill-opacity: 0; stroke: #595959"/>
     <use xlink:href="#m0f6c0595ab" x="404.122239" y="51.336948" style="fill-opacity: 0; stroke: #595959"/>
     <use xlink:href="#m0f6c0595ab" x="407.989483" y="48.087071" style="fill-opacity: 0; stroke: #595959"/>
     <use xlink:href="#m0f6c0595ab" x="411.856728" y="45.424026" style="fill-opacity: 0; stroke: #595959"/>
     <use xlink:href="#m0f6c0595ab" x="415.723973" y="42.27777" style="fill-opacity: 0; stroke: #595959"/>
     <use xlink:href="#m0f6c0595ab" x="419.591218" y="39.337375" style="fill-opacity: 0; stroke: #595959"/>
     <use xlink:href="#m0f6c0595ab" x="423.458463" y="36.287695" style="fill-opacity: 0; stroke: #595959"/>
     <use xlink:href="#m0f6c0595ab" x="427.325708" y="33.557797" style="fill-opacity: 0; stroke: #595959"/>
     <use xlink:href="#m0f6c0595ab" x="431.192953" y="30.531547" style="fill-opacity: 0; stroke: #595959"/>
     <use xlink:href="#m0f6c0595ab" x="435.060198" y="28.043048" style="fill-opacity: 0; stroke: #595959"/>
     <use xlink:href="#m0f6c0595ab" x="438.927443" y="25.080657" style="fill-opacity: 0; stroke: #595959"/>
     <use xlink:href="#m0f6c0595ab" x="442.794688" y="22.655982" style="fill-opacity: 0; stroke: #595959"/>
    </g>
   </g>
  </g>
 </g>
 <defs>
  <clipPath id="pc59c705661">
   <rect x="63.804688" y="22.318125" width="378.99" height="284.58"/>
  </clipPath>
 </defs>
</svg>
