<?xml version="1.0" encoding="utf-8" standalone="no"?>
<!DOCTYPE svg PUBLIC "-//W3C//DTD SVG 1.1//EN"
  "http://www.w3.org/Graphics/SVG/1.1/DTD/svg11.dtd">
<svg xmlns:xlink="http://www.w3.org/1999/xlink" width="449.626387pt" height="349.857813pt" viewBox="0 0 449.626387 349.857813" xmlns="http://www.w3.org/2000/svg" version="1.1">
 <metadata>
  <rdf:RDF xmlns:dc="http://purl.org/dc/elements/1.1/" xmlns:cc="http://creativecommons.org/ns#" xmlns:rdf="http://www.w3.org/1999/02/22-rdf-syntax-ns#">
   <cc:Work>
    <dc:type rdf:resource="http://purl.org/dc/dcmitype/StillImage"/>
    <dc:date>2026-05-15T15:00:36.718136</dc:date>
    <dc:format>image/svg+xml</dc:format>
    <dc:creator>
     <cc:Agent>
      <dc:title>Matplotlib v3.10.9, https://matplotlib.org/</dc:title>
     </cc:Agent>
    </dc:creator>
   </cc:Work>
  </rdf:RDF>
 </metadata>
 <defs>
  <style type="text/css">*{stroke-linejoin: round; stroke-linecap: butt}</style>
 </defs>
 <g id="figure_1">
  <g id="patch_1">
   <path d="M 0 349.857813 
L 449.626387 349.857813 
L 449.626387 0 
L 0 0 
z
" style="fill: #ffffff"/>
  </g>
  <g id="axes_1">
   <g id="patch_2">
    <path d="M 70.803438 306.898125 
L 442.426387 306.898125 
L 442.426387 22.318125 
L 70.803438 22.318125 
z
" style="fill: #ffffff"/>
   </g>
   <g id="line2d_1">
    <path d="M 70.803438 306.898125 
L 442.426387 22.318125 
" clip-path="url(#p69e39e0a1b)" style="fill: none; stroke: #b2b2b2; stroke-linecap: round"/>
   </g>
   <g id="matplotlib.axis_1">
    <g id="xtick_1">
     <g id="line2d_2">
      <defs>
       <path id="me400f5a796" d="M 0 0 
L 0 6 
" style="stroke: #262626; stroke-width: 1.25"/>
      </defs>
      <g>
       <use xlink:href="#me400f5a796" x="120.40136" y="306.898125" style="fill: #262626; stroke: #262626; stroke-width: 1.25"/>
      </g>
     </g>
     <g id="text_1">
      <!-- 0.0003 -->
      <g style="fill: #262626" transform="translate(101.156516 324.756406) scale(0.11 -0.11)">
       <defs>
        <path id="DejaVuSans-30" d="M 2034 4250 
Q 1547 4250 1301 3770 
Q 1056 3291 1056 2328 
Q 1056 1369 1301 889 
Q 1547 409 2034 409 
Q 2525 409 2770 889 
Q 3016 1369 3016 2328 
Q 3016 3291 2770 3770 
Q 2525 4250 2034 4250 
z
M 2034 4750 
Q 2819 4750 3233 4129 
Q 3647 3509 3647 2328 
Q 3647 1150 3233 529 
Q 2819 -91 2034 -91 
Q 1250 -91 836 529 
Q 422 1150 422 2328 
Q 422 3509 836 4129 
Q 1250 4750 2034 4750 
z
" transform="scale(0.015625)"/>
        <path id="DejaVuSans-2e" d="M 684 794 
L 1344 794 
L 1344 0 
L 684 0 
L 684 794 
z
" transform="scale(0.015625)"/>
        <path id="DejaVuSans-33" d="M 2597 2516 
Q 3050 2419 3304 2112 
Q 3559 1806 3559 1356 
Q 3559 666 3084 287 
Q 2609 -91 1734 -91 
Q 1441 -91 1130 -33 
Q 819 25 488 141 
L 488 750 
Q 750 597 1062 519 
Q 1375 441 1716 441 
Q 2309 441 2620 675 
Q 2931 909 2931 1356 
Q 2931 1769 2642 2001 
Q 2353 2234 1838 2234 
L 1294 2234 
L 1294 2753 
L 1863 2753 
Q 2328 2753 2575 2939 
Q 2822 3125 2822 3475 
Q 2822 3834 2567 4026 
Q 2313 4219 1838 4219 
Q 1578 4219 1281 4162 
Q 984 4106 628 3988 
L 628 4550 
Q 988 4650 1302 4700 
Q 1616 4750 1894 4750 
Q 2613 4750 3031 4423 
Q 3450 4097 3450 3541 
Q 3450 3153 3228 2886 
Q 3006 2619 2597 2516 
z
" transform="scale(0.015625)"/>
       </defs>
       <use xlink:href="#DejaVuSans-30"/>
       <use xlink:href="#DejaVuSans-2e" transform="translate(63.623047 0)"/>
       <use xlink:href="#DejaVuSans-30" transform="translate(95.410156 0)"/>
       <use xlink:href="#DejaVuSans-30" transform="translate(159.033203 0)"/>
       <use xlink:href="#DejaVuSans-30" transform="translate(222.65625 0)"/>
       <use xlink:href="#DejaVuSans-33" transform="translate(286.279297 0)"/>
      </g>
     </g>
    </g>
    <g id="xtick_2">
     <g id="line2d_3">
      <g>
       <use xlink:href="#me400f5a796" x="170.784223" y="306.898125" style="fill: #262626; stroke: #262626; stroke-width: 1.25"/>
      </g>
     </g>
     <g id="text_2">
      <!-- 0.0004 -->
      <g style="fill: #262626" transform="translate(151.539379 324.756406) scale(0.11 -0.11)">
       <defs>
        <path id="DejaVuSans-34" d="M 2419 4116 
L 825 1625 
L 2419 1625 
L 2419 4116 
z
M 2253 4666 
L 3047 4666 
L 3047 1625 
L 3713 1625 
L 3713 1100 
L 3047 1100 
L 3047 0 
L 2419 0 
L 2419 1100 
L 313 1100 
L 313 1709 
L 2253 4666 
z
" transform="scale(0.015625)"/>
       </defs>
       <use xlink:href="#DejaVuSans-30"/>
       <use xlink:href="#DejaVuSans-2e" transform="translate(63.623047 0)"/>
       <use xlink:href="#DejaVuSans-30" transform="translate(95.410156 0)"/>
       <use xlink:href="#DejaVuSans-30" transform="translate(159.033203 0)"/>
       <use xlink:href="#DejaVuSans-30" transform="translate(222.65625 0)"/>
       <use xlink:href="#DejaVuSans-34" transform="translate(286.279297 0)"/>
      </g>
     </g>
    </g>
    <g id="xtick_3">
     <g id="line2d_4">
      <g>
       <use xlink:href="#me400f5a796" x="221.167086" y="306.898125" style="fill: #262626; stroke: #262626; stroke-width: 1.25"/>
      </g>
     </g>
     <g id="text_3">
      <!-- 0.0005 -->
      <g style="fill: #262626" transform="translate(201.922242 324.756406) scale(0.11 -0.11)">
       <defs>
        <path id="DejaVuSans-35" d="M 691 4666 
L 3169 4666 
L 3169 4134 
L 1269 4134 
L 1269 2991 
Q 1406 3038 1543 3061 
Q 1681 3084 1819 3084 
Q 2600 3084 3056 2656 
Q 3513 2228 3513 1497 
Q 3513 744 3044 326 
Q 2575 -91 1722 -91 
Q 1428 -91 1123 -41 
Q 819 9 494 109 
L 494 744 
Q 775 591 1075 516 
Q 1375 441 1709 441 
Q 2250 441 2565 725 
Q 2881 1009 2881 1497 
Q 2881 1984 2565 2268 
Q 2250 2553 1709 2553 
Q 1456 2553 1204 2497 
Q 953 2441 691 2322 
L 691 4666 
z
" transform="scale(0.015625)"/>
       </defs>
       <use xlink:href="#DejaVuSans-30"/>
       <use xlink:href="#DejaVuSans-2e" transform="translate(63.623047 0)"/>
       <use xlink:href="#DejaVuSans-30" transform="translate(95.410156 0)"/>
       <use xlink:href="#DejaVuSans-30" transform="translate(159.033203 0)"/>
       <use xlink:href="#DejaVuSans-30" transform="translate(222.65625 0)"/>
       <use xlink:href="#DejaVuSans-35" transform="translate(286.279297 0)"/>
      </g>
     </g>
    </g>
    <g id="xtick_4">
     <g id="line2d_5">
      <g>
       <use xlink:href="#me400f5a796" x="271.549949" y="306.898125" style="fill: #262626; stroke: #262626; stroke-width: 1.25"/>
      </g>
     </g>
     <g id="text_4">
      <!-- 0.0006 -->
      <g style="fill: #262626" transform="translate(252.305106 324.756406) scale(0.11 -0.11)">
       <defs>
        <path id="DejaVuSans-36" d="M 2113 2584 
Q 1688 2584 1439 2293 
Q 1191 2003 1191 1497 
Q 1191 994 1439 701 
Q 1688 409 2113 409 
Q 2538 409 2786 701 
Q 3034 994 3034 1497 
Q 3034 2003 2786 2293 
Q 2538 2584 2113 2584 
z
M 3366 4563 
L 3366 3988 
Q 3128 4100 2886 4159 
Q 2644 4219 2406 4219 
Q 1781 4219 1451 3797 
Q 1122 3375 1075 2522 
Q 1259 2794 1537 2939 
Q 1816 3084 2150 3084 
Q 2853 3084 3261 2657 
Q 3669 2231 3669 1497 
Q 3669 778 3244 343 
Q 2819 -91 2113 -91 
Q 1303 -91 875 529 
Q 447 1150 447 2328 
Q 447 3434 972 4092 
Q 1497 4750 2381 4750 
Q 2619 4750 2861 4703 
Q 3103 4656 3366 4563 
z
" transform="scale(0.015625)"/>
       </defs>
       <use xlink:href="#DejaVuSans-30"/>
       <use xlink:href="#DejaVuSans-2e" transform="translate(63.623047 0)"/>
       <use xlink:href="#DejaVuSans-30" transform="translate(95.410156 0)"/>
       <use xlink:href="#DejaVuSans-30" transform="translate(159.033203 0)"/>
       <use xlink:href="#DejaVuSans-30" transform="translate(222.65625 0)"/>
       <use xlink:href="#DejaVuSans-36" transform="translate(286.279297 0)"/>
      </g>
     </g>
    </g>
    <g id="xtick_5">
     <g id="line2d_6">
      <g>
       <use xlink:href="#me400f5a796" x="321.932813" y="306.898125" style="fill: #262626; stroke: #262626; stroke-width: 1.25"/>
      </g>
     </g>
     <g id="text_5">
      <!-- 0.0007 -->
      <g style="fill: #262626" transform="translate(302.687969 324.756406) scale(0.11 -0.11)">
       <defs>
        <path id="DejaVuSans-37" d="M 525 4666 
L 3525 4666 
L 3525 4397 
L 1831 0 
L 1172 0 
L 2766 4134 
L 525 4134 
L 525 4666 
z
" transform="scale(0.015625)"/>
       </defs>
       <use xlink:href="#DejaVuSans-30"/>
       <use xlink:href="#DejaVuSans-2e" transform="translate(63.623047 0)"/>
       <use xlink:href="#DejaVuSans-30" transform="translate(95.410156 0)"/>
       <use xlink:href="#DejaVuSans-30" transform="translate(159.033203 0)"/>
       <use xlink:href="#DejaVuSans-30" transform="translate(222.65625 0)"/>
       <use xlink:href="#DejaVuSans-37" transform="translate(286.279297 0)"/>
      </g>
     </g>
    </g>
    <g id="xtick_6">
     <g id="line2d_7">
      <g>
       <use xlink:href="#me400f5a796" x="372.315676" y="306.898125" style="fill: #262626; stroke: #262626; stroke-width: 1.25"/>
      </g>
     </g>
     <g id="text_6">
      <!-- 0.0008 -->
      <g style="fill: #262626" transform="translate(353.070832 324.756406) scale(0.11 -0.11)">
       <defs>
        <path id="DejaVuSans-38" d="M 2034 2216 
Q 1584 2216 1326 1975 
Q 1069 1734 1069 1313 
Q 1069 891 1326 650 
Q 1584 409 2034 409 
Q 2484 409 2743 651 
Q 3003 894 3003 1313 
Q 3003 1734 2745 1975 
Q 2488 2216 2034 2216 
z
M 1403 2484 
Q 997 2584 770 2862 
Q 544 3141 544 3541 
Q 544 4100 942 4425 
Q 1341 4750 2034 4750 
Q 2731 4750 3128 4425 
Q 3525 4100 3525 3541 
Q 3525 3141 3298 2862 
Q 3072 2584 2669 2484 
Q 3125 2378 3379 2068 
Q 3634 1759 3634 1313 
Q 3634 634 3220 271 
Q 2806 -91 2034 -91 
Q 1263 -91 848 271 
Q 434 634 434 1313 
Q 434 1759 690 2068 
Q 947 2378 1403 2484 
z
M 1172 3481 
Q 1172 3119 1398 2916 
Q 1625 2713 2034 2713 
Q 2441 2713 2670 2916 
Q 2900 3119 2900 3481 
Q 2900 3844 2670 4047 
Q 2441 4250 2034 4250 
Q 1625 4250 1398 4047 
Q 1172 3844 1172 3481 
z
" transform="scale(0.015625)"/>
       </defs>
       <use xlink:href="#DejaVuSans-30"/>
       <use xlink:href="#DejaVuSans-2e" transform="translate(63.623047 0)"/>
       <use xlink:href="#DejaVuSans-30" transform="translate(95.410156 0)"/>
       <use xlink:href="#DejaVuSans-30" transform="translate(159.033203 0)"/>
       <use xlink:href="#DejaVuSans-30" transform="translate(222.65625 0)"/>
       <use xlink:href="#DejaVuSans-38" transform="translate(286.279297 0)"/>
      </g>
     </g>
    </g>
    <g id="xtick_7">
     <g id="line2d_8">
      <g>
       <use xlink:href="#me400f5a796" x="422.698539" y="306.898125" style="fill: #262626; stroke: #262626; stroke-width: 1.25"/>
      </g>
     </g>
     <g id="text_7">
      <!-- 0.0009 -->
      <g style="fill: #262626" transform="translate(403.453695 324.756406) scale(0.11 -0.11)">
       <defs>
        <path id="DejaVuSans-39" d="M 703 97 
L 703 672 
Q 941 559 1184 500 
Q 1428 441 1663 441 
Q 2288 441 2617 861 
Q 2947 1281 2994 2138 
Q 2813 1869 2534 1725 
Q 2256 1581 1919 1581 
Q 1219 1581 811 2004 
Q 403 2428 403 3163 
Q 403 3881 828 4315 
Q 1253 4750 1959 4750 
Q 2769 4750 3195 4129 
Q 3622 3509 3622 2328 
Q 3622 1225 3098 567 
Q 2575 -91 1691 -91 
Q 1453 -91 1209 -44 
Q 966 3 703 97 
z
M 1959 2075 
Q 2384 2075 2632 2365 
Q 2881 2656 2881 3163 
Q 2881 3666 2632 3958 
Q 2384 4250 1959 4250 
Q 1534 4250 1286 3958 
Q 1038 3666 1038 3163 
Q 1038 2656 1286 2365 
Q 1534 2075 1959 2075 
z
" transform="scale(0.015625)"/>
       </defs>
       <use xlink:href="#DejaVuSans-30"/>
       <use xlink:href="#DejaVuSans-2e" transform="translate(63.623047 0)"/>
       <use xlink:href="#DejaVuSans-30" transform="translate(95.410156 0)"/>
       <use xlink:href="#DejaVuSans-30" transform="translate(159.033203 0)"/>
       <use xlink:href="#DejaVuSans-30" transform="translate(222.65625 0)"/>
       <use xlink:href="#DejaVuSans-39" transform="translate(286.279297 0)"/>
      </g>
     </g>
    </g>
    <g id="text_8">
     <!-- Model quantiles -->
     <g style="fill: #262626" transform="translate(209.097725 340.162188) scale(0.12 -0.12)">
      <defs>
       <path id="DejaVuSans-4d" d="M 628 4666 
L 1569 4666 
L 2759 1491 
L 3956 4666 
L 4897 4666 
L 4897 0 
L 4281 0 
L 4281 4097 
L 3078 897 
L 2444 897 
L 1241 4097 
L 1241 0 
L 628 0 
L 628 4666 
z
" transform="scale(0.015625)"/>
       <path id="DejaVuSans-6f" d="M 1959 3097 
Q 1497 3097 1228 2736 
Q 959 2375 959 1747 
Q 959 1119 1226 758 
Q 1494 397 1959 397 
Q 2419 397 2687 759 
Q 2956 1122 2956 1747 
Q 2956 2369 2687 2733 
Q 2419 3097 1959 3097 
z
M 1959 3584 
Q 2709 3584 3137 3096 
Q 3566 2609 3566 1747 
Q 3566 888 3137 398 
Q 2709 -91 1959 -91 
Q 1206 -91 779 398 
Q 353 888 353 1747 
Q 353 2609 779 3096 
Q 1206 3584 1959 3584 
z
" transform="scale(0.015625)"/>
       <path id="DejaVuSans-64" d="M 2906 2969 
L 2906 4863 
L 3481 4863 
L 3481 0 
L 2906 0 
L 2906 525 
Q 2725 213 2448 61 
Q 2172 -91 1784 -91 
Q 1150 -91 751 415 
Q 353 922 353 1747 
Q 353 2572 751 3078 
Q 1150 3584 1784 3584 
Q 2172 3584 2448 3432 
Q 2725 3281 2906 2969 
z
M 947 1747 
Q 947 1113 1208 752 
Q 1469 391 1925 391 
Q 2381 391 2643 752 
Q 2906 1113 2906 1747 
Q 2906 2381 2643 2742 
Q 2381 3103 1925 3103 
Q 1469 3103 1208 2742 
Q 947 2381 947 1747 
z
" transform="scale(0.015625)"/>
       <path id="DejaVuSans-65" d="M 3597 1894 
L 3597 1613 
L 953 1613 
Q 991 1019 1311 708 
Q 1631 397 2203 397 
Q 2534 397 2845 478 
Q 3156 559 3463 722 
L 3463 178 
Q 3153 47 2828 -22 
Q 2503 -91 2169 -91 
Q 1331 -91 842 396 
Q 353 884 353 1716 
Q 353 2575 817 3079 
Q 1281 3584 2069 3584 
Q 2775 3584 3186 3129 
Q 3597 2675 3597 1894 
z
M 3022 2063 
Q 3016 2534 2758 2815 
Q 2500 3097 2075 3097 
Q 1594 3097 1305 2825 
Q 1016 2553 972 2059 
L 3022 2063 
z
" transform="scale(0.015625)"/>
       <path id="DejaVuSans-6c" d="M 603 4863 
L 1178 4863 
L 1178 0 
L 603 0 
L 603 4863 
z
" transform="scale(0.015625)"/>
       <path id="DejaVuSans-20" transform="scale(0.015625)"/>
       <path id="DejaVuSans-71" d="M 947 1747 
Q 947 1113 1208 752 
Q 1469 391 1925 391 
Q 2381 391 2643 752 
Q 2906 1113 2906 1747 
Q 2906 2381 2643 2742 
Q 2381 3103 1925 3103 
Q 1469 3103 1208 2742 
Q 947 2381 947 1747 
z
M 2906 525 
Q 2725 213 2448 61 
Q 2172 -91 1784 -91 
Q 1150 -91 751 415 
Q 353 922 353 1747 
Q 353 2572 751 3078 
Q 1150 3584 1784 3584 
Q 2172 3584 2448 3432 
Q 2725 3281 2906 2969 
L 2906 3500 
L 3481 3500 
L 3481 -1331 
L 2906 -1331 
L 2906 525 
z
" transform="scale(0.015625)"/>
       <path id="DejaVuSans-75" d="M 544 1381 
L 544 3500 
L 1119 3500 
L 1119 1403 
Q 1119 906 1312 657 
Q 1506 409 1894 409 
Q 2359 409 2629 706 
Q 2900 1003 2900 1516 
L 2900 3500 
L 3475 3500 
L 3475 0 
L 2900 0 
L 2900 538 
Q 2691 219 2414 64 
Q 2138 -91 1772 -91 
Q 1169 -91 856 284 
Q 544 659 544 1381 
z
M 1991 3584 
L 1991 3584 
z
" transform="scale(0.015625)"/>
       <path id="DejaVuSans-61" d="M 2194 1759 
Q 1497 1759 1228 1600 
Q 959 1441 959 1056 
Q 959 750 1161 570 
Q 1363 391 1709 391 
Q 2188 391 2477 730 
Q 2766 1069 2766 1631 
L 2766 1759 
L 2194 1759 
z
M 3341 1997 
L 3341 0 
L 2766 0 
L 2766 531 
Q 2569 213 2275 61 
Q 1981 -91 1556 -91 
Q 1019 -91 701 211 
Q 384 513 384 1019 
Q 384 1609 779 1909 
Q 1175 2209 1959 2209 
L 2766 2209 
L 2766 2266 
Q 2766 2663 2505 2880 
Q 2244 3097 1772 3097 
Q 1472 3097 1187 3025 
Q 903 2953 641 2809 
L 641 3341 
Q 956 3463 1253 3523 
Q 1550 3584 1831 3584 
Q 2591 3584 2966 3190 
Q 3341 2797 3341 1997 
z
" transform="scale(0.015625)"/>
       <path id="DejaVuSans-6e" d="M 3513 2113 
L 3513 0 
L 2938 0 
L 2938 2094 
Q 2938 2591 2744 2837 
Q 2550 3084 2163 3084 
Q 1697 3084 1428 2787 
Q 1159 2491 1159 1978 
L 1159 0 
L 581 0 
L 581 3500 
L 1159 3500 
L 1159 2956 
Q 1366 3272 1645 3428 
Q 1925 3584 2291 3584 
Q 2894 3584 3203 3211 
Q 3513 2838 3513 2113 
z
" transform="scale(0.015625)"/>
       <path id="DejaVuSans-74" d="M 1172 4494 
L 1172 3500 
L 2356 3500 
L 2356 3053 
L 1172 3053 
L 1172 1153 
Q 1172 725 1289 603 
Q 1406 481 1766 481 
L 2356 481 
L 2356 0 
L 1766 0 
Q 1100 0 847 248 
Q 594 497 594 1153 
L 594 3053 
L 172 3053 
L 172 3500 
L 594 3500 
L 594 4494 
L 1172 4494 
z
" transform="scale(0.015625)"/>
       <path id="DejaVuSans-69" d="M 603 3500 
L 1178 3500 
L 1178 0 
L 603 0 
L 603 3500 
z
M 603 4863 
L 1178 4863 
L 1178 4134 
L 603 4134 
L 603 4863 
z
" transform="scale(0.015625)"/>
       <path id="DejaVuSans-73" d="M 2834 3397 
L 2834 2853 
Q 2591 2978 2328 3040 
Q 2066 3103 1784 3103 
Q 1356 3103 1142 2972 
Q 928 2841 928 2578 
Q 928 2378 1081 2264 
Q 1234 2150 1697 2047 
L 1894 2003 
Q 2506 1872 2764 1633 
Q 3022 1394 3022 966 
Q 3022 478 2636 193 
Q 2250 -91 1575 -91 
Q 1294 -91 989 -36 
Q 684 19 347 128 
L 347 722 
Q 666 556 975 473 
Q 1284 391 1588 391 
Q 1994 391 2212 530 
Q 2431 669 2431 922 
Q 2431 1156 2273 1281 
Q 2116 1406 1581 1522 
L 1381 1569 
Q 847 1681 609 1914 
Q 372 2147 372 2553 
Q 372 3047 722 3315 
Q 1072 3584 1716 3584 
Q 2034 3584 2315 3537 
Q 2597 3491 2834 3397 
z
" transform="scale(0.015625)"/>
      </defs>
      <use xlink:href="#DejaVuSans-4d"/>
      <use xlink:href="#DejaVuSans-6f" transform="translate(86.279297 0)"/>
      <use xlink:href="#DejaVuSans-64" transform="translate(147.460938 0)"/>
      <use xlink:href="#DejaVuSans-65" transform="translate(210.9375 0)"/>
      <use xlink:href="#DejaVuSans-6c" transform="translate(272.460938 0)"/>
      <use xlink:href="#DejaVuSans-20" transform="translate(300.244141 0)"/>
      <use xlink:href="#DejaVuSans-71" transform="translate(332.03125 0)"/>
      <use xlink:href="#DejaVuSans-75" transform="translate(395.507812 0)"/>
      <use xlink:href="#DejaVuSans-61" transform="translate(458.886719 0)"/>
      <use xlink:href="#DejaVuSans-6e" transform="translate(520.166016 0)"/>
      <use xlink:href="#DejaVuSans-74" transform="translate(583.544922 0)"/>
      <use xlink:href="#DejaVuSans-69" transform="translate(622.753906 0)"/>
      <use xlink:href="#DejaVuSans-6c" transform="translate(650.537109 0)"/>
      <use xlink:href="#DejaVuSans-65" transform="translate(678.320312 0)"/>
      <use xlink:href="#DejaVuSans-73" transform="translate(739.84375 0)"/>
     </g>
    </g>
   </g>
   <g id="matplotlib.axis_2">
    <g id="ytick_1">
     <g id="line2d_9">
      <defs>
       <path id="mc8fb9104d5" d="M 0 0 
L -6 0 
" style="stroke: #262626; stroke-width: 1.25"/>
      </defs>
      <g>
       <use xlink:href="#mc8fb9104d5" x="70.803438" y="268.917218" style="fill: #262626; stroke: #262626; stroke-width: 1.25"/>
      </g>
     </g>
     <g id="text_9">
      <!-- 0.0003 -->
      <g style="fill: #262626" transform="translate(22.81375 273.096358) scale(0.11 -0.11)">
       <use xlink:href="#DejaVuSans-30"/>
       <use xlink:href="#DejaVuSans-2e" transform="translate(63.623047 0)"/>
       <use xlink:href="#DejaVuSans-30" transform="translate(95.410156 0)"/>
       <use xlink:href="#DejaVuSans-30" transform="translate(159.033203 0)"/>
       <use xlink:href="#DejaVuSans-30" transform="translate(222.65625 0)"/>
       <use xlink:href="#DejaVuSans-33" transform="translate(286.279297 0)"/>
      </g>
     </g>
    </g>
    <g id="ytick_2">
     <g id="line2d_10">
      <g>
       <use xlink:href="#mc8fb9104d5" x="70.803438" y="230.335222" style="fill: #262626; stroke: #262626; stroke-width: 1.25"/>
      </g>
     </g>
     <g id="text_10">
      <!-- 0.0004 -->
      <g style="fill: #262626" transform="translate(22.81375 234.514362) scale(0.11 -0.11)">
       <use xlink:href="#DejaVuSans-30"/>
       <use xlink:href="#DejaVuSans-2e" transform="translate(63.623047 0)"/>
       <use xlink:href="#DejaVuSans-30" transform="translate(95.410156 0)"/>
       <use xlink:href="#DejaVuSans-30" transform="translate(159.033203 0)"/>
       <use xlink:href="#DejaVuSans-30" transform="translate(222.65625 0)"/>
       <use xlink:href="#DejaVuSans-34" transform="translate(286.279297 0)"/>
      </g>
     </g>
    </g>
    <g id="ytick_3">
     <g id="line2d_11">
      <g>
       <use xlink:href="#mc8fb9104d5" x="70.803438" y="191.753226" style="fill: #262626; stroke: #262626; stroke-width: 1.25"/>
      </g>
     </g>
     <g id="text_11">
      <!-- 0.0005 -->
      <g style="fill: #262626" transform="translate(22.81375 195.932366) scale(0.11 -0.11)">
       <use xlink:href="#DejaVuSans-30"/>
       <use xlink:href="#DejaVuSans-2e" transform="translate(63.623047 0)"/>
       <use xlink:href="#DejaVuSans-30" transform="translate(95.410156 0)"/>
       <use xlink:href="#DejaVuSans-30" transform="translate(159.033203 0)"/>
       <use xlink:href="#DejaVuSans-30" transform="translate(222.65625 0)"/>
       <use xlink:href="#DejaVuSans-35" transform="translate(286.279297 0)"/>
      </g>
     </g>
    </g>
    <g id="ytick_4">
     <g id="line2d_12">
      <g>
       <use xlink:href="#mc8fb9104d5" x="70.803438" y="153.171229" style="fill: #262626; stroke: #262626; stroke-width: 1.25"/>
      </g>
     </g>
     <g id="text_12">
      <!-- 0.0006 -->
      <g style="fill: #262626" transform="translate(22.81375 157.35037) scale(0.11 -0.11)">
       <use xlink:href="#DejaVuSans-30"/>
       <use xlink:href="#DejaVuSans-2e" transform="translate(63.623047 0)"/>
       <use xlink:href="#DejaVuSans-30" transform="translate(95.410156 0)"/>
       <use xlink:href="#DejaVuSans-30" transform="translate(159.033203 0)"/>
       <use xlink:href="#DejaVuSans-30" transform="translate(222.65625 0)"/>
       <use xlink:href="#DejaVuSans-36" transform="translate(286.279297 0)"/>
      </g>
     </g>
    </g>
    <g id="ytick_5">
     <g id="line2d_13">
      <g>
       <use xlink:href="#mc8fb9104d5" x="70.803438" y="114.589233" style="fill: #262626; stroke: #262626; stroke-width: 1.25"/>
      </g>
     </g>
     <g id="text_13">
      <!-- 0.0007 -->
      <g style="fill: #262626" transform="translate(22.81375 118.768374) scale(0.11 -0.11)">
       <use xlink:href="#DejaVuSans-30"/>
       <use xlink:href="#DejaVuSans-2e" transform="translate(63.623047 0)"/>
       <use xlink:href="#DejaVuSans-30" transform="translate(95.410156 0)"/>
       <use xlink:href="#DejaVuSans-30" transform="translate(159.033203 0)"/>
       <use xlink:href="#DejaVuSans-30" transform="translate(222.65625 0)"/>
       <use xlink:href="#DejaVuSans-37" transform="translate(286.279297 0)"/>
      </g>
     </g>
    </g>
    <g id="ytick_6">
     <g id="line2d_14">
      <g>
       <use xlink:href="#mc8fb9104d5" x="70.803438" y="76.007237" style="fill: #262626; stroke: #262626; stroke-width: 1.25"/>
      </g>
     </g>
     <g id="text_14">
      <!-- 0.0008 -->
      <g style="fill: #262626" transform="translate(22.81375 80.186378) scale(0.11 -0.11)">
       <use xlink:href="#DejaVuSans-30"/>
       <use xlink:href="#DejaVuSans-2e" transform="translate(63.623047 0)"/>
       <use xlink:href="#DejaVuSans-30" transform="translate(95.410156 0)"/>
       <use xlink:href="#DejaVuSans-30" transform="translate(159.033203 0)"/>
       <use xlink:href="#DejaVuSans-30" transform="translate(222.65625 0)"/>
       <use xlink:href="#DejaVuSans-38" transform="translate(286.279297 0)"/>
      </g>
     </g>
    </g>
    <g id="ytick_7">
     <g id="line2d_15">
      <g>
       <use xlink:href="#mc8fb9104d5" x="70.803438" y="37.425241" style="fill: #262626; stroke: #262626; stroke-width: 1.25"/>
      </g>
     </g>
     <g id="text_15">
      <!-- 0.0009 -->
      <g style="fill: #262626" transform="translate(22.81375 41.604382) scale(0.11 -0.11)">
       <use xlink:href="#DejaVuSans-30"/>
       <use xlink:href="#DejaVuSans-2e" transform="translate(63.623047 0)"/>
       <use xlink:href="#DejaVuSans-30" transform="translate(95.410156 0)"/>
       <use xlink:href="#DejaVuSans-30" transform="translate(159.033203 0)"/>
       <use xlink:href="#DejaVuSans-30" transform="translate(222.65625 0)"/>
       <use xlink:href="#DejaVuSans-39" transform="translate(286.279297 0)"/>
      </g>
     </g>
    </g>
    <g id="text_16">
     <!-- Sample quantiles -->
     <g style="fill: #262626" transform="translate(16.318125 216.6075) rotate(-90) scale(0.12 -0.12)">
      <defs>
       <path id="DejaVuSans-53" d="M 3425 4513 
L 3425 3897 
Q 3066 4069 2747 4153 
Q 2428 4238 2131 4238 
Q 1616 4238 1336 4038 
Q 1056 3838 1056 3469 
Q 1056 3159 1242 3001 
Q 1428 2844 1947 2747 
L 2328 2669 
Q 3034 2534 3370 2195 
Q 3706 1856 3706 1288 
Q 3706 609 3251 259 
Q 2797 -91 1919 -91 
Q 1588 -91 1214 -16 
Q 841 59 441 206 
L 441 856 
Q 825 641 1194 531 
Q 1563 422 1919 422 
Q 2459 422 2753 634 
Q 3047 847 3047 1241 
Q 3047 1584 2836 1778 
Q 2625 1972 2144 2069 
L 1759 2144 
Q 1053 2284 737 2584 
Q 422 2884 422 3419 
Q 422 4038 858 4394 
Q 1294 4750 2059 4750 
Q 2388 4750 2728 4690 
Q 3069 4631 3425 4513 
z
" transform="scale(0.015625)"/>
       <path id="DejaVuSans-6d" d="M 3328 2828 
Q 3544 3216 3844 3400 
Q 4144 3584 4550 3584 
Q 5097 3584 5394 3201 
Q 5691 2819 5691 2113 
L 5691 0 
L 5113 0 
L 5113 2094 
Q 5113 2597 4934 2840 
Q 4756 3084 4391 3084 
Q 3944 3084 3684 2787 
Q 3425 2491 3425 1978 
L 3425 0 
L 2847 0 
L 2847 2094 
Q 2847 2600 2669 2842 
Q 2491 3084 2119 3084 
Q 1678 3084 1418 2786 
Q 1159 2488 1159 1978 
L 1159 0 
L 581 0 
L 581 3500 
L 1159 3500 
L 1159 2956 
Q 1356 3278 1631 3431 
Q 1906 3584 2284 3584 
Q 2666 3584 2933 3390 
Q 3200 3197 3328 2828 
z
" transform="scale(0.015625)"/>
       <path id="DejaVuSans-70" d="M 1159 525 
L 1159 -1331 
L 581 -1331 
L 581 3500 
L 1159 3500 
L 1159 2969 
Q 1341 3281 1617 3432 
Q 1894 3584 2278 3584 
Q 2916 3584 3314 3078 
Q 3713 2572 3713 1747 
Q 3713 922 3314 415 
Q 2916 -91 2278 -91 
Q 1894 -91 1617 61 
Q 1341 213 1159 525 
z
M 3116 1747 
Q 3116 2381 2855 2742 
Q 2594 3103 2138 3103 
Q 1681 3103 1420 2742 
Q 1159 2381 1159 1747 
Q 1159 1113 1420 752 
Q 1681 391 2138 391 
Q 2594 391 2855 752 
Q 3116 1113 3116 1747 
z
" transform="scale(0.015625)"/>
      </defs>
      <use xlink:href="#DejaVuSans-53"/>
      <use xlink:href="#DejaVuSans-61" transform="translate(63.476562 0)"/>
      <use xlink:href="#DejaVuSans-6d" transform="translate(124.755859 0)"/>
      <use xlink:href="#DejaVuSans-70" transform="translate(222.167969 0)"/>
      <use xlink:href="#DejaVuSans-6c" transform="translate(285.644531 0)"/>
      <use xlink:href="#DejaVuSans-65" transform="translate(313.427734 0)"/>
      <use xlink:href="#DejaVuSans-20" transform="translate(374.951172 0)"/>
      <use xlink:href="#DejaVuSans-71" transform="translate(406.738281 0)"/>
      <use xlink:href="#DejaVuSans-75" transform="translate(470.214844 0)"/>
      <use xlink:href="#DejaVuSans-61" transform="translate(533.59375 0)"/>
      <use xlink:href="#DejaVuSans-6e" transform="translate(594.873047 0)"/>
      <use xlink:href="#DejaVuSans-74" transform="translate(658.251953 0)"/>
      <use xlink:href="#DejaVuSans-69" transform="translate(697.460938 0)"/>
      <use xlink:href="#DejaVuSans-6c" transform="translate(725.244141 0)"/>
      <use xlink:href="#DejaVuSans-65" transform="translate(753.027344 0)"/>
      <use xlink:href="#DejaVuSans-73" transform="translate(814.550781 0)"/>
     </g>
    </g>
   </g>
   <g id="patch_3">
    <path d="M 70.803438 306.898125 
L 70.803438 22.318125 
" style="fill: none; stroke: #262626; stroke-width: 1.25; stroke-linejoin: miter; stroke-linecap: square"/>
   </g>
   <g id="patch_4">
    <path d="M 442.426387 306.898125 
L 442.426387 22.318125 
" style="fill: none; stroke: #262626; stroke-width: 1.25; stroke-linejoin: miter; stroke-linecap: square"/>
   </g>
   <g id="patch_5">
    <path d="M 70.803438 306.898125 
L 442.426387 306.898125 
" style="fill: none; stroke: #262626; stroke-width: 1.25; stroke-linejoin: miter; stroke-linecap: square"/>
   </g>
   <g id="patch_6">
    <path d="M 70.803438 22.318125 
L 442.426387 22.318125 
" style="fill: none; stroke: #262626; stroke-width: 1.25; stroke-linejoin: miter; stroke-linecap: square"/>
   </g>
   <g id="text_17">
    <!-- pop_size_c1sp1 -->
    <g style="fill: #262626" transform="translate(209.82335 16.318125) scale(0.12 -0.12)">
     <defs>
      <path id="DejaVuSans-5f" d="M 3263 -1063 
L 3263 -1509 
L -63 -1509 
L -63 -1063 
L 3263 -1063 
z
" transform="scale(0.015625)"/>
      <path id="DejaVuSans-7a" d="M 353 3500 
L 3084 3500 
L 3084 2975 
L 922 459 
L 3084 459 
L 3084 0 
L 275 0 
L 275 525 
L 2438 3041 
L 353 3041 
L 353 3500 
z
" transform="scale(0.015625)"/>
      <path id="DejaVuSans-63" d="M 3122 3366 
L 3122 2828 
Q 2878 2963 2633 3030 
Q 2388 3097 2138 3097 
Q 1578 3097 1268 2742 
Q 959 2388 959 1747 
Q 959 1106 1268 751 
Q 1578 397 2138 397 
Q 2388 397 2633 464 
Q 2878 531 3122 666 
L 3122 134 
Q 2881 22 2623 -34 
Q 2366 -91 2075 -91 
Q 1284 -91 818 406 
Q 353 903 353 1747 
Q 353 2603 823 3093 
Q 1294 3584 2113 3584 
Q 2378 3584 2631 3529 
Q 2884 3475 3122 3366 
z
" transform="scale(0.015625)"/>
      <path id="DejaVuSans-31" d="M 794 531 
L 1825 531 
L 1825 4091 
L 703 3866 
L 703 4441 
L 1819 4666 
L 2450 4666 
L 2450 531 
L 3481 531 
L 3481 0 
L 794 0 
L 794 531 
z
" transform="scale(0.015625)"/>
     </defs>
     <use xlink:href="#DejaVuSans-70"/>
     <use xlink:href="#DejaVuSans-6f" transform="translate(63.476562 0)"/>
     <use xlink:href="#DejaVuSans-70" transform="translate(124.658203 0)"/>
     <use xlink:href="#DejaVuSans-5f" transform="translate(188.134766 0)"/>
     <use xlink:href="#DejaVuSans-73" transform="translate(238.134766 0)"/>
     <use xlink:href="#DejaVuSans-69" transform="translate(290.234375 0)"/>
     <use xlink:href="#DejaVuSans-7a" transform="translate(318.017578 0)"/>
     <use xlink:href="#DejaVuSans-65" transform="translate(370.507812 0)"/>
     <use xlink:href="#DejaVuSans-5f" transform="translate(432.03125 0)"/>
     <use xlink:href="#DejaVuSans-63" transform="translate(482.03125 0)"/>
     <use xlink:href="#DejaVuSans-31" transform="translate(537.011719 0)"/>
     <use xlink:href="#DejaVuSans-73" transform="translate(600.634766 0)"/>
     <use xlink:href="#DejaVuSans-70" transform="translate(652.734375 0)"/>
     <use xlink:href="#DejaVuSans-31" transform="translate(716.210938 0)"/>
    </g>
   </g>
   <g id="line2d_16">
    <defs>
     <path id="ma2e7b9d61a" d="M 0 3 
C 0.795609 3 1.55874 2.683901 2.12132 2.12132 
C 2.683901 1.55874 3 0.795609 3 0 
C 3 -0.795609 2.683901 -1.55874 2.12132 -2.12132 
C 1.55874 -2.683901 0.795609 -3 0 -3 
C -0.795609 -3 -1.55874 -2.683901 -2.12132 -2.12132 
C -2.683901 -1.55874 -3 -0.795609 -3 0 
C -3 0.795609 -2.683901 1.55874 -2.12132 2.12132 
C -1.55874 2.683901 -0.795609 3 0 3 
z
" style="stroke: #595959"/>
    </defs>
    <g clip-path="url(#p69e39e0a1b)">
     <use xlink:href="#ma2e7b9d61a" x="73.2984" y="306.898125" style="fill-opacity: 0; stroke: #595959"/>
     <use xlink:href="#ma2e7b9d61a" x="85.5956" y="296.133058" style="fill-opacity: 0; stroke: #595959"/>
     <use xlink:href="#ma2e7b9d61a" x="93.913568" y="289.38305" style="fill-opacity: 0; stroke: #595959"/>
     <use xlink:href="#ma2e7b9d61a" x="100.441737" y="285.164864" style="fill-opacity: 0; stroke: #595959"/>
     <use xlink:href="#ma2e7b9d61a" x="105.926507" y="280.859327" style="fill-opacity: 0; stroke: #595959"/>
     <use xlink:href="#ma2e7b9d61a" x="110.720011" y="277.528696" style="fill-opacity: 0; stroke: #595959"/>
     <use xlink:href="#ma2e7b9d61a" x="115.018705" y="273.610805" style="fill-opacity: 0; stroke: #595959"/>
     <use xlink:href="#ma2e7b9d61a" x="118.9443" y="270.251502" style="fill-opacity: 0; stroke: #595959"/>
     <use xlink:href="#ma2e7b9d61a" x="122.577863" y="268.172194" style="fill-opacity: 0; stroke: #595959"/>
     <use xlink:href="#ma2e7b9d61a" x="125.97634" y="265.629356" style="fill-opacity: 0; stroke: #595959"/>
     <use xlink:href="#ma2e7b9d61a" x="129.181402" y="262.653259" style="fill-opacity: 0; stroke: #595959"/>
     <use xlink:href="#ma2e7b9d61a" x="132.224551" y="260.141589" style="fill-opacity: 0; stroke: #595959"/>
     <use xlink:href="#ma2e7b9d61a" x="135.130237" y="257.948464" style="fill-opacity: 0; stroke: #595959"/>
     <use xlink:href="#ma2e7b9d61a" x="137.917865" y="256.173474" style="fill-opacity: 0; stroke: #595959"/>
     <use xlink:href="#ma2e7b9d61a" x="140.603119" y="254.14118" style="fill-opacity: 0; stroke: #595959"/>
     <use xlink:href="#ma2e7b9d61a" x="143.198888" y="252.302774" style="fill-opacity: 0; stroke: #595959"/>
     <use xlink:href="#ma2e7b9d61a" x="145.715909" y="250.404964" style="fill-opacity: 0; stroke: #595959"/>
     <use xlink:href="#ma2e7b9d61a" x="148.163238" y="248.564182" style="fill-opacity: 0; stroke: #595959"/>
     <use xlink:href="#ma2e7b9d61a" x="150.5486" y="246.582199" style="fill-opacity: 0; stroke: #595959"/>
     <use xlink:href="#ma2e7b9d61a" x="152.878647" y="244.682757" style="fill-opacity: 0; stroke: #595959"/>
     <use xlink:href="#ma2e7b9d61a" x="155.159163" y="242.662359" style="fill-opacity: 0; stroke: #595959"/>
     <use xlink:href="#ma2e7b9d61a" x="157.395212" y="241.153546" style="fill-opacity: 0; stroke: #595959"/>
     <use xlink:href="#ma2e7b9d61a" x="159.591272" y="239.314733" style="fill-opacity: 0; stroke: #595959"/>
     <use xlink:href="#ma2e7b9d61a" x="161.751319" y="237.612673" style="fill-opacity: 0; stroke: #595959"/>
     <use xlink:href="#ma2e7b9d61a" x="163.878918" y="235.795753" style="fill-opacity: 0; stroke: #595959"/>
     <use xlink:href="#ma2e7b9d61a" x="165.977279" y="233.890395" style="fill-opacity: 0; stroke: #595959"/>
     <use xlink:href="#ma2e7b9d61a" x="168.04931" y="232.301528" style="fill-opacity: 0; stroke: #595959"/>
     <use xlink:href="#ma2e7b9d61a" x="170.097664" y="230.706417" style="fill-opacity: 0; stroke: #595959"/>
     <use xlink:href="#ma2e7b9d61a" x="172.124772" y="229.416502" style="fill-opacity: 0; stroke: #595959"/>
     <use xlink:href="#ma2e7b9d61a" x="174.132876" y="227.749142" style="fill-opacity: 0; stroke: #595959"/>
     <use xlink:href="#ma2e7b9d61a" x="176.124051" y="226.355605" style="fill-opacity: 0; stroke: #595959"/>
     <use xlink:href="#ma2e7b9d61a" x="178.100231" y="224.827057" style="fill-opacity: 0; stroke: #595959"/>
     <use xlink:href="#ma2e7b9d61a" x="180.063226" y="223.306924" style="fill-opacity: 0; stroke: #595959"/>
     <use xlink:href="#ma2e7b9d61a" x="182.014738" y="221.641449" style="fill-opacity: 0; stroke: #595959"/>
     <use xlink:href="#ma2e7b9d61a" x="183.956376" y="220.367291" style="fill-opacity: 0; stroke: #595959"/>
     <use xlink:href="#ma2e7b9d61a" x="185.889669" y="218.707208" style="fill-opacity: 0; stroke: #595959"/>
     <use xlink:href="#ma2e7b9d61a" x="187.816075" y="217.212718" style="fill-opacity: 0; stroke: #595959"/>
     <use xlink:href="#ma2e7b9d61a" x="189.736995" y="215.850483" style="fill-opacity: 0; stroke: #595959"/>
     <use xlink:href="#ma2e7b9d61a" x="191.653776" y="214.223139" style="fill-opacity: 0; stroke: #595959"/>
     <use xlink:href="#ma2e7b9d61a" x="193.567725" y="212.85648" style="fill-opacity: 0; stroke: #595959"/>
     <use xlink:href="#ma2e7b9d61a" x="195.480112" y="211.31121" style="fill-opacity: 0; stroke: #595959"/>
     <use xlink:href="#ma2e7b9d61a" x="197.39218" y="209.795767" style="fill-opacity: 0; stroke: #595959"/>
     <use xlink:href="#ma2e7b9d61a" x="199.305147" y="208.206853" style="fill-opacity: 0; stroke: #595959"/>
     <use xlink:href="#ma2e7b9d61a" x="201.220218" y="206.816037" style="fill-opacity: 0; stroke: #595959"/>
     <use xlink:href="#ma2e7b9d61a" x="203.138585" y="205.469955" style="fill-opacity: 0; stroke: #595959"/>
     <use xlink:href="#ma2e7b9d61a" x="205.061436" y="203.846333" style="fill-opacity: 0; stroke: #595959"/>
     <use xlink:href="#ma2e7b9d61a" x="206.989957" y="202.354574" style="fill-opacity: 0; stroke: #595959"/>
     <use xlink:href="#ma2e7b9d61a" x="208.925343" y="200.790835" style="fill-opacity: 0; stroke: #595959"/>
     <use xlink:href="#ma2e7b9d61a" x="210.868795" y="199.021279" style="fill-opacity: 0; stroke: #595959"/>
     <use xlink:href="#ma2e7b9d61a" x="212.821533" y="197.43143" style="fill-opacity: 0; stroke: #595959"/>
     <use xlink:href="#ma2e7b9d61a" x="214.784797" y="196.076495" style="fill-opacity: 0; stroke: #595959"/>
     <use xlink:href="#ma2e7b9d61a" x="216.759852" y="194.433475" style="fill-opacity: 0; stroke: #595959"/>
     <use xlink:href="#ma2e7b9d61a" x="218.747997" y="193.027843" style="fill-opacity: 0; stroke: #595959"/>
     <use xlink:href="#ma2e7b9d61a" x="220.750568" y="191.600309" style="fill-opacity: 0; stroke: #595959"/>
     <use xlink:href="#ma2e7b9d61a" x="222.768946" y="190.068088" style="fill-opacity: 0; stroke: #595959"/>
     <use xlink:href="#ma2e7b9d61a" x="224.804562" y="188.485994" style="fill-opacity: 0; stroke: #595959"/>
     <use xlink:href="#ma2e7b9d61a" x="226.858906" y="187.026472" style="fill-opacity: 0; stroke: #595959"/>
     <use xlink:href="#ma2e7b9d61a" x="228.933534" y="185.227894" style="fill-opacity: 0; stroke: #595959"/>
     <use xlink:href="#ma2e7b9d61a" x="231.030078" y="183.62642" style="fill-opacity: 0; stroke: #595959"/>
     <use xlink:href="#ma2e7b9d61a" x="233.150252" y="182.111551" style="fill-opacity: 0; stroke: #595959"/>
     <use xlink:href="#ma2e7b9d61a" x="235.295866" y="180.395401" style="fill-opacity: 0; stroke: #595959"/>
     <use xlink:href="#ma2e7b9d61a" x="237.468837" y="178.896659" style="fill-opacity: 0; stroke: #595959"/>
     <use xlink:href="#ma2e7b9d61a" x="239.671199" y="177.287552" style="fill-opacity: 0; stroke: #595959"/>
     <use xlink:href="#ma2e7b9d61a" x="241.905123" y="175.451574" style="fill-opacity: 0; stroke: #595959"/>
     <use xlink:href="#ma2e7b9d61a" x="244.172927" y="173.607446" style="fill-opacity: 0; stroke: #595959"/>
     <use xlink:href="#ma2e7b9d61a" x="246.477101" y="171.413753" style="fill-opacity: 0; stroke: #595959"/>
     <use xlink:href="#ma2e7b9d61a" x="248.820324" y="169.76649" style="fill-opacity: 0; stroke: #595959"/>
     <use xlink:href="#ma2e7b9d61a" x="251.205488" y="167.905326" style="fill-opacity: 0; stroke: #595959"/>
     <use xlink:href="#ma2e7b9d61a" x="253.635732" y="165.806928" style="fill-opacity: 0; stroke: #595959"/>
     <use xlink:href="#ma2e7b9d61a" x="256.114467" y="164.024791" style="fill-opacity: 0; stroke: #595959"/>
     <use xlink:href="#ma2e7b9d61a" x="258.64542" y="162.30754" style="fill-opacity: 0; stroke: #595959"/>
     <use xlink:href="#ma2e7b9d61a" x="261.232673" y="160.030824" style="fill-opacity: 0; stroke: #595959"/>
     <use xlink:href="#ma2e7b9d61a" x="263.88072" y="158.137118" style="fill-opacity: 0; stroke: #595959"/>
     <use xlink:href="#ma2e7b9d61a" x="266.594528" y="155.906043" style="fill-opacity: 0; stroke: #595959"/>
     <use xlink:href="#ma2e7b9d61a" x="269.379607" y="153.608648" style="fill-opacity: 0; stroke: #595959"/>
     <use xlink:href="#ma2e7b9d61a" x="272.242104" y="151.576131" style="fill-opacity: 0; stroke: #595959"/>
     <use xlink:href="#ma2e7b9d61a" x="275.188905" y="149.594708" style="fill-opacity: 0; stroke: #595959"/>
     <use xlink:href="#ma2e7b9d61a" x="278.227769" y="147.322233" style="fill-opacity: 0; stroke: #595959"/>
     <use xlink:href="#ma2e7b9d61a" x="281.367485" y="144.752103" style="fill-opacity: 0; stroke: #595959"/>
     <use xlink:href="#ma2e7b9d61a" x="284.618076" y="142.245931" style="fill-opacity: 0; stroke: #595959"/>
     <use xlink:href="#ma2e7b9d61a" x="287.991039" y="139.396605" style="fill-opacity: 0; stroke: #595959"/>
     <use xlink:href="#ma2e7b9d61a" x="291.499668" y="137.089496" style="fill-opacity: 0; stroke: #595959"/>
     <use xlink:href="#ma2e7b9d61a" x="295.159455" y="134.462793" style="fill-opacity: 0; stroke: #595959"/>
     <use xlink:href="#ma2e7b9d61a" x="298.98861" y="131.401692" style="fill-opacity: 0; stroke: #595959"/>
     <use xlink:href="#ma2e7b9d61a" x="303.00876" y="128.610258" style="fill-opacity: 0; stroke: #595959"/>
     <use xlink:href="#ma2e7b9d61a" x="307.245866" y="125.3028" style="fill-opacity: 0; stroke: #595959"/>
     <use xlink:href="#ma2e7b9d61a" x="311.731496" y="122.222072" style="fill-opacity: 0; stroke: #595959"/>
     <use xlink:href="#ma2e7b9d61a" x="316.504581" y="119.139731" style="fill-opacity: 0; stroke: #595959"/>
     <use xlink:href="#ma2e7b9d61a" x="321.613944" y="114.738623" style="fill-opacity: 0; stroke: #595959"/>
     <use xlink:href="#ma2e7b9d61a" x="327.122003" y="110.820529" style="fill-opacity: 0; stroke: #595959"/>
     <use xlink:href="#ma2e7b9d61a" x="333.110416" y="106.140764" style="fill-opacity: 0; stroke: #595959"/>
     <use xlink:href="#ma2e7b9d61a" x="339.689007" y="101.493488" style="fill-opacity: 0; stroke: #595959"/>
     <use xlink:href="#ma2e7b9d61a" x="347.010591" y="96.229489" style="fill-opacity: 0; stroke: #595959"/>
     <use xlink:href="#ma2e7b9d61a" x="355.297144" y="90.250276" style="fill-opacity: 0; stroke: #595959"/>
     <use xlink:href="#ma2e7b9d61a" x="364.889655" y="83.008825" style="fill-opacity: 0; stroke: #595959"/>
     <use xlink:href="#ma2e7b9d61a" x="376.353451" y="74.183609" style="fill-opacity: 0; stroke: #595959"/>
     <use xlink:href="#ma2e7b9d61a" x="390.73538" y="63.370298" style="fill-opacity: 0; stroke: #595959"/>
     <use xlink:href="#ma2e7b9d61a" x="410.350021" y="47.701508" style="fill-opacity: 0; stroke: #595959"/>
     <use xlink:href="#ma2e7b9d61a" x="442.426387" y="26.94632" style="fill-opacity: 0; stroke: #595959"/>
    </g>
   </g>
  </g>
 </g>
 <defs>
  <clipPath id="p69e39e0a1b">
   <rect x="70.803438" y="22.318125" width="371.62295" height="284.58"/>
  </clipPath>
 </defs>
</svg>
