<?xml version="1.0" encoding="utf-8" standalone="no"?>
<!DOCTYPE svg PUBLIC "-//W3C//DTD SVG 1.1//EN"
  "http://www.w3.org/Graphics/SVG/1.1/DTD/svg11.dtd">
<svg xmlns:xlink="http://www.w3.org/1999/xlink" width="450.015938pt" height="349.857813pt" viewBox="0 0 450.015938 349.857813" xmlns="http://www.w3.org/2000/svg" version="1.1">
 <metadata>
  <rdf:RDF xmlns:dc="http://purl.org/dc/elements/1.1/" xmlns:cc="http://creativecommons.org/ns#" xmlns:rdf="http://www.w3.org/1999/02/22-rdf-syntax-ns#">
   <cc:Work>
    <dc:type rdf:resource="http://purl.org/dc/dcmitype/StillImage"/>
    <dc:date>2026-05-15T15:10:59.131471</dc:date>
    <dc:format>image/svg+xml</dc:format>
    <dc:creator>
     <cc:Agent>
      <dc:title>Matplotlib v3.10.9, https://matplotlib.org/</dc:title>
     </cc:Agent>
    </dc:creator>
   </cc:Work>
  </rdf:RDF>
 </metadata>
 <defs>
  <style type="text/css">*{stroke-linejoin: round; stroke-linecap: butt}</style>
 </defs>
 <g id="figure_1">
  <g id="patch_1">
   <path d="M 0 349.857813 
L 450.015938 349.857813 
L 450.015938 0 
L 0 0 
z
" style="fill: #ffffff"/>
  </g>
  <g id="axes_1">
   <g id="patch_2">
    <path d="M 56.805938 306.898125 
L 442.815938 306.898125 
L 442.815938 22.318125 
L 56.805938 22.318125 
z
" style="fill: #ffffff"/>
   </g>
   <g id="line2d_1">
    <path d="M 56.805938 306.898125 
L 442.815937 22.318125 
" clip-path="url(#pf5d97ae036)" style="fill: none; stroke: #b2b2b2; stroke-linecap: round"/>
   </g>
   <g id="matplotlib.axis_1">
    <g id="xtick_1">
     <g id="line2d_2">
      <defs>
       <path id="m07ca3765d1" d="M 0 0 
L 0 6 
" style="stroke: #262626; stroke-width: 1.25"/>
      </defs>
      <g>
       <use xlink:href="#m07ca3765d1" x="101.292553" y="306.898125" style="fill: #262626; stroke: #262626; stroke-width: 1.25"/>
      </g>
     </g>
     <g id="text_1">
      <!-- 0.02 -->
      <g style="fill: #262626" transform="translate(89.046459 324.756406) scale(0.11 -0.11)">
       <defs>
        <path id="DejaVuSans-30" d="M 2034 4250 
Q 1547 4250 1301 3770 
Q 1056 3291 1056 2328 
Q 1056 1369 1301 889 
Q 1547 409 2034 409 
Q 2525 409 2770 889 
Q 3016 1369 3016 2328 
Q 3016 3291 2770 3770 
Q 2525 4250 2034 4250 
z
M 2034 4750 
Q 2819 4750 3233 4129 
Q 3647 3509 3647 2328 
Q 3647 1150 3233 529 
Q 2819 -91 2034 -91 
Q 1250 -91 836 529 
Q 422 1150 422 2328 
Q 422 3509 836 4129 
Q 1250 4750 2034 4750 
z
" transform="scale(0.015625)"/>
        <path id="DejaVuSans-2e" d="M 684 794 
L 1344 794 
L 1344 0 
L 684 0 
L 684 794 
z
" transform="scale(0.015625)"/>
        <path id="DejaVuSans-32" d="M 1228 531 
L 3431 531 
L 3431 0 
L 469 0 
L 469 531 
Q 828 903 1448 1529 
Q 2069 2156 2228 2338 
Q 2531 2678 2651 2914 
Q 2772 3150 2772 3378 
Q 2772 3750 2511 3984 
Q 2250 4219 1831 4219 
Q 1534 4219 1204 4116 
Q 875 4013 500 3803 
L 500 4441 
Q 881 4594 1212 4672 
Q 1544 4750 1819 4750 
Q 2544 4750 2975 4387 
Q 3406 4025 3406 3419 
Q 3406 3131 3298 2873 
Q 3191 2616 2906 2266 
Q 2828 2175 2409 1742 
Q 1991 1309 1228 531 
z
" transform="scale(0.015625)"/>
       </defs>
       <use xlink:href="#DejaVuSans-30"/>
       <use xlink:href="#DejaVuSans-2e" transform="translate(63.623047 0)"/>
       <use xlink:href="#DejaVuSans-30" transform="translate(95.410156 0)"/>
       <use xlink:href="#DejaVuSans-32" transform="translate(159.033203 0)"/>
      </g>
     </g>
    </g>
    <g id="xtick_2">
     <g id="line2d_3">
      <g>
       <use xlink:href="#m07ca3765d1" x="146.353087" y="306.898125" style="fill: #262626; stroke: #262626; stroke-width: 1.25"/>
      </g>
     </g>
     <g id="text_2">
      <!-- 0.04 -->
      <g style="fill: #262626" transform="translate(134.106993 324.756406) scale(0.11 -0.11)">
       <defs>
        <path id="DejaVuSans-34" d="M 2419 4116 
L 825 1625 
L 2419 1625 
L 2419 4116 
z
M 2253 4666 
L 3047 4666 
L 3047 1625 
L 3713 1625 
L 3713 1100 
L 3047 1100 
L 3047 0 
L 2419 0 
L 2419 1100 
L 313 1100 
L 313 1709 
L 2253 4666 
z
" transform="scale(0.015625)"/>
       </defs>
       <use xlink:href="#DejaVuSans-30"/>
       <use xlink:href="#DejaVuSans-2e" transform="translate(63.623047 0)"/>
       <use xlink:href="#DejaVuSans-30" transform="translate(95.410156 0)"/>
       <use xlink:href="#DejaVuSans-34" transform="translate(159.033203 0)"/>
      </g>
     </g>
    </g>
    <g id="xtick_3">
     <g id="line2d_4">
      <g>
       <use xlink:href="#m07ca3765d1" x="191.413621" y="306.898125" style="fill: #262626; stroke: #262626; stroke-width: 1.25"/>
      </g>
     </g>
     <g id="text_3">
      <!-- 0.06 -->
      <g style="fill: #262626" transform="translate(179.167527 324.756406) scale(0.11 -0.11)">
       <defs>
        <path id="DejaVuSans-36" d="M 2113 2584 
Q 1688 2584 1439 2293 
Q 1191 2003 1191 1497 
Q 1191 994 1439 701 
Q 1688 409 2113 409 
Q 2538 409 2786 701 
Q 3034 994 3034 1497 
Q 3034 2003 2786 2293 
Q 2538 2584 2113 2584 
z
M 3366 4563 
L 3366 3988 
Q 3128 4100 2886 4159 
Q 2644 4219 2406 4219 
Q 1781 4219 1451 3797 
Q 1122 3375 1075 2522 
Q 1259 2794 1537 2939 
Q 1816 3084 2150 3084 
Q 2853 3084 3261 2657 
Q 3669 2231 3669 1497 
Q 3669 778 3244 343 
Q 2819 -91 2113 -91 
Q 1303 -91 875 529 
Q 447 1150 447 2328 
Q 447 3434 972 4092 
Q 1497 4750 2381 4750 
Q 2619 4750 2861 4703 
Q 3103 4656 3366 4563 
z
" transform="scale(0.015625)"/>
       </defs>
       <use xlink:href="#DejaVuSans-30"/>
       <use xlink:href="#DejaVuSans-2e" transform="translate(63.623047 0)"/>
       <use xlink:href="#DejaVuSans-30" transform="translate(95.410156 0)"/>
       <use xlink:href="#DejaVuSans-36" transform="translate(159.033203 0)"/>
      </g>
     </g>
    </g>
    <g id="xtick_4">
     <g id="line2d_5">
      <g>
       <use xlink:href="#m07ca3765d1" x="236.474155" y="306.898125" style="fill: #262626; stroke: #262626; stroke-width: 1.25"/>
      </g>
     </g>
     <g id="text_4">
      <!-- 0.08 -->
      <g style="fill: #262626" transform="translate(224.228061 324.756406) scale(0.11 -0.11)">
       <defs>
        <path id="DejaVuSans-38" d="M 2034 2216 
Q 1584 2216 1326 1975 
Q 1069 1734 1069 1313 
Q 1069 891 1326 650 
Q 1584 409 2034 409 
Q 2484 409 2743 651 
Q 3003 894 3003 1313 
Q 3003 1734 2745 1975 
Q 2488 2216 2034 2216 
z
M 1403 2484 
Q 997 2584 770 2862 
Q 544 3141 544 3541 
Q 544 4100 942 4425 
Q 1341 4750 2034 4750 
Q 2731 4750 3128 4425 
Q 3525 4100 3525 3541 
Q 3525 3141 3298 2862 
Q 3072 2584 2669 2484 
Q 3125 2378 3379 2068 
Q 3634 1759 3634 1313 
Q 3634 634 3220 271 
Q 2806 -91 2034 -91 
Q 1263 -91 848 271 
Q 434 634 434 1313 
Q 434 1759 690 2068 
Q 947 2378 1403 2484 
z
M 1172 3481 
Q 1172 3119 1398 2916 
Q 1625 2713 2034 2713 
Q 2441 2713 2670 2916 
Q 2900 3119 2900 3481 
Q 2900 3844 2670 4047 
Q 2441 4250 2034 4250 
Q 1625 4250 1398 4047 
Q 1172 3844 1172 3481 
z
" transform="scale(0.015625)"/>
       </defs>
       <use xlink:href="#DejaVuSans-30"/>
       <use xlink:href="#DejaVuSans-2e" transform="translate(63.623047 0)"/>
       <use xlink:href="#DejaVuSans-30" transform="translate(95.410156 0)"/>
       <use xlink:href="#DejaVuSans-38" transform="translate(159.033203 0)"/>
      </g>
     </g>
    </g>
    <g id="xtick_5">
     <g id="line2d_6">
      <g>
       <use xlink:href="#m07ca3765d1" x="281.534689" y="306.898125" style="fill: #262626; stroke: #262626; stroke-width: 1.25"/>
      </g>
     </g>
     <g id="text_5">
      <!-- 0.10 -->
      <g style="fill: #262626" transform="translate(269.288596 324.756406) scale(0.11 -0.11)">
       <defs>
        <path id="DejaVuSans-31" d="M 794 531 
L 1825 531 
L 1825 4091 
L 703 3866 
L 703 4441 
L 1819 4666 
L 2450 4666 
L 2450 531 
L 3481 531 
L 3481 0 
L 794 0 
L 794 531 
z
" transform="scale(0.015625)"/>
       </defs>
       <use xlink:href="#DejaVuSans-30"/>
       <use xlink:href="#DejaVuSans-2e" transform="translate(63.623047 0)"/>
       <use xlink:href="#DejaVuSans-31" transform="translate(95.410156 0)"/>
       <use xlink:href="#DejaVuSans-30" transform="translate(159.033203 0)"/>
      </g>
     </g>
    </g>
    <g id="xtick_6">
     <g id="line2d_7">
      <g>
       <use xlink:href="#m07ca3765d1" x="326.595223" y="306.898125" style="fill: #262626; stroke: #262626; stroke-width: 1.25"/>
      </g>
     </g>
     <g id="text_6">
      <!-- 0.12 -->
      <g style="fill: #262626" transform="translate(314.34913 324.756406) scale(0.11 -0.11)">
       <use xlink:href="#DejaVuSans-30"/>
       <use xlink:href="#DejaVuSans-2e" transform="translate(63.623047 0)"/>
       <use xlink:href="#DejaVuSans-31" transform="translate(95.410156 0)"/>
       <use xlink:href="#DejaVuSans-32" transform="translate(159.033203 0)"/>
      </g>
     </g>
    </g>
    <g id="xtick_7">
     <g id="line2d_8">
      <g>
       <use xlink:href="#m07ca3765d1" x="371.655758" y="306.898125" style="fill: #262626; stroke: #262626; stroke-width: 1.25"/>
      </g>
     </g>
     <g id="text_7">
      <!-- 0.14 -->
      <g style="fill: #262626" transform="translate(359.409664 324.756406) scale(0.11 -0.11)">
       <use xlink:href="#DejaVuSans-30"/>
       <use xlink:href="#DejaVuSans-2e" transform="translate(63.623047 0)"/>
       <use xlink:href="#DejaVuSans-31" transform="translate(95.410156 0)"/>
       <use xlink:href="#DejaVuSans-34" transform="translate(159.033203 0)"/>
      </g>
     </g>
    </g>
    <g id="xtick_8">
     <g id="line2d_9">
      <g>
       <use xlink:href="#m07ca3765d1" x="416.716292" y="306.898125" style="fill: #262626; stroke: #262626; stroke-width: 1.25"/>
      </g>
     </g>
     <g id="text_8">
      <!-- 0.16 -->
      <g style="fill: #262626" transform="translate(404.470198 324.756406) scale(0.11 -0.11)">
       <use xlink:href="#DejaVuSans-30"/>
       <use xlink:href="#DejaVuSans-2e" transform="translate(63.623047 0)"/>
       <use xlink:href="#DejaVuSans-31" transform="translate(95.410156 0)"/>
       <use xlink:href="#DejaVuSans-36" transform="translate(159.033203 0)"/>
      </g>
     </g>
    </g>
    <g id="text_9">
     <!-- Model quantiles -->
     <g style="fill: #262626" transform="translate(202.29375 340.162188) scale(0.12 -0.12)">
      <defs>
       <path id="DejaVuSans-4d" d="M 628 4666 
L 1569 4666 
L 2759 1491 
L 3956 4666 
L 4897 4666 
L 4897 0 
L 4281 0 
L 4281 4097 
L 3078 897 
L 2444 897 
L 1241 4097 
L 1241 0 
L 628 0 
L 628 4666 
z
" transform="scale(0.015625)"/>
       <path id="DejaVuSans-6f" d="M 1959 3097 
Q 1497 3097 1228 2736 
Q 959 2375 959 1747 
Q 959 1119 1226 758 
Q 1494 397 1959 397 
Q 2419 397 2687 759 
Q 2956 1122 2956 1747 
Q 2956 2369 2687 2733 
Q 2419 3097 1959 3097 
z
M 1959 3584 
Q 2709 3584 3137 3096 
Q 3566 2609 3566 1747 
Q 3566 888 3137 398 
Q 2709 -91 1959 -91 
Q 1206 -91 779 398 
Q 353 888 353 1747 
Q 353 2609 779 3096 
Q 1206 3584 1959 3584 
z
" transform="scale(0.015625)"/>
       <path id="DejaVuSans-64" d="M 2906 2969 
L 2906 4863 
L 3481 4863 
L 3481 0 
L 2906 0 
L 2906 525 
Q 2725 213 2448 61 
Q 2172 -91 1784 -91 
Q 1150 -91 751 415 
Q 353 922 353 1747 
Q 353 2572 751 3078 
Q 1150 3584 1784 3584 
Q 2172 3584 2448 3432 
Q 2725 3281 2906 2969 
z
M 947 1747 
Q 947 1113 1208 752 
Q 1469 391 1925 391 
Q 2381 391 2643 752 
Q 2906 1113 2906 1747 
Q 2906 2381 2643 2742 
Q 2381 3103 1925 3103 
Q 1469 3103 1208 2742 
Q 947 2381 947 1747 
z
" transform="scale(0.015625)"/>
       <path id="DejaVuSans-65" d="M 3597 1894 
L 3597 1613 
L 953 1613 
Q 991 1019 1311 708 
Q 1631 397 2203 397 
Q 2534 397 2845 478 
Q 3156 559 3463 722 
L 3463 178 
Q 3153 47 2828 -22 
Q 2503 -91 2169 -91 
Q 1331 -91 842 396 
Q 353 884 353 1716 
Q 353 2575 817 3079 
Q 1281 3584 2069 3584 
Q 2775 3584 3186 3129 
Q 3597 2675 3597 1894 
z
M 3022 2063 
Q 3016 2534 2758 2815 
Q 2500 3097 2075 3097 
Q 1594 3097 1305 2825 
Q 1016 2553 972 2059 
L 3022 2063 
z
" transform="scale(0.015625)"/>
       <path id="DejaVuSans-6c" d="M 603 4863 
L 1178 4863 
L 1178 0 
L 603 0 
L 603 4863 
z
" transform="scale(0.015625)"/>
       <path id="DejaVuSans-20" transform="scale(0.015625)"/>
       <path id="DejaVuSans-71" d="M 947 1747 
Q 947 1113 1208 752 
Q 1469 391 1925 391 
Q 2381 391 2643 752 
Q 2906 1113 2906 1747 
Q 2906 2381 2643 2742 
Q 2381 3103 1925 3103 
Q 1469 3103 1208 2742 
Q 947 2381 947 1747 
z
M 2906 525 
Q 2725 213 2448 61 
Q 2172 -91 1784 -91 
Q 1150 -91 751 415 
Q 353 922 353 1747 
Q 353 2572 751 3078 
Q 1150 3584 1784 3584 
Q 2172 3584 2448 3432 
Q 2725 3281 2906 2969 
L 2906 3500 
L 3481 3500 
L 3481 -1331 
L 2906 -1331 
L 2906 525 
z
" transform="scale(0.015625)"/>
       <path id="DejaVuSans-75" d="M 544 1381 
L 544 3500 
L 1119 3500 
L 1119 1403 
Q 1119 906 1312 657 
Q 1506 409 1894 409 
Q 2359 409 2629 706 
Q 2900 1003 2900 1516 
L 2900 3500 
L 3475 3500 
L 3475 0 
L 2900 0 
L 2900 538 
Q 2691 219 2414 64 
Q 2138 -91 1772 -91 
Q 1169 -91 856 284 
Q 544 659 544 1381 
z
M 1991 3584 
L 1991 3584 
z
" transform="scale(0.015625)"/>
       <path id="DejaVuSans-61" d="M 2194 1759 
Q 1497 1759 1228 1600 
Q 959 1441 959 1056 
Q 959 750 1161 570 
Q 1363 391 1709 391 
Q 2188 391 2477 730 
Q 2766 1069 2766 1631 
L 2766 1759 
L 2194 1759 
z
M 3341 1997 
L 3341 0 
L 2766 0 
L 2766 531 
Q 2569 213 2275 61 
Q 1981 -91 1556 -91 
Q 1019 -91 701 211 
Q 384 513 384 1019 
Q 384 1609 779 1909 
Q 1175 2209 1959 2209 
L 2766 2209 
L 2766 2266 
Q 2766 2663 2505 2880 
Q 2244 3097 1772 3097 
Q 1472 3097 1187 3025 
Q 903 2953 641 2809 
L 641 3341 
Q 956 3463 1253 3523 
Q 1550 3584 1831 3584 
Q 2591 3584 2966 3190 
Q 3341 2797 3341 1997 
z
" transform="scale(0.015625)"/>
       <path id="DejaVuSans-6e" d="M 3513 2113 
L 3513 0 
L 2938 0 
L 2938 2094 
Q 2938 2591 2744 2837 
Q 2550 3084 2163 3084 
Q 1697 3084 1428 2787 
Q 1159 2491 1159 1978 
L 1159 0 
L 581 0 
L 581 3500 
L 1159 3500 
L 1159 2956 
Q 1366 3272 1645 3428 
Q 1925 3584 2291 3584 
Q 2894 3584 3203 3211 
Q 3513 2838 3513 2113 
z
" transform="scale(0.015625)"/>
       <path id="DejaVuSans-74" d="M 1172 4494 
L 1172 3500 
L 2356 3500 
L 2356 3053 
L 1172 3053 
L 1172 1153 
Q 1172 725 1289 603 
Q 1406 481 1766 481 
L 2356 481 
L 2356 0 
L 1766 0 
Q 1100 0 847 248 
Q 594 497 594 1153 
L 594 3053 
L 172 3053 
L 172 3500 
L 594 3500 
L 594 4494 
L 1172 4494 
z
" transform="scale(0.015625)"/>
       <path id="DejaVuSans-69" d="M 603 3500 
L 1178 3500 
L 1178 0 
L 603 0 
L 603 3500 
z
M 603 4863 
L 1178 4863 
L 1178 4134 
L 603 4134 
L 603 4863 
z
" transform="scale(0.015625)"/>
       <path id="DejaVuSans-73" d="M 2834 3397 
L 2834 2853 
Q 2591 2978 2328 3040 
Q 2066 3103 1784 3103 
Q 1356 3103 1142 2972 
Q 928 2841 928 2578 
Q 928 2378 1081 2264 
Q 1234 2150 1697 2047 
L 1894 2003 
Q 2506 1872 2764 1633 
Q 3022 1394 3022 966 
Q 3022 478 2636 193 
Q 2250 -91 1575 -91 
Q 1294 -91 989 -36 
Q 684 19 347 128 
L 347 722 
Q 666 556 975 473 
Q 1284 391 1588 391 
Q 1994 391 2212 530 
Q 2431 669 2431 922 
Q 2431 1156 2273 1281 
Q 2116 1406 1581 1522 
L 1381 1569 
Q 847 1681 609 1914 
Q 372 2147 372 2553 
Q 372 3047 722 3315 
Q 1072 3584 1716 3584 
Q 2034 3584 2315 3537 
Q 2597 3491 2834 3397 
z
" transform="scale(0.015625)"/>
      </defs>
      <use xlink:href="#DejaVuSans-4d"/>
      <use xlink:href="#DejaVuSans-6f" transform="translate(86.279297 0)"/>
      <use xlink:href="#DejaVuSans-64" transform="translate(147.460938 0)"/>
      <use xlink:href="#DejaVuSans-65" transform="translate(210.9375 0)"/>
      <use xlink:href="#DejaVuSans-6c" transform="translate(272.460938 0)"/>
      <use xlink:href="#DejaVuSans-20" transform="translate(300.244141 0)"/>
      <use xlink:href="#DejaVuSans-71" transform="translate(332.03125 0)"/>
      <use xlink:href="#DejaVuSans-75" transform="translate(395.507812 0)"/>
      <use xlink:href="#DejaVuSans-61" transform="translate(458.886719 0)"/>
      <use xlink:href="#DejaVuSans-6e" transform="translate(520.166016 0)"/>
      <use xlink:href="#DejaVuSans-74" transform="translate(583.544922 0)"/>
      <use xlink:href="#DejaVuSans-69" transform="translate(622.753906 0)"/>
      <use xlink:href="#DejaVuSans-6c" transform="translate(650.537109 0)"/>
      <use xlink:href="#DejaVuSans-65" transform="translate(678.320312 0)"/>
      <use xlink:href="#DejaVuSans-73" transform="translate(739.84375 0)"/>
     </g>
    </g>
   </g>
   <g id="matplotlib.axis_2">
    <g id="ytick_1">
     <g id="line2d_10">
      <defs>
       <path id="m519666cc80" d="M 0 0 
L -6 0 
" style="stroke: #262626; stroke-width: 1.25"/>
      </defs>
      <g>
       <use xlink:href="#m519666cc80" x="56.805938" y="274.101045" style="fill: #262626; stroke: #262626; stroke-width: 1.25"/>
      </g>
     </g>
     <g id="text_10">
      <!-- 0.02 -->
      <g style="fill: #262626" transform="translate(22.81375 278.280185) scale(0.11 -0.11)">
       <use xlink:href="#DejaVuSans-30"/>
       <use xlink:href="#DejaVuSans-2e" transform="translate(63.623047 0)"/>
       <use xlink:href="#DejaVuSans-30" transform="translate(95.410156 0)"/>
       <use xlink:href="#DejaVuSans-32" transform="translate(159.033203 0)"/>
      </g>
     </g>
    </g>
    <g id="ytick_2">
     <g id="line2d_11">
      <g>
       <use xlink:href="#m519666cc80" x="56.805938" y="240.880851" style="fill: #262626; stroke: #262626; stroke-width: 1.25"/>
      </g>
     </g>
     <g id="text_11">
      <!-- 0.04 -->
      <g style="fill: #262626" transform="translate(22.81375 245.059992) scale(0.11 -0.11)">
       <use xlink:href="#DejaVuSans-30"/>
       <use xlink:href="#DejaVuSans-2e" transform="translate(63.623047 0)"/>
       <use xlink:href="#DejaVuSans-30" transform="translate(95.410156 0)"/>
       <use xlink:href="#DejaVuSans-34" transform="translate(159.033203 0)"/>
      </g>
     </g>
    </g>
    <g id="ytick_3">
     <g id="line2d_12">
      <g>
       <use xlink:href="#m519666cc80" x="56.805938" y="207.660658" style="fill: #262626; stroke: #262626; stroke-width: 1.25"/>
      </g>
     </g>
     <g id="text_12">
      <!-- 0.06 -->
      <g style="fill: #262626" transform="translate(22.81375 211.839799) scale(0.11 -0.11)">
       <use xlink:href="#DejaVuSans-30"/>
       <use xlink:href="#DejaVuSans-2e" transform="translate(63.623047 0)"/>
       <use xlink:href="#DejaVuSans-30" transform="translate(95.410156 0)"/>
       <use xlink:href="#DejaVuSans-36" transform="translate(159.033203 0)"/>
      </g>
     </g>
    </g>
    <g id="ytick_4">
     <g id="line2d_13">
      <g>
       <use xlink:href="#m519666cc80" x="56.805938" y="174.440465" style="fill: #262626; stroke: #262626; stroke-width: 1.25"/>
      </g>
     </g>
     <g id="text_13">
      <!-- 0.08 -->
      <g style="fill: #262626" transform="translate(22.81375 178.619606) scale(0.11 -0.11)">
       <use xlink:href="#DejaVuSans-30"/>
       <use xlink:href="#DejaVuSans-2e" transform="translate(63.623047 0)"/>
       <use xlink:href="#DejaVuSans-30" transform="translate(95.410156 0)"/>
       <use xlink:href="#DejaVuSans-38" transform="translate(159.033203 0)"/>
      </g>
     </g>
    </g>
    <g id="ytick_5">
     <g id="line2d_14">
      <g>
       <use xlink:href="#m519666cc80" x="56.805938" y="141.220272" style="fill: #262626; stroke: #262626; stroke-width: 1.25"/>
      </g>
     </g>
     <g id="text_14">
      <!-- 0.10 -->
      <g style="fill: #262626" transform="translate(22.81375 145.399412) scale(0.11 -0.11)">
       <use xlink:href="#DejaVuSans-30"/>
       <use xlink:href="#DejaVuSans-2e" transform="translate(63.623047 0)"/>
       <use xlink:href="#DejaVuSans-31" transform="translate(95.410156 0)"/>
       <use xlink:href="#DejaVuSans-30" transform="translate(159.033203 0)"/>
      </g>
     </g>
    </g>
    <g id="ytick_6">
     <g id="line2d_15">
      <g>
       <use xlink:href="#m519666cc80" x="56.805938" y="108.000078" style="fill: #262626; stroke: #262626; stroke-width: 1.25"/>
      </g>
     </g>
     <g id="text_15">
      <!-- 0.12 -->
      <g style="fill: #262626" transform="translate(22.81375 112.179219) scale(0.11 -0.11)">
       <use xlink:href="#DejaVuSans-30"/>
       <use xlink:href="#DejaVuSans-2e" transform="translate(63.623047 0)"/>
       <use xlink:href="#DejaVuSans-31" transform="translate(95.410156 0)"/>
       <use xlink:href="#DejaVuSans-32" transform="translate(159.033203 0)"/>
      </g>
     </g>
    </g>
    <g id="ytick_7">
     <g id="line2d_16">
      <g>
       <use xlink:href="#m519666cc80" x="56.805938" y="74.779885" style="fill: #262626; stroke: #262626; stroke-width: 1.25"/>
      </g>
     </g>
     <g id="text_16">
      <!-- 0.14 -->
      <g style="fill: #262626" transform="translate(22.81375 78.959026) scale(0.11 -0.11)">
       <use xlink:href="#DejaVuSans-30"/>
       <use xlink:href="#DejaVuSans-2e" transform="translate(63.623047 0)"/>
       <use xlink:href="#DejaVuSans-31" transform="translate(95.410156 0)"/>
       <use xlink:href="#DejaVuSans-34" transform="translate(159.033203 0)"/>
      </g>
     </g>
    </g>
    <g id="ytick_8">
     <g id="line2d_17">
      <g>
       <use xlink:href="#m519666cc80" x="56.805938" y="41.559692" style="fill: #262626; stroke: #262626; stroke-width: 1.25"/>
      </g>
     </g>
     <g id="text_17">
      <!-- 0.16 -->
      <g style="fill: #262626" transform="translate(22.81375 45.738832) scale(0.11 -0.11)">
       <use xlink:href="#DejaVuSans-30"/>
       <use xlink:href="#DejaVuSans-2e" transform="translate(63.623047 0)"/>
       <use xlink:href="#DejaVuSans-31" transform="translate(95.410156 0)"/>
       <use xlink:href="#DejaVuSans-36" transform="translate(159.033203 0)"/>
      </g>
     </g>
    </g>
    <g id="text_18">
     <!-- Sample quantiles -->
     <g style="fill: #262626" transform="translate(16.318125 216.6075) rotate(-90) scale(0.12 -0.12)">
      <defs>
       <path id="DejaVuSans-53" d="M 3425 4513 
L 3425 3897 
Q 3066 4069 2747 4153 
Q 2428 4238 2131 4238 
Q 1616 4238 1336 4038 
Q 1056 3838 1056 3469 
Q 1056 3159 1242 3001 
Q 1428 2844 1947 2747 
L 2328 2669 
Q 3034 2534 3370 2195 
Q 3706 1856 3706 1288 
Q 3706 609 3251 259 
Q 2797 -91 1919 -91 
Q 1588 -91 1214 -16 
Q 841 59 441 206 
L 441 856 
Q 825 641 1194 531 
Q 1563 422 1919 422 
Q 2459 422 2753 634 
Q 3047 847 3047 1241 
Q 3047 1584 2836 1778 
Q 2625 1972 2144 2069 
L 1759 2144 
Q 1053 2284 737 2584 
Q 422 2884 422 3419 
Q 422 4038 858 4394 
Q 1294 4750 2059 4750 
Q 2388 4750 2728 4690 
Q 3069 4631 3425 4513 
z
" transform="scale(0.015625)"/>
       <path id="DejaVuSans-6d" d="M 3328 2828 
Q 3544 3216 3844 3400 
Q 4144 3584 4550 3584 
Q 5097 3584 5394 3201 
Q 5691 2819 5691 2113 
L 5691 0 
L 5113 0 
L 5113 2094 
Q 5113 2597 4934 2840 
Q 4756 3084 4391 3084 
Q 3944 3084 3684 2787 
Q 3425 2491 3425 1978 
L 3425 0 
L 2847 0 
L 2847 2094 
Q 2847 2600 2669 2842 
Q 2491 3084 2119 3084 
Q 1678 3084 1418 2786 
Q 1159 2488 1159 1978 
L 1159 0 
L 581 0 
L 581 3500 
L 1159 3500 
L 1159 2956 
Q 1356 3278 1631 3431 
Q 1906 3584 2284 3584 
Q 2666 3584 2933 3390 
Q 3200 3197 3328 2828 
z
" transform="scale(0.015625)"/>
       <path id="DejaVuSans-70" d="M 1159 525 
L 1159 -1331 
L 581 -1331 
L 581 3500 
L 1159 3500 
L 1159 2969 
Q 1341 3281 1617 3432 
Q 1894 3584 2278 3584 
Q 2916 3584 3314 3078 
Q 3713 2572 3713 1747 
Q 3713 922 3314 415 
Q 2916 -91 2278 -91 
Q 1894 -91 1617 61 
Q 1341 213 1159 525 
z
M 3116 1747 
Q 3116 2381 2855 2742 
Q 2594 3103 2138 3103 
Q 1681 3103 1420 2742 
Q 1159 2381 1159 1747 
Q 1159 1113 1420 752 
Q 1681 391 2138 391 
Q 2594 391 2855 752 
Q 3116 1113 3116 1747 
z
" transform="scale(0.015625)"/>
      </defs>
      <use xlink:href="#DejaVuSans-53"/>
      <use xlink:href="#DejaVuSans-61" transform="translate(63.476562 0)"/>
      <use xlink:href="#DejaVuSans-6d" transform="translate(124.755859 0)"/>
      <use xlink:href="#DejaVuSans-70" transform="translate(222.167969 0)"/>
      <use xlink:href="#DejaVuSans-6c" transform="translate(285.644531 0)"/>
      <use xlink:href="#DejaVuSans-65" transform="translate(313.427734 0)"/>
      <use xlink:href="#DejaVuSans-20" transform="translate(374.951172 0)"/>
      <use xlink:href="#DejaVuSans-71" transform="translate(406.738281 0)"/>
      <use xlink:href="#DejaVuSans-75" transform="translate(470.214844 0)"/>
      <use xlink:href="#DejaVuSans-61" transform="translate(533.59375 0)"/>
      <use xlink:href="#DejaVuSans-6e" transform="translate(594.873047 0)"/>
      <use xlink:href="#DejaVuSans-74" transform="translate(658.251953 0)"/>
      <use xlink:href="#DejaVuSans-69" transform="translate(697.460938 0)"/>
      <use xlink:href="#DejaVuSans-6c" transform="translate(725.244141 0)"/>
      <use xlink:href="#DejaVuSans-65" transform="translate(753.027344 0)"/>
      <use xlink:href="#DejaVuSans-73" transform="translate(814.550781 0)"/>
     </g>
    </g>
   </g>
   <g id="patch_3">
    <path d="M 56.805938 306.898125 
L 56.805938 22.318125 
" style="fill: none; stroke: #262626; stroke-width: 1.25; stroke-linejoin: miter; stroke-linecap: square"/>
   </g>
   <g id="patch_4">
    <path d="M 442.815938 306.898125 
L 442.815938 22.318125 
" style="fill: none; stroke: #262626; stroke-width: 1.25; stroke-linejoin: miter; stroke-linecap: square"/>
   </g>
   <g id="patch_5">
    <path d="M 56.805938 306.898125 
L 442.815937 306.898125 
" style="fill: none; stroke: #262626; stroke-width: 1.25; stroke-linejoin: miter; stroke-linecap: square"/>
   </g>
   <g id="patch_6">
    <path d="M 56.805938 22.318125 
L 442.815937 22.318125 
" style="fill: none; stroke: #262626; stroke-width: 1.25; stroke-linejoin: miter; stroke-linecap: square"/>
   </g>
   <g id="text_19">
    <!-- root_height_c1sp1 -->
    <g style="fill: #262626" transform="translate(194.790937 16.318125) scale(0.12 -0.12)">
     <defs>
      <path id="DejaVuSans-72" d="M 2631 2963 
Q 2534 3019 2420 3045 
Q 2306 3072 2169 3072 
Q 1681 3072 1420 2755 
Q 1159 2438 1159 1844 
L 1159 0 
L 581 0 
L 581 3500 
L 1159 3500 
L 1159 2956 
Q 1341 3275 1631 3429 
Q 1922 3584 2338 3584 
Q 2397 3584 2469 3576 
Q 2541 3569 2628 3553 
L 2631 2963 
z
" transform="scale(0.015625)"/>
      <path id="DejaVuSans-5f" d="M 3263 -1063 
L 3263 -1509 
L -63 -1509 
L -63 -1063 
L 3263 -1063 
z
" transform="scale(0.015625)"/>
      <path id="DejaVuSans-68" d="M 3513 2113 
L 3513 0 
L 2938 0 
L 2938 2094 
Q 2938 2591 2744 2837 
Q 2550 3084 2163 3084 
Q 1697 3084 1428 2787 
Q 1159 2491 1159 1978 
L 1159 0 
L 581 0 
L 581 4863 
L 1159 4863 
L 1159 2956 
Q 1366 3272 1645 3428 
Q 1925 3584 2291 3584 
Q 2894 3584 3203 3211 
Q 3513 2838 3513 2113 
z
" transform="scale(0.015625)"/>
      <path id="DejaVuSans-67" d="M 2906 1791 
Q 2906 2416 2648 2759 
Q 2391 3103 1925 3103 
Q 1463 3103 1205 2759 
Q 947 2416 947 1791 
Q 947 1169 1205 825 
Q 1463 481 1925 481 
Q 2391 481 2648 825 
Q 2906 1169 2906 1791 
z
M 3481 434 
Q 3481 -459 3084 -895 
Q 2688 -1331 1869 -1331 
Q 1566 -1331 1297 -1286 
Q 1028 -1241 775 -1147 
L 775 -588 
Q 1028 -725 1275 -790 
Q 1522 -856 1778 -856 
Q 2344 -856 2625 -561 
Q 2906 -266 2906 331 
L 2906 616 
Q 2728 306 2450 153 
Q 2172 0 1784 0 
Q 1141 0 747 490 
Q 353 981 353 1791 
Q 353 2603 747 3093 
Q 1141 3584 1784 3584 
Q 2172 3584 2450 3431 
Q 2728 3278 2906 2969 
L 2906 3500 
L 3481 3500 
L 3481 434 
z
" transform="scale(0.015625)"/>
      <path id="DejaVuSans-63" d="M 3122 3366 
L 3122 2828 
Q 2878 2963 2633 3030 
Q 2388 3097 2138 3097 
Q 1578 3097 1268 2742 
Q 959 2388 959 1747 
Q 959 1106 1268 751 
Q 1578 397 2138 397 
Q 2388 397 2633 464 
Q 2878 531 3122 666 
L 3122 134 
Q 2881 22 2623 -34 
Q 2366 -91 2075 -91 
Q 1284 -91 818 406 
Q 353 903 353 1747 
Q 353 2603 823 3093 
Q 1294 3584 2113 3584 
Q 2378 3584 2631 3529 
Q 2884 3475 3122 3366 
z
" transform="scale(0.015625)"/>
     </defs>
     <use xlink:href="#DejaVuSans-72"/>
     <use xlink:href="#DejaVuSans-6f" transform="translate(38.863281 0)"/>
     <use xlink:href="#DejaVuSans-6f" transform="translate(100.044922 0)"/>
     <use xlink:href="#DejaVuSans-74" transform="translate(161.226562 0)"/>
     <use xlink:href="#DejaVuSans-5f" transform="translate(200.435547 0)"/>
     <use xlink:href="#DejaVuSans-68" transform="translate(250.435547 0)"/>
     <use xlink:href="#DejaVuSans-65" transform="translate(313.814453 0)"/>
     <use xlink:href="#DejaVuSans-69" transform="translate(375.337891 0)"/>
     <use xlink:href="#DejaVuSans-67" transform="translate(403.121094 0)"/>
     <use xlink:href="#DejaVuSans-68" transform="translate(466.597656 0)"/>
     <use xlink:href="#DejaVuSans-74" transform="translate(529.976562 0)"/>
     <use xlink:href="#DejaVuSans-5f" transform="translate(569.185547 0)"/>
     <use xlink:href="#DejaVuSans-63" transform="translate(619.185547 0)"/>
     <use xlink:href="#DejaVuSans-31" transform="translate(674.166016 0)"/>
     <use xlink:href="#DejaVuSans-73" transform="translate(737.789062 0)"/>
     <use xlink:href="#DejaVuSans-70" transform="translate(789.888672 0)"/>
     <use xlink:href="#DejaVuSans-31" transform="translate(853.365234 0)"/>
    </g>
   </g>
   <g id="line2d_18">
    <defs>
     <path id="mfbdf56b563" d="M 0 3 
C 0.795609 3 1.55874 2.683901 2.12132 2.12132 
C 2.683901 1.55874 3 0.795609 3 0 
C 3 -0.795609 2.683901 -1.55874 2.12132 -2.12132 
C 1.55874 -2.683901 0.795609 -3 0 -3 
C -0.795609 -3 -1.55874 -2.683901 -2.12132 -2.12132 
C -2.683901 -1.55874 -3 -0.795609 -3 0 
C -3 0.795609 -2.683901 1.55874 -2.12132 2.12132 
C -1.55874 2.683901 -0.795609 3 0 3 
z
" style="stroke: #595959"/>
    </defs>
    <g clip-path="url(#pf5d97ae036)">
     <use xlink:href="#mfbdf56b563" x="56.805938" y="306.639448" style="fill-opacity: 0; stroke: #595959"/>
     <use xlink:href="#mfbdf56b563" x="57.481715" y="306.049121" style="fill-opacity: 0; stroke: #595959"/>
     <use xlink:href="#mfbdf56b563" x="58.31943" y="305.419586" style="fill-opacity: 0; stroke: #595959"/>
     <use xlink:href="#mfbdf56b563" x="59.204454" y="304.635591" style="fill-opacity: 0; stroke: #595959"/>
     <use xlink:href="#mfbdf56b563" x="60.104075" y="303.964423" style="fill-opacity: 0; stroke: #595959"/>
     <use xlink:href="#mfbdf56b563" x="61.087398" y="303.219358" style="fill-opacity: 0; stroke: #595959"/>
     <use xlink:href="#mfbdf56b563" x="62.114373" y="302.514655" style="fill-opacity: 0; stroke: #595959"/>
     <use xlink:href="#mfbdf56b563" x="63.19696" y="301.768148" style="fill-opacity: 0; stroke: #595959"/>
     <use xlink:href="#mfbdf56b563" x="64.295146" y="300.798562" style="fill-opacity: 0; stroke: #595959"/>
     <use xlink:href="#mfbdf56b563" x="65.451337" y="300.018343" style="fill-opacity: 0; stroke: #595959"/>
     <use xlink:href="#mfbdf56b563" x="66.586673" y="299.062273" style="fill-opacity: 0; stroke: #595959"/>
     <use xlink:href="#mfbdf56b563" x="67.850013" y="298.104059" style="fill-opacity: 0; stroke: #595959"/>
     <use xlink:href="#mfbdf56b563" x="69.063353" y="297.046503" style="fill-opacity: 0; stroke: #595959"/>
     <use xlink:href="#mfbdf56b563" x="70.336324" y="296.085819" style="fill-opacity: 0; stroke: #595959"/>
     <use xlink:href="#mfbdf56b563" x="71.646467" y="295.050927" style="fill-opacity: 0; stroke: #595959"/>
     <use xlink:href="#mfbdf56b563" x="73.050465" y="294.169518" style="fill-opacity: 0; stroke: #595959"/>
     <use xlink:href="#mfbdf56b563" x="74.467528" y="293.148094" style="fill-opacity: 0; stroke: #595959"/>
     <use xlink:href="#mfbdf56b563" x="75.953313" y="292.105176" style="fill-opacity: 0; stroke: #595959"/>
     <use xlink:href="#mfbdf56b563" x="77.436875" y="290.877191" style="fill-opacity: 0; stroke: #595959"/>
     <use xlink:href="#mfbdf56b563" x="79.012442" y="289.730017" style="fill-opacity: 0; stroke: #595959"/>
     <use xlink:href="#mfbdf56b563" x="80.472969" y="288.532434" style="fill-opacity: 0; stroke: #595959"/>
     <use xlink:href="#mfbdf56b563" x="82.013222" y="287.371078" style="fill-opacity: 0; stroke: #595959"/>
     <use xlink:href="#mfbdf56b563" x="83.573031" y="286.399419" style="fill-opacity: 0; stroke: #595959"/>
     <use xlink:href="#mfbdf56b563" x="85.201219" y="285.339375" style="fill-opacity: 0; stroke: #595959"/>
     <use xlink:href="#mfbdf56b563" x="86.766244" y="284.237714" style="fill-opacity: 0; stroke: #595959"/>
     <use xlink:href="#mfbdf56b563" x="88.360942" y="282.760258" style="fill-opacity: 0; stroke: #595959"/>
     <use xlink:href="#mfbdf56b563" x="89.998606" y="281.422999" style="fill-opacity: 0; stroke: #595959"/>
     <use xlink:href="#mfbdf56b563" x="91.667462" y="280.321213" style="fill-opacity: 0; stroke: #595959"/>
     <use xlink:href="#mfbdf56b563" x="93.501421" y="279.229077" style="fill-opacity: 0; stroke: #595959"/>
     <use xlink:href="#mfbdf56b563" x="95.280236" y="277.753662" style="fill-opacity: 0; stroke: #595959"/>
     <use xlink:href="#mfbdf56b563" x="97.264469" y="276.283938" style="fill-opacity: 0; stroke: #595959"/>
     <use xlink:href="#mfbdf56b563" x="99.179123" y="274.869024" style="fill-opacity: 0; stroke: #595959"/>
     <use xlink:href="#mfbdf56b563" x="101.192382" y="273.652795" style="fill-opacity: 0; stroke: #595959"/>
     <use xlink:href="#mfbdf56b563" x="103.066576" y="271.962756" style="fill-opacity: 0; stroke: #595959"/>
     <use xlink:href="#mfbdf56b563" x="105.054051" y="270.340222" style="fill-opacity: 0; stroke: #595959"/>
     <use xlink:href="#mfbdf56b563" x="107.163395" y="269.121528" style="fill-opacity: 0; stroke: #595959"/>
     <use xlink:href="#mfbdf56b563" x="109.241692" y="267.343058" style="fill-opacity: 0; stroke: #595959"/>
     <use xlink:href="#mfbdf56b563" x="111.411709" y="265.914918" style="fill-opacity: 0; stroke: #595959"/>
     <use xlink:href="#mfbdf56b563" x="113.470136" y="264.217805" style="fill-opacity: 0; stroke: #595959"/>
     <use xlink:href="#mfbdf56b563" x="115.728425" y="262.189103" style="fill-opacity: 0; stroke: #595959"/>
     <use xlink:href="#mfbdf56b563" x="117.999938" y="260.500713" style="fill-opacity: 0; stroke: #595959"/>
     <use xlink:href="#mfbdf56b563" x="120.223454" y="259.020212" style="fill-opacity: 0; stroke: #595959"/>
     <use xlink:href="#mfbdf56b563" x="122.491111" y="257.118677" style="fill-opacity: 0; stroke: #595959"/>
     <use xlink:href="#mfbdf56b563" x="124.784081" y="255.479067" style="fill-opacity: 0; stroke: #595959"/>
     <use xlink:href="#mfbdf56b563" x="127.296907" y="253.784113" style="fill-opacity: 0; stroke: #595959"/>
     <use xlink:href="#mfbdf56b563" x="129.64613" y="252.079134" style="fill-opacity: 0; stroke: #595959"/>
     <use xlink:href="#mfbdf56b563" x="132.064309" y="250.382364" style="fill-opacity: 0; stroke: #595959"/>
     <use xlink:href="#mfbdf56b563" x="134.549687" y="248.478624" style="fill-opacity: 0; stroke: #595959"/>
     <use xlink:href="#mfbdf56b563" x="137.123573" y="246.567183" style="fill-opacity: 0; stroke: #595959"/>
     <use xlink:href="#mfbdf56b563" x="139.779909" y="244.446591" style="fill-opacity: 0; stroke: #595959"/>
     <use xlink:href="#mfbdf56b563" x="142.310542" y="242.582708" style="fill-opacity: 0; stroke: #595959"/>
     <use xlink:href="#mfbdf56b563" x="145.154089" y="240.627514" style="fill-opacity: 0; stroke: #595959"/>
     <use xlink:href="#mfbdf56b563" x="147.93248" y="238.842254" style="fill-opacity: 0; stroke: #595959"/>
     <use xlink:href="#mfbdf56b563" x="150.763272" y="236.72687" style="fill-opacity: 0; stroke: #595959"/>
     <use xlink:href="#mfbdf56b563" x="153.848929" y="234.629026" style="fill-opacity: 0; stroke: #595959"/>
     <use xlink:href="#mfbdf56b563" x="156.700443" y="232.587881" style="fill-opacity: 0; stroke: #595959"/>
     <use xlink:href="#mfbdf56b563" x="159.908432" y="230.516944" style="fill-opacity: 0; stroke: #595959"/>
     <use xlink:href="#mfbdf56b563" x="162.929227" y="227.907198" style="fill-opacity: 0; stroke: #595959"/>
     <use xlink:href="#mfbdf56b563" x="166.255826" y="225.317658" style="fill-opacity: 0; stroke: #595959"/>
     <use xlink:href="#mfbdf56b563" x="169.419438" y="223.180105" style="fill-opacity: 0; stroke: #595959"/>
     <use xlink:href="#mfbdf56b563" x="172.892312" y="220.779112" style="fill-opacity: 0; stroke: #595959"/>
     <use xlink:href="#mfbdf56b563" x="176.190856" y="218.547936" style="fill-opacity: 0; stroke: #595959"/>
     <use xlink:href="#mfbdf56b563" x="179.737393" y="215.822494" style="fill-opacity: 0; stroke: #595959"/>
     <use xlink:href="#mfbdf56b563" x="183.386682" y="213.355541" style="fill-opacity: 0; stroke: #595959"/>
     <use xlink:href="#mfbdf56b563" x="187.033406" y="210.489229" style="fill-opacity: 0; stroke: #595959"/>
     <use xlink:href="#mfbdf56b563" x="190.511072" y="208.184019" style="fill-opacity: 0; stroke: #595959"/>
     <use xlink:href="#mfbdf56b563" x="194.074807" y="205.133083" style="fill-opacity: 0; stroke: #595959"/>
     <use xlink:href="#mfbdf56b563" x="197.935069" y="202.502407" style="fill-opacity: 0; stroke: #595959"/>
     <use xlink:href="#mfbdf56b563" x="201.808373" y="199.097172" style="fill-opacity: 0; stroke: #595959"/>
     <use xlink:href="#mfbdf56b563" x="205.882071" y="196.155463" style="fill-opacity: 0; stroke: #595959"/>
     <use xlink:href="#mfbdf56b563" x="210.267001" y="193.16773" style="fill-opacity: 0; stroke: #595959"/>
     <use xlink:href="#mfbdf56b563" x="214.645995" y="190.317514" style="fill-opacity: 0; stroke: #595959"/>
     <use xlink:href="#mfbdf56b563" x="219.027255" y="187.136761" style="fill-opacity: 0; stroke: #595959"/>
     <use xlink:href="#mfbdf56b563" x="223.345635" y="183.262878" style="fill-opacity: 0; stroke: #595959"/>
     <use xlink:href="#mfbdf56b563" x="228.087476" y="179.830745" style="fill-opacity: 0; stroke: #595959"/>
     <use xlink:href="#mfbdf56b563" x="232.859234" y="176.333155" style="fill-opacity: 0; stroke: #595959"/>
     <use xlink:href="#mfbdf56b563" x="237.960735" y="172.790665" style="fill-opacity: 0; stroke: #595959"/>
     <use xlink:href="#mfbdf56b563" x="243.076772" y="168.942016" style="fill-opacity: 0; stroke: #595959"/>
     <use xlink:href="#mfbdf56b563" x="248.313814" y="164.452244" style="fill-opacity: 0; stroke: #595959"/>
     <use xlink:href="#mfbdf56b563" x="253.852543" y="160.507846" style="fill-opacity: 0; stroke: #595959"/>
     <use xlink:href="#mfbdf56b563" x="259.05207" y="156.197945" style="fill-opacity: 0; stroke: #595959"/>
     <use xlink:href="#mfbdf56b563" x="264.979825" y="151.633785" style="fill-opacity: 0; stroke: #595959"/>
     <use xlink:href="#mfbdf56b563" x="270.814924" y="146.911196" style="fill-opacity: 0; stroke: #595959"/>
     <use xlink:href="#mfbdf56b563" x="277.142129" y="142.450953" style="fill-opacity: 0; stroke: #595959"/>
     <use xlink:href="#mfbdf56b563" x="283.659726" y="138.460149" style="fill-opacity: 0; stroke: #595959"/>
     <use xlink:href="#mfbdf56b563" x="290.495171" y="133.483911" style="fill-opacity: 0; stroke: #595959"/>
     <use xlink:href="#mfbdf56b563" x="297.546042" y="128.56256" style="fill-opacity: 0; stroke: #595959"/>
     <use xlink:href="#mfbdf56b563" x="304.706678" y="123.609616" style="fill-opacity: 0; stroke: #595959"/>
     <use xlink:href="#mfbdf56b563" x="312.36963" y="118.422691" style="fill-opacity: 0; stroke: #595959"/>
     <use xlink:href="#mfbdf56b563" x="320.338325" y="111.737569" style="fill-opacity: 0; stroke: #595959"/>
     <use xlink:href="#mfbdf56b563" x="328.978963" y="105.221698" style="fill-opacity: 0; stroke: #595959"/>
     <use xlink:href="#mfbdf56b563" x="338.572238" y="98.300477" style="fill-opacity: 0; stroke: #595959"/>
     <use xlink:href="#mfbdf56b563" x="348.879082" y="91.384387" style="fill-opacity: 0; stroke: #595959"/>
     <use xlink:href="#mfbdf56b563" x="360.113139" y="84.14413" style="fill-opacity: 0; stroke: #595959"/>
     <use xlink:href="#mfbdf56b563" x="371.879012" y="74.8057" style="fill-opacity: 0; stroke: #595959"/>
     <use xlink:href="#mfbdf56b563" x="384.935607" y="66.666558" style="fill-opacity: 0; stroke: #595959"/>
     <use xlink:href="#mfbdf56b563" x="399.602215" y="54.511676" style="fill-opacity: 0; stroke: #595959"/>
     <use xlink:href="#mfbdf56b563" x="417.988483" y="40.16965" style="fill-opacity: 0; stroke: #595959"/>
     <use xlink:href="#mfbdf56b563" x="442.815937" y="23.666061" style="fill-opacity: 0; stroke: #595959"/>
    </g>
   </g>
  </g>
 </g>
 <defs>
  <clipPath id="pf5d97ae036">
   <rect x="56.805938" y="22.318125" width="386.01" height="284.58"/>
  </clipPath>
 </defs>
</svg>
