<?xml version="1.0" encoding="utf-8" standalone="no"?>
<!DOCTYPE svg PUBLIC "-//W3C//DTD SVG 1.1//EN"
  "http://www.w3.org/Graphics/SVG/1.1/DTD/svg11.dtd">
<svg xmlns:xlink="http://www.w3.org/1999/xlink" width="450.037187pt" height="335.073437pt" viewBox="0 0 450.037187 335.073437" xmlns="http://www.w3.org/2000/svg" version="1.1">
 <metadata>
  <rdf:RDF xmlns:dc="http://purl.org/dc/elements/1.1/" xmlns:cc="http://creativecommons.org/ns#" xmlns:rdf="http://www.w3.org/1999/02/22-rdf-syntax-ns#">
   <cc:Work>
    <dc:type rdf:resource="http://purl.org/dc/dcmitype/StillImage"/>
    <dc:date>2026-05-15T14:58:11.047729</dc:date>
    <dc:format>image/svg+xml</dc:format>
    <dc:creator>
     <cc:Agent>
      <dc:title>Matplotlib v3.10.9, https://matplotlib.org/</dc:title>
     </cc:Agent>
    </dc:creator>
   </cc:Work>
  </rdf:RDF>
 </metadata>
 <defs>
  <style type="text/css">*{stroke-linejoin: round; stroke-linecap: butt}</style>
 </defs>
 <g id="figure_1">
  <g id="patch_1">
   <path d="M 0 335.073437 
L 450.037187 335.073437 
L 450.037187 0 
L 0 0 
z
" style="fill: #ffffff"/>
  </g>
  <g id="axes_1">
   <g id="patch_2">
    <path d="M 49.807188 291.78 
L 442.837188 291.78 
L 442.837188 7.2 
L 49.807188 7.2 
z
" style="fill: #ffffff"/>
   </g>
   <g id="matplotlib.axis_1">
    <g id="xtick_1">
     <g id="line2d_1">
      <defs>
       <path id="md0bddbc42f" d="M 0 0 
L 0 6 
" style="stroke: #262626; stroke-width: 1.25"/>
      </defs>
      <g>
       <use xlink:href="#md0bddbc42f" x="92.64809" y="291.78" style="fill: #262626; stroke: #262626; stroke-width: 1.25"/>
      </g>
     </g>
     <g id="text_1">
      <!-- 0.0002 -->
      <g style="fill: #262626" transform="translate(73.403246 309.638281) scale(0.11 -0.11)">
       <defs>
        <path id="DejaVuSans-30" d="M 2034 4250 
Q 1547 4250 1301 3770 
Q 1056 3291 1056 2328 
Q 1056 1369 1301 889 
Q 1547 409 2034 409 
Q 2525 409 2770 889 
Q 3016 1369 3016 2328 
Q 3016 3291 2770 3770 
Q 2525 4250 2034 4250 
z
M 2034 4750 
Q 2819 4750 3233 4129 
Q 3647 3509 3647 2328 
Q 3647 1150 3233 529 
Q 2819 -91 2034 -91 
Q 1250 -91 836 529 
Q 422 1150 422 2328 
Q 422 3509 836 4129 
Q 1250 4750 2034 4750 
z
" transform="scale(0.015625)"/>
        <path id="DejaVuSans-2e" d="M 684 794 
L 1344 794 
L 1344 0 
L 684 0 
L 684 794 
z
" transform="scale(0.015625)"/>
        <path id="DejaVuSans-32" d="M 1228 531 
L 3431 531 
L 3431 0 
L 469 0 
L 469 531 
Q 828 903 1448 1529 
Q 2069 2156 2228 2338 
Q 2531 2678 2651 2914 
Q 2772 3150 2772 3378 
Q 2772 3750 2511 3984 
Q 2250 4219 1831 4219 
Q 1534 4219 1204 4116 
Q 875 4013 500 3803 
L 500 4441 
Q 881 4594 1212 4672 
Q 1544 4750 1819 4750 
Q 2544 4750 2975 4387 
Q 3406 4025 3406 3419 
Q 3406 3131 3298 2873 
Q 3191 2616 2906 2266 
Q 2828 2175 2409 1742 
Q 1991 1309 1228 531 
z
" transform="scale(0.015625)"/>
       </defs>
       <use xlink:href="#DejaVuSans-30"/>
       <use xlink:href="#DejaVuSans-2e" transform="translate(63.623047 0)"/>
       <use xlink:href="#DejaVuSans-30" transform="translate(95.410156 0)"/>
       <use xlink:href="#DejaVuSans-30" transform="translate(159.033203 0)"/>
       <use xlink:href="#DejaVuSans-30" transform="translate(222.65625 0)"/>
       <use xlink:href="#DejaVuSans-32" transform="translate(286.279297 0)"/>
      </g>
     </g>
    </g>
    <g id="xtick_2">
     <g id="line2d_2">
      <g>
       <use xlink:href="#md0bddbc42f" x="153.63319" y="291.78" style="fill: #262626; stroke: #262626; stroke-width: 1.25"/>
      </g>
     </g>
     <g id="text_2">
      <!-- 0.0004 -->
      <g style="fill: #262626" transform="translate(134.388346 309.638281) scale(0.11 -0.11)">
       <defs>
        <path id="DejaVuSans-34" d="M 2419 4116 
L 825 1625 
L 2419 1625 
L 2419 4116 
z
M 2253 4666 
L 3047 4666 
L 3047 1625 
L 3713 1625 
L 3713 1100 
L 3047 1100 
L 3047 0 
L 2419 0 
L 2419 1100 
L 313 1100 
L 313 1709 
L 2253 4666 
z
" transform="scale(0.015625)"/>
       </defs>
       <use xlink:href="#DejaVuSans-30"/>
       <use xlink:href="#DejaVuSans-2e" transform="translate(63.623047 0)"/>
       <use xlink:href="#DejaVuSans-30" transform="translate(95.410156 0)"/>
       <use xlink:href="#DejaVuSans-30" transform="translate(159.033203 0)"/>
       <use xlink:href="#DejaVuSans-30" transform="translate(222.65625 0)"/>
       <use xlink:href="#DejaVuSans-34" transform="translate(286.279297 0)"/>
      </g>
     </g>
    </g>
    <g id="xtick_3">
     <g id="line2d_3">
      <g>
       <use xlink:href="#md0bddbc42f" x="214.61829" y="291.78" style="fill: #262626; stroke: #262626; stroke-width: 1.25"/>
      </g>
     </g>
     <g id="text_3">
      <!-- 0.0006 -->
      <g style="fill: #262626" transform="translate(195.373446 309.638281) scale(0.11 -0.11)">
       <defs>
        <path id="DejaVuSans-36" d="M 2113 2584 
Q 1688 2584 1439 2293 
Q 1191 2003 1191 1497 
Q 1191 994 1439 701 
Q 1688 409 2113 409 
Q 2538 409 2786 701 
Q 3034 994 3034 1497 
Q 3034 2003 2786 2293 
Q 2538 2584 2113 2584 
z
M 3366 4563 
L 3366 3988 
Q 3128 4100 2886 4159 
Q 2644 4219 2406 4219 
Q 1781 4219 1451 3797 
Q 1122 3375 1075 2522 
Q 1259 2794 1537 2939 
Q 1816 3084 2150 3084 
Q 2853 3084 3261 2657 
Q 3669 2231 3669 1497 
Q 3669 778 3244 343 
Q 2819 -91 2113 -91 
Q 1303 -91 875 529 
Q 447 1150 447 2328 
Q 447 3434 972 4092 
Q 1497 4750 2381 4750 
Q 2619 4750 2861 4703 
Q 3103 4656 3366 4563 
z
" transform="scale(0.015625)"/>
       </defs>
       <use xlink:href="#DejaVuSans-30"/>
       <use xlink:href="#DejaVuSans-2e" transform="translate(63.623047 0)"/>
       <use xlink:href="#DejaVuSans-30" transform="translate(95.410156 0)"/>
       <use xlink:href="#DejaVuSans-30" transform="translate(159.033203 0)"/>
       <use xlink:href="#DejaVuSans-30" transform="translate(222.65625 0)"/>
       <use xlink:href="#DejaVuSans-36" transform="translate(286.279297 0)"/>
      </g>
     </g>
    </g>
    <g id="xtick_4">
     <g id="line2d_4">
      <g>
       <use xlink:href="#md0bddbc42f" x="275.60339" y="291.78" style="fill: #262626; stroke: #262626; stroke-width: 1.25"/>
      </g>
     </g>
     <g id="text_4">
      <!-- 0.0008 -->
      <g style="fill: #262626" transform="translate(256.358546 309.638281) scale(0.11 -0.11)">
       <defs>
        <path id="DejaVuSans-38" d="M 2034 2216 
Q 1584 2216 1326 1975 
Q 1069 1734 1069 1313 
Q 1069 891 1326 650 
Q 1584 409 2034 409 
Q 2484 409 2743 651 
Q 3003 894 3003 1313 
Q 3003 1734 2745 1975 
Q 2488 2216 2034 2216 
z
M 1403 2484 
Q 997 2584 770 2862 
Q 544 3141 544 3541 
Q 544 4100 942 4425 
Q 1341 4750 2034 4750 
Q 2731 4750 3128 4425 
Q 3525 4100 3525 3541 
Q 3525 3141 3298 2862 
Q 3072 2584 2669 2484 
Q 3125 2378 3379 2068 
Q 3634 1759 3634 1313 
Q 3634 634 3220 271 
Q 2806 -91 2034 -91 
Q 1263 -91 848 271 
Q 434 634 434 1313 
Q 434 1759 690 2068 
Q 947 2378 1403 2484 
z
M 1172 3481 
Q 1172 3119 1398 2916 
Q 1625 2713 2034 2713 
Q 2441 2713 2670 2916 
Q 2900 3119 2900 3481 
Q 2900 3844 2670 4047 
Q 2441 4250 2034 4250 
Q 1625 4250 1398 4047 
Q 1172 3844 1172 3481 
z
" transform="scale(0.015625)"/>
       </defs>
       <use xlink:href="#DejaVuSans-30"/>
       <use xlink:href="#DejaVuSans-2e" transform="translate(63.623047 0)"/>
       <use xlink:href="#DejaVuSans-30" transform="translate(95.410156 0)"/>
       <use xlink:href="#DejaVuSans-30" transform="translate(159.033203 0)"/>
       <use xlink:href="#DejaVuSans-30" transform="translate(222.65625 0)"/>
       <use xlink:href="#DejaVuSans-38" transform="translate(286.279297 0)"/>
      </g>
     </g>
    </g>
    <g id="xtick_5">
     <g id="line2d_5">
      <g>
       <use xlink:href="#md0bddbc42f" x="336.58849" y="291.78" style="fill: #262626; stroke: #262626; stroke-width: 1.25"/>
      </g>
     </g>
     <g id="text_5">
      <!-- 0.0010 -->
      <g style="fill: #262626" transform="translate(317.343646 309.638281) scale(0.11 -0.11)">
       <defs>
        <path id="DejaVuSans-31" d="M 794 531 
L 1825 531 
L 1825 4091 
L 703 3866 
L 703 4441 
L 1819 4666 
L 2450 4666 
L 2450 531 
L 3481 531 
L 3481 0 
L 794 0 
L 794 531 
z
" transform="scale(0.015625)"/>
       </defs>
       <use xlink:href="#DejaVuSans-30"/>
       <use xlink:href="#DejaVuSans-2e" transform="translate(63.623047 0)"/>
       <use xlink:href="#DejaVuSans-30" transform="translate(95.410156 0)"/>
       <use xlink:href="#DejaVuSans-30" transform="translate(159.033203 0)"/>
       <use xlink:href="#DejaVuSans-31" transform="translate(222.65625 0)"/>
       <use xlink:href="#DejaVuSans-30" transform="translate(286.279297 0)"/>
      </g>
     </g>
    </g>
    <g id="xtick_6">
     <g id="line2d_6">
      <g>
       <use xlink:href="#md0bddbc42f" x="397.57359" y="291.78" style="fill: #262626; stroke: #262626; stroke-width: 1.25"/>
      </g>
     </g>
     <g id="text_6">
      <!-- 0.0012 -->
      <g style="fill: #262626" transform="translate(378.328746 309.638281) scale(0.11 -0.11)">
       <use xlink:href="#DejaVuSans-30"/>
       <use xlink:href="#DejaVuSans-2e" transform="translate(63.623047 0)"/>
       <use xlink:href="#DejaVuSans-30" transform="translate(95.410156 0)"/>
       <use xlink:href="#DejaVuSans-30" transform="translate(159.033203 0)"/>
       <use xlink:href="#DejaVuSans-31" transform="translate(222.65625 0)"/>
       <use xlink:href="#DejaVuSans-32" transform="translate(286.279297 0)"/>
      </g>
     </g>
    </g>
    <g id="text_7">
     <!-- pop_size_c1sp1 -->
     <g style="fill: #262626" transform="translate(199.530625 325.044062) scale(0.12 -0.12)">
      <defs>
       <path id="DejaVuSans-70" d="M 1159 525 
L 1159 -1331 
L 581 -1331 
L 581 3500 
L 1159 3500 
L 1159 2969 
Q 1341 3281 1617 3432 
Q 1894 3584 2278 3584 
Q 2916 3584 3314 3078 
Q 3713 2572 3713 1747 
Q 3713 922 3314 415 
Q 2916 -91 2278 -91 
Q 1894 -91 1617 61 
Q 1341 213 1159 525 
z
M 3116 1747 
Q 3116 2381 2855 2742 
Q 2594 3103 2138 3103 
Q 1681 3103 1420 2742 
Q 1159 2381 1159 1747 
Q 1159 1113 1420 752 
Q 1681 391 2138 391 
Q 2594 391 2855 752 
Q 3116 1113 3116 1747 
z
" transform="scale(0.015625)"/>
       <path id="DejaVuSans-6f" d="M 1959 3097 
Q 1497 3097 1228 2736 
Q 959 2375 959 1747 
Q 959 1119 1226 758 
Q 1494 397 1959 397 
Q 2419 397 2687 759 
Q 2956 1122 2956 1747 
Q 2956 2369 2687 2733 
Q 2419 3097 1959 3097 
z
M 1959 3584 
Q 2709 3584 3137 3096 
Q 3566 2609 3566 1747 
Q 3566 888 3137 398 
Q 2709 -91 1959 -91 
Q 1206 -91 779 398 
Q 353 888 353 1747 
Q 353 2609 779 3096 
Q 1206 3584 1959 3584 
z
" transform="scale(0.015625)"/>
       <path id="DejaVuSans-5f" d="M 3263 -1063 
L 3263 -1509 
L -63 -1509 
L -63 -1063 
L 3263 -1063 
z
" transform="scale(0.015625)"/>
       <path id="DejaVuSans-73" d="M 2834 3397 
L 2834 2853 
Q 2591 2978 2328 3040 
Q 2066 3103 1784 3103 
Q 1356 3103 1142 2972 
Q 928 2841 928 2578 
Q 928 2378 1081 2264 
Q 1234 2150 1697 2047 
L 1894 2003 
Q 2506 1872 2764 1633 
Q 3022 1394 3022 966 
Q 3022 478 2636 193 
Q 2250 -91 1575 -91 
Q 1294 -91 989 -36 
Q 684 19 347 128 
L 347 722 
Q 666 556 975 473 
Q 1284 391 1588 391 
Q 1994 391 2212 530 
Q 2431 669 2431 922 
Q 2431 1156 2273 1281 
Q 2116 1406 1581 1522 
L 1381 1569 
Q 847 1681 609 1914 
Q 372 2147 372 2553 
Q 372 3047 722 3315 
Q 1072 3584 1716 3584 
Q 2034 3584 2315 3537 
Q 2597 3491 2834 3397 
z
" transform="scale(0.015625)"/>
       <path id="DejaVuSans-69" d="M 603 3500 
L 1178 3500 
L 1178 0 
L 603 0 
L 603 3500 
z
M 603 4863 
L 1178 4863 
L 1178 4134 
L 603 4134 
L 603 4863 
z
" transform="scale(0.015625)"/>
       <path id="DejaVuSans-7a" d="M 353 3500 
L 3084 3500 
L 3084 2975 
L 922 459 
L 3084 459 
L 3084 0 
L 275 0 
L 275 525 
L 2438 3041 
L 353 3041 
L 353 3500 
z
" transform="scale(0.015625)"/>
       <path id="DejaVuSans-65" d="M 3597 1894 
L 3597 1613 
L 953 1613 
Q 991 1019 1311 708 
Q 1631 397 2203 397 
Q 2534 397 2845 478 
Q 3156 559 3463 722 
L 3463 178 
Q 3153 47 2828 -22 
Q 2503 -91 2169 -91 
Q 1331 -91 842 396 
Q 353 884 353 1716 
Q 353 2575 817 3079 
Q 1281 3584 2069 3584 
Q 2775 3584 3186 3129 
Q 3597 2675 3597 1894 
z
M 3022 2063 
Q 3016 2534 2758 2815 
Q 2500 3097 2075 3097 
Q 1594 3097 1305 2825 
Q 1016 2553 972 2059 
L 3022 2063 
z
" transform="scale(0.015625)"/>
       <path id="DejaVuSans-63" d="M 3122 3366 
L 3122 2828 
Q 2878 2963 2633 3030 
Q 2388 3097 2138 3097 
Q 1578 3097 1268 2742 
Q 959 2388 959 1747 
Q 959 1106 1268 751 
Q 1578 397 2138 397 
Q 2388 397 2633 464 
Q 2878 531 3122 666 
L 3122 134 
Q 2881 22 2623 -34 
Q 2366 -91 2075 -91 
Q 1284 -91 818 406 
Q 353 903 353 1747 
Q 353 2603 823 3093 
Q 1294 3584 2113 3584 
Q 2378 3584 2631 3529 
Q 2884 3475 3122 3366 
z
" transform="scale(0.015625)"/>
      </defs>
      <use xlink:href="#DejaVuSans-70"/>
      <use xlink:href="#DejaVuSans-6f" transform="translate(63.476562 0)"/>
      <use xlink:href="#DejaVuSans-70" transform="translate(124.658203 0)"/>
      <use xlink:href="#DejaVuSans-5f" transform="translate(188.134766 0)"/>
      <use xlink:href="#DejaVuSans-73" transform="translate(238.134766 0)"/>
      <use xlink:href="#DejaVuSans-69" transform="translate(290.234375 0)"/>
      <use xlink:href="#DejaVuSans-7a" transform="translate(318.017578 0)"/>
      <use xlink:href="#DejaVuSans-65" transform="translate(370.507812 0)"/>
      <use xlink:href="#DejaVuSans-5f" transform="translate(432.03125 0)"/>
      <use xlink:href="#DejaVuSans-63" transform="translate(482.03125 0)"/>
      <use xlink:href="#DejaVuSans-31" transform="translate(537.011719 0)"/>
      <use xlink:href="#DejaVuSans-73" transform="translate(600.634766 0)"/>
      <use xlink:href="#DejaVuSans-70" transform="translate(652.734375 0)"/>
      <use xlink:href="#DejaVuSans-31" transform="translate(716.210938 0)"/>
     </g>
    </g>
   </g>
   <g id="matplotlib.axis_2">
    <g id="ytick_1">
     <g id="line2d_7">
      <defs>
       <path id="m3874532880" d="M 0 0 
L -6 0 
" style="stroke: #262626; stroke-width: 1.25"/>
      </defs>
      <g>
       <use xlink:href="#m3874532880" x="49.807188" y="278.844545" style="fill: #262626; stroke: #262626; stroke-width: 1.25"/>
      </g>
     </g>
     <g id="text_8">
      <!-- 0.0 -->
      <g style="fill: #262626" transform="translate(22.81375 283.023686) scale(0.11 -0.11)">
       <use xlink:href="#DejaVuSans-30"/>
       <use xlink:href="#DejaVuSans-2e" transform="translate(63.623047 0)"/>
       <use xlink:href="#DejaVuSans-30" transform="translate(95.410156 0)"/>
      </g>
     </g>
    </g>
    <g id="ytick_2">
     <g id="line2d_8">
      <g>
       <use xlink:href="#m3874532880" x="49.807188" y="227.097553" style="fill: #262626; stroke: #262626; stroke-width: 1.25"/>
      </g>
     </g>
     <g id="text_9">
      <!-- 0.2 -->
      <g style="fill: #262626" transform="translate(22.81375 231.276693) scale(0.11 -0.11)">
       <use xlink:href="#DejaVuSans-30"/>
       <use xlink:href="#DejaVuSans-2e" transform="translate(63.623047 0)"/>
       <use xlink:href="#DejaVuSans-32" transform="translate(95.410156 0)"/>
      </g>
     </g>
    </g>
    <g id="ytick_3">
     <g id="line2d_9">
      <g>
       <use xlink:href="#m3874532880" x="49.807188" y="175.35056" style="fill: #262626; stroke: #262626; stroke-width: 1.25"/>
      </g>
     </g>
     <g id="text_10">
      <!-- 0.4 -->
      <g style="fill: #262626" transform="translate(22.81375 179.5297) scale(0.11 -0.11)">
       <use xlink:href="#DejaVuSans-30"/>
       <use xlink:href="#DejaVuSans-2e" transform="translate(63.623047 0)"/>
       <use xlink:href="#DejaVuSans-34" transform="translate(95.410156 0)"/>
      </g>
     </g>
    </g>
    <g id="ytick_4">
     <g id="line2d_10">
      <g>
       <use xlink:href="#m3874532880" x="49.807188" y="123.603567" style="fill: #262626; stroke: #262626; stroke-width: 1.25"/>
      </g>
     </g>
     <g id="text_11">
      <!-- 0.6 -->
      <g style="fill: #262626" transform="translate(22.81375 127.782707) scale(0.11 -0.11)">
       <use xlink:href="#DejaVuSans-30"/>
       <use xlink:href="#DejaVuSans-2e" transform="translate(63.623047 0)"/>
       <use xlink:href="#DejaVuSans-36" transform="translate(95.410156 0)"/>
      </g>
     </g>
    </g>
    <g id="ytick_5">
     <g id="line2d_11">
      <g>
       <use xlink:href="#m3874532880" x="49.807188" y="71.856574" style="fill: #262626; stroke: #262626; stroke-width: 1.25"/>
      </g>
     </g>
     <g id="text_12">
      <!-- 0.8 -->
      <g style="fill: #262626" transform="translate(22.81375 76.035715) scale(0.11 -0.11)">
       <use xlink:href="#DejaVuSans-30"/>
       <use xlink:href="#DejaVuSans-2e" transform="translate(63.623047 0)"/>
       <use xlink:href="#DejaVuSans-38" transform="translate(95.410156 0)"/>
      </g>
     </g>
    </g>
    <g id="ytick_6">
     <g id="line2d_12">
      <g>
       <use xlink:href="#m3874532880" x="49.807188" y="20.109581" style="fill: #262626; stroke: #262626; stroke-width: 1.25"/>
      </g>
     </g>
     <g id="text_13">
      <!-- 1.0 -->
      <g style="fill: #262626" transform="translate(22.81375 24.288722) scale(0.11 -0.11)">
       <use xlink:href="#DejaVuSans-31"/>
       <use xlink:href="#DejaVuSans-2e" transform="translate(63.623047 0)"/>
       <use xlink:href="#DejaVuSans-30" transform="translate(95.410156 0)"/>
      </g>
     </g>
    </g>
    <g id="text_14">
     <!-- Cumulative density -->
     <g style="fill: #262626" transform="translate(16.318125 207.64125) rotate(-90) scale(0.12 -0.12)">
      <defs>
       <path id="DejaVuSans-43" d="M 4122 4306 
L 4122 3641 
Q 3803 3938 3442 4084 
Q 3081 4231 2675 4231 
Q 1875 4231 1450 3742 
Q 1025 3253 1025 2328 
Q 1025 1406 1450 917 
Q 1875 428 2675 428 
Q 3081 428 3442 575 
Q 3803 722 4122 1019 
L 4122 359 
Q 3791 134 3420 21 
Q 3050 -91 2638 -91 
Q 1578 -91 968 557 
Q 359 1206 359 2328 
Q 359 3453 968 4101 
Q 1578 4750 2638 4750 
Q 3056 4750 3426 4639 
Q 3797 4528 4122 4306 
z
" transform="scale(0.015625)"/>
       <path id="DejaVuSans-75" d="M 544 1381 
L 544 3500 
L 1119 3500 
L 1119 1403 
Q 1119 906 1312 657 
Q 1506 409 1894 409 
Q 2359 409 2629 706 
Q 2900 1003 2900 1516 
L 2900 3500 
L 3475 3500 
L 3475 0 
L 2900 0 
L 2900 538 
Q 2691 219 2414 64 
Q 2138 -91 1772 -91 
Q 1169 -91 856 284 
Q 544 659 544 1381 
z
M 1991 3584 
L 1991 3584 
z
" transform="scale(0.015625)"/>
       <path id="DejaVuSans-6d" d="M 3328 2828 
Q 3544 3216 3844 3400 
Q 4144 3584 4550 3584 
Q 5097 3584 5394 3201 
Q 5691 2819 5691 2113 
L 5691 0 
L 5113 0 
L 5113 2094 
Q 5113 2597 4934 2840 
Q 4756 3084 4391 3084 
Q 3944 3084 3684 2787 
Q 3425 2491 3425 1978 
L 3425 0 
L 2847 0 
L 2847 2094 
Q 2847 2600 2669 2842 
Q 2491 3084 2119 3084 
Q 1678 3084 1418 2786 
Q 1159 2488 1159 1978 
L 1159 0 
L 581 0 
L 581 3500 
L 1159 3500 
L 1159 2956 
Q 1356 3278 1631 3431 
Q 1906 3584 2284 3584 
Q 2666 3584 2933 3390 
Q 3200 3197 3328 2828 
z
" transform="scale(0.015625)"/>
       <path id="DejaVuSans-6c" d="M 603 4863 
L 1178 4863 
L 1178 0 
L 603 0 
L 603 4863 
z
" transform="scale(0.015625)"/>
       <path id="DejaVuSans-61" d="M 2194 1759 
Q 1497 1759 1228 1600 
Q 959 1441 959 1056 
Q 959 750 1161 570 
Q 1363 391 1709 391 
Q 2188 391 2477 730 
Q 2766 1069 2766 1631 
L 2766 1759 
L 2194 1759 
z
M 3341 1997 
L 3341 0 
L 2766 0 
L 2766 531 
Q 2569 213 2275 61 
Q 1981 -91 1556 -91 
Q 1019 -91 701 211 
Q 384 513 384 1019 
Q 384 1609 779 1909 
Q 1175 2209 1959 2209 
L 2766 2209 
L 2766 2266 
Q 2766 2663 2505 2880 
Q 2244 3097 1772 3097 
Q 1472 3097 1187 3025 
Q 903 2953 641 2809 
L 641 3341 
Q 956 3463 1253 3523 
Q 1550 3584 1831 3584 
Q 2591 3584 2966 3190 
Q 3341 2797 3341 1997 
z
" transform="scale(0.015625)"/>
       <path id="DejaVuSans-74" d="M 1172 4494 
L 1172 3500 
L 2356 3500 
L 2356 3053 
L 1172 3053 
L 1172 1153 
Q 1172 725 1289 603 
Q 1406 481 1766 481 
L 2356 481 
L 2356 0 
L 1766 0 
Q 1100 0 847 248 
Q 594 497 594 1153 
L 594 3053 
L 172 3053 
L 172 3500 
L 594 3500 
L 594 4494 
L 1172 4494 
z
" transform="scale(0.015625)"/>
       <path id="DejaVuSans-76" d="M 191 3500 
L 800 3500 
L 1894 563 
L 2988 3500 
L 3597 3500 
L 2284 0 
L 1503 0 
L 191 3500 
z
" transform="scale(0.015625)"/>
       <path id="DejaVuSans-20" transform="scale(0.015625)"/>
       <path id="DejaVuSans-64" d="M 2906 2969 
L 2906 4863 
L 3481 4863 
L 3481 0 
L 2906 0 
L 2906 525 
Q 2725 213 2448 61 
Q 2172 -91 1784 -91 
Q 1150 -91 751 415 
Q 353 922 353 1747 
Q 353 2572 751 3078 
Q 1150 3584 1784 3584 
Q 2172 3584 2448 3432 
Q 2725 3281 2906 2969 
z
M 947 1747 
Q 947 1113 1208 752 
Q 1469 391 1925 391 
Q 2381 391 2643 752 
Q 2906 1113 2906 1747 
Q 2906 2381 2643 2742 
Q 2381 3103 1925 3103 
Q 1469 3103 1208 2742 
Q 947 2381 947 1747 
z
" transform="scale(0.015625)"/>
       <path id="DejaVuSans-6e" d="M 3513 2113 
L 3513 0 
L 2938 0 
L 2938 2094 
Q 2938 2591 2744 2837 
Q 2550 3084 2163 3084 
Q 1697 3084 1428 2787 
Q 1159 2491 1159 1978 
L 1159 0 
L 581 0 
L 581 3500 
L 1159 3500 
L 1159 2956 
Q 1366 3272 1645 3428 
Q 1925 3584 2291 3584 
Q 2894 3584 3203 3211 
Q 3513 2838 3513 2113 
z
" transform="scale(0.015625)"/>
       <path id="DejaVuSans-79" d="M 2059 -325 
Q 1816 -950 1584 -1140 
Q 1353 -1331 966 -1331 
L 506 -1331 
L 506 -850 
L 844 -850 
Q 1081 -850 1212 -737 
Q 1344 -625 1503 -206 
L 1606 56 
L 191 3500 
L 800 3500 
L 1894 763 
L 2988 3500 
L 3597 3500 
L 2059 -325 
z
" transform="scale(0.015625)"/>
      </defs>
      <use xlink:href="#DejaVuSans-43"/>
      <use xlink:href="#DejaVuSans-75" transform="translate(69.824219 0)"/>
      <use xlink:href="#DejaVuSans-6d" transform="translate(133.203125 0)"/>
      <use xlink:href="#DejaVuSans-75" transform="translate(230.615234 0)"/>
      <use xlink:href="#DejaVuSans-6c" transform="translate(293.994141 0)"/>
      <use xlink:href="#DejaVuSans-61" transform="translate(321.777344 0)"/>
      <use xlink:href="#DejaVuSans-74" transform="translate(383.056641 0)"/>
      <use xlink:href="#DejaVuSans-69" transform="translate(422.265625 0)"/>
      <use xlink:href="#DejaVuSans-76" transform="translate(450.048828 0)"/>
      <use xlink:href="#DejaVuSans-65" transform="translate(509.228516 0)"/>
      <use xlink:href="#DejaVuSans-20" transform="translate(570.751953 0)"/>
      <use xlink:href="#DejaVuSans-64" transform="translate(602.539062 0)"/>
      <use xlink:href="#DejaVuSans-65" transform="translate(666.015625 0)"/>
      <use xlink:href="#DejaVuSans-6e" transform="translate(727.539062 0)"/>
      <use xlink:href="#DejaVuSans-73" transform="translate(790.917969 0)"/>
      <use xlink:href="#DejaVuSans-69" transform="translate(843.017578 0)"/>
      <use xlink:href="#DejaVuSans-74" transform="translate(870.800781 0)"/>
      <use xlink:href="#DejaVuSans-79" transform="translate(910.009766 0)"/>
     </g>
    </g>
   </g>
   <g id="FillBetweenPolyCollection_1"/>
   <g id="FillBetweenPolyCollection_2"/>
   <g id="line2d_13">
    <path d="M 67.672188 278.844545 
L 74.120279 278.689304 
L 74.510354 278.637557 
L 80.467726 278.43057 
L 80.657055 278.378823 
L 82.234319 278.223582 
L 82.266647 278.197708 
L 86.090786 277.783732 
L 86.974815 277.576744 
L 87.59873 277.447377 
L 87.607385 277.421503 
L 90.496737 276.826413 
L 90.656574 276.748792 
L 90.916652 276.671172 
L 92.127983 276.515931 
L 92.828673 276.308943 
L 93.450222 276.153702 
L 93.531186 276.076081 
L 94.879796 275.894967 
L 94.902183 275.869093 
L 95.479949 275.713852 
L 95.508487 275.687979 
L 96.50227 275.532738 
L 96.800496 275.40337 
L 97.644297 275.196382 
L 98.114154 274.989394 
L 98.26112 274.937647 
L 98.553621 274.782407 
L 99.754792 274.21319 
L 100.308597 274.057949 
L 100.540565 273.928581 
L 101.217785 273.69572 
L 101.302843 273.618099 
L 102.667346 273.023009 
L 102.780711 272.919515 
L 103.397861 272.634906 
L 103.406677 272.583159 
L 103.8483 272.402045 
L 104.269409 272.22093 
L 104.964579 271.755207 
L 105.618698 271.548219 
L 106.013987 271.341231 
L 106.450719 271.185991 
L 106.601569 271.10837 
L 106.930135 270.953129 
L 107.51238 270.539153 
L 108.01116 270.358039 
L 108.12824 270.254545 
L 108.393681 270.021683 
L 108.418862 269.944063 
L 108.669537 269.788822 
L 109.183637 269.452466 
L 109.305598 269.323099 
L 109.402366 269.245478 
L 110.51928 268.676261 
L 110.793517 268.572767 
L 111.192557 268.417526 
L 111.363044 268.236412 
L 111.870848 267.92593 
L 112.053337 267.718942 
L 114.832842 265.235086 
L 115.036322 264.976351 
L 115.633889 264.433008 
L 115.86085 264.096652 
L 115.980564 263.967285 
L 116.089031 263.863791 
L 116.387811 263.579183 
L 116.483424 263.475689 
L 116.658473 263.242827 
L 116.739979 263.139333 
L 117.276865 262.725357 
L 117.365751 262.544243 
L 117.530184 262.389002 
L 118.282412 261.457556 
L 118.427318 261.250568 
L 118.525084 261.1212 
L 118.821411 260.836592 
L 119.015633 260.629604 
L 121.050549 258.947827 
L 121.197237 258.766712 
L 121.328006 258.611471 
L 121.493306 258.352736 
L 121.694992 257.990507 
L 121.854078 257.835266 
L 121.997786 257.602405 
L 122.262873 257.42129 
L 122.347618 257.214302 
L 122.501746 257.162555 
L 122.741168 257.033188 
L 122.823382 256.929694 
L 123.023115 256.748579 
L 123.135331 256.619212 
L 123.491808 256.205236 
L 123.840618 255.765387 
L 124.055863 255.610146 
L 124.237464 255.299664 
L 125.228722 254.031862 
L 125.31905 253.850748 
L 125.485315 253.592013 
L 126.193129 252.582947 
L 126.319101 252.453579 
L 126.400063 252.272465 
L 126.508684 252.194844 
L 126.669434 252.01373 
L 126.92981 251.548007 
L 127.370739 251.134031 
L 127.505128 250.849422 
L 127.619663 250.642434 
L 128.859747 248.727796 
L 129.516806 247.951591 
L 129.625291 247.770476 
L 130.023926 247.382374 
L 130.109776 247.201259 
L 130.348678 247.046018 
L 130.895388 246.269813 
L 130.970708 246.140446 
L 131.18248 245.959331 
L 131.345039 245.72647 
L 131.492148 245.493609 
L 131.628937 245.234874 
L 131.860708 244.872645 
L 132.041718 244.588036 
L 132.234671 244.381048 
L 132.331031 244.148187 
L 132.84689 243.475476 
L 133.011494 243.164994 
L 133.319951 242.673397 
L 136.905216 236.541379 
L 137.026338 236.308517 
L 137.654257 235.558186 
L 138.992082 233.410686 
L 140.342011 230.978577 
L 140.432874 230.797463 
L 140.510573 230.590475 
L 140.619251 230.40936 
L 141.002963 229.684902 
L 141.154053 229.529661 
L 141.348722 229.063938 
L 141.591904 228.675836 
L 141.708198 228.442974 
L 143.013693 225.803878 
L 143.256151 225.260534 
L 143.411944 225.053546 
L 143.829064 224.277341 
L 144.006357 224.070353 
L 144.077858 223.811619 
L 144.187845 223.656378 
L 144.294403 223.423516 
L 144.423664 223.242402 
L 144.621855 222.750805 
L 144.759024 222.440323 
L 144.879168 222.207462 
L 146.515915 219.102642 
L 146.792935 218.455805 
L 147.315203 217.420865 
L 147.535742 217.006889 
L 147.63324 216.748154 
L 147.835598 216.308305 
L 148.131139 215.946076 
L 149.580917 212.530774 
L 149.741634 212.272039 
L 149.872946 212.039178 
L 150.341684 211.211226 
L 150.476077 210.823123 
L 150.573058 210.642009 
L 150.691509 210.383274 
L 152.030018 208.028786 
L 152.174131 207.459569 
L 153.622872 204.898093 
L 153.791495 204.535864 
L 154.408533 203.293936 
L 154.512069 202.854086 
L 154.689326 202.465984 
L 155.021923 201.7674 
L 155.179236 201.612159 
L 155.242556 201.456918 
L 155.343711 201.198183 
L 155.56564 200.913574 
L 156.39332 198.817821 
L 157.311245 196.644447 
L 157.419381 196.463333 
L 157.587832 195.99761 
L 157.873613 195.092037 
L 158.032265 194.729809 
L 158.146535 194.4452 
L 158.404035 193.901857 
L 158.555811 193.41026 
L 158.684368 193.229146 
L 158.820558 193.022158 
L 159.004373 192.634055 
L 159.405193 191.806103 
L 159.53954 191.418001 
L 159.8243 190.719417 
L 159.986657 190.564176 
L 160.155641 190.124326 
L 160.296231 189.813844 
L 160.453459 189.373995 
L 161.069554 187.795711 
L 161.19956 187.433483 
L 161.645007 186.52791 
L 161.828657 186.139808 
L 161.938466 185.855199 
L 162.292061 184.820259 
L 162.380683 184.665018 
L 163.372687 182.621012 
L 163.530029 182.414024 
L 163.671804 182.129416 
L 163.771666 181.948301 
L 163.906212 181.560199 
L 163.96646 181.404958 
L 164.094469 181.042729 
L 164.207114 180.835741 
L 164.389423 180.447638 
L 164.524206 179.930169 
L 164.836202 179.102217 
L 164.957545 178.946976 
L 165.071455 178.739988 
L 165.296627 178.144897 
L 165.435366 177.860289 
L 165.587529 177.653301 
L 165.707489 177.342819 
L 165.964135 176.877096 
L 166.343653 176.100891 
L 166.438513 175.919777 
L 166.541442 175.531674 
L 166.787575 174.884837 
L 166.978821 174.574355 
L 167.095031 174.263873 
L 167.328791 173.772276 
L 167.466926 173.591162 
L 167.846832 172.840831 
L 168.115575 172.142246 
L 168.387062 171.72827 
L 168.479072 171.495409 
L 168.593419 171.314294 
L 169.737758 168.623451 
L 169.784573 168.442336 
L 169.927601 168.002487 
L 170.143002 167.588511 
L 170.390167 166.941673 
L 170.508648 166.760559 
L 170.600264 166.39833 
L 170.695391 166.165468 
L 170.799018 165.984354 
L 171.533275 164.25083 
L 171.668201 163.888601 
L 171.796783 163.655739 
L 172.143419 162.620799 
L 172.209131 162.439685 
L 172.35757 161.896342 
L 172.527974 161.456492 
L 172.814628 160.62854 
L 172.8861 160.421552 
L 172.996043 160.059323 
L 173.174279 159.51598 
L 173.255119 159.360739 
L 173.619041 158.610407 
L 173.714724 158.40342 
L 173.800111 158.222305 
L 173.913007 157.96357 
L 174.212569 157.36848 
L 174.324258 157.083871 
L 174.446676 156.799263 
L 174.569939 156.618148 
L 174.646015 156.437034 
L 174.841799 155.81607 
L 175.145012 155.143359 
L 175.348039 154.651763 
L 175.478675 154.315407 
L 175.771928 153.797937 
L 175.898908 153.565076 
L 176.969067 151.495196 
L 178.493903 148.674985 
L 178.601154 148.519744 
L 178.886481 148.002274 
L 179.603281 146.656852 
L 179.794974 146.34637 
L 180.151879 145.518418 
L 180.206029 145.363177 
L 180.311288 145.156189 
L 180.447105 144.923328 
L 180.933993 143.784894 
L 181.091027 143.370918 
L 181.188338 143.16393 
L 181.328673 142.931069 
L 181.428259 142.749954 
L 181.696008 142.258358 
L 181.888863 141.922002 
L 183.412154 138.092725 
L 183.727547 137.730496 
L 183.824903 137.523508 
L 183.910193 137.342393 
L 184.057412 136.928417 
L 184.169672 136.617936 
L 184.2578 136.436821 
L 184.366664 136.255707 
L 184.61884 135.789984 
L 184.734017 135.660616 
L 184.847755 135.350134 
L 185.062282 135.039652 
L 185.229062 134.65155 
L 185.387281 134.185827 
L 185.503107 133.849471 
L 185.676875 133.461369 
L 186.044665 132.607544 
L 186.198905 132.219441 
L 190.365834 123.603567 
L 190.580236 123.137844 
L 190.758026 122.904982 
L 191.060233 122.439259 
L 191.186177 122.284018 
L 193.611831 117.730283 
L 193.767518 117.393928 
L 193.851003 117.083446 
L 193.959327 116.798837 
L 194.309489 116.255494 
L 194.453986 115.945012 
L 196.102191 112.659078 
L 196.186305 112.477963 
L 196.340584 112.115734 
L 196.567995 111.753505 
L 196.722827 111.520644 
L 196.870294 111.313656 
L 198.872634 107.79486 
L 199.117245 107.484379 
L 199.226479 107.12215 
L 200.008584 105.802601 
L 200.171041 105.517993 
L 200.664405 104.690041 
L 200.770092 104.560673 
L 200.989237 104.250191 
L 201.006112 104.146697 
L 201.154384 104.01733 
L 201.261226 103.810342 
L 201.713762 102.90477 
L 201.896078 102.594288 
L 202.004481 102.413173 
L 202.167441 102.206185 
L 202.46071 101.714589 
L 203.58748 99.774077 
L 203.774948 99.28248 
L 203.93341 99.101366 
L 204.087578 98.816757 
L 204.25006 98.661516 
L 204.343917 98.325161 
L 204.472742 98.16992 
L 204.768428 97.600703 
L 204.837188 97.367841 
L 204.961931 97.109106 
L 205.169375 96.850371 
L 206.121462 95.272088 
L 206.254821 95.116847 
L 206.426087 94.806365 
L 206.600199 94.521757 
L 206.705095 94.340642 
L 206.963128 93.849046 
L 207.45266 92.891727 
L 207.649206 92.710612 
L 207.780842 92.374257 
L 207.897126 92.219016 
L 208.026254 92.089648 
L 208.151561 91.779166 
L 208.285047 91.546305 
L 208.759279 90.7701 
L 209.018919 90.459618 
L 209.088634 90.381997 
L 209.244708 90.226756 
L 209.40261 89.942148 
L 209.634407 89.73516 
L 209.899591 89.502299 
L 210.110786 89.062449 
L 210.220744 88.907208 
L 210.347612 88.6226 
L 210.589833 88.156877 
L 211.266161 87.121937 
L 211.426109 86.940822 
L 211.535186 86.733834 
L 211.69573 86.319858 
L 211.834642 86.11287 
L 211.991354 85.880009 
L 212.168997 85.724768 
L 212.766233 84.819196 
L 213.324197 83.96537 
L 213.491718 83.836003 
L 213.604638 83.551394 
L 213.724971 83.37028 
L 213.831423 83.215039 
L 213.997829 82.956304 
L 215.418939 80.78293 
L 215.547841 80.601816 
L 215.72339 80.291334 
L 216.405801 79.489255 
L 216.505235 79.308141 
L 216.582495 79.127026 
L 216.689993 78.971785 
L 216.90634 78.790671 
L 217.039688 78.506063 
L 217.137051 78.324948 
L 217.337672 78.014466 
L 217.440755 77.755731 
L 217.626961 77.419376 
L 217.891267 77.186514 
L 217.968369 77.08302 
L 218.172586 76.927779 
L 218.426212 76.617297 
L 218.585445 76.384436 
L 218.785157 75.866966 
L 218.852719 75.711725 
L 219.050437 75.271875 
L 219.691729 74.495671 
L 219.924407 74.288683 
L 220.040421 74.133442 
L 220.259671 73.82296 
L 220.443827 73.408984 
L 220.982955 72.736273 
L 221.090725 72.606905 
L 221.207825 72.425791 
L 221.391157 72.192929 
L 221.497672 71.960068 
L 221.721147 71.727206 
L 221.870201 71.546092 
L 222.074419 71.313231 
L 222.182972 71.183863 
L 222.443563 71.002749 
L 222.971821 70.692267 
L 223.07301 70.562899 
L 223.199356 70.381785 
L 223.60106 69.838441 
L 223.703941 69.734947 
L 225.002517 67.949676 
L 225.208475 67.742688 
L 225.574522 67.225218 
L 225.721051 67.01823 
L 225.827752 66.888863 
L 226.22944 66.319646 
L 226.563509 65.98329 
L 226.797497 65.802176 
L 226.799621 65.776302 
L 227.045933 65.621061 
L 228.151272 64.172145 
L 228.381102 63.991031 
L 228.623123 63.628802 
L 228.751456 63.473561 
L 229.207771 62.981965 
L 229.316874 62.852597 
L 229.443492 62.697356 
L 229.577751 62.386874 
L 229.796944 62.154013 
L 229.878285 62.050519 
L 230.321232 61.714163 
L 231.028857 60.989705 
L 231.401511 60.73097 
L 231.503087 60.575729 
L 231.931557 60.213501 
L 232.043472 60.05826 
L 232.458163 59.644284 
L 232.580682 59.489043 
L 235.84872 56.410097 
L 236.244595 56.228982 
L 236.61529 55.944374 
L 236.846275 55.659765 
L 237.086388 55.504524 
L 237.499377 54.987054 
L 237.602874 54.831813 
L 238.301002 54.262596 
L 238.421229 54.133229 
L 238.648854 53.977988 
L 238.858913 53.693379 
L 238.927289 53.615759 
L 239.201622 53.408771 
L 239.424797 53.124163 
L 239.469457 53.046542 
L 239.807974 52.865428 
L 240.020673 52.632566 
L 240.225909 52.399705 
L 240.401311 52.192717 
L 241.523824 51.235397 
L 241.997186 50.873168 
L 242.240754 50.717927 
L 242.378092 50.485066 
L 242.636953 50.329825 
L 242.833891 50.174584 
L 244.600413 48.880909 
L 244.706616 48.777415 
L 244.986397 48.570427 
L 245.089738 48.389313 
L 246.567561 47.199132 
L 246.811567 47.043891 
L 247.243038 46.500547 
L 247.350336 46.319433 
L 247.946275 45.85371 
L 248.240794 45.620849 
L 248.366113 45.491481 
L 248.681132 45.33624 
L 248.944207 44.999885 
L 249.120533 44.870517 
L 249.456629 44.715276 
L 250.916647 43.395728 
L 251.113963 43.162866 
L 251.251933 43.033499 
L 252.281776 42.438408 
L 252.621927 42.283167 
L 252.681905 42.231421 
L 253.027885 42.07618 
L 253.629756 41.688077 
L 253.799815 41.506963 
L 254.542799 41.067113 
L 255.144568 40.808378 
L 255.207464 40.756631 
L 255.655333 40.52377 
L 257.552364 39.411209 
L 257.748724 39.307715 
L 257.933241 39.152474 
L 258.058783 39.074854 
L 258.229674 38.997233 
L 258.81114 38.583258 
L 258.828507 38.557384 
L 259.719427 38.324523 
L 260.455399 37.884673 
L 260.553704 37.807053 
L 261.077934 37.625938 
L 261.207367 37.496571 
L 261.692014 37.315456 
L 262.370679 37.056721 
L 262.492452 36.927354 
L 263.474176 36.565125 
L 263.673449 36.513378 
L 265.765128 35.86654 
L 266.49836 35.452564 
L 266.771819 35.297323 
L 266.959582 35.142082 
L 267.034383 35.038588 
L 267.379808 34.883348 
L 267.83235 34.598739 
L 268.712189 34.391751 
L 269.198842 34.133016 
L 269.988312 33.848408 
L 270.106522 33.770787 
L 270.699704 33.460305 
L 271.228789 33.330938 
L 272.747338 32.865215 
L 272.879342 32.787594 
L 273.342319 32.632353 
L 273.462519 32.528859 
L 276.575102 31.442172 
L 276.778306 31.390425 
L 277.052197 31.209311 
L 277.19665 31.105817 
L 280.783805 29.398166 
L 282.258383 29.035937 
L 282.551487 28.90657 
L 284.070841 28.751329 
L 284.453155 28.621961 
L 286.332649 27.975124 
L 286.522961 27.923377 
L 288.141887 27.535275 
L 288.613659 27.405907 
L 289.313763 27.147172 
L 289.404124 27.095425 
L 290.605602 26.75907 
L 291.297703 26.552082 
L 291.451437 26.500335 
L 292.293949 26.293347 
L 292.3139 26.267473 
L 293.353711 26.008738 
L 293.354255 25.982865 
L 297.33071 25.232533 
L 298.022844 25.103166 
L 298.43842 24.999672 
L 310.818525 23.447262 
L 310.819731 23.421389 
L 311.837626 23.292021 
L 312.946702 23.13678 
L 314.958036 22.800425 
L 314.963615 22.748678 
L 318.289873 22.515816 
L 323.303289 22.205334 
L 323.662475 22.153587 
L 329.010351 21.843105 
L 329.098157 21.817232 
L 331.337267 21.661991 
L 331.38129 21.636117 
L 333.392221 21.532623 
L 336.135198 21.351509 
L 336.197343 21.325635 
L 344.584368 21.041027 
L 351.070991 20.885786 
L 406.568932 20.187202 
L 424.972188 20.135455 
L 424.972188 20.135455 
" clip-path="url(#p5e00ca6ba9)" style="fill: none; stroke: #0173b2; stroke-width: 1.5; stroke-linecap: round"/>
   </g>
   <g id="line2d_14">
    <path d="M 76.799898 278.58581 
L 79.833268 278.428626 
L 82.866638 278.201729 
L 85.900008 277.884971 
L 88.933378 277.455702 
L 91.966748 276.889215 
L 95.000118 276.159306 
L 98.033488 275.238951 
L 101.066858 274.101047 
L 104.100228 272.719185 
L 107.133598 271.06843 
L 110.166969 269.12606 
L 113.200339 266.872237 
L 116.233709 264.290595 
L 119.267079 261.368712 
L 122.300449 258.09847 
L 125.333819 254.476277 
L 128.367189 250.503166 
L 131.400559 246.184772 
L 134.433929 241.531189 
L 137.467299 236.556729 
L 140.500669 231.279589 
L 143.534039 225.721448 
L 146.567409 219.907008 
L 149.600779 213.863495 
L 152.634149 207.620142 
L 155.667519 201.207657 
L 158.70089 194.65771 
L 161.73426 188.002423 
L 164.76763 181.273902 
L 167.801 174.503794 
L 170.83437 167.722899 
L 173.86774 160.960817 
L 176.90111 154.245649 
L 179.93448 147.603754 
L 182.96785 141.059544 
L 186.00122 134.635339 
L 189.03459 128.351262 
L 192.06796 122.22518 
L 195.10133 116.272679 
L 198.1347 110.507081 
L 201.16807 104.939492 
L 204.20144 99.578865 
L 207.23481 94.432103 
L 210.268181 89.504163 
L 213.301551 84.798187 
L 216.334921 80.315635 
L 219.368291 76.056428 
L 222.401661 72.019096 
L 225.435031 68.200923 
L 228.468401 64.598093 
L 231.501771 61.205839 
L 234.535141 58.018569 
L 237.568511 55.03001 
L 240.601881 52.233323 
L 243.635251 49.621223 
L 246.668621 47.186084 
L 249.701991 44.92004 
L 252.735361 42.815071 
L 255.768731 40.863085 
L 258.802101 39.055986 
L 261.835472 37.385741 
L 264.868842 35.844428 
L 267.902212 34.424287 
L 270.935582 33.117759 
L 273.968952 31.917514 
L 277.002322 30.816481 
L 280.035692 29.807864 
L 283.069062 28.885161 
L 286.102432 28.042174 
L 289.135802 27.273012 
L 292.169172 26.572096 
L 295.202542 25.93416 
L 298.235912 25.354244 
L 301.269282 24.827692 
L 304.302652 24.350145 
L 307.336022 23.91753 
L 310.369393 23.52605 
L 313.402763 23.172177 
L 316.436133 22.852634 
L 319.469503 22.564389 
L 322.502873 22.304638 
L 325.536243 22.070798 
L 328.569613 21.860486 
L 331.602983 21.671516 
L 334.636353 21.501879 
L 337.669723 21.349736 
L 340.703093 21.213404 
L 343.736463 21.091349 
L 346.769833 20.982167 
L 349.803203 20.884585 
L 352.836573 20.797441 
L 355.869943 20.719682 
L 358.903313 20.650352 
L 361.936684 20.588586 
L 364.970054 20.533601 
L 368.003424 20.48469 
L 371.036794 20.441213 
L 374.070164 20.402594 
L 377.103534 20.368316 
" clip-path="url(#p5e00ca6ba9)" style="fill: none; stroke: #de8f05; stroke-width: 1.5; stroke-linecap: round"/>
   </g>
   <g id="patch_3">
    <path d="M 49.807188 291.78 
L 49.807188 7.2 
" style="fill: none; stroke: #262626; stroke-width: 1.25; stroke-linejoin: miter; stroke-linecap: square"/>
   </g>
   <g id="patch_4">
    <path d="M 442.837188 291.78 
L 442.837188 7.2 
" style="fill: none; stroke: #262626; stroke-width: 1.25; stroke-linejoin: miter; stroke-linecap: square"/>
   </g>
   <g id="patch_5">
    <path d="M 49.807188 291.78 
L 442.837188 291.78 
" style="fill: none; stroke: #262626; stroke-width: 1.25; stroke-linejoin: miter; stroke-linecap: square"/>
   </g>
   <g id="patch_6">
    <path d="M 49.807188 7.2 
L 442.837188 7.2 
" style="fill: none; stroke: #262626; stroke-width: 1.25; stroke-linejoin: miter; stroke-linecap: square"/>
   </g>
   <g id="legend_1">
    <g id="patch_7">
     <path d="M 348.809531 167.285937 
L 435.137188 167.285937 
Q 437.337188 167.285937 437.337188 165.085937 
L 437.337188 133.894062 
Q 437.337188 131.694062 435.137188 131.694062 
L 348.809531 131.694062 
Q 346.609531 131.694062 346.609531 133.894062 
L 346.609531 165.085937 
Q 346.609531 167.285937 348.809531 167.285937 
z
" style="fill: #ffffff; opacity: 0.8; stroke: #cccccc; stroke-linejoin: miter"/>
    </g>
    <g id="line2d_15">
     <path d="M 351.009531 140.602344 
L 362.009531 140.602344 
L 373.009531 140.602344 
" style="fill: none; stroke: #0173b2; stroke-width: 1.5; stroke-linecap: round"/>
    </g>
    <g id="text_15">
     <!-- Empirical -->
     <g style="fill: #262626" transform="translate(381.809531 144.452344) scale(0.11 -0.11)">
      <defs>
       <path id="DejaVuSans-45" d="M 628 4666 
L 3578 4666 
L 3578 4134 
L 1259 4134 
L 1259 2753 
L 3481 2753 
L 3481 2222 
L 1259 2222 
L 1259 531 
L 3634 531 
L 3634 0 
L 628 0 
L 628 4666 
z
" transform="scale(0.015625)"/>
       <path id="DejaVuSans-72" d="M 2631 2963 
Q 2534 3019 2420 3045 
Q 2306 3072 2169 3072 
Q 1681 3072 1420 2755 
Q 1159 2438 1159 1844 
L 1159 0 
L 581 0 
L 581 3500 
L 1159 3500 
L 1159 2956 
Q 1341 3275 1631 3429 
Q 1922 3584 2338 3584 
Q 2397 3584 2469 3576 
Q 2541 3569 2628 3553 
L 2631 2963 
z
" transform="scale(0.015625)"/>
      </defs>
      <use xlink:href="#DejaVuSans-45"/>
      <use xlink:href="#DejaVuSans-6d" transform="translate(63.183594 0)"/>
      <use xlink:href="#DejaVuSans-70" transform="translate(160.595703 0)"/>
      <use xlink:href="#DejaVuSans-69" transform="translate(224.072266 0)"/>
      <use xlink:href="#DejaVuSans-72" transform="translate(251.855469 0)"/>
      <use xlink:href="#DejaVuSans-69" transform="translate(292.96875 0)"/>
      <use xlink:href="#DejaVuSans-63" transform="translate(320.751953 0)"/>
      <use xlink:href="#DejaVuSans-61" transform="translate(375.732422 0)"/>
      <use xlink:href="#DejaVuSans-6c" transform="translate(437.011719 0)"/>
     </g>
    </g>
    <g id="line2d_16">
     <path d="M 351.009531 156.748281 
L 362.009531 156.748281 
L 373.009531 156.748281 
" style="fill: none; stroke: #de8f05; stroke-width: 1.5; stroke-linecap: round"/>
    </g>
    <g id="text_16">
     <!-- Model -->
     <g style="fill: #262626" transform="translate(381.809531 160.598281) scale(0.11 -0.11)">
      <defs>
       <path id="DejaVuSans-4d" d="M 628 4666 
L 1569 4666 
L 2759 1491 
L 3956 4666 
L 4897 4666 
L 4897 0 
L 4281 0 
L 4281 4097 
L 3078 897 
L 2444 897 
L 1241 4097 
L 1241 0 
L 628 0 
L 628 4666 
z
" transform="scale(0.015625)"/>
      </defs>
      <use xlink:href="#DejaVuSans-4d"/>
      <use xlink:href="#DejaVuSans-6f" transform="translate(86.279297 0)"/>
      <use xlink:href="#DejaVuSans-64" transform="translate(147.460938 0)"/>
      <use xlink:href="#DejaVuSans-65" transform="translate(210.9375 0)"/>
      <use xlink:href="#DejaVuSans-6c" transform="translate(272.460938 0)"/>
     </g>
    </g>
   </g>
   <g id="text_17">
    <!-- KS D = 0.012 -->
    <g style="fill: #262626" transform="translate(371.785309 272.816211) scale(0.09996 -0.09996)">
     <defs>
      <path id="DejaVuSans-4b" d="M 628 4666 
L 1259 4666 
L 1259 2694 
L 3353 4666 
L 4166 4666 
L 1850 2491 
L 4331 0 
L 3500 0 
L 1259 2247 
L 1259 0 
L 628 0 
L 628 4666 
z
" transform="scale(0.015625)"/>
      <path id="DejaVuSans-53" d="M 3425 4513 
L 3425 3897 
Q 3066 4069 2747 4153 
Q 2428 4238 2131 4238 
Q 1616 4238 1336 4038 
Q 1056 3838 1056 3469 
Q 1056 3159 1242 3001 
Q 1428 2844 1947 2747 
L 2328 2669 
Q 3034 2534 3370 2195 
Q 3706 1856 3706 1288 
Q 3706 609 3251 259 
Q 2797 -91 1919 -91 
Q 1588 -91 1214 -16 
Q 841 59 441 206 
L 441 856 
Q 825 641 1194 531 
Q 1563 422 1919 422 
Q 2459 422 2753 634 
Q 3047 847 3047 1241 
Q 3047 1584 2836 1778 
Q 2625 1972 2144 2069 
L 1759 2144 
Q 1053 2284 737 2584 
Q 422 2884 422 3419 
Q 422 4038 858 4394 
Q 1294 4750 2059 4750 
Q 2388 4750 2728 4690 
Q 3069 4631 3425 4513 
z
" transform="scale(0.015625)"/>
      <path id="DejaVuSans-44" d="M 1259 4147 
L 1259 519 
L 2022 519 
Q 2988 519 3436 956 
Q 3884 1394 3884 2338 
Q 3884 3275 3436 3711 
Q 2988 4147 2022 4147 
L 1259 4147 
z
M 628 4666 
L 1925 4666 
Q 3281 4666 3915 4102 
Q 4550 3538 4550 2338 
Q 4550 1131 3912 565 
Q 3275 0 1925 0 
L 628 0 
L 628 4666 
z
" transform="scale(0.015625)"/>
      <path id="DejaVuSans-3d" d="M 678 2906 
L 4684 2906 
L 4684 2381 
L 678 2381 
L 678 2906 
z
M 678 1631 
L 4684 1631 
L 4684 1100 
L 678 1100 
L 678 1631 
z
" transform="scale(0.015625)"/>
     </defs>
     <use xlink:href="#DejaVuSans-4b"/>
     <use xlink:href="#DejaVuSans-53" transform="translate(65.576172 0)"/>
     <use xlink:href="#DejaVuSans-20" transform="translate(129.052734 0)"/>
     <use xlink:href="#DejaVuSans-44" transform="translate(160.839844 0)"/>
     <use xlink:href="#DejaVuSans-20" transform="translate(237.841797 0)"/>
     <use xlink:href="#DejaVuSans-3d" transform="translate(269.628906 0)"/>
     <use xlink:href="#DejaVuSans-20" transform="translate(353.417969 0)"/>
     <use xlink:href="#DejaVuSans-30" transform="translate(385.205078 0)"/>
     <use xlink:href="#DejaVuSans-2e" transform="translate(448.828125 0)"/>
     <use xlink:href="#DejaVuSans-30" transform="translate(480.615234 0)"/>
     <use xlink:href="#DejaVuSans-31" transform="translate(544.238281 0)"/>
     <use xlink:href="#DejaVuSans-32" transform="translate(607.861328 0)"/>
    </g>
    <!-- p = 0.1 -->
    <g style="fill: #262626" transform="translate(401.934183 284.009544) scale(0.09996 -0.09996)">
     <use xlink:href="#DejaVuSans-70"/>
     <use xlink:href="#DejaVuSans-20" transform="translate(63.476562 0)"/>
     <use xlink:href="#DejaVuSans-3d" transform="translate(95.263672 0)"/>
     <use xlink:href="#DejaVuSans-20" transform="translate(179.052734 0)"/>
     <use xlink:href="#DejaVuSans-30" transform="translate(210.839844 0)"/>
     <use xlink:href="#DejaVuSans-2e" transform="translate(274.462891 0)"/>
     <use xlink:href="#DejaVuSans-31" transform="translate(306.25 0)"/>
    </g>
   </g>
  </g>
 </g>
 <defs>
  <clipPath id="p5e00ca6ba9">
   <rect x="49.807188" y="7.2" width="393.03" height="284.58"/>
  </clipPath>
 </defs>
</svg>
