<?xml version="1.0" encoding="utf-8" standalone="no"?>
<!DOCTYPE svg PUBLIC "-//W3C//DTD SVG 1.1//EN"
  "http://www.w3.org/Graphics/SVG/1.1/DTD/svg11.dtd">
<svg xmlns:xlink="http://www.w3.org/1999/xlink" width="450.037187pt" height="335.073437pt" viewBox="0 0 450.037187 335.073437" xmlns="http://www.w3.org/2000/svg" version="1.1">
 <metadata>
  <rdf:RDF xmlns:dc="http://purl.org/dc/elements/1.1/" xmlns:cc="http://creativecommons.org/ns#" xmlns:rdf="http://www.w3.org/1999/02/22-rdf-syntax-ns#">
   <cc:Work>
    <dc:type rdf:resource="http://purl.org/dc/dcmitype/StillImage"/>
    <dc:date>2026-05-15T15:00:36.654293</dc:date>
    <dc:format>image/svg+xml</dc:format>
    <dc:creator>
     <cc:Agent>
      <dc:title>Matplotlib v3.10.9, https://matplotlib.org/</dc:title>
     </cc:Agent>
    </dc:creator>
   </cc:Work>
  </rdf:RDF>
 </metadata>
 <defs>
  <style type="text/css">*{stroke-linejoin: round; stroke-linecap: butt}</style>
 </defs>
 <g id="figure_1">
  <g id="patch_1">
   <path d="M 0 335.073437 
L 450.037187 335.073437 
L 450.037187 0 
L 0 0 
z
" style="fill: #ffffff"/>
  </g>
  <g id="axes_1">
   <g id="patch_2">
    <path d="M 49.807188 291.78 
L 442.837187 291.78 
L 442.837187 7.2 
L 49.807188 7.2 
z
" style="fill: #ffffff"/>
   </g>
   <g id="matplotlib.axis_1">
    <g id="xtick_1">
     <g id="line2d_1">
      <defs>
       <path id="md52cb80ce3" d="M 0 0 
L 0 6 
" style="stroke: #262626; stroke-width: 1.25"/>
      </defs>
      <g>
       <use xlink:href="#md52cb80ce3" x="97.356187" y="291.78" style="fill: #262626; stroke: #262626; stroke-width: 1.25"/>
      </g>
     </g>
     <g id="text_1">
      <!-- 0.0002 -->
      <g style="fill: #262626" transform="translate(78.111343 309.638281) scale(0.11 -0.11)">
       <defs>
        <path id="DejaVuSans-30" d="M 2034 4250 
Q 1547 4250 1301 3770 
Q 1056 3291 1056 2328 
Q 1056 1369 1301 889 
Q 1547 409 2034 409 
Q 2525 409 2770 889 
Q 3016 1369 3016 2328 
Q 3016 3291 2770 3770 
Q 2525 4250 2034 4250 
z
M 2034 4750 
Q 2819 4750 3233 4129 
Q 3647 3509 3647 2328 
Q 3647 1150 3233 529 
Q 2819 -91 2034 -91 
Q 1250 -91 836 529 
Q 422 1150 422 2328 
Q 422 3509 836 4129 
Q 1250 4750 2034 4750 
z
" transform="scale(0.015625)"/>
        <path id="DejaVuSans-2e" d="M 684 794 
L 1344 794 
L 1344 0 
L 684 0 
L 684 794 
z
" transform="scale(0.015625)"/>
        <path id="DejaVuSans-32" d="M 1228 531 
L 3431 531 
L 3431 0 
L 469 0 
L 469 531 
Q 828 903 1448 1529 
Q 2069 2156 2228 2338 
Q 2531 2678 2651 2914 
Q 2772 3150 2772 3378 
Q 2772 3750 2511 3984 
Q 2250 4219 1831 4219 
Q 1534 4219 1204 4116 
Q 875 4013 500 3803 
L 500 4441 
Q 881 4594 1212 4672 
Q 1544 4750 1819 4750 
Q 2544 4750 2975 4387 
Q 3406 4025 3406 3419 
Q 3406 3131 3298 2873 
Q 3191 2616 2906 2266 
Q 2828 2175 2409 1742 
Q 1991 1309 1228 531 
z
" transform="scale(0.015625)"/>
       </defs>
       <use xlink:href="#DejaVuSans-30"/>
       <use xlink:href="#DejaVuSans-2e" transform="translate(63.623047 0)"/>
       <use xlink:href="#DejaVuSans-30" transform="translate(95.410156 0)"/>
       <use xlink:href="#DejaVuSans-30" transform="translate(159.033203 0)"/>
       <use xlink:href="#DejaVuSans-30" transform="translate(222.65625 0)"/>
       <use xlink:href="#DejaVuSans-32" transform="translate(286.279297 0)"/>
      </g>
     </g>
    </g>
    <g id="xtick_2">
     <g id="line2d_2">
      <g>
       <use xlink:href="#md52cb80ce3" x="161.057267" y="291.78" style="fill: #262626; stroke: #262626; stroke-width: 1.25"/>
      </g>
     </g>
     <g id="text_2">
      <!-- 0.0004 -->
      <g style="fill: #262626" transform="translate(141.812424 309.638281) scale(0.11 -0.11)">
       <defs>
        <path id="DejaVuSans-34" d="M 2419 4116 
L 825 1625 
L 2419 1625 
L 2419 4116 
z
M 2253 4666 
L 3047 4666 
L 3047 1625 
L 3713 1625 
L 3713 1100 
L 3047 1100 
L 3047 0 
L 2419 0 
L 2419 1100 
L 313 1100 
L 313 1709 
L 2253 4666 
z
" transform="scale(0.015625)"/>
       </defs>
       <use xlink:href="#DejaVuSans-30"/>
       <use xlink:href="#DejaVuSans-2e" transform="translate(63.623047 0)"/>
       <use xlink:href="#DejaVuSans-30" transform="translate(95.410156 0)"/>
       <use xlink:href="#DejaVuSans-30" transform="translate(159.033203 0)"/>
       <use xlink:href="#DejaVuSans-30" transform="translate(222.65625 0)"/>
       <use xlink:href="#DejaVuSans-34" transform="translate(286.279297 0)"/>
      </g>
     </g>
    </g>
    <g id="xtick_3">
     <g id="line2d_3">
      <g>
       <use xlink:href="#md52cb80ce3" x="224.758348" y="291.78" style="fill: #262626; stroke: #262626; stroke-width: 1.25"/>
      </g>
     </g>
     <g id="text_3">
      <!-- 0.0006 -->
      <g style="fill: #262626" transform="translate(205.513504 309.638281) scale(0.11 -0.11)">
       <defs>
        <path id="DejaVuSans-36" d="M 2113 2584 
Q 1688 2584 1439 2293 
Q 1191 2003 1191 1497 
Q 1191 994 1439 701 
Q 1688 409 2113 409 
Q 2538 409 2786 701 
Q 3034 994 3034 1497 
Q 3034 2003 2786 2293 
Q 2538 2584 2113 2584 
z
M 3366 4563 
L 3366 3988 
Q 3128 4100 2886 4159 
Q 2644 4219 2406 4219 
Q 1781 4219 1451 3797 
Q 1122 3375 1075 2522 
Q 1259 2794 1537 2939 
Q 1816 3084 2150 3084 
Q 2853 3084 3261 2657 
Q 3669 2231 3669 1497 
Q 3669 778 3244 343 
Q 2819 -91 2113 -91 
Q 1303 -91 875 529 
Q 447 1150 447 2328 
Q 447 3434 972 4092 
Q 1497 4750 2381 4750 
Q 2619 4750 2861 4703 
Q 3103 4656 3366 4563 
z
" transform="scale(0.015625)"/>
       </defs>
       <use xlink:href="#DejaVuSans-30"/>
       <use xlink:href="#DejaVuSans-2e" transform="translate(63.623047 0)"/>
       <use xlink:href="#DejaVuSans-30" transform="translate(95.410156 0)"/>
       <use xlink:href="#DejaVuSans-30" transform="translate(159.033203 0)"/>
       <use xlink:href="#DejaVuSans-30" transform="translate(222.65625 0)"/>
       <use xlink:href="#DejaVuSans-36" transform="translate(286.279297 0)"/>
      </g>
     </g>
    </g>
    <g id="xtick_4">
     <g id="line2d_4">
      <g>
       <use xlink:href="#md52cb80ce3" x="288.459429" y="291.78" style="fill: #262626; stroke: #262626; stroke-width: 1.25"/>
      </g>
     </g>
     <g id="text_4">
      <!-- 0.0008 -->
      <g style="fill: #262626" transform="translate(269.214585 309.638281) scale(0.11 -0.11)">
       <defs>
        <path id="DejaVuSans-38" d="M 2034 2216 
Q 1584 2216 1326 1975 
Q 1069 1734 1069 1313 
Q 1069 891 1326 650 
Q 1584 409 2034 409 
Q 2484 409 2743 651 
Q 3003 894 3003 1313 
Q 3003 1734 2745 1975 
Q 2488 2216 2034 2216 
z
M 1403 2484 
Q 997 2584 770 2862 
Q 544 3141 544 3541 
Q 544 4100 942 4425 
Q 1341 4750 2034 4750 
Q 2731 4750 3128 4425 
Q 3525 4100 3525 3541 
Q 3525 3141 3298 2862 
Q 3072 2584 2669 2484 
Q 3125 2378 3379 2068 
Q 3634 1759 3634 1313 
Q 3634 634 3220 271 
Q 2806 -91 2034 -91 
Q 1263 -91 848 271 
Q 434 634 434 1313 
Q 434 1759 690 2068 
Q 947 2378 1403 2484 
z
M 1172 3481 
Q 1172 3119 1398 2916 
Q 1625 2713 2034 2713 
Q 2441 2713 2670 2916 
Q 2900 3119 2900 3481 
Q 2900 3844 2670 4047 
Q 2441 4250 2034 4250 
Q 1625 4250 1398 4047 
Q 1172 3844 1172 3481 
z
" transform="scale(0.015625)"/>
       </defs>
       <use xlink:href="#DejaVuSans-30"/>
       <use xlink:href="#DejaVuSans-2e" transform="translate(63.623047 0)"/>
       <use xlink:href="#DejaVuSans-30" transform="translate(95.410156 0)"/>
       <use xlink:href="#DejaVuSans-30" transform="translate(159.033203 0)"/>
       <use xlink:href="#DejaVuSans-30" transform="translate(222.65625 0)"/>
       <use xlink:href="#DejaVuSans-38" transform="translate(286.279297 0)"/>
      </g>
     </g>
    </g>
    <g id="xtick_5">
     <g id="line2d_5">
      <g>
       <use xlink:href="#md52cb80ce3" x="352.160509" y="291.78" style="fill: #262626; stroke: #262626; stroke-width: 1.25"/>
      </g>
     </g>
     <g id="text_5">
      <!-- 0.0010 -->
      <g style="fill: #262626" transform="translate(332.915666 309.638281) scale(0.11 -0.11)">
       <defs>
        <path id="DejaVuSans-31" d="M 794 531 
L 1825 531 
L 1825 4091 
L 703 3866 
L 703 4441 
L 1819 4666 
L 2450 4666 
L 2450 531 
L 3481 531 
L 3481 0 
L 794 0 
L 794 531 
z
" transform="scale(0.015625)"/>
       </defs>
       <use xlink:href="#DejaVuSans-30"/>
       <use xlink:href="#DejaVuSans-2e" transform="translate(63.623047 0)"/>
       <use xlink:href="#DejaVuSans-30" transform="translate(95.410156 0)"/>
       <use xlink:href="#DejaVuSans-30" transform="translate(159.033203 0)"/>
       <use xlink:href="#DejaVuSans-31" transform="translate(222.65625 0)"/>
       <use xlink:href="#DejaVuSans-30" transform="translate(286.279297 0)"/>
      </g>
     </g>
    </g>
    <g id="xtick_6">
     <g id="line2d_6">
      <g>
       <use xlink:href="#md52cb80ce3" x="415.86159" y="291.78" style="fill: #262626; stroke: #262626; stroke-width: 1.25"/>
      </g>
     </g>
     <g id="text_6">
      <!-- 0.0012 -->
      <g style="fill: #262626" transform="translate(396.616746 309.638281) scale(0.11 -0.11)">
       <use xlink:href="#DejaVuSans-30"/>
       <use xlink:href="#DejaVuSans-2e" transform="translate(63.623047 0)"/>
       <use xlink:href="#DejaVuSans-30" transform="translate(95.410156 0)"/>
       <use xlink:href="#DejaVuSans-30" transform="translate(159.033203 0)"/>
       <use xlink:href="#DejaVuSans-31" transform="translate(222.65625 0)"/>
       <use xlink:href="#DejaVuSans-32" transform="translate(286.279297 0)"/>
      </g>
     </g>
    </g>
    <g id="text_7">
     <!-- pop_size_c1sp1 -->
     <g style="fill: #262626" transform="translate(199.530625 325.044062) scale(0.12 -0.12)">
      <defs>
       <path id="DejaVuSans-70" d="M 1159 525 
L 1159 -1331 
L 581 -1331 
L 581 3500 
L 1159 3500 
L 1159 2969 
Q 1341 3281 1617 3432 
Q 1894 3584 2278 3584 
Q 2916 3584 3314 3078 
Q 3713 2572 3713 1747 
Q 3713 922 3314 415 
Q 2916 -91 2278 -91 
Q 1894 -91 1617 61 
Q 1341 213 1159 525 
z
M 3116 1747 
Q 3116 2381 2855 2742 
Q 2594 3103 2138 3103 
Q 1681 3103 1420 2742 
Q 1159 2381 1159 1747 
Q 1159 1113 1420 752 
Q 1681 391 2138 391 
Q 2594 391 2855 752 
Q 3116 1113 3116 1747 
z
" transform="scale(0.015625)"/>
       <path id="DejaVuSans-6f" d="M 1959 3097 
Q 1497 3097 1228 2736 
Q 959 2375 959 1747 
Q 959 1119 1226 758 
Q 1494 397 1959 397 
Q 2419 397 2687 759 
Q 2956 1122 2956 1747 
Q 2956 2369 2687 2733 
Q 2419 3097 1959 3097 
z
M 1959 3584 
Q 2709 3584 3137 3096 
Q 3566 2609 3566 1747 
Q 3566 888 3137 398 
Q 2709 -91 1959 -91 
Q 1206 -91 779 398 
Q 353 888 353 1747 
Q 353 2609 779 3096 
Q 1206 3584 1959 3584 
z
" transform="scale(0.015625)"/>
       <path id="DejaVuSans-5f" d="M 3263 -1063 
L 3263 -1509 
L -63 -1509 
L -63 -1063 
L 3263 -1063 
z
" transform="scale(0.015625)"/>
       <path id="DejaVuSans-73" d="M 2834 3397 
L 2834 2853 
Q 2591 2978 2328 3040 
Q 2066 3103 1784 3103 
Q 1356 3103 1142 2972 
Q 928 2841 928 2578 
Q 928 2378 1081 2264 
Q 1234 2150 1697 2047 
L 1894 2003 
Q 2506 1872 2764 1633 
Q 3022 1394 3022 966 
Q 3022 478 2636 193 
Q 2250 -91 1575 -91 
Q 1294 -91 989 -36 
Q 684 19 347 128 
L 347 722 
Q 666 556 975 473 
Q 1284 391 1588 391 
Q 1994 391 2212 530 
Q 2431 669 2431 922 
Q 2431 1156 2273 1281 
Q 2116 1406 1581 1522 
L 1381 1569 
Q 847 1681 609 1914 
Q 372 2147 372 2553 
Q 372 3047 722 3315 
Q 1072 3584 1716 3584 
Q 2034 3584 2315 3537 
Q 2597 3491 2834 3397 
z
" transform="scale(0.015625)"/>
       <path id="DejaVuSans-69" d="M 603 3500 
L 1178 3500 
L 1178 0 
L 603 0 
L 603 3500 
z
M 603 4863 
L 1178 4863 
L 1178 4134 
L 603 4134 
L 603 4863 
z
" transform="scale(0.015625)"/>
       <path id="DejaVuSans-7a" d="M 353 3500 
L 3084 3500 
L 3084 2975 
L 922 459 
L 3084 459 
L 3084 0 
L 275 0 
L 275 525 
L 2438 3041 
L 353 3041 
L 353 3500 
z
" transform="scale(0.015625)"/>
       <path id="DejaVuSans-65" d="M 3597 1894 
L 3597 1613 
L 953 1613 
Q 991 1019 1311 708 
Q 1631 397 2203 397 
Q 2534 397 2845 478 
Q 3156 559 3463 722 
L 3463 178 
Q 3153 47 2828 -22 
Q 2503 -91 2169 -91 
Q 1331 -91 842 396 
Q 353 884 353 1716 
Q 353 2575 817 3079 
Q 1281 3584 2069 3584 
Q 2775 3584 3186 3129 
Q 3597 2675 3597 1894 
z
M 3022 2063 
Q 3016 2534 2758 2815 
Q 2500 3097 2075 3097 
Q 1594 3097 1305 2825 
Q 1016 2553 972 2059 
L 3022 2063 
z
" transform="scale(0.015625)"/>
       <path id="DejaVuSans-63" d="M 3122 3366 
L 3122 2828 
Q 2878 2963 2633 3030 
Q 2388 3097 2138 3097 
Q 1578 3097 1268 2742 
Q 959 2388 959 1747 
Q 959 1106 1268 751 
Q 1578 397 2138 397 
Q 2388 397 2633 464 
Q 2878 531 3122 666 
L 3122 134 
Q 2881 22 2623 -34 
Q 2366 -91 2075 -91 
Q 1284 -91 818 406 
Q 353 903 353 1747 
Q 353 2603 823 3093 
Q 1294 3584 2113 3584 
Q 2378 3584 2631 3529 
Q 2884 3475 3122 3366 
z
" transform="scale(0.015625)"/>
      </defs>
      <use xlink:href="#DejaVuSans-70"/>
      <use xlink:href="#DejaVuSans-6f" transform="translate(63.476562 0)"/>
      <use xlink:href="#DejaVuSans-70" transform="translate(124.658203 0)"/>
      <use xlink:href="#DejaVuSans-5f" transform="translate(188.134766 0)"/>
      <use xlink:href="#DejaVuSans-73" transform="translate(238.134766 0)"/>
      <use xlink:href="#DejaVuSans-69" transform="translate(290.234375 0)"/>
      <use xlink:href="#DejaVuSans-7a" transform="translate(318.017578 0)"/>
      <use xlink:href="#DejaVuSans-65" transform="translate(370.507812 0)"/>
      <use xlink:href="#DejaVuSans-5f" transform="translate(432.03125 0)"/>
      <use xlink:href="#DejaVuSans-63" transform="translate(482.03125 0)"/>
      <use xlink:href="#DejaVuSans-31" transform="translate(537.011719 0)"/>
      <use xlink:href="#DejaVuSans-73" transform="translate(600.634766 0)"/>
      <use xlink:href="#DejaVuSans-70" transform="translate(652.734375 0)"/>
      <use xlink:href="#DejaVuSans-31" transform="translate(716.210938 0)"/>
     </g>
    </g>
   </g>
   <g id="matplotlib.axis_2">
    <g id="ytick_1">
     <g id="line2d_7">
      <defs>
       <path id="m771befae89" d="M 0 0 
L -6 0 
" style="stroke: #262626; stroke-width: 1.25"/>
      </defs>
      <g>
       <use xlink:href="#m771befae89" x="49.807188" y="278.844545" style="fill: #262626; stroke: #262626; stroke-width: 1.25"/>
      </g>
     </g>
     <g id="text_8">
      <!-- 0.0 -->
      <g style="fill: #262626" transform="translate(22.81375 283.023686) scale(0.11 -0.11)">
       <use xlink:href="#DejaVuSans-30"/>
       <use xlink:href="#DejaVuSans-2e" transform="translate(63.623047 0)"/>
       <use xlink:href="#DejaVuSans-30" transform="translate(95.410156 0)"/>
      </g>
     </g>
    </g>
    <g id="ytick_2">
     <g id="line2d_8">
      <g>
       <use xlink:href="#m771befae89" x="49.807188" y="227.097553" style="fill: #262626; stroke: #262626; stroke-width: 1.25"/>
      </g>
     </g>
     <g id="text_9">
      <!-- 0.2 -->
      <g style="fill: #262626" transform="translate(22.81375 231.276693) scale(0.11 -0.11)">
       <use xlink:href="#DejaVuSans-30"/>
       <use xlink:href="#DejaVuSans-2e" transform="translate(63.623047 0)"/>
       <use xlink:href="#DejaVuSans-32" transform="translate(95.410156 0)"/>
      </g>
     </g>
    </g>
    <g id="ytick_3">
     <g id="line2d_9">
      <g>
       <use xlink:href="#m771befae89" x="49.807188" y="175.35056" style="fill: #262626; stroke: #262626; stroke-width: 1.25"/>
      </g>
     </g>
     <g id="text_10">
      <!-- 0.4 -->
      <g style="fill: #262626" transform="translate(22.81375 179.5297) scale(0.11 -0.11)">
       <use xlink:href="#DejaVuSans-30"/>
       <use xlink:href="#DejaVuSans-2e" transform="translate(63.623047 0)"/>
       <use xlink:href="#DejaVuSans-34" transform="translate(95.410156 0)"/>
      </g>
     </g>
    </g>
    <g id="ytick_4">
     <g id="line2d_10">
      <g>
       <use xlink:href="#m771befae89" x="49.807188" y="123.603567" style="fill: #262626; stroke: #262626; stroke-width: 1.25"/>
      </g>
     </g>
     <g id="text_11">
      <!-- 0.6 -->
      <g style="fill: #262626" transform="translate(22.81375 127.782707) scale(0.11 -0.11)">
       <use xlink:href="#DejaVuSans-30"/>
       <use xlink:href="#DejaVuSans-2e" transform="translate(63.623047 0)"/>
       <use xlink:href="#DejaVuSans-36" transform="translate(95.410156 0)"/>
      </g>
     </g>
    </g>
    <g id="ytick_5">
     <g id="line2d_11">
      <g>
       <use xlink:href="#m771befae89" x="49.807188" y="71.856574" style="fill: #262626; stroke: #262626; stroke-width: 1.25"/>
      </g>
     </g>
     <g id="text_12">
      <!-- 0.8 -->
      <g style="fill: #262626" transform="translate(22.81375 76.035715) scale(0.11 -0.11)">
       <use xlink:href="#DejaVuSans-30"/>
       <use xlink:href="#DejaVuSans-2e" transform="translate(63.623047 0)"/>
       <use xlink:href="#DejaVuSans-38" transform="translate(95.410156 0)"/>
      </g>
     </g>
    </g>
    <g id="ytick_6">
     <g id="line2d_12">
      <g>
       <use xlink:href="#m771befae89" x="49.807188" y="20.109581" style="fill: #262626; stroke: #262626; stroke-width: 1.25"/>
      </g>
     </g>
     <g id="text_13">
      <!-- 1.0 -->
      <g style="fill: #262626" transform="translate(22.81375 24.288722) scale(0.11 -0.11)">
       <use xlink:href="#DejaVuSans-31"/>
       <use xlink:href="#DejaVuSans-2e" transform="translate(63.623047 0)"/>
       <use xlink:href="#DejaVuSans-30" transform="translate(95.410156 0)"/>
      </g>
     </g>
    </g>
    <g id="text_14">
     <!-- Cumulative density -->
     <g style="fill: #262626" transform="translate(16.318125 207.64125) rotate(-90) scale(0.12 -0.12)">
      <defs>
       <path id="DejaVuSans-43" d="M 4122 4306 
L 4122 3641 
Q 3803 3938 3442 4084 
Q 3081 4231 2675 4231 
Q 1875 4231 1450 3742 
Q 1025 3253 1025 2328 
Q 1025 1406 1450 917 
Q 1875 428 2675 428 
Q 3081 428 3442 575 
Q 3803 722 4122 1019 
L 4122 359 
Q 3791 134 3420 21 
Q 3050 -91 2638 -91 
Q 1578 -91 968 557 
Q 359 1206 359 2328 
Q 359 3453 968 4101 
Q 1578 4750 2638 4750 
Q 3056 4750 3426 4639 
Q 3797 4528 4122 4306 
z
" transform="scale(0.015625)"/>
       <path id="DejaVuSans-75" d="M 544 1381 
L 544 3500 
L 1119 3500 
L 1119 1403 
Q 1119 906 1312 657 
Q 1506 409 1894 409 
Q 2359 409 2629 706 
Q 2900 1003 2900 1516 
L 2900 3500 
L 3475 3500 
L 3475 0 
L 2900 0 
L 2900 538 
Q 2691 219 2414 64 
Q 2138 -91 1772 -91 
Q 1169 -91 856 284 
Q 544 659 544 1381 
z
M 1991 3584 
L 1991 3584 
z
" transform="scale(0.015625)"/>
       <path id="DejaVuSans-6d" d="M 3328 2828 
Q 3544 3216 3844 3400 
Q 4144 3584 4550 3584 
Q 5097 3584 5394 3201 
Q 5691 2819 5691 2113 
L 5691 0 
L 5113 0 
L 5113 2094 
Q 5113 2597 4934 2840 
Q 4756 3084 4391 3084 
Q 3944 3084 3684 2787 
Q 3425 2491 3425 1978 
L 3425 0 
L 2847 0 
L 2847 2094 
Q 2847 2600 2669 2842 
Q 2491 3084 2119 3084 
Q 1678 3084 1418 2786 
Q 1159 2488 1159 1978 
L 1159 0 
L 581 0 
L 581 3500 
L 1159 3500 
L 1159 2956 
Q 1356 3278 1631 3431 
Q 1906 3584 2284 3584 
Q 2666 3584 2933 3390 
Q 3200 3197 3328 2828 
z
" transform="scale(0.015625)"/>
       <path id="DejaVuSans-6c" d="M 603 4863 
L 1178 4863 
L 1178 0 
L 603 0 
L 603 4863 
z
" transform="scale(0.015625)"/>
       <path id="DejaVuSans-61" d="M 2194 1759 
Q 1497 1759 1228 1600 
Q 959 1441 959 1056 
Q 959 750 1161 570 
Q 1363 391 1709 391 
Q 2188 391 2477 730 
Q 2766 1069 2766 1631 
L 2766 1759 
L 2194 1759 
z
M 3341 1997 
L 3341 0 
L 2766 0 
L 2766 531 
Q 2569 213 2275 61 
Q 1981 -91 1556 -91 
Q 1019 -91 701 211 
Q 384 513 384 1019 
Q 384 1609 779 1909 
Q 1175 2209 1959 2209 
L 2766 2209 
L 2766 2266 
Q 2766 2663 2505 2880 
Q 2244 3097 1772 3097 
Q 1472 3097 1187 3025 
Q 903 2953 641 2809 
L 641 3341 
Q 956 3463 1253 3523 
Q 1550 3584 1831 3584 
Q 2591 3584 2966 3190 
Q 3341 2797 3341 1997 
z
" transform="scale(0.015625)"/>
       <path id="DejaVuSans-74" d="M 1172 4494 
L 1172 3500 
L 2356 3500 
L 2356 3053 
L 1172 3053 
L 1172 1153 
Q 1172 725 1289 603 
Q 1406 481 1766 481 
L 2356 481 
L 2356 0 
L 1766 0 
Q 1100 0 847 248 
Q 594 497 594 1153 
L 594 3053 
L 172 3053 
L 172 3500 
L 594 3500 
L 594 4494 
L 1172 4494 
z
" transform="scale(0.015625)"/>
       <path id="DejaVuSans-76" d="M 191 3500 
L 800 3500 
L 1894 563 
L 2988 3500 
L 3597 3500 
L 2284 0 
L 1503 0 
L 191 3500 
z
" transform="scale(0.015625)"/>
       <path id="DejaVuSans-20" transform="scale(0.015625)"/>
       <path id="DejaVuSans-64" d="M 2906 2969 
L 2906 4863 
L 3481 4863 
L 3481 0 
L 2906 0 
L 2906 525 
Q 2725 213 2448 61 
Q 2172 -91 1784 -91 
Q 1150 -91 751 415 
Q 353 922 353 1747 
Q 353 2572 751 3078 
Q 1150 3584 1784 3584 
Q 2172 3584 2448 3432 
Q 2725 3281 2906 2969 
z
M 947 1747 
Q 947 1113 1208 752 
Q 1469 391 1925 391 
Q 2381 391 2643 752 
Q 2906 1113 2906 1747 
Q 2906 2381 2643 2742 
Q 2381 3103 1925 3103 
Q 1469 3103 1208 2742 
Q 947 2381 947 1747 
z
" transform="scale(0.015625)"/>
       <path id="DejaVuSans-6e" d="M 3513 2113 
L 3513 0 
L 2938 0 
L 2938 2094 
Q 2938 2591 2744 2837 
Q 2550 3084 2163 3084 
Q 1697 3084 1428 2787 
Q 1159 2491 1159 1978 
L 1159 0 
L 581 0 
L 581 3500 
L 1159 3500 
L 1159 2956 
Q 1366 3272 1645 3428 
Q 1925 3584 2291 3584 
Q 2894 3584 3203 3211 
Q 3513 2838 3513 2113 
z
" transform="scale(0.015625)"/>
       <path id="DejaVuSans-79" d="M 2059 -325 
Q 1816 -950 1584 -1140 
Q 1353 -1331 966 -1331 
L 506 -1331 
L 506 -850 
L 844 -850 
Q 1081 -850 1212 -737 
Q 1344 -625 1503 -206 
L 1606 56 
L 191 3500 
L 800 3500 
L 1894 763 
L 2988 3500 
L 3597 3500 
L 2059 -325 
z
" transform="scale(0.015625)"/>
      </defs>
      <use xlink:href="#DejaVuSans-43"/>
      <use xlink:href="#DejaVuSans-75" transform="translate(69.824219 0)"/>
      <use xlink:href="#DejaVuSans-6d" transform="translate(133.203125 0)"/>
      <use xlink:href="#DejaVuSans-75" transform="translate(230.615234 0)"/>
      <use xlink:href="#DejaVuSans-6c" transform="translate(293.994141 0)"/>
      <use xlink:href="#DejaVuSans-61" transform="translate(321.777344 0)"/>
      <use xlink:href="#DejaVuSans-74" transform="translate(383.056641 0)"/>
      <use xlink:href="#DejaVuSans-69" transform="translate(422.265625 0)"/>
      <use xlink:href="#DejaVuSans-76" transform="translate(450.048828 0)"/>
      <use xlink:href="#DejaVuSans-65" transform="translate(509.228516 0)"/>
      <use xlink:href="#DejaVuSans-20" transform="translate(570.751953 0)"/>
      <use xlink:href="#DejaVuSans-64" transform="translate(602.539062 0)"/>
      <use xlink:href="#DejaVuSans-65" transform="translate(666.015625 0)"/>
      <use xlink:href="#DejaVuSans-6e" transform="translate(727.539062 0)"/>
      <use xlink:href="#DejaVuSans-73" transform="translate(790.917969 0)"/>
      <use xlink:href="#DejaVuSans-69" transform="translate(843.017578 0)"/>
      <use xlink:href="#DejaVuSans-74" transform="translate(870.800781 0)"/>
      <use xlink:href="#DejaVuSans-79" transform="translate(910.009766 0)"/>
     </g>
    </g>
   </g>
   <g id="FillBetweenPolyCollection_1"/>
   <g id="FillBetweenPolyCollection_2"/>
   <g id="line2d_13">
    <path d="M 67.672188 278.844545 
L 70.369011 278.792798 
L 82.294223 278.58581 
L 85.697 278.327076 
L 90.736705 277.757859 
L 92.596048 277.550871 
L 93.076065 277.421503 
L 93.789052 277.292136 
L 93.883735 277.240389 
L 94.226813 277.162768 
L 95.196295 277.007527 
L 96.695486 276.645298 
L 96.844596 276.567678 
L 97.358851 276.412437 
L 97.660645 276.308943 
L 99.638639 275.791473 
L 100.958487 275.506864 
L 101.724731 275.351623 
L 101.821578 275.299876 
L 102.473387 275.118762 
L 103.580319 274.756533 
L 104.319574 274.601292 
L 104.529153 274.497798 
L 105.08859 274.342557 
L 105.556151 274.032075 
L 106.179943 273.850961 
L 106.392787 273.747467 
L 107.172665 273.462858 
L 107.652857 273.333491 
L 107.950934 273.204123 
L 108.146393 273.100629 
L 108.946946 272.712527 
L 109.37865 272.557286 
L 109.450731 272.505539 
L 109.920718 272.376171 
L 111.073932 271.70346 
L 111.451001 271.548219 
L 112.419109 270.927256 
L 112.635842 270.668521 
L 112.822708 270.5909 
L 113.100382 270.461533 
L 113.329974 270.228671 
L 113.447736 270.125177 
L 113.804424 269.969936 
L 114.28079 269.633581 
L 114.558431 269.47834 
L 115.450923 268.883249 
L 115.616101 268.702135 
L 115.715324 268.52102 
L 115.965003 268.339906 
L 116.246292 268.132918 
L 116.450229 267.951803 
L 116.735614 267.641321 
L 116.986673 267.460207 
L 117.17007 267.279093 
L 117.756361 266.89099 
L 119.728945 265.442074 
L 119.900621 265.312707 
L 120.14307 265.105719 
L 120.258824 264.976351 
L 120.399158 264.769363 
L 120.758398 264.381261 
L 121.301788 264.122526 
L 121.38273 264.019032 
L 121.754244 263.656803 
L 121.892775 263.475689 
L 122.755058 262.984092 
L 122.870841 262.777104 
L 124.854845 261.198821 
L 124.911027 261.1212 
L 125.127843 260.940086 
L 125.332626 260.733098 
L 125.466843 260.551983 
L 125.750201 260.267375 
L 125.850553 260.189755 
L 126.688077 259.387676 
L 126.985257 259.206562 
L 127.126325 258.999574 
L 127.256957 258.844333 
L 127.618499 258.637345 
L 127.778067 258.404483 
L 128.628428 257.447164 
L 128.792936 257.162555 
L 128.953053 256.929694 
L 129.230726 256.515718 
L 129.465612 256.256983 
L 129.563689 255.920628 
L 130.455446 254.911561 
L 130.63435 254.6787 
L 130.944709 254.23885 
L 131.115969 254.031862 
L 131.294265 253.773127 
L 131.425537 253.514392 
L 131.508043 253.359151 
L 133.87136 250.875296 
L 133.977675 250.694181 
L 134.137818 250.53894 
L 135.232738 249.633368 
L 135.401316 249.400507 
L 135.529975 249.271139 
L 135.743909 248.857163 
L 135.922636 248.676049 
L 137.297782 246.450928 
L 137.471634 246.218066 
L 137.554992 246.114572 
L 137.704281 245.959331 
L 137.838919 245.778217 
L 137.951399 245.597103 
L 138.105497 245.415988 
L 138.231719 245.260747 
L 138.60171 244.769151 
L 138.692893 244.562163 
L 139.333083 243.294361 
L 139.539313 243.009753 
L 140.707726 241.095114 
L 140.858959 240.914 
L 141.320544 240.215415 
L 141.433782 239.982554 
L 141.585742 239.827313 
L 141.79004 239.542704 
L 142.173463 238.973487 
L 142.271795 238.740626 
L 142.583563 238.016168 
L 142.691472 237.860927 
L 143.584878 236.230897 
L 144.121081 235.402945 
L 144.574651 234.704361 
L 145.144947 233.721168 
L 145.376145 233.333065 
L 145.494337 233.07433 
L 145.696323 232.841469 
L 146.78096 231.263186 
L 146.995335 230.900957 
L 147.378182 230.228246 
L 147.434369 230.073005 
L 147.583749 229.762523 
L 147.908775 229.245053 
L 148.050318 228.960444 
L 148.215887 228.727583 
L 148.340676 228.546468 
L 148.491405 228.313607 
L 148.576997 228.132492 
L 148.745069 227.951378 
L 148.877432 227.692643 
L 148.96874 227.485655 
L 149.975272 225.959119 
L 150.164925 225.803878 
L 150.580304 225.027673 
L 150.696205 224.794811 
L 150.806168 224.56195 
L 150.905562 224.406709 
L 151.174624 223.682251 
L 151.431606 223.371769 
L 152.371747 221.560624 
L 152.527446 221.353636 
L 152.864615 220.86204 
L 153.116651 220.26695 
L 153.765123 219.257883 
L 153.935844 218.947401 
L 154.146734 218.507552 
L 154.377888 218.093576 
L 154.476597 217.964208 
L 154.620132 217.75722 
L 154.746373 217.446738 
L 154.858082 217.188003 
L 154.968972 216.877521 
L 155.135992 216.618787 
L 155.244252 216.411799 
L 155.401381 216.101317 
L 155.526971 215.687341 
L 155.686058 215.376859 
L 155.852786 215.118124 
L 156.141254 214.781768 
L 156.558428 214.134931 
L 156.65603 213.97969 
L 156.812282 213.695081 
L 157.23177 213.048244 
L 157.503801 212.556648 
L 157.912081 211.90981 
L 158.061275 211.625202 
L 158.152318 211.469961 
L 158.810652 209.943424 
L 158.877753 209.788183 
L 158.954547 209.581195 
L 159.127845 209.400081 
L 159.284411 209.16722 
L 159.499632 208.882611 
L 159.743106 208.287521 
L 159.853298 208.158153 
L 160.546768 206.735111 
L 160.896018 206.088273 
L 161.307536 205.105081 
L 161.522412 204.665231 
L 161.645914 204.303002 
L 161.902437 203.682038 
L 162.139518 203.138695 
L 162.260886 202.802339 
L 162.422951 202.647098 
L 162.551301 202.44011 
L 162.761759 202.052008 
L 164.616528 198.222731 
L 164.715108 198.06749 
L 164.853585 197.731134 
L 165.204077 196.929056 
L 165.335476 196.670321 
L 165.513608 196.333965 
L 165.68562 195.971736 
L 166.070301 195.117911 
L 166.239174 194.755682 
L 166.400781 194.471074 
L 166.609671 194.005351 
L 166.77827 193.643122 
L 166.952985 193.384387 
L 167.736328 191.521495 
L 168.010951 191.314507 
L 168.15128 191.081646 
L 168.234298 190.874658 
L 168.365948 190.408935 
L 169.011257 188.856525 
L 169.114335 188.67541 
L 169.509137 187.769838 
L 169.877112 187.148874 
L 170.033656 186.916013 
L 170.743699 185.41535 
L 170.893114 185.078994 
L 171.181231 184.535651 
L 171.273624 184.406283 
L 171.402126 184.173422 
L 171.756159 183.448964 
L 172.152045 182.414024 
L 172.246353 182.207036 
L 172.441036 181.71544 
L 172.652141 181.223843 
L 172.816877 180.861614 
L 172.947758 180.654626 
L 173.07071 180.447638 
L 174.194505 178.403632 
L 174.319532 178.119024 
L 174.670121 177.316945 
L 174.770615 177.006463 
L 174.913488 176.644235 
L 175.038095 176.256132 
L 175.208461 176.023271 
L 175.303158 175.842156 
L 176.035392 174.263873 
L 176.188165 173.927517 
L 176.337912 173.487668 
L 176.470143 173.228933 
L 176.640761 172.996072 
L 176.79318 172.711463 
L 176.952459 172.556222 
L 177.157572 171.961132 
L 177.449844 171.417788 
L 177.615019 171.081433 
L 177.750177 170.69333 
L 177.898167 170.486342 
L 178.409431 169.347909 
L 178.4753 169.166794 
L 178.58058 169.011553 
L 179.440054 167.303902 
L 179.758707 166.682938 
L 180.102282 165.95848 
L 180.179984 165.596252 
L 180.330707 165.441011 
L 180.437633 165.156402 
L 180.943803 163.526372 
L 181.08977 163.397004 
L 181.480397 162.594926 
L 181.592115 162.413811 
L 181.716687 162.18095 
L 181.848755 161.870468 
L 181.979778 161.611733 
L 182.144321 161.223631 
L 182.256505 161.06839 
L 182.366052 160.861402 
L 183.170707 159.308992 
L 183.298708 159.127877 
L 184.014643 157.394353 
L 184.308798 156.954504 
L 184.452215 156.747516 
L 184.725397 156.126552 
L 185.134606 155.324473 
L 185.429482 154.70351 
L 188.490431 148.907846 
L 188.688536 148.364503 
L 188.866919 147.924653 
L 189.064988 147.484804 
L 189.380392 146.837967 
L 189.543855 146.527485 
L 190.116585 145.673659 
L 190.411444 144.975075 
L 190.629522 144.535225 
L 190.736609 144.121249 
L 190.930506 143.733147 
L 191.124816 143.293298 
L 193.96665 137.135405 
L 194.372998 136.359201 
L 194.484301 136.074592 
L 194.654505 135.738237 
L 194.95498 135.220767 
L 195.087359 135.065526 
L 195.208508 134.858538 
L 195.278934 134.703297 
L 195.393637 134.496309 
L 195.692119 133.771851 
L 195.96344 133.073267 
L 196.068444 132.788658 
L 196.261469 132.374682 
L 196.366135 132.219441 
L 196.562499 131.960706 
L 196.683506 131.676098 
L 196.725316 131.494983 
L 196.81939 131.365616 
L 196.893164 131.210375 
L 197.259961 130.589411 
L 197.417919 130.356549 
L 197.528212 130.123688 
L 197.678234 129.787332 
L 197.850542 129.502724 
L 198.640622 128.105555 
L 198.77787 127.924441 
L 198.940447 127.484591 
L 199.053978 127.303477 
L 199.197406 127.044742 
L 199.350122 126.73426 
L 199.998429 125.440585 
L 200.126477 125.259471 
L 200.350936 124.923115 
L 200.50917 124.509139 
L 200.578067 124.328025 
L 200.726633 123.914049 
L 200.845121 123.758808 
L 201.157746 123.11197 
L 201.235088 122.930856 
L 202.555489 120.162392 
L 202.681998 119.92953 
L 203.693463 118.066639 
L 203.810042 117.911398 
L 204.300089 117.083446 
L 205.182273 115.427542 
L 205.416659 115.065313 
L 205.752518 114.366729 
L 205.858732 114.159741 
L 206.190834 113.538777 
L 206.289271 113.357662 
L 206.601967 112.891939 
L 206.724407 112.659078 
L 207.229269 112.089861 
L 207.349861 111.701758 
L 208.100461 110.485704 
L 208.26065 110.330463 
L 208.423728 110.045855 
L 208.572146 109.761246 
L 208.687459 109.606005 
L 209.353899 108.571065 
L 209.491898 108.364077 
L 209.629023 108.208836 
L 209.816908 107.79486 
L 210.866654 106.009589 
L 210.977174 105.776728 
L 211.209929 105.285131 
L 211.511791 104.793535 
L 211.529189 104.715914 
L 211.76941 104.560673 
L 212.153239 103.784469 
L 212.280289 103.525734 
L 213.12855 101.818083 
L 213.436559 101.378233 
L 213.518532 101.248866 
L 213.649131 101.093625 
L 213.757863 100.990131 
L 214.007699 100.705522 
L 214.147001 100.524408 
L 214.421315 100.162179 
L 214.53332 99.877571 
L 214.742674 99.437721 
L 214.834296 99.230733 
L 215.259755 98.868504 
L 217.237095 95.116847 
L 217.381208 94.961606 
L 217.503537 94.702871 
L 217.959228 93.926666 
L 218.091786 93.745552 
L 218.235044 93.642058 
L 218.518172 93.253955 
L 218.649438 93.124588 
L 218.892352 92.814106 
L 219.078155 92.632992 
L 219.78103 91.28757 
L 219.9737 90.925341 
L 220.098807 90.744226 
L 220.212952 90.588985 
L 220.511463 90.200883 
L 220.658846 89.993895 
L 220.739819 89.838654 
L 220.865413 89.683413 
L 221.935331 88.131003 
L 221.994751 87.975762 
L 222.254061 87.768774 
L 222.366313 87.58766 
L 222.497665 87.406545 
L 222.713514 87.14781 
L 223.007784 86.914949 
L 223.517592 86.11287 
L 223.713438 85.854136 
L 224.738717 84.353473 
L 224.865926 84.224105 
L 224.974387 84.017117 
L 225.091608 83.810129 
L 225.222546 83.551394 
L 225.491374 83.085671 
L 225.678774 82.826936 
L 225.885077 82.490581 
L 226.031353 82.257719 
L 226.192664 82.050732 
L 226.258686 81.973111 
L 226.462875 81.791997 
L 226.924257 81.015792 
L 227.05385 80.757057 
L 227.159396 80.627689 
L 227.466554 80.18784 
L 227.548241 79.954978 
L 227.659779 79.773864 
L 227.752367 79.592749 
L 227.980186 79.256394 
L 228.278885 78.842418 
L 228.444373 78.506063 
L 228.757801 77.962719 
L 228.862811 77.807478 
L 229.037394 77.626364 
L 232.907429 73.072628 
L 233.296487 72.451664 
L 233.438736 72.322297 
L 234.003423 71.597839 
L 234.997343 70.692267 
L 235.242261 70.537026 
L 235.515933 70.148923 
L 235.64407 69.916062 
L 236.104287 69.450339 
L 236.166484 69.217477 
L 236.401717 69.062236 
L 237.555955 67.432206 
L 237.938796 66.837116 
L 238.217415 66.449013 
L 238.383475 66.216152 
L 238.645073 65.879796 
L 239.205889 65.207085 
L 239.387475 65.051844 
L 239.495473 64.896603 
L 240.137515 64.172145 
L 240.295216 63.965158 
L 240.882515 63.421814 
L 241.619583 62.593862 
L 241.82906 62.386874 
L 241.970115 62.179886 
L 242.516907 61.740037 
L 242.694624 61.610669 
L 245.558344 58.428229 
L 245.887403 58.091874 
L 246.206099 57.781392 
L 246.696914 57.263922 
L 246.983625 57.056934 
L 247.298221 56.720579 
L 247.436303 56.591211 
L 247.572147 56.43597 
L 247.662284 56.384223 
L 247.981183 56.177235 
L 248.160839 55.892627 
L 248.321324 55.711512 
L 248.478184 55.478651 
L 248.672921 55.271663 
L 248.919611 54.961181 
L 249.125591 54.80594 
L 249.360709 54.521331 
L 249.667745 54.28847 
L 249.785968 54.210849 
L 250.463116 53.615759 
L 250.663916 53.460518 
L 250.927717 53.227656 
L 251.288725 52.684313 
L 251.390251 52.554946 
L 251.913474 52.270337 
L 252.036736 52.011602 
L 252.261713 51.830488 
L 252.352743 51.649373 
L 253.067264 50.924915 
L 253.116849 50.769674 
L 253.54606 50.614433 
L 253.804235 50.381572 
L 254.144987 50.174584 
L 254.330712 49.993469 
L 254.591502 49.812355 
L 254.718757 49.63124 
L 254.884102 49.450126 
L 255.101147 49.294885 
L 255.199261 49.243138 
L 255.38833 49.113771 
L 255.812421 48.984403 
L 256.42545 48.673921 
L 256.593903 48.492807 
L 257.744927 47.457867 
L 257.834179 47.354373 
L 258.010356 47.173258 
L 259.595352 46.034824 
L 259.856716 45.879584 
L 260.769304 45.129252 
L 260.853733 45.025758 
L 261.273491 44.81877 
L 261.404602 44.663529 
L 261.91413 44.404794 
L 262.104788 44.275427 
L 262.510867 44.068439 
L 262.799525 43.939071 
L 263.339263 43.70621 
L 263.390865 43.602716 
L 263.582397 43.421601 
L 263.737632 43.26636 
L 264.33228 42.955878 
L 264.60925 42.697143 
L 265.148683 42.334914 
L 265.377457 42.179674 
L 265.707956 41.972686 
L 265.992651 41.688077 
L 266.382936 41.506963 
L 266.643097 41.222354 
L 267.709183 40.653137 
L 268.827413 39.902806 
L 269.000563 39.773438 
L 269.039002 39.721691 
L 269.305984 39.56645 
L 269.42915 39.411209 
L 269.802615 39.126601 
L 270.078791 38.997233 
L 270.210031 38.945486 
L 272.713108 37.600065 
L 273.382237 37.108468 
L 274.032842 36.797986 
L 275.782 35.944161 
L 276.599629 35.737173 
L 276.900913 35.530185 
L 277.046417 35.452564 
L 277.719089 35.167956 
L 277.9122 35.064462 
L 278.510902 34.909221 
L 279.073794 34.67636 
L 279.652009 34.443498 
L 279.668812 34.417625 
L 280.260984 34.23651 
L 280.560918 34.029522 
L 280.983474 33.822534 
L 280.984004 33.796661 
L 281.622642 33.563799 
L 281.989331 33.279191 
L 282.252456 33.175697 
L 282.948273 32.968709 
L 283.468829 32.787594 
L 283.608081 32.735847 
L 284.361888 32.425365 
L 284.558602 32.321871 
L 285.372298 32.114883 
L 285.444794 32.063136 
L 286.380689 31.726781 
L 289.014657 30.640094 
L 289.963903 30.484853 
L 290.318466 30.226118 
L 290.909915 29.993257 
L 291.173431 29.863889 
L 291.96909 29.631028 
L 292.184729 29.50166 
L 293.827158 29.191178 
L 293.85366 29.165305 
L 294.557932 28.98419 
L 294.628605 28.932443 
L 300.727826 27.224793 
L 301.027512 27.147172 
L 302.201217 26.888437 
L 304.645548 26.267473 
L 305.886713 26.086359 
L 307.964465 25.775877 
L 309.549501 25.594762 
L 309.632824 25.543015 
L 311.590733 25.361901 
L 312.789309 25.051419 
L 312.95471 24.947925 
L 313.831954 24.76681 
L 313.939007 24.715063 
L 316.103005 24.404581 
L 316.386452 24.275214 
L 317.362745 24.119973 
L 317.628836 24.016479 
L 319.562951 23.809491 
L 319.988256 23.731871 
L 322.344566 23.524883 
L 325.422216 23.13678 
L 325.717419 23.085033 
L 332.821218 22.489943 
L 335.470739 22.308828 
L 335.512257 22.257081 
L 336.822999 22.050093 
L 337.180352 21.998346 
L 339.747365 21.661991 
L 339.837945 21.58437 
L 344.092198 21.429129 
L 347.506656 21.248015 
L 352.920304 20.937533 
L 359.476453 20.756418 
L 359.949477 20.678798 
L 369.756268 20.497683 
L 369.86299 20.47181 
L 374.677566 20.39419 
L 423.069228 20.161328 
L 424.972188 20.135455 
L 424.972188 20.135455 
" clip-path="url(#p14ad46e2ef)" style="fill: none; stroke: #0173b2; stroke-width: 1.5; stroke-linecap: round"/>
   </g>
   <g id="line2d_14">
    <path d="M 80.802193 278.58581 
L 83.970655 278.428626 
L 87.139116 278.201729 
L 90.307578 277.884971 
L 93.47604 277.455702 
L 96.644501 276.889215 
L 99.812963 276.159306 
L 102.981425 275.238951 
L 106.149886 274.101047 
L 109.318348 272.719185 
L 112.486809 271.06843 
L 115.655271 269.12606 
L 118.823733 266.872237 
L 121.992194 264.290595 
L 125.160656 261.368712 
L 128.329118 258.09847 
L 131.497579 254.476277 
L 134.666041 250.503166 
L 137.834503 246.184772 
L 141.002964 241.531189 
L 144.171426 236.556729 
L 147.339888 231.279589 
L 150.508349 225.721448 
L 153.676811 219.907008 
L 156.845273 213.863495 
L 160.013734 207.620142 
L 163.182196 201.207657 
L 166.350658 194.65771 
L 169.519119 188.002423 
L 172.687581 181.273902 
L 175.856043 174.503794 
L 179.024504 167.722899 
L 182.192966 160.960817 
L 185.361428 154.245649 
L 188.529889 147.603754 
L 191.698351 141.059544 
L 194.866813 134.635339 
L 198.035274 128.351262 
L 201.203736 122.22518 
L 204.372198 116.272679 
L 207.540659 110.507081 
L 210.709121 104.939492 
L 213.877583 99.578865 
L 217.046044 94.432103 
L 220.214506 89.504163 
L 223.382968 84.798187 
L 226.551429 80.315635 
L 229.719891 76.056428 
L 232.888353 72.019096 
L 236.056814 68.200923 
L 239.225276 64.598093 
L 242.393738 61.205839 
L 245.562199 58.018569 
L 248.730661 55.03001 
L 251.899123 52.233323 
L 255.067584 49.621223 
L 258.236046 47.186084 
L 261.404508 44.92004 
L 264.572969 42.815071 
L 267.741431 40.863085 
L 270.909893 39.055986 
L 274.078354 37.385741 
L 277.246816 35.844428 
L 280.415277 34.424287 
L 283.583739 33.117759 
L 286.752201 31.917514 
L 289.920662 30.816481 
L 293.089124 29.807864 
L 296.257586 28.885161 
L 299.426047 28.042174 
L 302.594509 27.273012 
L 305.762971 26.572096 
L 308.931432 25.93416 
L 312.099894 25.354244 
L 315.268356 24.827692 
L 318.436817 24.350145 
L 321.605279 23.91753 
L 324.773741 23.52605 
L 327.942202 23.172177 
L 331.110664 22.852634 
L 334.279126 22.564389 
L 337.447587 22.304638 
L 340.616049 22.070798 
L 343.784511 21.860486 
L 346.952972 21.671516 
L 350.121434 21.501879 
L 353.289896 21.349736 
L 356.458357 21.213404 
L 359.626819 21.091349 
L 362.795281 20.982167 
L 365.963742 20.884585 
L 369.132204 20.797441 
L 372.300666 20.719682 
L 375.469127 20.650352 
L 378.637589 20.588586 
L 381.806051 20.533601 
L 384.974512 20.48469 
L 388.142974 20.441213 
L 391.311436 20.402594 
L 394.479897 20.368316 
" clip-path="url(#p14ad46e2ef)" style="fill: none; stroke: #de8f05; stroke-width: 1.5; stroke-linecap: round"/>
   </g>
   <g id="patch_3">
    <path d="M 49.807188 291.78 
L 49.807188 7.2 
" style="fill: none; stroke: #262626; stroke-width: 1.25; stroke-linejoin: miter; stroke-linecap: square"/>
   </g>
   <g id="patch_4">
    <path d="M 442.837187 291.78 
L 442.837187 7.2 
" style="fill: none; stroke: #262626; stroke-width: 1.25; stroke-linejoin: miter; stroke-linecap: square"/>
   </g>
   <g id="patch_5">
    <path d="M 49.807188 291.78 
L 442.837187 291.78 
" style="fill: none; stroke: #262626; stroke-width: 1.25; stroke-linejoin: miter; stroke-linecap: square"/>
   </g>
   <g id="patch_6">
    <path d="M 49.807188 7.2 
L 442.837187 7.2 
" style="fill: none; stroke: #262626; stroke-width: 1.25; stroke-linejoin: miter; stroke-linecap: square"/>
   </g>
   <g id="legend_1">
    <g id="patch_7">
     <path d="M 348.809531 167.285937 
L 435.137187 167.285937 
Q 437.337187 167.285937 437.337187 165.085937 
L 437.337187 133.894062 
Q 437.337187 131.694062 435.137187 131.694062 
L 348.809531 131.694062 
Q 346.609531 131.694062 346.609531 133.894062 
L 346.609531 165.085937 
Q 346.609531 167.285937 348.809531 167.285937 
z
" style="fill: #ffffff; opacity: 0.8; stroke: #cccccc; stroke-linejoin: miter"/>
    </g>
    <g id="line2d_15">
     <path d="M 351.009531 140.602344 
L 362.009531 140.602344 
L 373.009531 140.602344 
" style="fill: none; stroke: #0173b2; stroke-width: 1.5; stroke-linecap: round"/>
    </g>
    <g id="text_15">
     <!-- Empirical -->
     <g style="fill: #262626" transform="translate(381.809531 144.452344) scale(0.11 -0.11)">
      <defs>
       <path id="DejaVuSans-45" d="M 628 4666 
L 3578 4666 
L 3578 4134 
L 1259 4134 
L 1259 2753 
L 3481 2753 
L 3481 2222 
L 1259 2222 
L 1259 531 
L 3634 531 
L 3634 0 
L 628 0 
L 628 4666 
z
" transform="scale(0.015625)"/>
       <path id="DejaVuSans-72" d="M 2631 2963 
Q 2534 3019 2420 3045 
Q 2306 3072 2169 3072 
Q 1681 3072 1420 2755 
Q 1159 2438 1159 1844 
L 1159 0 
L 581 0 
L 581 3500 
L 1159 3500 
L 1159 2956 
Q 1341 3275 1631 3429 
Q 1922 3584 2338 3584 
Q 2397 3584 2469 3576 
Q 2541 3569 2628 3553 
L 2631 2963 
z
" transform="scale(0.015625)"/>
      </defs>
      <use xlink:href="#DejaVuSans-45"/>
      <use xlink:href="#DejaVuSans-6d" transform="translate(63.183594 0)"/>
      <use xlink:href="#DejaVuSans-70" transform="translate(160.595703 0)"/>
      <use xlink:href="#DejaVuSans-69" transform="translate(224.072266 0)"/>
      <use xlink:href="#DejaVuSans-72" transform="translate(251.855469 0)"/>
      <use xlink:href="#DejaVuSans-69" transform="translate(292.96875 0)"/>
      <use xlink:href="#DejaVuSans-63" transform="translate(320.751953 0)"/>
      <use xlink:href="#DejaVuSans-61" transform="translate(375.732422 0)"/>
      <use xlink:href="#DejaVuSans-6c" transform="translate(437.011719 0)"/>
     </g>
    </g>
    <g id="line2d_16">
     <path d="M 351.009531 156.748281 
L 362.009531 156.748281 
L 373.009531 156.748281 
" style="fill: none; stroke: #de8f05; stroke-width: 1.5; stroke-linecap: round"/>
    </g>
    <g id="text_16">
     <!-- Model -->
     <g style="fill: #262626" transform="translate(381.809531 160.598281) scale(0.11 -0.11)">
      <defs>
       <path id="DejaVuSans-4d" d="M 628 4666 
L 1569 4666 
L 2759 1491 
L 3956 4666 
L 4897 4666 
L 4897 0 
L 4281 0 
L 4281 4097 
L 3078 897 
L 2444 897 
L 1241 4097 
L 1241 0 
L 628 0 
L 628 4666 
z
" transform="scale(0.015625)"/>
      </defs>
      <use xlink:href="#DejaVuSans-4d"/>
      <use xlink:href="#DejaVuSans-6f" transform="translate(86.279297 0)"/>
      <use xlink:href="#DejaVuSans-64" transform="translate(147.460938 0)"/>
      <use xlink:href="#DejaVuSans-65" transform="translate(210.9375 0)"/>
      <use xlink:href="#DejaVuSans-6c" transform="translate(272.460938 0)"/>
     </g>
    </g>
   </g>
   <g id="text_17">
    <!-- KS D = 0.0062 -->
    <g style="fill: #262626" transform="translate(365.425354 272.816211) scale(0.09996 -0.09996)">
     <defs>
      <path id="DejaVuSans-4b" d="M 628 4666 
L 1259 4666 
L 1259 2694 
L 3353 4666 
L 4166 4666 
L 1850 2491 
L 4331 0 
L 3500 0 
L 1259 2247 
L 1259 0 
L 628 0 
L 628 4666 
z
" transform="scale(0.015625)"/>
      <path id="DejaVuSans-53" d="M 3425 4513 
L 3425 3897 
Q 3066 4069 2747 4153 
Q 2428 4238 2131 4238 
Q 1616 4238 1336 4038 
Q 1056 3838 1056 3469 
Q 1056 3159 1242 3001 
Q 1428 2844 1947 2747 
L 2328 2669 
Q 3034 2534 3370 2195 
Q 3706 1856 3706 1288 
Q 3706 609 3251 259 
Q 2797 -91 1919 -91 
Q 1588 -91 1214 -16 
Q 841 59 441 206 
L 441 856 
Q 825 641 1194 531 
Q 1563 422 1919 422 
Q 2459 422 2753 634 
Q 3047 847 3047 1241 
Q 3047 1584 2836 1778 
Q 2625 1972 2144 2069 
L 1759 2144 
Q 1053 2284 737 2584 
Q 422 2884 422 3419 
Q 422 4038 858 4394 
Q 1294 4750 2059 4750 
Q 2388 4750 2728 4690 
Q 3069 4631 3425 4513 
z
" transform="scale(0.015625)"/>
      <path id="DejaVuSans-44" d="M 1259 4147 
L 1259 519 
L 2022 519 
Q 2988 519 3436 956 
Q 3884 1394 3884 2338 
Q 3884 3275 3436 3711 
Q 2988 4147 2022 4147 
L 1259 4147 
z
M 628 4666 
L 1925 4666 
Q 3281 4666 3915 4102 
Q 4550 3538 4550 2338 
Q 4550 1131 3912 565 
Q 3275 0 1925 0 
L 628 0 
L 628 4666 
z
" transform="scale(0.015625)"/>
      <path id="DejaVuSans-3d" d="M 678 2906 
L 4684 2906 
L 4684 2381 
L 678 2381 
L 678 2906 
z
M 678 1631 
L 4684 1631 
L 4684 1100 
L 678 1100 
L 678 1631 
z
" transform="scale(0.015625)"/>
     </defs>
     <use xlink:href="#DejaVuSans-4b"/>
     <use xlink:href="#DejaVuSans-53" transform="translate(65.576172 0)"/>
     <use xlink:href="#DejaVuSans-20" transform="translate(129.052734 0)"/>
     <use xlink:href="#DejaVuSans-44" transform="translate(160.839844 0)"/>
     <use xlink:href="#DejaVuSans-20" transform="translate(237.841797 0)"/>
     <use xlink:href="#DejaVuSans-3d" transform="translate(269.628906 0)"/>
     <use xlink:href="#DejaVuSans-20" transform="translate(353.417969 0)"/>
     <use xlink:href="#DejaVuSans-30" transform="translate(385.205078 0)"/>
     <use xlink:href="#DejaVuSans-2e" transform="translate(448.828125 0)"/>
     <use xlink:href="#DejaVuSans-30" transform="translate(480.615234 0)"/>
     <use xlink:href="#DejaVuSans-30" transform="translate(544.238281 0)"/>
     <use xlink:href="#DejaVuSans-36" transform="translate(607.861328 0)"/>
     <use xlink:href="#DejaVuSans-32" transform="translate(671.484375 0)"/>
    </g>
    <!-- p = 0.83 -->
    <g style="fill: #262626" transform="translate(395.574227 284.009544) scale(0.09996 -0.09996)">
     <defs>
      <path id="DejaVuSans-33" d="M 2597 2516 
Q 3050 2419 3304 2112 
Q 3559 1806 3559 1356 
Q 3559 666 3084 287 
Q 2609 -91 1734 -91 
Q 1441 -91 1130 -33 
Q 819 25 488 141 
L 488 750 
Q 750 597 1062 519 
Q 1375 441 1716 441 
Q 2309 441 2620 675 
Q 2931 909 2931 1356 
Q 2931 1769 2642 2001 
Q 2353 2234 1838 2234 
L 1294 2234 
L 1294 2753 
L 1863 2753 
Q 2328 2753 2575 2939 
Q 2822 3125 2822 3475 
Q 2822 3834 2567 4026 
Q 2313 4219 1838 4219 
Q 1578 4219 1281 4162 
Q 984 4106 628 3988 
L 628 4550 
Q 988 4650 1302 4700 
Q 1616 4750 1894 4750 
Q 2613 4750 3031 4423 
Q 3450 4097 3450 3541 
Q 3450 3153 3228 2886 
Q 3006 2619 2597 2516 
z
" transform="scale(0.015625)"/>
     </defs>
     <use xlink:href="#DejaVuSans-70"/>
     <use xlink:href="#DejaVuSans-20" transform="translate(63.476562 0)"/>
     <use xlink:href="#DejaVuSans-3d" transform="translate(95.263672 0)"/>
     <use xlink:href="#DejaVuSans-20" transform="translate(179.052734 0)"/>
     <use xlink:href="#DejaVuSans-30" transform="translate(210.839844 0)"/>
     <use xlink:href="#DejaVuSans-2e" transform="translate(274.462891 0)"/>
     <use xlink:href="#DejaVuSans-38" transform="translate(306.25 0)"/>
     <use xlink:href="#DejaVuSans-33" transform="translate(369.873047 0)"/>
    </g>
   </g>
  </g>
 </g>
 <defs>
  <clipPath id="p14ad46e2ef">
   <rect x="49.807188" y="7.2" width="393.03" height="284.58"/>
  </clipPath>
 </defs>
</svg>
